<svg width="15" height="18" viewBox="0 0 15 18" fill="none" xmlns="http://www.w3.org/2000/svg">
<path d="M3.80323 14.8076C3.52754 14.8076 3.29644 14.7144 3.10994 14.5279C2.92344 14.3414 2.83019 14.1103 2.83019 13.8346C2.83019 13.5589 2.92344 13.3278 3.10994 13.1413C3.29644 12.9548 3.52754 12.8615 3.80323 12.8615C4.07893 12.8615 4.31003 12.9548 4.49653 13.1413C4.68303 13.3278 4.77628 13.5589 4.77628 13.8346C4.77628 14.1103 4.68303 14.3414 4.49653 14.5279C4.31003 14.7144 4.07893 14.8076 3.80323 14.8076ZM7.69542 14.8076C7.41972 14.8076 7.18862 14.7144 7.00212 14.5279C6.81562 14.3414 6.72237 14.1103 6.72237 13.8346C6.72237 13.5589 6.81562 13.3278 7.00212 13.1413C7.18862 12.9548 7.41972 12.8615 7.69542 12.8615C7.97111 12.8615 8.20221 12.9548 8.38871 13.1413C8.57521 13.3278 8.66846 13.5589 8.66846 13.8346C8.66846 14.1103 8.57521 14.3414 8.38871 14.5279C8.20221 14.7144 7.97111 14.8076 7.69542 14.8076ZM11.5876 14.8076C11.3119 14.8076 11.0808 14.7144 10.8943 14.5279C10.7078 14.3414 10.6146 14.1103 10.6146 13.8346C10.6146 13.5589 10.7078 13.3278 10.8943 13.1413C11.0808 12.9548 11.3119 12.8615 11.5876 12.8615C11.8633 12.8615 12.0944 12.9548 12.2809 13.1413C12.4674 13.3278 12.5606 13.5589 12.5606 13.8346C12.5606 14.1103 12.4674 14.3414 12.2809 14.5279C12.0944 14.7144 11.8633 14.8076 11.5876 14.8076ZM0.884094 10.9154V8.96933C0.884094 7.25028 1.43549 5.75828 2.53827 4.49332C3.64106 3.22836 5.03576 2.48235 6.72237 2.25531V0.211914H8.66846V2.25531C10.3551 2.48235 11.7498 3.22836 12.8526 4.49332C13.9553 5.75828 14.5067 7.25028 14.5067 8.96933V10.9154H0.884094ZM2.83019 8.96933H12.5606C12.5606 7.62328 12.0863 6.4759 11.1376 5.52718C10.1888 4.57846 9.04146 4.1041 7.69542 4.1041C6.34937 4.1041 5.20198 4.57846 4.25327 5.52718C3.30455 6.4759 2.83019 7.62328 2.83019 8.96933ZM3.80323 17.7267C3.52754 17.7267 3.29644 17.6335 3.10994 17.447C2.92344 17.2605 2.83019 17.0294 2.83019 16.7537C2.83019 16.478 2.92344 16.2469 3.10994 16.0604C3.29644 15.8739 3.52754 15.7806 3.80323 15.7806C4.07893 15.7806 4.31003 15.8739 4.49653 16.0604C4.68303 16.2469 4.77628 16.478 4.77628 16.7537C4.77628 17.0294 4.68303 17.2605 4.49653 17.447C4.31003 17.6335 4.07893 17.7267 3.80323 17.7267ZM7.69542 17.7267C7.41972 17.7267 7.18862 17.6335 7.00212 17.447C6.81562 17.2605 6.72237 17.0294 6.72237 16.7537C6.72237 16.478 6.81562 16.2469 7.00212 16.0604C7.18862 15.8739 7.41972 15.7806 7.69542 15.7806C7.97111 15.7806 8.20221 15.8739 8.38871 16.0604C8.57521 16.2469 8.66846 16.478 8.66846 16.7537C8.66846 17.0294 8.57521 17.2605 8.38871 17.447C8.20221 17.6335 7.97111 17.7267 7.69542 17.7267ZM11.5876 17.7267C11.3119 17.7267 11.0808 17.6335 10.8943 17.447C10.7078 17.2605 10.6146 17.0294 10.6146 16.7537C10.6146 16.478 10.7078 16.2469 10.8943 16.0604C11.0808 15.8739 11.3119 15.7806 11.5876 15.7806C11.8633 15.7806 12.0944 15.8739 12.2809 16.0604C12.4674 16.2469 12.5606 16.478 12.5606 16.7537C12.5606 17.0294 12.4674 17.2605 12.2809 17.447C12.0944 17.6335 11.8633 17.7267 11.5876 17.7267Z" fill="white"/>
</svg>
