<svg width="24" height="24" viewBox="0 0 24 24" fill="none" xmlns="http://www.w3.org/2000/svg">
<path d="M6.75 5.25C4.275 5.25 2.25 7.275 2.25 9.75C2.25 11.238 2.98275 12.5625 4.10175 13.383C2.124 14.364 0.75 16.398 0.75 18.75H2.25C2.25 16.257 4.257 14.25 6.75 14.25C9.243 14.25 11.25 16.257 11.25 18.75H12.75C12.75 16.257 14.757 14.25 17.25 14.25C19.743 14.25 21.75 16.257 21.75 18.75H23.25C23.25 16.3973 21.876 14.364 19.8983 13.383C20.4709 12.9657 20.937 12.4193 21.2588 11.788C21.5805 11.1568 21.7488 10.4585 21.75 9.75C21.75 7.275 19.725 5.25 17.25 5.25C14.775 5.25 12.75 7.275 12.75 9.75C12.75 11.238 13.4827 12.5625 14.6017 13.383C13.5059 13.9218 12.5989 14.7796 12 15.8438C11.4011 14.7796 10.4941 13.9218 9.39825 13.383C9.97088 12.9657 10.437 12.4193 10.7588 11.788C11.0805 11.1568 11.2488 10.4585 11.25 9.75C11.25 7.275 9.225 5.25 6.75 5.25ZM6.75 6.75C8.41725 6.75 9.75 8.08275 9.75 9.75C9.75 11.4173 8.41725 12.75 6.75 12.75C5.08275 12.75 3.75 11.4173 3.75 9.75C3.75 8.08275 5.08275 6.75 6.75 6.75ZM17.25 6.75C18.9172 6.75 20.25 8.08275 20.25 9.75C20.25 11.4173 18.9172 12.75 17.25 12.75C15.5828 12.75 14.25 11.4173 14.25 9.75C14.25 8.08275 15.5828 6.75 17.25 6.75Z" fill="#888888"/>
</svg>
