<svg width="24" height="24" viewBox="0 0 24 24" fill="none" xmlns="http://www.w3.org/2000/svg">
<path d="M5.35725 3.857C4.95942 3.857 4.57789 4.01504 4.29659 4.29634C4.01528 4.57765 3.85725 4.95918 3.85725 5.357V18.6427C3.85726 19.0034 3.98724 19.352 4.22337 19.6247C4.4595 19.8973 4.78597 20.0758 5.14296 20.1273V13.9284C5.14296 13.4169 5.34615 12.9264 5.70783 12.5647C6.0695 12.203 6.56004 11.9999 7.07153 11.9999H16.9287C17.4402 11.9999 17.9307 12.203 18.2924 12.5647C18.6541 12.9264 18.8572 13.4169 18.8572 13.9284V20.1273C19.2142 20.0758 19.5407 19.8973 19.7768 19.6247C20.013 19.352 20.143 19.0034 20.143 18.6427V7.53072C20.143 7.13215 19.9852 6.75072 19.7032 6.46957L17.5304 4.29672C17.3911 4.1573 17.2257 4.04671 17.0436 3.97126C16.8615 3.89582 16.6663 3.85699 16.4692 3.857H16.2858V7.49986C16.2858 7.75312 16.2359 8.00391 16.139 8.23789C16.0421 8.47188 15.9 8.68448 15.721 8.86357C15.5419 9.04265 15.3293 9.18471 15.0953 9.28163C14.8613 9.37855 14.6105 9.42843 14.3572 9.42843H8.78582C8.27433 9.42843 7.78379 9.22524 7.42211 8.86357C7.06044 8.50189 6.85725 8.01135 6.85725 7.49986V3.857H5.35725ZM8.14296 3.857V7.49986C8.14296 7.85472 8.43096 8.14272 8.78582 8.14272H14.3572C14.5277 8.14272 14.6913 8.07499 14.8118 7.95443C14.9324 7.83387 15.0001 7.67036 15.0001 7.49986V3.857H8.14296ZM17.5715 20.1427V13.9284C17.5715 13.7579 17.5038 13.5944 17.3832 13.4739C17.2627 13.3533 17.0992 13.2856 16.9287 13.2856H7.07153C6.90104 13.2856 6.73752 13.3533 6.61696 13.4739C6.49641 13.5944 6.42868 13.7579 6.42868 13.9284V20.1427H17.5715ZM2.57153 5.357C2.57153 4.61819 2.86503 3.90963 3.38745 3.38721C3.90987 2.86478 4.61843 2.57129 5.35725 2.57129H16.4701C17.2089 2.57133 17.9174 2.86486 18.4398 3.38729L20.6127 5.56015C21.1355 6.083 21.4287 6.79186 21.4287 7.53072V18.6427C21.4287 19.3815 21.1352 20.0901 20.6128 20.6125C20.0903 21.1349 19.3818 21.4284 18.643 21.4284H5.35725C4.61843 21.4284 3.90987 21.1349 3.38745 20.6125C2.86503 20.0901 2.57153 19.3815 2.57153 18.6427V5.357Z" fill="#656565"/>
</svg>
