<svg width="24" height="24" viewBox="0 0 24 24" fill="none" xmlns="http://www.w3.org/2000/svg">
<g clip-path="url(#clip0_1101_198)">
<path d="M13.742 16.2021C13.515 15.5961 14.263 15.1301 14.706 15.5441L14.767 15.6101L17.617 19.0701C17.7367 19.2168 17.8241 19.3871 17.8735 19.5699C17.9229 19.7527 17.9333 19.9438 17.9038 20.1309C17.8744 20.3179 17.8059 20.4966 17.7027 20.6554C17.5995 20.8142 17.4641 20.9494 17.3051 21.0523C17.1462 21.1552 16.9673 21.2234 16.7802 21.2525C16.5931 21.2816 16.402 21.2709 16.2193 21.2212C16.0366 21.1714 15.8665 21.0837 15.72 20.9638C15.5734 20.8438 15.4539 20.6944 15.369 20.5251L15.315 20.3991L13.742 16.2021ZM14.384 12.7161L14.469 12.7421L18.667 14.3151C18.8441 14.3819 19.0052 14.4852 19.1397 14.6184C19.2742 14.7516 19.3791 14.9116 19.4476 15.088C19.5161 15.2645 19.5466 15.4534 19.5372 15.6424C19.5278 15.8314 19.4787 16.0164 19.393 16.1851C19.3074 16.3539 19.1871 16.5028 19.0401 16.6219C18.893 16.7411 18.7225 16.828 18.5397 16.8768C18.3568 16.9257 18.1657 16.9355 17.9788 16.9056C17.7919 16.8756 17.6135 16.8066 17.455 16.7031L17.338 16.6161L13.878 13.7671C13.378 13.3571 13.793 12.5791 14.384 12.7171V12.7161ZM22.5 12.0001C22.5 12.7891 21.83 13.3991 21.06 13.3441L20.931 13.3291L16.51 12.5921C15.878 12.4871 15.843 11.6241 16.404 11.4341L16.51 11.4081L20.931 10.6711C21.1241 10.6388 21.322 10.649 21.5107 10.701C21.6995 10.753 21.8747 10.8456 22.024 10.9722C22.1734 11.0988 22.2933 11.2564 22.3755 11.4341C22.4578 11.6118 22.5002 11.8053 22.5 12.0011V12.0001ZM19.36 7.7501C19.753 8.4301 19.48 9.2911 18.792 9.6301L18.666 9.6851L14.468 11.2581C13.863 11.4851 13.398 10.7371 13.811 10.2941L13.876 10.2331L17.337 7.3831C17.4881 7.25872 17.6645 7.16876 17.8538 7.11946C18.0432 7.07017 18.2411 7.06273 18.4336 7.09766C18.6261 7.13259 18.8088 7.20905 18.9688 7.32173C19.1287 7.4344 19.2623 7.58058 19.36 7.7501ZM17.25 2.9071C17.928 3.2991 18.123 4.1751 17.703 4.8131L17.616 4.9301L14.767 8.3901C14.357 8.8901 13.579 8.4751 13.717 7.8841L13.742 7.7991L15.315 3.6001C15.3836 3.41689 15.4914 3.25082 15.6307 3.11346C15.77 2.97609 15.9375 2.87072 16.1217 2.80467C16.3058 2.73862 16.5022 2.71348 16.697 2.731C16.8919 2.74851 17.0806 2.80827 17.25 2.9061V2.9071ZM9.23302 15.6101C9.64302 15.1101 10.421 15.5251 10.283 16.1161L10.258 16.2011L8.68502 20.4001C8.61826 20.5772 8.51492 20.7383 8.38175 20.8727C8.24857 21.0072 8.08854 21.1122 7.9121 21.1807C7.73566 21.2492 7.54677 21.2797 7.35773 21.2703C7.16869 21.2609 6.98375 21.2118 6.81497 21.1261C6.6462 21.0405 6.49737 20.9202 6.37818 20.7731C6.259 20.6261 6.17215 20.4556 6.12328 20.2728C6.07441 20.0899 6.06462 19.8988 6.09456 19.7119C6.1245 19.525 6.19348 19.3465 6.29702 19.1881L6.38302 19.0711L9.23302 15.6101ZM10.188 13.7061L10.122 13.7671L6.66202 16.6171C6.5153 16.7368 6.34499 16.8242 6.16221 16.8736C5.97944 16.923 5.78829 16.9333 5.60125 16.9039C5.41422 16.8745 5.23548 16.8059 5.07671 16.7028C4.91795 16.5996 4.78271 16.4641 4.67983 16.3052C4.57695 16.1462 4.50874 15.9674 4.47964 15.7803C4.45054 15.5932 4.46121 15.4021 4.51096 15.2194C4.5607 15.0367 4.64841 14.8665 4.76834 14.72C4.88828 14.5735 5.03776 14.4539 5.20702 14.3691L5.33302 14.3151L9.53102 12.7421C10.136 12.5151 10.601 13.2631 10.188 13.7061ZM2.94002 10.6561L3.06902 10.6711L7.49002 11.4081C8.12202 11.5141 8.15702 12.3761 7.59602 12.5661L7.49002 12.5921L3.06902 13.3291C2.88161 13.3601 2.68977 13.351 2.5061 13.3026C2.32242 13.2542 2.15106 13.1675 2.00327 13.0482C1.85547 12.9288 1.73459 12.7796 1.64855 12.6103C1.56251 12.4409 1.51326 12.2553 1.50403 12.0656C1.4948 11.8758 1.52581 11.6863 1.59501 11.5094C1.66421 11.3325 1.77004 11.1722 1.90556 11.0391C2.04107 10.906 2.20321 10.8031 2.38132 10.7371C2.55943 10.6711 2.74949 10.6435 2.93902 10.6561H2.94002ZM6.54502 7.2971L6.66202 7.3841L10.122 10.2331C10.622 10.6431 10.207 11.4211 9.61602 11.2831L9.53102 11.2581L5.33302 9.6851C5.15592 9.61834 4.99487 9.515 4.86038 9.38182C4.72589 9.24865 4.62097 9.08862 4.55247 8.91218C4.48397 8.73574 4.45342 8.54684 4.46282 8.3578C4.47222 8.16877 4.52135 7.98383 4.60701 7.81505C4.69267 7.64627 4.81294 7.49744 4.95997 7.37826C5.10701 7.25908 5.27751 7.17222 5.46037 7.12335C5.64322 7.07448 5.83432 7.0647 6.02121 7.09464C6.2081 7.12457 6.38658 7.19356 6.54502 7.2971ZM8.63102 3.4751L8.68502 3.6011L10.258 7.7991C10.485 8.4051 9.73702 8.8691 9.29402 8.4561L9.23302 8.3911L6.38302 4.9301C6.26335 4.78338 6.17595 4.61307 6.12653 4.43029C6.07711 4.24751 6.06678 4.05637 6.09621 3.86933C6.12564 3.68229 6.19418 3.50356 6.29734 3.34479C6.40051 3.18602 6.53598 3.05079 6.69493 2.94791C6.85389 2.84503 7.03274 2.77681 7.21983 2.74772C7.40692 2.71862 7.59805 2.72929 7.78074 2.77904C7.96343 2.82878 8.13358 2.91648 8.28009 3.03642C8.4266 3.15636 8.54618 3.30583 8.63102 3.4751ZM12 3.5001C11.168 3.5001 10.534 4.2471 10.671 5.0691L11.408 9.4901C11.52 10.1591 12.48 10.1591 12.592 9.4901L13.329 5.0691C13.3613 4.87606 13.3511 4.67832 13.2991 4.48963C13.2472 4.30093 13.1548 4.12582 13.0283 3.97649C12.9018 3.82715 12.7443 3.70717 12.5667 3.6249C12.3891 3.54263 12.1957 3.50004 12 3.5001ZM12.592 14.5101C12.48 13.8411 11.52 13.8411 11.408 14.5101L10.671 18.9311C10.6392 19.1239 10.6497 19.3214 10.7018 19.5098C10.7539 19.6982 10.8464 19.873 10.9729 20.022C11.0993 20.171 11.2567 20.2908 11.4341 20.3729C11.6114 20.455 11.8046 20.4976 12 20.4976C12.1955 20.4976 12.3886 20.455 12.566 20.3729C12.7433 20.2908 12.9007 20.171 13.0272 20.022C13.1536 19.873 13.2461 19.6982 13.2982 19.5098C13.3504 19.3214 13.3609 19.1239 13.329 18.9311L12.592 14.5101Z" fill="white"/>
</g>
<defs>
<clipPath id="clip0_1101_198">
<rect width="24" height="24" fill="white"/>
</clipPath>
</defs>
</svg>
