<svg width="100" height="133" viewBox="0 0 100 133" fill="none" xmlns="http://www.w3.org/2000/svg">
<path d="M100 49.875C100 72.5785 69.5312 112.998 56.1719 129.675C52.9687 133.649 47.0312 133.649 43.8281 129.675C30.4687 112.998 0 72.5785 0 49.875C0 22.3398 22.3958 0 50 0C77.6042 0 100 22.3398 100 49.875Z" fill="#2C4088"/>
<path d="M14.6839 67V61.8295L30.68 45.2564C32.3881 43.456 33.7962 41.8787 34.9041 40.5245C36.0275 39.1549 36.8661 37.8546 37.4201 36.6236C37.9741 35.3925 38.2511 34.0845 38.2511 32.6996C38.2511 31.13 37.8817 29.7758 37.1431 28.6371C36.4045 27.483 35.3965 26.5981 34.1193 25.9826C32.8421 25.3517 31.4033 25.0362 29.8029 25.0362C28.1102 25.0362 26.6329 25.3825 25.3711 26.0749C24.1093 26.7674 23.1398 27.7446 22.4627 29.0064C21.7856 30.2682 21.4471 31.7455 21.4471 33.4382H14.6378C14.6378 30.5606 15.2995 28.0446 16.6229 25.8903C17.9463 23.7359 19.7621 22.0663 22.0703 20.8814C24.3786 19.6811 27.0022 19.081 29.9414 19.081C32.9113 19.081 35.5273 19.6734 37.7894 20.8583C40.0669 22.0278 41.8442 23.6282 43.1214 25.6594C44.3987 27.6753 45.0373 29.9528 45.0373 32.4918C45.0373 34.2461 44.7064 35.9619 44.0447 37.6392C43.3984 39.3165 42.2674 41.1862 40.6516 43.2482C39.0359 45.2949 36.7892 47.7801 33.9116 50.7038L24.517 60.5369V60.8832H45.799V67H14.6839ZM54.5472 67V61.8295L70.5433 45.2564C72.2514 43.456 73.6594 41.8787 74.7674 40.5245C75.8907 39.1549 76.7294 37.8546 77.2834 36.6236C77.8374 35.3925 78.1143 34.0845 78.1143 32.6996C78.1143 31.13 77.745 29.7758 77.0064 28.6371C76.2678 27.483 75.2598 26.5981 73.9826 25.9826C72.7054 25.3517 71.2666 25.0362 69.6662 25.0362C67.9735 25.0362 66.4962 25.3825 65.2344 26.0749C63.9725 26.7674 63.0031 27.7446 62.326 29.0064C61.6489 30.2682 61.3104 31.7455 61.3104 33.4382H54.5011C54.5011 30.5606 55.1628 28.0446 56.4862 25.8903C57.8095 23.7359 59.6254 22.0663 61.9336 20.8814C64.2418 19.6811 66.8655 19.081 69.8047 19.081C72.7746 19.081 75.3906 19.6734 77.6527 20.8583C79.9302 22.0278 81.7075 23.6282 82.9847 25.6594C84.262 27.6753 84.9006 29.9528 84.9006 32.4918C84.9006 34.2461 84.5697 35.9619 83.908 37.6392C83.2617 39.3165 82.1307 41.1862 80.5149 43.2482C78.8991 45.2949 76.6525 47.7801 73.7749 50.7038L64.3803 60.5369V60.8832H85.6623V67H54.5472Z" fill="white"/>
<path d="M33.1416 85.56H48.4016V87.68H33.1416V85.56ZM32.4216 97.78H49.2016V99.92H32.4216V97.78ZM39.4416 95.32H42.1016V98.62H39.4416V95.32ZM40.7616 88.46C42.0416 88.46 43.1482 88.6067 44.0816 88.9C45.0282 89.18 45.7549 89.5933 46.2616 90.14C46.7682 90.6733 47.0216 91.32 47.0216 92.08C47.0216 92.84 46.7682 93.4933 46.2616 94.04C45.7549 94.5733 45.0282 94.9867 44.0816 95.28C43.1482 95.56 42.0349 95.7 40.7416 95.7C39.4616 95.7 38.3482 95.56 37.4016 95.28C36.4682 94.9867 35.7482 94.5733 35.2416 94.04C34.7349 93.4933 34.4816 92.84 34.4816 92.08C34.4816 91.32 34.7349 90.6733 35.2416 90.14C35.7482 89.5933 36.4682 89.18 37.4016 88.9C38.3482 88.6067 39.4682 88.46 40.7616 88.46ZM40.7416 90.52C39.9816 90.52 39.3349 90.58 38.8016 90.7C38.2682 90.8067 37.8616 90.9733 37.5816 91.2C37.3149 91.4267 37.1816 91.72 37.1816 92.08C37.1816 92.4267 37.3149 92.72 37.5816 92.96C37.8616 93.1867 38.2682 93.3533 38.8016 93.46C39.3349 93.5667 39.9816 93.62 40.7416 93.62C41.5282 93.62 42.1816 93.5667 42.7016 93.46C43.2216 93.3533 43.6149 93.1867 43.8816 92.96C44.1616 92.72 44.3016 92.4267 44.3016 92.08C44.3016 91.72 44.1616 91.4267 43.8816 91.2C43.6149 90.9733 43.2216 90.8067 42.7016 90.7C42.1816 90.58 41.5282 90.52 40.7416 90.52ZM39.4416 83.44H42.1016V86.88H39.4416V83.44ZM51.64 84.6H59.56V86.72H51.64V84.6ZM53.92 88.92H56.54V93.54H53.92V88.92ZM58.52 84.6H61.14V85.76C61.14 86.4133 61.12 87.1933 61.08 88.1C61.0533 88.9933 60.9267 90.0267 60.7 91.2L58.12 90.9C58.32 89.7667 58.4333 88.7867 58.46 87.96C58.5 87.1333 58.52 86.4 58.52 85.76V84.6ZM62.92 83.24H65.6V97.1H62.92V83.24ZM64.54 88.9H67.82V91.08H64.54V88.9ZM53.24 99.32H66.2V101.46H53.24V99.32ZM53.24 95.88H55.92V99.98H53.24V95.88ZM50.78 94.64L50.54 92.52C51.6067 92.52 52.7867 92.5133 54.08 92.5C55.3733 92.4733 56.6933 92.42 58.04 92.34C59.3867 92.2467 60.68 92.1133 61.92 91.94L62.1 93.84C60.82 94.0667 59.5133 94.24 58.18 94.36C56.8467 94.4667 55.5467 94.54 54.28 94.58C53.0133 94.6067 51.8467 94.6267 50.78 94.64Z" fill="white"/>
</svg>
