<svg width="100" height="133" viewBox="0 0 100 133" fill="none" xmlns="http://www.w3.org/2000/svg">
<path d="M100 49.875C100 72.5785 69.5312 112.998 56.1719 129.675C52.9687 133.649 47.0312 133.649 43.8281 129.675C30.4687 112.998 0 72.5785 0 49.875C0 22.3398 22.3958 0 50 0C77.6042 0 100 22.3398 100 49.875Z" fill="#2C4088"/>
<path d="M50.0577 67.6463C46.8877 67.6463 44.0563 67.1 41.5634 66.0075C39.0859 64.9149 37.1239 63.3991 35.6774 61.4602C34.2463 59.5059 33.4769 57.2438 33.3691 54.674H40.617C40.7093 56.0743 41.1787 57.29 42.025 58.321C42.8868 59.3366 44.0101 60.1214 45.3951 60.6754C46.78 61.2294 48.3188 61.5064 50.0115 61.5064C51.8735 61.5064 53.5201 61.1832 54.9512 60.5369C56.3977 59.8906 57.5287 58.9904 58.3443 57.8363C59.1599 56.6668 59.5677 55.3203 59.5677 53.7969C59.5677 52.2119 59.1599 50.8192 58.3443 49.619C57.5441 48.4033 56.3669 47.4492 54.8127 46.7567C53.2739 46.0643 51.4119 45.718 49.2267 45.718H45.2335V39.9013H49.2267C50.981 39.9013 52.5198 39.5858 53.8432 38.9549C55.182 38.324 56.2284 37.4469 56.9824 36.3235C57.7364 35.1848 58.1135 33.8537 58.1135 32.3303C58.1135 30.8684 57.7826 29.5988 57.1209 28.5217C56.4746 27.4291 55.5513 26.575 54.351 25.9595C53.1661 25.344 51.7658 25.0362 50.15 25.0362C48.6112 25.0362 47.1724 25.3209 45.8336 25.8903C44.5102 26.4442 43.4331 27.2444 42.6021 28.2908C41.7711 29.3218 41.3249 30.5606 41.2633 32.0071H34.3617C34.4386 29.4527 35.1926 27.206 36.6238 25.267C38.0703 23.3281 39.9784 21.8124 42.3482 20.7198C44.718 19.6272 47.3494 19.081 50.2424 19.081C53.2739 19.081 55.8899 19.6734 58.0904 20.8583C60.3063 22.0278 62.0144 23.5897 63.2147 25.544C64.4303 27.4983 65.0305 29.6373 65.0151 31.9609C65.0305 34.6077 64.2918 36.8544 62.7992 38.701C61.3219 40.5476 59.3522 41.7863 56.8901 42.4173V42.7866C60.0293 43.2636 62.4606 44.5101 64.1841 46.5259C65.923 48.5418 66.7847 51.0424 66.7694 54.0277C66.7847 56.6283 66.0615 58.9596 64.5996 61.0217C63.1531 63.0837 61.1757 64.7071 58.6674 65.892C56.1592 67.0616 53.2892 67.6463 50.0577 67.6463Z" fill="white"/>
<path d="M33.1416 85.56H48.4016V87.68H33.1416V85.56ZM32.4216 97.78H49.2016V99.92H32.4216V97.78ZM39.4416 95.32H42.1016V98.62H39.4416V95.32ZM40.7616 88.46C42.0416 88.46 43.1482 88.6067 44.0816 88.9C45.0282 89.18 45.7549 89.5933 46.2616 90.14C46.7682 90.6733 47.0216 91.32 47.0216 92.08C47.0216 92.84 46.7682 93.4933 46.2616 94.04C45.7549 94.5733 45.0282 94.9867 44.0816 95.28C43.1482 95.56 42.0349 95.7 40.7416 95.7C39.4616 95.7 38.3482 95.56 37.4016 95.28C36.4682 94.9867 35.7482 94.5733 35.2416 94.04C34.7349 93.4933 34.4816 92.84 34.4816 92.08C34.4816 91.32 34.7349 90.6733 35.2416 90.14C35.7482 89.5933 36.4682 89.18 37.4016 88.9C38.3482 88.6067 39.4682 88.46 40.7616 88.46ZM40.7416 90.52C39.9816 90.52 39.3349 90.58 38.8016 90.7C38.2682 90.8067 37.8616 90.9733 37.5816 91.2C37.3149 91.4267 37.1816 91.72 37.1816 92.08C37.1816 92.4267 37.3149 92.72 37.5816 92.96C37.8616 93.1867 38.2682 93.3533 38.8016 93.46C39.3349 93.5667 39.9816 93.62 40.7416 93.62C41.5282 93.62 42.1816 93.5667 42.7016 93.46C43.2216 93.3533 43.6149 93.1867 43.8816 92.96C44.1616 92.72 44.3016 92.4267 44.3016 92.08C44.3016 91.72 44.1616 91.4267 43.8816 91.2C43.6149 90.9733 43.2216 90.8067 42.7016 90.7C42.1816 90.58 41.5282 90.52 40.7416 90.52ZM39.4416 83.44H42.1016V86.88H39.4416V83.44ZM51.64 84.6H59.56V86.72H51.64V84.6ZM53.92 88.92H56.54V93.54H53.92V88.92ZM58.52 84.6H61.14V85.76C61.14 86.4133 61.12 87.1933 61.08 88.1C61.0533 88.9933 60.9267 90.0267 60.7 91.2L58.12 90.9C58.32 89.7667 58.4333 88.7867 58.46 87.96C58.5 87.1333 58.52 86.4 58.52 85.76V84.6ZM62.92 83.24H65.6V97.1H62.92V83.24ZM64.54 88.9H67.82V91.08H64.54V88.9ZM53.24 99.32H66.2V101.46H53.24V99.32ZM53.24 95.88H55.92V99.98H53.24V95.88ZM50.78 94.64L50.54 92.52C51.6067 92.52 52.7867 92.5133 54.08 92.5C55.3733 92.4733 56.6933 92.42 58.04 92.34C59.3867 92.2467 60.68 92.1133 61.92 91.94L62.1 93.84C60.82 94.0667 59.5133 94.24 58.18 94.36C56.8467 94.4667 55.5467 94.54 54.28 94.58C53.0133 94.6067 51.8467 94.6267 50.78 94.64Z" fill="white"/>
</svg>
