<svg width="100" height="133" viewBox="0 0 100 133" fill="none" xmlns="http://www.w3.org/2000/svg">
<path d="M100 49.875C100 72.5785 69.5312 112.998 56.1719 129.675C52.9687 133.649 47.0312 133.649 43.8281 129.675C30.4687 112.998 0 72.5785 0 49.875C0 22.3398 22.3958 0 50 0C77.6042 0 100 22.3398 100 49.875Z" fill="#2C4088"/>
<path d="M50.3895 67.6463C48.2813 67.6155 46.2039 67.2308 44.1573 66.4922C42.126 65.7536 40.2794 64.5225 38.6175 62.799C36.9556 61.0755 35.6245 58.7596 34.6242 55.8512C33.6394 52.9428 33.147 49.3112 33.147 44.9563C33.147 40.8323 33.5548 37.1699 34.3703 33.9691C35.2013 30.7683 36.3939 28.0677 37.9481 25.8672C39.5023 23.6513 41.3797 21.9663 43.5802 20.8121C45.7807 19.658 48.2505 19.081 50.9897 19.081C53.8057 19.081 56.3063 19.6349 58.4914 20.7429C60.6766 21.8509 62.4462 23.382 63.8004 25.3363C65.1699 27.2906 66.0394 29.5142 66.4087 32.0071H59.3686C58.8915 30.0374 57.9452 28.4293 56.5294 27.1829C55.1137 25.9364 53.2671 25.3132 50.9897 25.3132C47.5273 25.3132 44.8267 26.8213 42.8877 29.8374C40.9642 32.8535 39.9947 37.0468 39.9794 42.4173H40.3256C41.1412 41.0785 42.1414 39.9397 43.3263 39.0011C44.5266 38.047 45.8654 37.316 47.3426 36.8082C48.8353 36.285 50.4049 36.0234 52.0514 36.0234C54.7906 36.0234 57.2681 36.6928 59.484 38.0316C61.7153 39.355 63.4926 41.1862 64.816 43.5252C66.1394 45.8642 66.8011 48.5418 66.8011 51.5579C66.8011 54.574 66.1163 57.3054 64.7468 59.7521C63.3926 62.1989 61.4844 64.1378 59.0223 65.5689C56.5602 66.9846 53.6826 67.6771 50.3895 67.6463ZM50.3664 61.6449C52.1822 61.6449 53.8057 61.1986 55.2368 60.3061C56.6679 59.4136 57.799 58.2133 58.6299 56.7053C59.4609 55.1972 59.8764 53.5122 59.8764 51.6502C59.8764 49.8344 59.4686 48.1802 58.653 46.6875C57.8528 45.1948 56.7449 44.0099 55.3291 43.1328C53.9288 42.2557 52.3284 41.8171 50.528 41.8171C49.1585 41.8171 47.8889 42.0787 46.7194 42.6019C45.5653 43.1251 44.5497 43.8484 43.6725 44.7717C42.7954 45.695 42.1029 46.7567 41.5951 47.957C41.1027 49.1419 40.8565 50.3961 40.8565 51.7195C40.8565 53.4891 41.2643 55.128 42.0799 56.636C42.9108 58.1441 44.0419 59.3597 45.473 60.283C46.9195 61.1909 48.5506 61.6449 50.3664 61.6449Z" fill="white"/>
<path d="M33.1416 85.56H48.4016V87.68H33.1416V85.56ZM32.4216 97.78H49.2016V99.92H32.4216V97.78ZM39.4416 95.32H42.1016V98.62H39.4416V95.32ZM40.7616 88.46C42.0416 88.46 43.1482 88.6067 44.0816 88.9C45.0282 89.18 45.7549 89.5933 46.2616 90.14C46.7682 90.6733 47.0216 91.32 47.0216 92.08C47.0216 92.84 46.7682 93.4933 46.2616 94.04C45.7549 94.5733 45.0282 94.9867 44.0816 95.28C43.1482 95.56 42.0349 95.7 40.7416 95.7C39.4616 95.7 38.3482 95.56 37.4016 95.28C36.4682 94.9867 35.7482 94.5733 35.2416 94.04C34.7349 93.4933 34.4816 92.84 34.4816 92.08C34.4816 91.32 34.7349 90.6733 35.2416 90.14C35.7482 89.5933 36.4682 89.18 37.4016 88.9C38.3482 88.6067 39.4682 88.46 40.7616 88.46ZM40.7416 90.52C39.9816 90.52 39.3349 90.58 38.8016 90.7C38.2682 90.8067 37.8616 90.9733 37.5816 91.2C37.3149 91.4267 37.1816 91.72 37.1816 92.08C37.1816 92.4267 37.3149 92.72 37.5816 92.96C37.8616 93.1867 38.2682 93.3533 38.8016 93.46C39.3349 93.5667 39.9816 93.62 40.7416 93.62C41.5282 93.62 42.1816 93.5667 42.7016 93.46C43.2216 93.3533 43.6149 93.1867 43.8816 92.96C44.1616 92.72 44.3016 92.4267 44.3016 92.08C44.3016 91.72 44.1616 91.4267 43.8816 91.2C43.6149 90.9733 43.2216 90.8067 42.7016 90.7C42.1816 90.58 41.5282 90.52 40.7416 90.52ZM39.4416 83.44H42.1016V86.88H39.4416V83.44ZM51.64 84.6H59.56V86.72H51.64V84.6ZM53.92 88.92H56.54V93.54H53.92V88.92ZM58.52 84.6H61.14V85.76C61.14 86.4133 61.12 87.1933 61.08 88.1C61.0533 88.9933 60.9267 90.0267 60.7 91.2L58.12 90.9C58.32 89.7667 58.4333 88.7867 58.46 87.96C58.5 87.1333 58.52 86.4 58.52 85.76V84.6ZM62.92 83.24H65.6V97.1H62.92V83.24ZM64.54 88.9H67.82V91.08H64.54V88.9ZM53.24 99.32H66.2V101.46H53.24V99.32ZM53.24 95.88H55.92V99.98H53.24V95.88ZM50.78 94.64L50.54 92.52C51.6067 92.52 52.7867 92.5133 54.08 92.5C55.3733 92.4733 56.6933 92.42 58.04 92.34C59.3867 92.2467 60.68 92.1133 61.92 91.94L62.1 93.84C60.82 94.0667 59.5133 94.24 58.18 94.36C56.8467 94.4667 55.5467 94.54 54.28 94.58C53.0133 94.6067 51.8467 94.6267 50.78 94.64Z" fill="white"/>
</svg>
