<svg width="100" height="133" viewBox="0 0 100 133" fill="none" xmlns="http://www.w3.org/2000/svg">
    <path d="M100 49.875C100 72.5785 69.5312 112.998 56.1719 129.675C52.9687 133.649 47.0312 133.649 43.8281 129.675C30.4687 112.998 0 72.5785 0 49.875C0 22.3398 22.3958 0 50 0C77.6042 0 100 22.3398 100 49.875Z"
          fill="#2C4088"/>
    <path d="M13.954 67V61.8295L29.9501 45.2564C31.6582 43.456 33.0662 41.8787 34.1741 40.5245C35.2975 39.1549 36.1361 37.8546 36.6901 36.6236C37.2441 35.3925 37.5211 34.0845 37.5211 32.6996C37.5211 31.13 37.1518 29.7758 36.4131 28.6371C35.6745 27.483 34.6666 26.5981 33.3893 25.9826C32.1121 25.3517 30.6733 25.0362 29.0729 25.0362C27.3802 25.0362 25.903 25.3825 24.6411 26.0749C23.3793 26.7674 22.4098 27.7446 21.7327 29.0064C21.0556 30.2682 20.7171 31.7455 20.7171 33.4382H13.9078C13.9078 30.5606 14.5695 28.0446 15.8929 25.8903C17.2163 23.7359 19.0321 22.0663 21.3403 20.8814C23.6486 19.6811 26.2723 19.081 29.2114 19.081C32.1814 19.081 34.7974 19.6734 37.0594 20.8583C39.3369 22.0278 41.1142 23.6282 42.3915 25.6594C43.6687 27.6753 44.3073 29.9528 44.3073 32.4918C44.3073 34.2461 43.9765 35.9619 43.3148 37.6392C42.6685 39.3165 41.5374 41.1862 39.9217 43.2482C38.3059 45.2949 36.0592 47.7801 33.1816 50.7038L23.7871 60.5369V60.8832H45.069V67H13.954ZM70.3212 67.6463C68.213 67.6155 66.1355 67.2308 64.0889 66.4922C62.0577 65.7536 60.2111 64.5225 58.5491 62.799C56.8872 61.0755 55.5561 58.7596 54.5559 55.8512C53.571 52.9428 53.0786 49.3112 53.0786 44.9563C53.0786 40.8323 53.4864 37.1699 54.302 33.9691C55.1329 30.7683 56.3255 28.0677 57.8797 25.8672C59.434 23.6513 61.3113 21.9663 63.5119 20.8121C65.7124 19.658 68.1822 19.081 70.9213 19.081C73.7373 19.081 76.2379 19.6349 78.4231 20.7429C80.6082 21.8509 82.3779 23.382 83.732 25.3363C85.1016 27.2906 85.971 29.5142 86.3403 32.0071H79.3002C78.8232 30.0374 77.8768 28.4293 76.4611 27.1829C75.0454 25.9364 73.1988 25.3132 70.9213 25.3132C67.4589 25.3132 64.7583 26.8213 62.8194 29.8374C60.8958 32.8535 59.9264 37.0468 59.911 42.4173H60.2572C61.0728 41.0785 62.0731 39.9397 63.2579 39.0011C64.4582 38.047 65.797 37.316 67.2743 36.8082C68.7669 36.285 70.3365 36.0234 71.9831 36.0234C74.7222 36.0234 77.1997 36.6928 79.4156 38.0316C81.6469 39.355 83.4243 41.1862 84.7476 43.5252C86.071 45.8642 86.7327 48.5418 86.7327 51.5579C86.7327 54.574 86.048 57.3054 84.6784 59.7521C83.3242 62.1989 81.4161 64.1378 78.954 65.5689C76.4918 66.9846 73.6142 67.6771 70.3212 67.6463ZM70.2981 61.6449C72.1139 61.6449 73.7373 61.1986 75.1685 60.3061C76.5996 59.4136 77.7306 58.2133 78.5616 56.7053C79.3925 55.1972 79.808 53.5122 79.808 51.6502C79.808 49.8344 79.4002 48.1802 78.5847 46.6875C77.7845 45.1948 76.6765 44.0099 75.2608 43.1328C73.8605 42.2557 72.2601 41.8171 70.4597 41.8171C69.0901 41.8171 67.8206 42.0787 66.6511 42.6019C65.4969 43.1251 64.4813 43.8484 63.6042 44.7717C62.7271 45.695 62.0346 46.7567 61.5268 47.957C61.0343 49.1419 60.7881 50.3961 60.7881 51.7195C60.7881 53.4891 61.1959 55.128 62.0115 56.636C62.8425 58.1441 63.9735 59.3597 65.4046 60.283C66.8511 61.1909 68.4823 61.6449 70.2981 61.6449Z"
          fill="white"/>
    <path d="M33.1416 85.56H48.4016V87.68H33.1416V85.56ZM32.4216 97.78H49.2016V99.92H32.4216V97.78ZM39.4416 95.32H42.1016V98.62H39.4416V95.32ZM40.7616 88.46C42.0416 88.46 43.1482 88.6067 44.0816 88.9C45.0282 89.18 45.7549 89.5933 46.2616 90.14C46.7682 90.6733 47.0216 91.32 47.0216 92.08C47.0216 92.84 46.7682 93.4933 46.2616 94.04C45.7549 94.5733 45.0282 94.9867 44.0816 95.28C43.1482 95.56 42.0349 95.7 40.7416 95.7C39.4616 95.7 38.3482 95.56 37.4016 95.28C36.4682 94.9867 35.7482 94.5733 35.2416 94.04C34.7349 93.4933 34.4816 92.84 34.4816 92.08C34.4816 91.32 34.7349 90.6733 35.2416 90.14C35.7482 89.5933 36.4682 89.18 37.4016 88.9C38.3482 88.6067 39.4682 88.46 40.7616 88.46ZM40.7416 90.52C39.9816 90.52 39.3349 90.58 38.8016 90.7C38.2682 90.8067 37.8616 90.9733 37.5816 91.2C37.3149 91.4267 37.1816 91.72 37.1816 92.08C37.1816 92.4267 37.3149 92.72 37.5816 92.96C37.8616 93.1867 38.2682 93.3533 38.8016 93.46C39.3349 93.5667 39.9816 93.62 40.7416 93.62C41.5282 93.62 42.1816 93.5667 42.7016 93.46C43.2216 93.3533 43.6149 93.1867 43.8816 92.96C44.1616 92.72 44.3016 92.4267 44.3016 92.08C44.3016 91.72 44.1616 91.4267 43.8816 91.2C43.6149 90.9733 43.2216 90.8067 42.7016 90.7C42.1816 90.58 41.5282 90.52 40.7416 90.52ZM39.4416 83.44H42.1016V86.88H39.4416V83.44ZM51.64 84.6H59.56V86.72H51.64V84.6ZM53.92 88.92H56.54V93.54H53.92V88.92ZM58.52 84.6H61.14V85.76C61.14 86.4133 61.12 87.1933 61.08 88.1C61.0533 88.9933 60.9267 90.0267 60.7 91.2L58.12 90.9C58.32 89.7667 58.4333 88.7867 58.46 87.96C58.5 87.1333 58.52 86.4 58.52 85.76V84.6ZM62.92 83.24H65.6V97.1H62.92V83.24ZM64.54 88.9H67.82V91.08H64.54V88.9ZM53.24 99.32H66.2V101.46H53.24V99.32ZM53.24 95.88H55.92V99.98H53.24V95.88ZM50.78 94.64L50.54 92.52C51.6067 92.52 52.7867 92.5133 54.08 92.5C55.3733 92.4733 56.6933 92.42 58.04 92.34C59.3867 92.2467 60.68 92.1133 61.92 91.94L62.1 93.84C60.82 94.0667 59.5133 94.24 58.18 94.36C56.8467 94.4667 55.5467 94.54 54.28 94.58C53.0133 94.6067 51.8467 94.6267 50.78 94.64Z"
          fill="white"/>
</svg>
