<svg width="100" height="133" viewBox="0 0 100 133" fill="none" xmlns="http://www.w3.org/2000/svg">
    <path d="M100 49.875C100 72.5785 69.5312 112.998 56.1719 129.675C52.9687 133.649 47.0312 133.649 43.8281 129.675C30.4687 112.998 0 72.5785 0 49.875C0 22.3398 22.3958 0 50 0C77.6042 0 100 22.3398 100 49.875Z"
          fill="#2C4088"/>
    <path d="M13.954 67V61.8295L29.9501 45.2564C31.6582 43.456 33.0662 41.8787 34.1741 40.5245C35.2975 39.1549 36.1361 37.8546 36.6901 36.6236C37.2441 35.3925 37.5211 34.0845 37.5211 32.6996C37.5211 31.13 37.1518 29.7758 36.4131 28.6371C35.6745 27.483 34.6666 26.5981 33.3893 25.9826C32.1121 25.3517 30.6733 25.0362 29.0729 25.0362C27.3802 25.0362 25.903 25.3825 24.6411 26.0749C23.3793 26.7674 22.4098 27.7446 21.7327 29.0064C21.0556 30.2682 20.7171 31.7455 20.7171 33.4382H13.9078C13.9078 30.5606 14.5695 28.0446 15.8929 25.8903C17.2163 23.7359 19.0321 22.0663 21.3403 20.8814C23.6486 19.6811 26.2723 19.081 29.2114 19.081C32.1814 19.081 34.7974 19.6734 37.0594 20.8583C39.3369 22.0278 41.1142 23.6282 42.3915 25.6594C43.6687 27.6753 44.3073 29.9528 44.3073 32.4918C44.3073 34.2461 43.9765 35.9619 43.3148 37.6392C42.6685 39.3165 41.5374 41.1862 39.9217 43.2482C38.3059 45.2949 36.0592 47.7801 33.1816 50.7038L23.7871 60.5369V60.8832H45.069V67H13.954ZM69.5364 19.081C71.6445 19.0964 73.722 19.4811 75.7686 20.2351C77.8152 20.9891 79.6618 22.2202 81.3084 23.9283C82.9703 25.6364 84.2937 27.9446 85.2785 30.853C86.2788 33.746 86.7866 37.3468 86.802 41.6555C86.802 45.795 86.3865 49.4805 85.5555 52.712C84.7246 55.9281 83.532 58.6442 81.9778 60.8601C80.4389 63.076 78.5693 64.761 76.3687 65.9151C74.1682 67.0692 71.6907 67.6463 68.9362 67.6463C66.1202 67.6463 63.6196 67.0923 61.4344 65.9844C59.2493 64.8764 57.472 63.3453 56.1024 61.391C54.7329 59.4213 53.8788 57.1592 53.5403 54.6048H60.5804C61.042 56.636 61.9807 58.2826 63.3964 59.5444C64.8275 60.7908 66.6741 61.4141 68.9362 61.4141C72.3986 61.4141 75.0992 59.906 77.0381 56.8899C78.9771 53.8584 79.9542 49.6267 79.9696 44.1946H79.6003C78.8001 45.518 77.7999 46.6567 76.5996 47.6108C75.4147 48.5649 74.0836 49.3035 72.6063 49.8267C71.129 50.3499 69.5517 50.6115 67.8744 50.6115C65.1507 50.6115 62.6732 49.9421 60.4419 48.6033C58.2106 47.2646 56.4333 45.4257 55.1099 43.0866C53.7865 40.7476 53.1248 38.0778 53.1248 35.0771C53.1248 32.0917 53.8019 29.3834 55.156 26.9521C56.5256 24.5207 58.4337 22.5972 60.8805 21.1815C63.3426 19.7504 66.2279 19.0502 69.5364 19.081ZM69.5594 25.0824C67.759 25.0824 66.1356 25.5286 64.6891 26.4212C63.2579 27.2983 62.1269 28.4909 61.2959 29.9989C60.465 31.4916 60.0495 33.1535 60.0495 34.9847C60.0495 36.8159 60.4496 38.4779 61.2498 39.9705C62.0654 41.4478 63.1733 42.625 64.5736 43.5021C65.9894 44.3639 67.6051 44.7947 69.4209 44.7947C70.7751 44.7947 72.0369 44.5331 73.2065 44.0099C74.376 43.4867 75.3993 42.7635 76.2764 41.8402C77.1535 40.9015 77.8383 39.8397 78.3307 38.6548C78.8232 37.4699 79.0694 36.2235 79.0694 34.9155C79.0694 33.1766 78.6539 31.5608 77.8229 30.0682C77.0074 28.5755 75.884 27.3752 74.4529 26.4673C73.0218 25.544 71.3906 25.0824 69.5594 25.0824Z"
          fill="white"/>
    <path d="M33.1416 85.56H48.4016V87.68H33.1416V85.56ZM32.4216 97.78H49.2016V99.92H32.4216V97.78ZM39.4416 95.32H42.1016V98.62H39.4416V95.32ZM40.7616 88.46C42.0416 88.46 43.1482 88.6067 44.0816 88.9C45.0282 89.18 45.7549 89.5933 46.2616 90.14C46.7682 90.6733 47.0216 91.32 47.0216 92.08C47.0216 92.84 46.7682 93.4933 46.2616 94.04C45.7549 94.5733 45.0282 94.9867 44.0816 95.28C43.1482 95.56 42.0349 95.7 40.7416 95.7C39.4616 95.7 38.3482 95.56 37.4016 95.28C36.4682 94.9867 35.7482 94.5733 35.2416 94.04C34.7349 93.4933 34.4816 92.84 34.4816 92.08C34.4816 91.32 34.7349 90.6733 35.2416 90.14C35.7482 89.5933 36.4682 89.18 37.4016 88.9C38.3482 88.6067 39.4682 88.46 40.7616 88.46ZM40.7416 90.52C39.9816 90.52 39.3349 90.58 38.8016 90.7C38.2682 90.8067 37.8616 90.9733 37.5816 91.2C37.3149 91.4267 37.1816 91.72 37.1816 92.08C37.1816 92.4267 37.3149 92.72 37.5816 92.96C37.8616 93.1867 38.2682 93.3533 38.8016 93.46C39.3349 93.5667 39.9816 93.62 40.7416 93.62C41.5282 93.62 42.1816 93.5667 42.7016 93.46C43.2216 93.3533 43.6149 93.1867 43.8816 92.96C44.1616 92.72 44.3016 92.4267 44.3016 92.08C44.3016 91.72 44.1616 91.4267 43.8816 91.2C43.6149 90.9733 43.2216 90.8067 42.7016 90.7C42.1816 90.58 41.5282 90.52 40.7416 90.52ZM39.4416 83.44H42.1016V86.88H39.4416V83.44ZM51.64 84.6H59.56V86.72H51.64V84.6ZM53.92 88.92H56.54V93.54H53.92V88.92ZM58.52 84.6H61.14V85.76C61.14 86.4133 61.12 87.1933 61.08 88.1C61.0533 88.9933 60.9267 90.0267 60.7 91.2L58.12 90.9C58.32 89.7667 58.4333 88.7867 58.46 87.96C58.5 87.1333 58.52 86.4 58.52 85.76V84.6ZM62.92 83.24H65.6V97.1H62.92V83.24ZM64.54 88.9H67.82V91.08H64.54V88.9ZM53.24 99.32H66.2V101.46H53.24V99.32ZM53.24 95.88H55.92V99.98H53.24V95.88ZM50.78 94.64L50.54 92.52C51.6067 92.52 52.7867 92.5133 54.08 92.5C55.3733 92.4733 56.6933 92.42 58.04 92.34C59.3867 92.2467 60.68 92.1133 61.92 91.94L62.1 93.84C60.82 94.0667 59.5133 94.24 58.18 94.36C56.8467 94.4667 55.5467 94.54 54.28 94.58C53.0133 94.6067 51.8467 94.6267 50.78 94.64Z"
          fill="white"/>
</svg>
