<svg width="100" height="133" viewBox="0 0 100 133" fill="none" xmlns="http://www.w3.org/2000/svg">
    <path d="M100 49.875C100 72.5785 69.5312 112.998 56.1719 129.675C52.9687 133.649 47.0312 133.649 43.8281 129.675C30.4687 112.998 0 72.5785 0 49.875C0 22.3398 22.3958 0 50 0C77.6042 0 100 22.3398 100 49.875Z"
          fill="#2C4088"/>
    <path d="M19.6638 27.2727V60H14.7099V32.2266H14.5182L6.6879 37.3402V32.6101L14.8537 27.2727H19.6638ZM39.575 60.4474C37.2845 60.4474 35.2603 60.0533 33.5025 59.2649C31.7554 58.4766 30.3864 57.3899 29.3956 56.005C28.4049 54.62 27.9148 53.0433 27.9255 51.2749C27.9148 49.8899 28.1971 48.6168 28.7724 47.4556C29.3584 46.2837 30.152 45.3089 31.1535 44.5312C32.1549 43.7429 33.2735 43.2422 34.5093 43.0291V42.8374C32.8793 42.4432 31.5743 41.5696 30.5941 40.2166C29.614 38.8636 29.1293 37.3082 29.14 35.5504C29.1293 33.8778 29.5714 32.3864 30.4663 31.076C31.3718 29.755 32.613 28.7163 34.1897 27.9599C35.7664 27.2035 37.5615 26.8253 39.575 26.8253C41.5672 26.8253 43.3463 27.2088 44.9123 27.9759C46.489 28.7322 47.7302 29.771 48.6357 31.092C49.5412 32.4023 49.9993 33.8885 50.01 35.5504C49.9993 37.3082 49.4986 38.8636 48.5079 40.2166C47.5171 41.5696 46.228 42.4432 44.6407 42.8374V43.0291C45.8658 43.2422 46.9684 43.7429 47.9486 44.5312C48.9393 45.3089 49.7277 46.2837 50.3136 47.4556C50.9102 48.6168 51.2138 49.8899 51.2245 51.2749C51.2138 53.0433 50.7131 54.62 49.7223 56.005C48.7316 57.3899 47.3573 58.4766 45.5995 59.2649C43.8523 60.0533 41.8442 60.4474 39.575 60.4474ZM39.575 56.4045C40.928 56.4045 42.0998 56.1808 43.0906 55.7333C44.0814 55.2752 44.8484 54.6413 45.3917 53.8317C45.9351 53.0114 46.212 52.0526 46.2227 50.9553C46.212 49.8153 45.9138 48.8086 45.3278 47.935C44.7525 47.0614 43.9695 46.3743 42.9787 45.8736C41.988 45.3729 40.8534 45.1225 39.575 45.1225C38.2859 45.1225 37.1407 45.3729 36.1392 45.8736C35.1378 46.3743 34.3495 47.0614 33.7742 47.935C33.1989 48.8086 32.9166 49.8153 32.9272 50.9553C32.9166 52.0526 33.1776 53.0114 33.7103 53.8317C34.2536 54.6413 35.026 55.2752 36.0274 55.7333C37.0288 56.1808 38.2113 56.4045 39.575 56.4045ZM39.575 41.1754C40.6616 41.1754 41.6258 40.957 42.4674 40.5202C43.309 40.0835 43.9695 39.4762 44.4489 38.6985C44.939 37.9208 45.1893 37.0099 45.2 35.9659C45.1893 34.9432 44.9443 34.0483 44.4649 33.2812C43.9961 32.5142 43.341 31.9229 42.4993 31.5075C41.6577 31.0813 40.6829 30.8683 39.575 30.8683C38.4457 30.8683 37.4549 31.0813 36.6027 31.5075C35.7611 31.9229 35.1059 32.5142 34.6371 33.2812C34.1684 34.0483 33.9393 34.9432 33.95 35.9659C33.9393 37.0099 34.1737 37.9208 34.6531 38.6985C35.1325 39.4762 35.793 40.0835 36.6346 40.5202C37.4869 40.957 38.467 41.1754 39.575 41.1754ZM71.4753 41.5589V45.7138H56.9653V41.5589H71.4753ZM90.196 27.2727V60H85.2421V32.2266H85.0504L77.2201 37.3402V32.6101L85.386 27.2727H90.196Z"
          fill="white"/>
    <path d="M33.1416 85.56H48.4016V87.68H33.1416V85.56ZM32.4216 97.78H49.2016V99.92H32.4216V97.78ZM39.4416 95.32H42.1016V98.62H39.4416V95.32ZM40.7616 88.46C42.0416 88.46 43.1482 88.6067 44.0816 88.9C45.0282 89.18 45.7549 89.5933 46.2616 90.14C46.7682 90.6733 47.0216 91.32 47.0216 92.08C47.0216 92.84 46.7682 93.4933 46.2616 94.04C45.7549 94.5733 45.0282 94.9867 44.0816 95.28C43.1482 95.56 42.0349 95.7 40.7416 95.7C39.4616 95.7 38.3482 95.56 37.4016 95.28C36.4682 94.9867 35.7482 94.5733 35.2416 94.04C34.7349 93.4933 34.4816 92.84 34.4816 92.08C34.4816 91.32 34.7349 90.6733 35.2416 90.14C35.7482 89.5933 36.4682 89.18 37.4016 88.9C38.3482 88.6067 39.4682 88.46 40.7616 88.46ZM40.7416 90.52C39.9816 90.52 39.3349 90.58 38.8016 90.7C38.2682 90.8067 37.8616 90.9733 37.5816 91.2C37.3149 91.4267 37.1816 91.72 37.1816 92.08C37.1816 92.4267 37.3149 92.72 37.5816 92.96C37.8616 93.1867 38.2682 93.3533 38.8016 93.46C39.3349 93.5667 39.9816 93.62 40.7416 93.62C41.5282 93.62 42.1816 93.5667 42.7016 93.46C43.2216 93.3533 43.6149 93.1867 43.8816 92.96C44.1616 92.72 44.3016 92.4267 44.3016 92.08C44.3016 91.72 44.1616 91.4267 43.8816 91.2C43.6149 90.9733 43.2216 90.8067 42.7016 90.7C42.1816 90.58 41.5282 90.52 40.7416 90.52ZM39.4416 83.44H42.1016V86.88H39.4416V83.44ZM51.64 84.6H59.56V86.72H51.64V84.6ZM53.92 88.92H56.54V93.54H53.92V88.92ZM58.52 84.6H61.14V85.76C61.14 86.4133 61.12 87.1933 61.08 88.1C61.0533 88.9933 60.9267 90.0267 60.7 91.2L58.12 90.9C58.32 89.7667 58.4333 88.7867 58.46 87.96C58.5 87.1333 58.52 86.4 58.52 85.76V84.6ZM62.92 83.24H65.6V97.1H62.92V83.24ZM64.54 88.9H67.82V91.08H64.54V88.9ZM53.24 99.32H66.2V101.46H53.24V99.32ZM53.24 95.88H55.92V99.98H53.24V95.88ZM50.78 94.64L50.54 92.52C51.6067 92.52 52.7867 92.5133 54.08 92.5C55.3733 92.4733 56.6933 92.42 58.04 92.34C59.3867 92.2467 60.68 92.1133 61.92 91.94L62.1 93.84C60.82 94.0667 59.5133 94.24 58.18 94.36C56.8467 94.4667 55.5467 94.54 54.28 94.58C53.0133 94.6067 51.8467 94.6267 50.78 94.64Z"
          fill="white"/>
</svg>
