<svg width="100" height="133" viewBox="0 0 100 133" fill="none" xmlns="http://www.w3.org/2000/svg">
<path d="M100 49.875C100 72.5785 69.5312 112.998 56.1719 129.675C52.9687 133.649 47.0312 133.649 43.8281 129.675C30.4687 112.998 0 72.5785 0 49.875C0 22.3398 22.3958 0 50 0C77.6042 0 100 22.3398 100 49.875Z" fill="#2C4088"/>
<path d="M19.2543 67V61.8295L35.2504 45.2564C36.9585 43.456 38.3665 41.8787 39.4744 40.5245C40.5978 39.1549 41.4364 37.8546 41.9904 36.6236C42.5444 35.3925 42.8214 34.0845 42.8214 32.6996C42.8214 31.13 42.4521 29.7758 41.7134 28.6371C40.9748 27.483 39.9669 26.5981 38.6896 25.9826C37.4124 25.3517 35.9736 25.0362 34.3732 25.0362C32.6805 25.0362 31.2032 25.3825 29.9414 26.0749C28.6796 26.7674 27.7101 27.7446 27.033 29.0064C26.3559 30.2682 26.0174 31.7455 26.0174 33.4382H19.2081C19.2081 30.5606 19.8698 28.0446 21.1932 25.8903C22.5166 23.7359 24.3324 22.0663 26.6406 20.8814C28.9489 19.6811 31.5726 19.081 34.5117 19.081C37.4817 19.081 40.0977 19.6734 42.3597 20.8583C44.6372 22.0278 46.4145 23.6282 47.6918 25.6594C48.969 27.6753 49.6076 29.9528 49.6076 32.4918C49.6076 34.2461 49.2768 35.9619 48.6151 37.6392C47.9688 39.3165 46.8377 41.1862 45.2219 43.2482C43.6062 45.2949 41.3595 47.7801 38.4819 50.7038L29.0874 60.5369V60.8832H50.3693V67H19.2543ZM77.0526 19.7273V67H69.897V26.8828H69.62L58.3097 34.2692V27.4368L70.1048 19.7273H77.0526Z" fill="white"/>
<path d="M33.1416 85.56H48.4016V87.68H33.1416V85.56ZM32.4216 97.78H49.2016V99.92H32.4216V97.78ZM39.4416 95.32H42.1016V98.62H39.4416V95.32ZM40.7616 88.46C42.0416 88.46 43.1482 88.6067 44.0816 88.9C45.0282 89.18 45.7549 89.5933 46.2616 90.14C46.7682 90.6733 47.0216 91.32 47.0216 92.08C47.0216 92.84 46.7682 93.4933 46.2616 94.04C45.7549 94.5733 45.0282 94.9867 44.0816 95.28C43.1482 95.56 42.0349 95.7 40.7416 95.7C39.4616 95.7 38.3482 95.56 37.4016 95.28C36.4682 94.9867 35.7482 94.5733 35.2416 94.04C34.7349 93.4933 34.4816 92.84 34.4816 92.08C34.4816 91.32 34.7349 90.6733 35.2416 90.14C35.7482 89.5933 36.4682 89.18 37.4016 88.9C38.3482 88.6067 39.4682 88.46 40.7616 88.46ZM40.7416 90.52C39.9816 90.52 39.3349 90.58 38.8016 90.7C38.2682 90.8067 37.8616 90.9733 37.5816 91.2C37.3149 91.4267 37.1816 91.72 37.1816 92.08C37.1816 92.4267 37.3149 92.72 37.5816 92.96C37.8616 93.1867 38.2682 93.3533 38.8016 93.46C39.3349 93.5667 39.9816 93.62 40.7416 93.62C41.5282 93.62 42.1816 93.5667 42.7016 93.46C43.2216 93.3533 43.6149 93.1867 43.8816 92.96C44.1616 92.72 44.3016 92.4267 44.3016 92.08C44.3016 91.72 44.1616 91.4267 43.8816 91.2C43.6149 90.9733 43.2216 90.8067 42.7016 90.7C42.1816 90.58 41.5282 90.52 40.7416 90.52ZM39.4416 83.44H42.1016V86.88H39.4416V83.44ZM51.64 84.6H59.56V86.72H51.64V84.6ZM53.92 88.92H56.54V93.54H53.92V88.92ZM58.52 84.6H61.14V85.76C61.14 86.4133 61.12 87.1933 61.08 88.1C61.0533 88.9933 60.9267 90.0267 60.7 91.2L58.12 90.9C58.32 89.7667 58.4333 88.7867 58.46 87.96C58.5 87.1333 58.52 86.4 58.52 85.76V84.6ZM62.92 83.24H65.6V97.1H62.92V83.24ZM64.54 88.9H67.82V91.08H64.54V88.9ZM53.24 99.32H66.2V101.46H53.24V99.32ZM53.24 95.88H55.92V99.98H53.24V95.88ZM50.78 94.64L50.54 92.52C51.6067 92.52 52.7867 92.5133 54.08 92.5C55.3733 92.4733 56.6933 92.42 58.04 92.34C59.3867 92.2467 60.68 92.1133 61.92 91.94L62.1 93.84C60.82 94.0667 59.5133 94.24 58.18 94.36C56.8467 94.4667 55.5467 94.54 54.28 94.58C53.0133 94.6067 51.8467 94.6267 50.78 94.64Z" fill="white"/>
</svg>
