<svg width="100" height="133" viewBox="0 0 100 133" fill="none" xmlns="http://www.w3.org/2000/svg">
<path d="M100 49.875C100 72.5785 69.5312 112.998 56.1719 129.675C52.9687 133.649 47.0312 133.649 43.8281 129.675C30.4687 112.998 0 72.5785 0 49.875C0 22.3398 22.3958 0 50 0C77.6042 0 100 22.3398 100 49.875Z" fill="#2C4088"/>
<path d="M17.1589 27.2727V60H12.205V32.2266H12.0133L4.18302 37.3402V32.6101L12.3489 27.2727H17.1589ZM37.0701 60.4474C34.7796 60.4474 32.7555 60.0533 30.9976 59.2649C29.2505 58.4766 27.8815 57.3899 26.8908 56.005C25.9 54.62 25.4099 53.0433 25.4206 51.2749C25.4099 49.8899 25.6922 48.6168 26.2675 47.4556C26.8535 46.2837 27.6472 45.3089 28.6486 44.5312C29.65 43.7429 30.7686 43.2422 32.0044 43.0291V42.8374C30.3744 42.4432 29.0694 41.5696 28.0893 40.2166C27.1092 38.8636 26.6244 37.3082 26.6351 35.5504C26.6244 33.8778 27.0665 32.3864 27.9614 31.076C28.867 29.755 30.1081 28.7163 31.6848 27.9599C33.2615 27.2035 35.0566 26.8253 37.0701 26.8253C39.0623 26.8253 40.8414 27.2088 42.4074 27.9759C43.9842 28.7322 45.2253 29.771 46.1308 31.092C47.0364 32.4023 47.4945 33.8885 47.5051 35.5504C47.4945 37.3082 46.9937 38.8636 46.003 40.2166C45.0122 41.5696 43.7231 42.4432 42.1358 42.8374V43.0291C43.3609 43.2422 44.4636 43.7429 45.4437 44.5312C46.4344 45.3089 47.2228 46.2837 47.8087 47.4556C48.4053 48.6168 48.7089 49.8899 48.7196 51.2749C48.7089 53.0433 48.2082 54.62 47.2175 56.005C46.2267 57.3899 44.8524 58.4766 43.0946 59.2649C41.3474 60.0533 39.3393 60.4474 37.0701 60.4474ZM37.0701 56.4045C38.4231 56.4045 39.5949 56.1808 40.5857 55.7333C41.5765 55.2752 42.3435 54.6413 42.8869 53.8317C43.4302 53.0114 43.7072 52.0526 43.7178 50.9553C43.7072 49.8153 43.4089 48.8086 42.8229 47.935C42.2476 47.0614 41.4646 46.3743 40.4739 45.8736C39.4831 45.3729 38.3485 45.1225 37.0701 45.1225C35.781 45.1225 34.6358 45.3729 33.6344 45.8736C32.6329 46.3743 31.8446 47.0614 31.2693 47.935C30.694 48.8086 30.4117 49.8153 30.4224 50.9553C30.4117 52.0526 30.6727 53.0114 31.2054 53.8317C31.7487 54.6413 32.5211 55.2752 33.5225 55.7333C34.5239 56.1808 35.7065 56.4045 37.0701 56.4045ZM37.0701 41.1754C38.1567 41.1754 39.1209 40.957 39.9625 40.5202C40.8041 40.0835 41.4646 39.4762 41.944 38.6985C42.4341 37.9208 42.6844 37.0099 42.6951 35.9659C42.6844 34.9432 42.4394 34.0483 41.96 33.2812C41.4913 32.5142 40.8361 31.9229 39.9945 31.5075C39.1528 31.0813 38.178 30.8683 37.0701 30.8683C35.9408 30.8683 34.9501 31.0813 34.0978 31.5075C33.2562 31.9229 32.601 32.5142 32.1322 33.2812C31.6635 34.0483 31.4344 34.9432 31.4451 35.9659C31.4344 37.0099 31.6688 37.9208 32.1482 38.6985C32.6276 39.4762 33.2881 40.0835 34.1298 40.5202C34.982 40.957 35.9621 41.1754 37.0701 41.1754ZM68.9704 41.5589V45.7138H54.4604V41.5589H68.9704ZM73.9562 60V56.4205L85.0304 44.9467C86.2129 43.7003 87.1877 42.6083 87.9548 41.6708C88.7325 40.7227 89.3131 39.8224 89.6966 38.9702C90.0801 38.1179 90.2719 37.2124 90.2719 36.2536C90.2719 35.1669 90.0162 34.2294 89.5048 33.4411C88.9935 32.642 88.2957 32.0295 87.4114 31.6033C86.5272 31.1665 85.5311 30.9482 84.4232 30.9482C83.2513 30.9482 82.2286 31.1879 81.355 31.6673C80.4814 32.1467 79.8102 32.8232 79.3415 33.6967C78.8727 34.5703 78.6384 35.593 78.6384 36.7649H73.9242C73.9242 34.7727 74.3823 33.0309 75.2985 31.5394C76.2147 30.0479 77.4718 28.892 79.0698 28.0717C80.6678 27.2408 82.4842 26.8253 84.519 26.8253C86.5752 26.8253 88.3862 27.2354 89.9523 28.0558C91.529 28.8654 92.7595 29.9734 93.6437 31.3796C94.5279 32.7752 94.97 34.3519 94.97 36.1097C94.97 37.3242 94.741 38.5121 94.2829 39.6733C93.8355 40.8345 93.0524 42.1289 91.9338 43.5565C90.8152 44.9734 89.2598 46.6939 87.2676 48.718L80.7637 55.5256V55.7653H95.4974V60H73.9562Z" fill="white"/>
<path d="M33.1416 85.56H48.4016V87.68H33.1416V85.56ZM32.4216 97.78H49.2016V99.92H32.4216V97.78ZM39.4416 95.32H42.1016V98.62H39.4416V95.32ZM40.7616 88.46C42.0416 88.46 43.1482 88.6067 44.0816 88.9C45.0282 89.18 45.7549 89.5933 46.2616 90.14C46.7682 90.6733 47.0216 91.32 47.0216 92.08C47.0216 92.84 46.7682 93.4933 46.2616 94.04C45.7549 94.5733 45.0282 94.9867 44.0816 95.28C43.1482 95.56 42.0349 95.7 40.7416 95.7C39.4616 95.7 38.3482 95.56 37.4016 95.28C36.4682 94.9867 35.7482 94.5733 35.2416 94.04C34.7349 93.4933 34.4816 92.84 34.4816 92.08C34.4816 91.32 34.7349 90.6733 35.2416 90.14C35.7482 89.5933 36.4682 89.18 37.4016 88.9C38.3482 88.6067 39.4682 88.46 40.7616 88.46ZM40.7416 90.52C39.9816 90.52 39.3349 90.58 38.8016 90.7C38.2682 90.8067 37.8616 90.9733 37.5816 91.2C37.3149 91.4267 37.1816 91.72 37.1816 92.08C37.1816 92.4267 37.3149 92.72 37.5816 92.96C37.8616 93.1867 38.2682 93.3533 38.8016 93.46C39.3349 93.5667 39.9816 93.62 40.7416 93.62C41.5282 93.62 42.1816 93.5667 42.7016 93.46C43.2216 93.3533 43.6149 93.1867 43.8816 92.96C44.1616 92.72 44.3016 92.4267 44.3016 92.08C44.3016 91.72 44.1616 91.4267 43.8816 91.2C43.6149 90.9733 43.2216 90.8067 42.7016 90.7C42.1816 90.58 41.5282 90.52 40.7416 90.52ZM39.4416 83.44H42.1016V86.88H39.4416V83.44ZM51.64 84.6H59.56V86.72H51.64V84.6ZM53.92 88.92H56.54V93.54H53.92V88.92ZM58.52 84.6H61.14V85.76C61.14 86.4133 61.12 87.1933 61.08 88.1C61.0533 88.9933 60.9267 90.0267 60.7 91.2L58.12 90.9C58.32 89.7667 58.4333 88.7867 58.46 87.96C58.5 87.1333 58.52 86.4 58.52 85.76V84.6ZM62.92 83.24H65.6V97.1H62.92V83.24ZM64.54 88.9H67.82V91.08H64.54V88.9ZM53.24 99.32H66.2V101.46H53.24V99.32ZM53.24 95.88H55.92V99.98H53.24V95.88ZM50.78 94.64L50.54 92.52C51.6067 92.52 52.7867 92.5133 54.08 92.5C55.3733 92.4733 56.6933 92.42 58.04 92.34C59.3867 92.2467 60.68 92.1133 61.92 91.94L62.1 93.84C60.82 94.0667 59.5133 94.24 58.18 94.36C56.8467 94.4667 55.5467 94.54 54.28 94.58C53.0133 94.6067 51.8467 94.6267 50.78 94.64Z" fill="white"/>
</svg>
