<svg width="100" height="133" viewBox="0 0 100 133" fill="none" xmlns="http://www.w3.org/2000/svg">
<path d="M100 49.875C100 72.5785 69.5312 112.998 56.1719 129.675C52.9687 133.649 47.0312 133.649 43.8281 129.675C30.4687 112.998 0 72.5785 0 49.875C0 22.3398 22.3958 0 50 0C77.6042 0 100 22.3398 100 49.875Z" fill="#2C4088"/>
<path d="M36.1419 19.7273V67H28.9864V26.8828H28.7094L17.399 34.2692V27.4368L29.1941 19.7273H36.1419ZM65.3873 67.7848C61.7403 67.7694 58.6242 66.8076 56.0389 64.8995C53.4537 62.9914 51.4763 60.2138 50.1068 56.5668C48.7372 52.9197 48.0524 48.5264 48.0524 43.3867C48.0524 38.2624 48.7372 33.8845 50.1068 30.2528C51.4917 26.6212 53.4768 23.8513 56.062 21.9432C58.6626 20.035 61.7711 19.081 65.3873 19.081C69.0035 19.081 72.1043 20.0427 74.6895 21.9663C77.2747 23.8744 79.2521 26.6443 80.6217 30.2759C82.0066 33.8922 82.6991 38.2624 82.6991 43.3867C82.6991 48.5418 82.0143 52.9428 80.6448 56.5898C79.2752 60.2215 77.2978 62.9991 74.7126 64.9226C72.1274 66.8307 69.0189 67.7848 65.3873 67.7848ZM65.3873 61.6218C68.5881 61.6218 71.0886 60.0599 72.8891 56.9361C74.7049 53.8123 75.6128 49.2958 75.6128 43.3867C75.6128 39.4627 75.1973 36.1465 74.3663 33.4382C73.5508 30.7145 72.3736 28.6525 70.8347 27.2521C69.3113 25.8364 67.4955 25.1285 65.3873 25.1285C62.2019 25.1285 59.7013 26.6982 57.8855 29.8374C56.0697 32.9766 55.1541 37.493 55.1387 43.3867C55.1387 47.3261 55.5465 50.6577 56.3621 53.3814C57.193 56.0897 58.3703 58.1441 59.8937 59.5444C61.4171 60.9293 63.2483 61.6218 65.3873 61.6218Z" fill="white"/>
<path d="M33.1416 85.56H48.4016V87.68H33.1416V85.56ZM32.4216 97.78H49.2016V99.92H32.4216V97.78ZM39.4416 95.32H42.1016V98.62H39.4416V95.32ZM40.7616 88.46C42.0416 88.46 43.1482 88.6067 44.0816 88.9C45.0282 89.18 45.7549 89.5933 46.2616 90.14C46.7682 90.6733 47.0216 91.32 47.0216 92.08C47.0216 92.84 46.7682 93.4933 46.2616 94.04C45.7549 94.5733 45.0282 94.9867 44.0816 95.28C43.1482 95.56 42.0349 95.7 40.7416 95.7C39.4616 95.7 38.3482 95.56 37.4016 95.28C36.4682 94.9867 35.7482 94.5733 35.2416 94.04C34.7349 93.4933 34.4816 92.84 34.4816 92.08C34.4816 91.32 34.7349 90.6733 35.2416 90.14C35.7482 89.5933 36.4682 89.18 37.4016 88.9C38.3482 88.6067 39.4682 88.46 40.7616 88.46ZM40.7416 90.52C39.9816 90.52 39.3349 90.58 38.8016 90.7C38.2682 90.8067 37.8616 90.9733 37.5816 91.2C37.3149 91.4267 37.1816 91.72 37.1816 92.08C37.1816 92.4267 37.3149 92.72 37.5816 92.96C37.8616 93.1867 38.2682 93.3533 38.8016 93.46C39.3349 93.5667 39.9816 93.62 40.7416 93.62C41.5282 93.62 42.1816 93.5667 42.7016 93.46C43.2216 93.3533 43.6149 93.1867 43.8816 92.96C44.1616 92.72 44.3016 92.4267 44.3016 92.08C44.3016 91.72 44.1616 91.4267 43.8816 91.2C43.6149 90.9733 43.2216 90.8067 42.7016 90.7C42.1816 90.58 41.5282 90.52 40.7416 90.52ZM39.4416 83.44H42.1016V86.88H39.4416V83.44ZM51.64 84.6H59.56V86.72H51.64V84.6ZM53.92 88.92H56.54V93.54H53.92V88.92ZM58.52 84.6H61.14V85.76C61.14 86.4133 61.12 87.1933 61.08 88.1C61.0533 88.9933 60.9267 90.0267 60.7 91.2L58.12 90.9C58.32 89.7667 58.4333 88.7867 58.46 87.96C58.5 87.1333 58.52 86.4 58.52 85.76V84.6ZM62.92 83.24H65.6V97.1H62.92V83.24ZM64.54 88.9H67.82V91.08H64.54V88.9ZM53.24 99.32H66.2V101.46H53.24V99.32ZM53.24 95.88H55.92V99.98H53.24V95.88ZM50.78 94.64L50.54 92.52C51.6067 92.52 52.7867 92.5133 54.08 92.5C55.3733 92.4733 56.6933 92.42 58.04 92.34C59.3867 92.2467 60.68 92.1133 61.92 91.94L62.1 93.84C60.82 94.0667 59.5133 94.24 58.18 94.36C56.8467 94.4667 55.5467 94.54 54.28 94.58C53.0133 94.6067 51.8467 94.6267 50.78 94.64Z" fill="white"/>
</svg>
