<svg width="100" height="133" viewBox="0 0 100 133" fill="none" xmlns="http://www.w3.org/2000/svg">
    <path d="M100 49.875C100 72.5785 69.5312 112.998 56.1719 129.675C52.9687 133.649 47.0312 133.649 43.8281 129.675C30.4687 112.998 0 72.5785 0 49.875C0 22.3398 22.3958 0 50 0C77.6042 0 100 22.3398 100 49.875Z"
          fill="#2C4088"/>
    <path d="M36.4593 19.7273V67H29.3038V26.8828H29.0268L17.7164 34.2692V27.4368L29.5115 19.7273H36.4593ZM64.966 19.081C67.0742 19.0964 69.1516 19.4811 71.1983 20.2351C73.2449 20.9891 75.0915 22.2202 76.7381 23.9283C78.4 25.6364 79.7234 27.9446 80.7082 30.853C81.7085 33.746 82.2163 37.3468 82.2317 41.6555C82.2317 45.795 81.8162 49.4805 80.9852 52.712C80.1543 55.9281 78.9617 58.6442 77.4075 60.8601C75.8686 63.076 73.999 64.761 71.7984 65.9151C69.5979 67.0692 67.1204 67.6463 64.3659 67.6463C61.5498 67.6463 59.0493 67.0923 56.8641 65.9844C54.679 64.8764 52.9016 63.3453 51.5321 61.391C50.1625 59.4213 49.3085 57.1592 48.9699 54.6048H56.0101C56.4717 56.636 57.4104 58.2826 58.8261 59.5444C60.2572 60.7908 62.1038 61.4141 64.3659 61.4141C67.8283 61.4141 70.5289 59.906 72.4678 56.8899C74.4067 53.8584 75.3839 49.6267 75.3993 44.1946H75.03C74.2298 45.518 73.2295 46.6567 72.0293 47.6108C70.8444 48.5649 69.5133 49.3035 68.036 49.8267C66.5587 50.3499 64.9814 50.6115 63.3041 50.6115C60.5804 50.6115 58.1029 49.9421 55.8716 48.6033C53.6403 47.2646 51.8629 45.4257 50.5396 43.0866C49.2162 40.7476 48.5545 38.0778 48.5545 35.0771C48.5545 32.0917 49.2315 29.3834 50.5857 26.9521C51.9553 24.5207 53.8634 22.5972 56.3101 21.1815C58.7723 19.7504 61.6576 19.0502 64.966 19.081ZM64.9891 25.0824C63.1887 25.0824 61.5652 25.5286 60.1187 26.4212C58.6876 27.2983 57.5566 28.4909 56.7256 29.9989C55.8947 31.4916 55.4792 33.1535 55.4792 34.9847C55.4792 36.8159 55.8793 38.4779 56.6795 39.9705C57.495 41.4478 58.603 42.625 60.0033 43.5021C61.419 44.3639 63.0348 44.7947 64.8506 44.7947C66.2048 44.7947 67.4666 44.5331 68.6361 44.0099C69.8057 43.4867 70.829 42.7635 71.7061 41.8402C72.5832 40.9015 73.268 39.8397 73.7604 38.6548C74.2529 37.4699 74.4991 36.2235 74.4991 34.9155C74.4991 33.1766 74.0836 31.5608 73.2526 30.0682C72.437 28.5755 71.3137 27.3752 69.8826 26.4673C68.4515 25.544 66.8203 25.0824 64.9891 25.0824Z"
          fill="white"/>
    <path d="M33.1416 85.56H48.4016V87.68H33.1416V85.56ZM32.4216 97.78H49.2016V99.92H32.4216V97.78ZM39.4416 95.32H42.1016V98.62H39.4416V95.32ZM40.7616 88.46C42.0416 88.46 43.1482 88.6067 44.0816 88.9C45.0282 89.18 45.7549 89.5933 46.2616 90.14C46.7682 90.6733 47.0216 91.32 47.0216 92.08C47.0216 92.84 46.7682 93.4933 46.2616 94.04C45.7549 94.5733 45.0282 94.9867 44.0816 95.28C43.1482 95.56 42.0349 95.7 40.7416 95.7C39.4616 95.7 38.3482 95.56 37.4016 95.28C36.4682 94.9867 35.7482 94.5733 35.2416 94.04C34.7349 93.4933 34.4816 92.84 34.4816 92.08C34.4816 91.32 34.7349 90.6733 35.2416 90.14C35.7482 89.5933 36.4682 89.18 37.4016 88.9C38.3482 88.6067 39.4682 88.46 40.7616 88.46ZM40.7416 90.52C39.9816 90.52 39.3349 90.58 38.8016 90.7C38.2682 90.8067 37.8616 90.9733 37.5816 91.2C37.3149 91.4267 37.1816 91.72 37.1816 92.08C37.1816 92.4267 37.3149 92.72 37.5816 92.96C37.8616 93.1867 38.2682 93.3533 38.8016 93.46C39.3349 93.5667 39.9816 93.62 40.7416 93.62C41.5282 93.62 42.1816 93.5667 42.7016 93.46C43.2216 93.3533 43.6149 93.1867 43.8816 92.96C44.1616 92.72 44.3016 92.4267 44.3016 92.08C44.3016 91.72 44.1616 91.4267 43.8816 91.2C43.6149 90.9733 43.2216 90.8067 42.7016 90.7C42.1816 90.58 41.5282 90.52 40.7416 90.52ZM39.4416 83.44H42.1016V86.88H39.4416V83.44ZM51.64 84.6H59.56V86.72H51.64V84.6ZM53.92 88.92H56.54V93.54H53.92V88.92ZM58.52 84.6H61.14V85.76C61.14 86.4133 61.12 87.1933 61.08 88.1C61.0533 88.9933 60.9267 90.0267 60.7 91.2L58.12 90.9C58.32 89.7667 58.4333 88.7867 58.46 87.96C58.5 87.1333 58.52 86.4 58.52 85.76V84.6ZM62.92 83.24H65.6V97.1H62.92V83.24ZM64.54 88.9H67.82V91.08H64.54V88.9ZM53.24 99.32H66.2V101.46H53.24V99.32ZM53.24 95.88H55.92V99.98H53.24V95.88ZM50.78 94.64L50.54 92.52C51.6067 92.52 52.7867 92.5133 54.08 92.5C55.3733 92.4733 56.6933 92.42 58.04 92.34C59.3867 92.2467 60.68 92.1133 61.92 91.94L62.1 93.84C60.82 94.0667 59.5133 94.24 58.18 94.36C56.8467 94.4667 55.5467 94.54 54.28 94.58C53.0133 94.6067 51.8467 94.6267 50.78 94.64Z"
          fill="white"/>
</svg>
