<svg width="100" height="133" viewBox="0 0 100 133" fill="none" xmlns="http://www.w3.org/2000/svg">
    <path d="M100 49.875C100 72.5785 69.5312 112.998 56.1719 129.675C52.9687 133.649 47.0312 133.649 43.8281 129.675C30.4687 112.998 0 72.5785 0 49.875C0 22.3398 22.3958 0 50 0C77.6042 0 100 22.3398 100 49.875Z"
          fill="#2C4088"/>
    <path d="M49.9971 67.6463C47.1041 67.6463 44.5035 67.0923 42.1953 65.9844C39.9024 64.861 38.0712 63.3222 36.7017 61.3679C35.3321 59.4136 34.6012 57.1823 34.5088 54.674H41.4335C41.6028 56.7053 42.503 58.3749 44.1342 59.6829C45.7653 60.9909 47.7197 61.6449 49.9971 61.6449C51.8129 61.6449 53.421 61.2294 54.8213 60.3984C56.2371 59.5521 57.345 58.3903 58.1452 56.913C58.9608 55.4357 59.3686 53.7507 59.3686 51.858C59.3686 49.9344 58.9531 48.2186 58.1221 46.7106C57.2912 45.2025 56.1447 44.0176 54.6828 43.1559C53.2363 42.2942 51.5744 41.8556 49.697 41.8402C48.2659 41.8402 46.8271 42.0864 45.3806 42.5788C43.9341 43.0713 42.7646 43.7176 41.8721 44.5178L35.3398 43.5483L37.9943 19.7273H63.985V25.8441H43.9264L42.4261 39.0703H42.7031C43.6264 38.1778 44.8497 37.4315 46.3732 36.8313C47.912 36.2312 49.5586 35.9311 51.3128 35.9311C54.1904 35.9311 56.7526 36.6159 58.9992 37.9854C61.2613 39.355 63.0387 41.2247 64.3313 43.5945C65.6393 45.9489 66.2856 48.6572 66.2702 51.7195C66.2856 54.7817 65.5931 57.5131 64.1928 59.9137C62.8078 62.3143 60.8843 64.207 58.4222 65.592C55.9755 66.9615 53.1671 67.6463 49.9971 67.6463Z"
          fill="white"/>
    <path d="M33.1416 85.56H48.4016V87.68H33.1416V85.56ZM32.4216 97.78H49.2016V99.92H32.4216V97.78ZM39.4416 95.32H42.1016V98.62H39.4416V95.32ZM40.7616 88.46C42.0416 88.46 43.1482 88.6067 44.0816 88.9C45.0282 89.18 45.7549 89.5933 46.2616 90.14C46.7682 90.6733 47.0216 91.32 47.0216 92.08C47.0216 92.84 46.7682 93.4933 46.2616 94.04C45.7549 94.5733 45.0282 94.9867 44.0816 95.28C43.1482 95.56 42.0349 95.7 40.7416 95.7C39.4616 95.7 38.3482 95.56 37.4016 95.28C36.4682 94.9867 35.7482 94.5733 35.2416 94.04C34.7349 93.4933 34.4816 92.84 34.4816 92.08C34.4816 91.32 34.7349 90.6733 35.2416 90.14C35.7482 89.5933 36.4682 89.18 37.4016 88.9C38.3482 88.6067 39.4682 88.46 40.7616 88.46ZM40.7416 90.52C39.9816 90.52 39.3349 90.58 38.8016 90.7C38.2682 90.8067 37.8616 90.9733 37.5816 91.2C37.3149 91.4267 37.1816 91.72 37.1816 92.08C37.1816 92.4267 37.3149 92.72 37.5816 92.96C37.8616 93.1867 38.2682 93.3533 38.8016 93.46C39.3349 93.5667 39.9816 93.62 40.7416 93.62C41.5282 93.62 42.1816 93.5667 42.7016 93.46C43.2216 93.3533 43.6149 93.1867 43.8816 92.96C44.1616 92.72 44.3016 92.4267 44.3016 92.08C44.3016 91.72 44.1616 91.4267 43.8816 91.2C43.6149 90.9733 43.2216 90.8067 42.7016 90.7C42.1816 90.58 41.5282 90.52 40.7416 90.52ZM39.4416 83.44H42.1016V86.88H39.4416V83.44ZM51.64 84.6H59.56V86.72H51.64V84.6ZM53.92 88.92H56.54V93.54H53.92V88.92ZM58.52 84.6H61.14V85.76C61.14 86.4133 61.12 87.1933 61.08 88.1C61.0533 88.9933 60.9267 90.0267 60.7 91.2L58.12 90.9C58.32 89.7667 58.4333 88.7867 58.46 87.96C58.5 87.1333 58.52 86.4 58.52 85.76V84.6ZM62.92 83.24H65.6V97.1H62.92V83.24ZM64.54 88.9H67.82V91.08H64.54V88.9ZM53.24 99.32H66.2V101.46H53.24V99.32ZM53.24 95.88H55.92V99.98H53.24V95.88ZM50.78 94.64L50.54 92.52C51.6067 92.52 52.7867 92.5133 54.08 92.5C55.3733 92.4733 56.6933 92.42 58.04 92.34C59.3867 92.2467 60.68 92.1133 61.92 91.94L62.1 93.84C60.82 94.0667 59.5133 94.24 58.18 94.36C56.8467 94.4667 55.5467 94.54 54.28 94.58C53.0133 94.6067 51.8467 94.6267 50.78 94.64Z"
          fill="white"/>
</svg>
