<svg width="100" height="133" viewBox="0 0 100 133" fill="none" xmlns="http://www.w3.org/2000/svg">
<path d="M100 49.875C100 72.5785 69.5312 112.998 56.1719 129.675C52.9687 133.649 47.0312 133.649 43.8281 129.675C30.4687 112.998 0 72.5785 0 49.875C0 22.3398 22.3958 0 50 0C77.6042 0 100 22.3398 100 49.875Z" fill="#2C4088"/>
<path d="M13.6683 67V61.8295L29.6644 45.2564C31.3725 43.456 32.7805 41.8787 33.8885 40.5245C35.0118 39.1549 35.8505 37.8546 36.4045 36.6236C36.9585 35.3925 37.2354 34.0845 37.2354 32.6996C37.2354 31.13 36.8661 29.7758 36.1275 28.6371C35.3888 27.483 34.3809 26.5981 33.1037 25.9826C31.8265 25.3517 30.3877 25.0362 28.7873 25.0362C27.0946 25.0362 25.6173 25.3825 24.3555 26.0749C23.0936 26.7674 22.1242 27.7446 21.4471 29.0064C20.77 30.2682 20.4315 31.7455 20.4315 33.4382H13.6222C13.6222 30.5606 14.2839 28.0446 15.6072 25.8903C16.9306 23.7359 18.7464 22.0663 21.0547 20.8814C23.3629 19.6811 25.9866 19.081 28.9258 19.081C31.8957 19.081 34.5117 19.6734 36.7738 20.8583C39.0513 22.0278 40.8286 23.6282 42.1058 25.6594C43.383 27.6753 44.0217 29.9528 44.0217 32.4918C44.0217 34.2461 43.6908 35.9619 43.0291 37.6392C42.3828 39.3165 41.2518 41.1862 39.636 43.2482C38.0202 45.2949 35.7736 47.7801 32.896 50.7038L23.5014 60.5369V60.8832H44.7834V67H13.6683ZM69.9893 67.6463C66.8194 67.6463 63.9879 67.1 61.495 66.0075C59.0175 64.9149 57.0555 63.3991 55.609 61.4602C54.1779 59.5059 53.4085 57.2438 53.3008 54.674H60.5487C60.641 56.0743 61.1103 57.29 61.9567 58.321C62.8184 59.3366 63.9418 60.1214 65.3267 60.6754C66.7116 61.2294 68.2505 61.5064 69.9432 61.5064C71.8052 61.5064 73.4517 61.1832 74.8828 60.5369C76.3293 59.8906 77.4603 58.9904 78.2759 57.8363C79.0915 56.6668 79.4993 55.3203 79.4993 53.7969C79.4993 52.2119 79.0915 50.8192 78.2759 49.619C77.4757 48.4033 76.2985 47.4492 74.7443 46.7567C73.2055 46.0643 71.3435 45.718 69.1584 45.718H65.1651V39.9013H69.1584C70.9126 39.9013 72.4515 39.5858 73.7749 38.9549C75.1136 38.324 76.16 37.4469 76.9141 36.3235C77.6681 35.1848 78.0451 33.8537 78.0451 32.3303C78.0451 30.8684 77.7143 29.5988 77.0526 28.5217C76.4063 27.4291 75.483 26.575 74.2827 25.9595C73.0978 25.344 71.6974 25.0362 70.0817 25.0362C68.5429 25.0362 67.104 25.3209 65.7653 25.8903C64.4419 26.4442 63.3647 27.2444 62.5337 28.2908C61.7028 29.3218 61.2565 30.5606 61.195 32.0071H54.2933C54.3703 29.4527 55.1243 27.206 56.5554 25.267C58.0019 23.3281 59.91 21.8124 62.2798 20.7198C64.6496 19.6272 67.281 19.081 70.174 19.081C73.2055 19.081 75.8215 19.6734 78.022 20.8583C80.2379 22.0278 81.946 23.5897 83.1463 25.544C84.362 27.4983 84.9621 29.6373 84.9467 31.9609C84.9621 34.6077 84.2235 36.8544 82.7308 38.701C81.2536 40.5476 79.2839 41.7863 76.8217 42.4173V42.7866C79.9609 43.2636 82.3923 44.5101 84.1158 46.5259C85.8546 48.5418 86.7164 51.0424 86.701 54.0277C86.7164 56.6283 85.9931 58.9596 84.5312 61.0217C83.0848 63.0837 81.1074 64.7071 78.5991 65.892C76.0908 67.0616 73.2209 67.6463 69.9893 67.6463Z" fill="white"/>
<path d="M33.1416 85.56H48.4016V87.68H33.1416V85.56ZM32.4216 97.78H49.2016V99.92H32.4216V97.78ZM39.4416 95.32H42.1016V98.62H39.4416V95.32ZM40.7616 88.46C42.0416 88.46 43.1482 88.6067 44.0816 88.9C45.0282 89.18 45.7549 89.5933 46.2616 90.14C46.7682 90.6733 47.0216 91.32 47.0216 92.08C47.0216 92.84 46.7682 93.4933 46.2616 94.04C45.7549 94.5733 45.0282 94.9867 44.0816 95.28C43.1482 95.56 42.0349 95.7 40.7416 95.7C39.4616 95.7 38.3482 95.56 37.4016 95.28C36.4682 94.9867 35.7482 94.5733 35.2416 94.04C34.7349 93.4933 34.4816 92.84 34.4816 92.08C34.4816 91.32 34.7349 90.6733 35.2416 90.14C35.7482 89.5933 36.4682 89.18 37.4016 88.9C38.3482 88.6067 39.4682 88.46 40.7616 88.46ZM40.7416 90.52C39.9816 90.52 39.3349 90.58 38.8016 90.7C38.2682 90.8067 37.8616 90.9733 37.5816 91.2C37.3149 91.4267 37.1816 91.72 37.1816 92.08C37.1816 92.4267 37.3149 92.72 37.5816 92.96C37.8616 93.1867 38.2682 93.3533 38.8016 93.46C39.3349 93.5667 39.9816 93.62 40.7416 93.62C41.5282 93.62 42.1816 93.5667 42.7016 93.46C43.2216 93.3533 43.6149 93.1867 43.8816 92.96C44.1616 92.72 44.3016 92.4267 44.3016 92.08C44.3016 91.72 44.1616 91.4267 43.8816 91.2C43.6149 90.9733 43.2216 90.8067 42.7016 90.7C42.1816 90.58 41.5282 90.52 40.7416 90.52ZM39.4416 83.44H42.1016V86.88H39.4416V83.44ZM51.64 84.6H59.56V86.72H51.64V84.6ZM53.92 88.92H56.54V93.54H53.92V88.92ZM58.52 84.6H61.14V85.76C61.14 86.4133 61.12 87.1933 61.08 88.1C61.0533 88.9933 60.9267 90.0267 60.7 91.2L58.12 90.9C58.32 89.7667 58.4333 88.7867 58.46 87.96C58.5 87.1333 58.52 86.4 58.52 85.76V84.6ZM62.92 83.24H65.6V97.1H62.92V83.24ZM64.54 88.9H67.82V91.08H64.54V88.9ZM53.24 99.32H66.2V101.46H53.24V99.32ZM53.24 95.88H55.92V99.98H53.24V95.88ZM50.78 94.64L50.54 92.52C51.6067 92.52 52.7867 92.5133 54.08 92.5C55.3733 92.4733 56.6933 92.42 58.04 92.34C59.3867 92.2467 60.68 92.1133 61.92 91.94L62.1 93.84C60.82 94.0667 59.5133 94.24 58.18 94.36C56.8467 94.4667 55.5467 94.54 54.28 94.58C53.0133 94.6067 51.8467 94.6267 50.78 94.64Z" fill="white"/>
</svg>
