<svg width="100" height="133" viewBox="0 0 100 133" fill="none" xmlns="http://www.w3.org/2000/svg">
    <path d="M100 49.875C100 72.5785 69.5312 112.998 56.1719 129.675C52.9687 133.649 47.0312 133.649 43.8281 129.675C30.4687 112.998 0 72.5785 0 49.875C0 22.3398 22.3958 0 50 0C77.6042 0 100 22.3398 100 49.875Z"
          fill="#2C4088"/>
    <path d="M16.0163 27.2727V60H11.0625V32.2266H10.8707L3.04044 37.3402V32.6101L11.2063 27.2727H16.0163ZM35.9275 60.4474C33.637 60.4474 31.6129 60.0533 29.8551 59.2649C28.1079 58.4766 26.7389 57.3899 25.7482 56.005C24.7574 54.62 24.2674 53.0433 24.278 51.2749C24.2674 49.8899 24.5497 48.6168 25.125 47.4556C25.7109 46.2837 26.5046 45.3089 27.506 44.5312C28.5074 43.7429 29.626 43.2422 30.8618 43.0291V42.8374C29.2318 42.4432 27.9268 41.5696 26.9467 40.2166C25.9666 38.8636 25.4818 37.3082 25.4925 35.5504C25.4818 33.8778 25.924 32.3864 26.8188 31.076C27.7244 29.755 28.9655 28.7163 30.5422 27.9599C32.1189 27.2035 33.914 26.8253 35.9275 26.8253C37.9197 26.8253 39.6988 27.2088 41.2649 27.9759C42.8416 28.7322 44.0827 29.771 44.9882 31.092C45.8938 32.4023 46.3519 33.8885 46.3625 35.5504C46.3519 37.3082 45.8512 38.8636 44.8604 40.2166C43.8696 41.5696 42.5806 42.4432 40.9932 42.8374V43.0291C42.2184 43.2422 43.321 43.7429 44.3011 44.5312C45.2919 45.3089 46.0802 46.2837 46.6661 47.4556C47.2627 48.6168 47.5664 49.8899 47.577 51.2749C47.5664 53.0433 47.0657 54.62 46.0749 56.005C45.0841 57.3899 43.7098 58.4766 41.952 59.2649C40.2049 60.0533 38.1967 60.4474 35.9275 60.4474ZM35.9275 56.4045C37.2805 56.4045 38.4524 56.1808 39.4431 55.7333C40.4339 55.2752 41.201 54.6413 41.7443 53.8317C42.2876 53.0114 42.5646 52.0526 42.5752 50.9553C42.5646 49.8153 42.2663 48.8086 41.6804 47.935C41.1051 47.0614 40.322 46.3743 39.3313 45.8736C38.3405 45.3729 37.2059 45.1225 35.9275 45.1225C34.6385 45.1225 33.4932 45.3729 32.4918 45.8736C31.4904 46.3743 30.702 47.0614 30.1267 47.935C29.5514 48.8086 29.2691 49.8153 29.2798 50.9553C29.2691 52.0526 29.5301 53.0114 30.0628 53.8317C30.6061 54.6413 31.3785 55.2752 32.3799 55.7333C33.3813 56.1808 34.5639 56.4045 35.9275 56.4045ZM35.9275 41.1754C37.0142 41.1754 37.9783 40.957 38.8199 40.5202C39.6615 40.0835 40.322 39.4762 40.8014 38.6985C41.2915 37.9208 41.5419 37.0099 41.5525 35.9659C41.5419 34.9432 41.2968 34.0483 40.8174 33.2812C40.3487 32.5142 39.6935 31.9229 38.8519 31.5075C38.0103 31.0813 37.0355 30.8683 35.9275 30.8683C34.7983 30.8683 33.8075 31.0813 32.9552 31.5075C32.1136 31.9229 31.4584 32.5142 30.9897 33.2812C30.5209 34.0483 30.2919 34.9432 30.3025 35.9659C30.2919 37.0099 30.5262 37.9208 31.0056 38.6985C31.485 39.4762 32.1456 40.0835 32.9872 40.5202C33.8394 40.957 34.8196 41.1754 35.9275 41.1754ZM67.8278 41.5589V45.7138H53.3179V41.5589H67.8278ZM85.0863 60.4474C82.8917 60.4474 80.9315 60.0692 79.2057 59.3129C77.4905 58.5565 76.1321 57.5071 75.1307 56.1648C74.14 54.8118 73.6073 53.2457 73.5327 51.4666H78.5505C78.6144 52.4361 78.9393 53.2777 79.5253 53.9915C80.1218 54.6946 80.8995 55.2379 81.8584 55.6214C82.8172 56.005 83.8825 56.1967 85.0544 56.1967C86.3434 56.1967 87.4834 55.973 88.4741 55.5256C89.4755 55.0781 90.2586 54.4549 90.8232 53.6559C91.3878 52.8462 91.6701 51.9141 91.6701 50.8594C91.6701 49.7621 91.3878 48.7979 90.8232 47.967C90.2692 47.1254 89.4542 46.4648 88.3782 45.9854C87.3129 45.506 86.0238 45.2663 84.5111 45.2663H81.7465V41.2393H84.5111C85.7255 41.2393 86.7909 41.021 87.7071 40.5842C88.6339 40.1474 89.3584 39.5401 89.8804 38.7624C90.4024 37.9741 90.6634 37.0526 90.6634 35.9979C90.6634 34.9858 90.4343 34.1069 89.9763 33.3612C89.5288 32.6048 88.8896 32.0135 88.0586 31.5874C87.2383 31.1612 86.2689 30.9482 85.1503 30.9482C84.0849 30.9482 83.0888 31.1452 82.162 31.5394C81.2458 31.9229 80.5 32.4769 79.9248 33.2013C79.3495 33.9151 79.0405 34.7727 78.9979 35.7741H74.2199C74.2731 34.0057 74.7951 32.4503 75.7859 31.108C76.7873 29.7656 78.1084 28.7163 79.749 27.9599C81.3896 27.2035 83.2113 26.8253 85.2142 26.8253C87.3129 26.8253 89.124 27.2354 90.6474 28.0558C92.1815 28.8654 93.364 29.9467 94.195 31.2997C95.0366 32.6527 95.4521 34.1335 95.4415 35.7422C95.4521 37.5746 94.9407 39.13 93.9074 40.4084C92.8846 41.6868 91.521 42.5444 89.8165 42.9812V43.2369C91.9897 43.5671 93.673 44.43 94.8662 45.8256C96.07 47.2212 96.6666 48.9524 96.6559 51.0192C96.6666 52.8196 96.1659 54.4336 95.1538 55.8612C94.1524 57.2887 92.7834 58.4126 91.0469 59.233C89.3104 60.0426 87.3236 60.4474 85.0863 60.4474Z"
          fill="white"/>
    <path d="M33.1416 85.56H48.4016V87.68H33.1416V85.56ZM32.4216 97.78H49.2016V99.92H32.4216V97.78ZM39.4416 95.32H42.1016V98.62H39.4416V95.32ZM40.7616 88.46C42.0416 88.46 43.1482 88.6067 44.0816 88.9C45.0282 89.18 45.7549 89.5933 46.2616 90.14C46.7682 90.6733 47.0216 91.32 47.0216 92.08C47.0216 92.84 46.7682 93.4933 46.2616 94.04C45.7549 94.5733 45.0282 94.9867 44.0816 95.28C43.1482 95.56 42.0349 95.7 40.7416 95.7C39.4616 95.7 38.3482 95.56 37.4016 95.28C36.4682 94.9867 35.7482 94.5733 35.2416 94.04C34.7349 93.4933 34.4816 92.84 34.4816 92.08C34.4816 91.32 34.7349 90.6733 35.2416 90.14C35.7482 89.5933 36.4682 89.18 37.4016 88.9C38.3482 88.6067 39.4682 88.46 40.7616 88.46ZM40.7416 90.52C39.9816 90.52 39.3349 90.58 38.8016 90.7C38.2682 90.8067 37.8616 90.9733 37.5816 91.2C37.3149 91.4267 37.1816 91.72 37.1816 92.08C37.1816 92.4267 37.3149 92.72 37.5816 92.96C37.8616 93.1867 38.2682 93.3533 38.8016 93.46C39.3349 93.5667 39.9816 93.62 40.7416 93.62C41.5282 93.62 42.1816 93.5667 42.7016 93.46C43.2216 93.3533 43.6149 93.1867 43.8816 92.96C44.1616 92.72 44.3016 92.4267 44.3016 92.08C44.3016 91.72 44.1616 91.4267 43.8816 91.2C43.6149 90.9733 43.2216 90.8067 42.7016 90.7C42.1816 90.58 41.5282 90.52 40.7416 90.52ZM39.4416 83.44H42.1016V86.88H39.4416V83.44ZM51.64 84.6H59.56V86.72H51.64V84.6ZM53.92 88.92H56.54V93.54H53.92V88.92ZM58.52 84.6H61.14V85.76C61.14 86.4133 61.12 87.1933 61.08 88.1C61.0533 88.9933 60.9267 90.0267 60.7 91.2L58.12 90.9C58.32 89.7667 58.4333 88.7867 58.46 87.96C58.5 87.1333 58.52 86.4 58.52 85.76V84.6ZM62.92 83.24H65.6V97.1H62.92V83.24ZM64.54 88.9H67.82V91.08H64.54V88.9ZM53.24 99.32H66.2V101.46H53.24V99.32ZM53.24 95.88H55.92V99.98H53.24V95.88ZM50.78 94.64L50.54 92.52C51.6067 92.52 52.7867 92.5133 54.08 92.5C55.3733 92.4733 56.6933 92.42 58.04 92.34C59.3867 92.2467 60.68 92.1133 61.92 91.94L62.1 93.84C60.82 94.0667 59.5133 94.24 58.18 94.36C56.8467 94.4667 55.5467 94.54 54.28 94.58C53.0133 94.6067 51.8467 94.6267 50.78 94.64Z"
          fill="white"/>
</svg>
