<svg width="116" height="133" viewBox="0 0 116 133" fill="none" xmlns="http://www.w3.org/2000/svg">
    <path d="M108 49.875C108 72.5785 77.5312 112.998 64.1719 129.675C60.9687 133.649 55.0312 133.649 51.8281 129.675C38.4687 112.998 8 72.5785 8 49.875C8 22.3398 30.3958 0 58 0C85.6042 0 108 22.3398 108 49.875Z"
          fill="#2C4088"/>
    <path d="M19.1835 32.35H32.5335V51.04H19.1835V32.35ZM28.6335 35.5H23.1135V47.89H28.6335V35.5ZM36.8835 29.83H40.8735V57.7H36.8835V29.83ZM55.9612 47.65H59.9512V57.7H55.9612V47.65ZM45.4312 46.51H70.5712V49.75H45.4312V46.51ZM55.9312 34.87H59.4412V35.53C59.4412 36.45 59.2812 37.35 58.9612 38.23C58.6612 39.09 58.2012 39.9 57.5812 40.66C56.9612 41.4 56.1912 42.08 55.2712 42.7C54.3512 43.3 53.2912 43.81 52.0912 44.23C50.8912 44.63 49.5612 44.92 48.1012 45.1L46.6912 41.95C47.9512 41.81 49.0712 41.58 50.0512 41.26C51.0512 40.94 51.9212 40.56 52.6612 40.12C53.4012 39.68 54.0112 39.21 54.4912 38.71C54.9912 38.19 55.3512 37.66 55.5712 37.12C55.8112 36.56 55.9312 36.03 55.9312 35.53V34.87ZM56.4712 34.87H59.9512V35.53C59.9512 36.01 60.0712 36.53 60.3112 37.09C60.5712 37.63 60.9412 38.16 61.4212 38.68C61.9012 39.18 62.5112 39.66 63.2512 40.12C63.9912 40.56 64.8512 40.94 65.8312 41.26C66.8312 41.58 67.9512 41.81 69.1912 41.95L67.8112 45.1C66.3312 44.94 64.9912 44.65 63.7912 44.23C62.6112 43.79 61.5612 43.27 60.6412 42.67C59.7212 42.07 58.9512 41.39 58.3312 40.63C57.7112 39.85 57.2412 39.03 56.9212 38.17C56.6212 37.31 56.4712 36.43 56.4712 35.53V34.87ZM47.6812 33.04H68.2612V36.19H47.6812V33.04ZM55.9612 29.95H59.9512V34.12H55.9612V29.95ZM74.1988 31.54H96.8488V34.3H74.1988V31.54ZM85.5688 34.93C88.6488 34.93 90.9688 35.22 92.5288 35.8C94.0888 36.36 94.8688 37.24 94.8688 38.44C94.8688 39.62 94.0888 40.5 92.5288 41.08C90.9688 41.64 88.6488 41.92 85.5688 41.92C82.5088 41.92 80.1888 41.64 78.6088 41.08C77.0488 40.5 76.2688 39.62 76.2688 38.44C76.2688 37.24 77.0488 36.36 78.6088 35.8C80.1888 35.22 82.5088 34.93 85.5688 34.93ZM85.5688 37.45C83.7288 37.45 82.4188 37.53 81.6388 37.69C80.8788 37.83 80.4988 38.08 80.4988 38.44C80.4988 38.78 80.8788 39.03 81.6388 39.19C82.4188 39.33 83.7288 39.4 85.5688 39.4C87.4088 39.4 88.7088 39.33 89.4688 39.19C90.2488 39.03 90.6388 38.78 90.6388 38.44C90.6388 38.08 90.2488 37.83 89.4688 37.69C88.7088 37.53 87.4088 37.45 85.5688 37.45ZM83.5888 29.59H87.5488V33.85H83.5888V29.59ZM72.9988 43.09H98.1388V45.97H72.9988V43.09ZM83.5888 40.78H87.5488V44.56H83.5888V40.78ZM75.8788 47.05H95.0788V53.47H79.9588V55.18H75.9088V50.92H91.0288V49.78H75.8788V47.05ZM75.9088 54.73H95.8288V57.49H75.9088V54.73ZM36.4948 91V69.1818H44.847C46.4237 69.1818 47.7341 69.4304 48.7781 69.9276C49.8293 70.4176 50.6141 71.0888 51.1325 71.9411C51.6581 72.7933 51.9209 73.7592 51.9209 74.8388C51.9209 75.7266 51.7504 76.4865 51.4095 77.1186C51.0686 77.7436 50.6105 78.2514 50.0352 78.642C49.46 79.0327 48.8172 79.3132 48.107 79.4837V79.6967C48.8811 79.7393 49.6233 79.9773 50.3335 80.4105C51.0509 80.8366 51.6368 81.4403 52.0914 82.2216C52.5459 83.0028 52.7732 83.9474 52.7732 85.0554C52.7732 86.1847 52.4997 87.2003 51.9529 88.1023C51.406 88.9972 50.5821 89.7038 49.4813 90.2223C48.3804 90.7408 46.9955 91 45.3264 91H36.4948ZM40.4472 87.6974H44.6979C46.1325 87.6974 47.1659 87.424 47.798 86.8771C48.4372 86.3232 48.7568 85.6129 48.7568 84.7464C48.7568 84.1001 48.597 83.5178 48.2774 82.9993C47.9578 82.4737 47.5033 82.0618 46.9138 81.7635C46.3243 81.4581 45.6212 81.3054 44.8044 81.3054H40.4472V87.6974ZM40.4472 78.4609H44.357C45.0388 78.4609 45.6531 78.3366 46.2 78.0881C46.7469 77.8324 47.1766 77.4737 47.4891 77.0121C47.8087 76.5433 47.9685 75.9893 47.9685 75.3501C47.9685 74.505 47.6702 73.8089 47.0736 73.2621C46.4841 72.7152 45.607 72.4418 44.4422 72.4418H40.4472V78.4609ZM55.3196 78.94H80.4296V82.09H55.3196V78.94ZM65.8796 74.77H69.8696V80.17H65.8796V74.77ZM58.3496 73.51H77.5796V76.63H58.3496V73.51ZM58.3496 67.06H77.4296V70.21H62.3096V75.49H58.3496V67.06ZM67.7696 83.47C70.7696 83.47 73.1296 83.92 74.8496 84.82C76.5696 85.7 77.4296 86.96 77.4296 88.6C77.4296 90.22 76.5696 91.47 74.8496 92.35C73.1296 93.25 70.7696 93.7 67.7696 93.7C64.7696 93.7 62.4096 93.25 60.6896 92.35C58.9896 91.47 58.1396 90.22 58.1396 88.6C58.1396 86.96 58.9896 85.7 60.6896 84.82C62.4096 83.92 64.7696 83.47 67.7696 83.47ZM67.7696 86.5C66.5296 86.5 65.4896 86.58 64.6496 86.74C63.8296 86.88 63.2096 87.11 62.7896 87.43C62.3696 87.73 62.1596 88.11 62.1596 88.57C62.1596 89.05 62.3696 89.45 62.7896 89.77C63.2096 90.07 63.8296 90.3 64.6496 90.46C65.4896 90.6 66.5296 90.67 67.7696 90.67C69.0096 90.67 70.0396 90.6 70.8596 90.46C71.6996 90.3 72.3296 90.07 72.7496 89.77C73.1696 89.45 73.3796 89.05 73.3796 88.57C73.3796 88.11 73.1696 87.73 72.7496 87.43C72.3296 87.11 71.6996 86.88 70.8596 86.74C70.0396 86.58 69.0096 86.5 67.7696 86.5Z"
          fill="white"/>
</svg>
