<svg width="100" height="133" viewBox="0 0 100 133" fill="none" xmlns="http://www.w3.org/2000/svg">
    <path d="M100 49.875C100 72.5785 69.5312 112.998 56.1719 129.675C52.9687 133.649 47.0312 133.649 43.8281 129.675C30.4687 112.998 0 72.5785 0 49.875C0 22.3398 22.3958 0 50 0C77.6042 0 100 22.3398 100 49.875Z"
          fill="#2C4088"/>
    <path d="M14.4618 67V61.8295L30.4579 45.2564C32.166 43.456 33.574 41.8787 34.682 40.5245C35.8053 39.1549 36.644 37.8546 37.1979 36.6236C37.7519 35.3925 38.0289 34.0845 38.0289 32.6996C38.0289 31.13 37.6596 29.7758 36.9209 28.6371C36.1823 27.483 35.1744 26.5981 33.8972 25.9826C32.6199 25.3517 31.1811 25.0362 29.5807 25.0362C27.888 25.0362 26.4108 25.3825 25.1489 26.0749C23.8871 26.7674 22.9176 27.7446 22.2405 29.0064C21.5635 30.2682 21.2249 31.7455 21.2249 33.4382H14.4156C14.4156 30.5606 15.0773 28.0446 16.4007 25.8903C17.7241 23.7359 19.5399 22.0663 21.8481 20.8814C24.1564 19.6811 26.7801 19.081 29.7192 19.081C32.6892 19.081 35.3052 19.6734 37.5673 20.8583C39.8447 22.0278 41.6221 23.6282 42.8993 25.6594C44.1765 27.6753 44.8151 29.9528 44.8151 32.4918C44.8151 34.2461 44.4843 35.9619 43.8226 37.6392C43.1763 39.3165 42.0452 41.1862 40.4295 43.2482C38.8137 45.2949 36.567 47.7801 33.6894 50.7038L24.2949 60.5369V60.8832H45.5768V67H14.4618ZM69.9288 67.6463C67.0358 67.6463 64.4351 67.0923 62.1269 65.9844C59.8341 64.861 58.0029 63.3222 56.6333 61.3679C55.2637 59.4136 54.5328 57.1823 54.4405 54.674H61.3652C61.5345 56.7053 62.4347 58.3749 64.0658 59.6829C65.697 60.9909 67.6513 61.6449 69.9288 61.6449C71.7446 61.6449 73.3526 61.2294 74.753 60.3984C76.1687 59.5521 77.2767 58.3903 78.0768 56.913C78.8924 55.4357 79.3002 53.7507 79.3002 51.858C79.3002 49.9344 78.8847 48.2186 78.0538 46.7106C77.2228 45.2025 76.0764 44.0176 74.6145 43.1559C73.168 42.2942 71.5061 41.8556 69.6287 41.8402C68.1976 41.8402 66.7588 42.0864 65.3123 42.5788C63.8658 43.0713 62.6963 43.7176 61.8038 44.5178L55.2714 43.5483L57.9259 19.7273H83.9167V25.8441H63.8581L62.3577 39.0703H62.6347C63.558 38.1778 64.7814 37.4315 66.3048 36.8313C67.8436 36.2312 69.4902 35.9311 71.2445 35.9311C74.1221 35.9311 76.6842 36.6159 78.9309 37.9854C81.193 39.355 82.9703 41.2247 84.2629 43.5945C85.5709 45.9489 86.2172 48.6572 86.2018 51.7195C86.2172 54.7817 85.5248 57.5131 84.1244 59.9137C82.7395 62.3143 80.8159 64.207 78.3538 65.592C75.9071 66.9615 73.0987 67.6463 69.9288 67.6463Z"
          fill="white"/>
    <path d="M33.1416 85.56H48.4016V87.68H33.1416V85.56ZM32.4216 97.78H49.2016V99.92H32.4216V97.78ZM39.4416 95.32H42.1016V98.62H39.4416V95.32ZM40.7616 88.46C42.0416 88.46 43.1482 88.6067 44.0816 88.9C45.0282 89.18 45.7549 89.5933 46.2616 90.14C46.7682 90.6733 47.0216 91.32 47.0216 92.08C47.0216 92.84 46.7682 93.4933 46.2616 94.04C45.7549 94.5733 45.0282 94.9867 44.0816 95.28C43.1482 95.56 42.0349 95.7 40.7416 95.7C39.4616 95.7 38.3482 95.56 37.4016 95.28C36.4682 94.9867 35.7482 94.5733 35.2416 94.04C34.7349 93.4933 34.4816 92.84 34.4816 92.08C34.4816 91.32 34.7349 90.6733 35.2416 90.14C35.7482 89.5933 36.4682 89.18 37.4016 88.9C38.3482 88.6067 39.4682 88.46 40.7616 88.46ZM40.7416 90.52C39.9816 90.52 39.3349 90.58 38.8016 90.7C38.2682 90.8067 37.8616 90.9733 37.5816 91.2C37.3149 91.4267 37.1816 91.72 37.1816 92.08C37.1816 92.4267 37.3149 92.72 37.5816 92.96C37.8616 93.1867 38.2682 93.3533 38.8016 93.46C39.3349 93.5667 39.9816 93.62 40.7416 93.62C41.5282 93.62 42.1816 93.5667 42.7016 93.46C43.2216 93.3533 43.6149 93.1867 43.8816 92.96C44.1616 92.72 44.3016 92.4267 44.3016 92.08C44.3016 91.72 44.1616 91.4267 43.8816 91.2C43.6149 90.9733 43.2216 90.8067 42.7016 90.7C42.1816 90.58 41.5282 90.52 40.7416 90.52ZM39.4416 83.44H42.1016V86.88H39.4416V83.44ZM51.64 84.6H59.56V86.72H51.64V84.6ZM53.92 88.92H56.54V93.54H53.92V88.92ZM58.52 84.6H61.14V85.76C61.14 86.4133 61.12 87.1933 61.08 88.1C61.0533 88.9933 60.9267 90.0267 60.7 91.2L58.12 90.9C58.32 89.7667 58.4333 88.7867 58.46 87.96C58.5 87.1333 58.52 86.4 58.52 85.76V84.6ZM62.92 83.24H65.6V97.1H62.92V83.24ZM64.54 88.9H67.82V91.08H64.54V88.9ZM53.24 99.32H66.2V101.46H53.24V99.32ZM53.24 95.88H55.92V99.98H53.24V95.88ZM50.78 94.64L50.54 92.52C51.6067 92.52 52.7867 92.5133 54.08 92.5C55.3733 92.4733 56.6933 92.42 58.04 92.34C59.3867 92.2467 60.68 92.1133 61.92 91.94L62.1 93.84C60.82 94.0667 59.5133 94.24 58.18 94.36C56.8467 94.4667 55.5467 94.54 54.28 94.58C53.0133 94.6067 51.8467 94.6267 50.78 94.64Z"
          fill="white"/>
</svg>
