<svg width="100" height="133" viewBox="0 0 100 133" fill="none" xmlns="http://www.w3.org/2000/svg">
<path d="M100 49.875C100 72.5785 69.5312 112.998 56.1719 129.675C52.9687 133.649 47.0312 133.649 43.8281 129.675C30.4687 112.998 0 72.5785 0 49.875C0 22.3398 22.3958 0 50 0C77.6042 0 100 22.3398 100 49.875Z" fill="#2C4088"/>
<path d="M29.0787 67.6463C25.9087 67.6463 23.0773 67.1 20.5844 66.0075C18.1069 64.9149 16.1449 63.3991 14.6984 61.4602C13.2673 59.5059 12.4979 57.2438 12.3901 54.674H19.638C19.7303 56.0743 20.1997 57.29 21.046 58.321C21.9078 59.3366 23.0311 60.1214 24.4161 60.6754C25.801 61.2294 27.3398 61.5064 29.0325 61.5064C30.8945 61.5064 32.5411 61.1832 33.9722 60.5369C35.4187 59.8906 36.5497 58.9904 37.3653 57.8363C38.1809 56.6668 38.5886 55.3203 38.5886 53.7969C38.5886 52.2119 38.1809 50.8192 37.3653 49.619C36.5651 48.4033 35.3879 47.4492 33.8337 46.7567C32.2948 46.0643 30.4329 45.718 28.2477 45.718H24.2545V39.9013H28.2477C30.002 39.9013 31.5408 39.5858 32.8642 38.9549C34.203 38.324 35.2494 37.4469 36.0034 36.3235C36.7574 35.1848 37.1345 33.8537 37.1345 32.3303C37.1345 30.8684 36.8036 29.5988 36.1419 28.5217C35.4956 27.4291 34.5723 26.575 33.372 25.9595C32.1871 25.344 30.7868 25.0362 29.171 25.0362C27.6322 25.0362 26.1934 25.3209 24.8546 25.8903C23.5312 26.4442 22.4541 27.2444 21.6231 28.2908C20.7921 29.3218 20.3459 30.5606 20.2843 32.0071H13.3827C13.4596 29.4527 14.2136 27.206 15.6448 25.267C17.0912 23.3281 18.9994 21.8124 21.3692 20.7198C23.739 19.6272 26.3704 19.081 29.2634 19.081C32.2948 19.081 34.9109 19.6734 37.1114 20.8583C39.3273 22.0278 41.0354 23.5897 42.2357 25.544C43.4513 27.4983 44.0515 29.6373 44.0361 31.9609C44.0515 34.6077 43.3128 36.8544 41.8202 38.701C40.3429 40.5476 38.3732 41.7863 35.9111 42.4173V42.7866C39.0503 43.2636 41.4816 44.5101 43.2051 46.5259C44.944 48.5418 45.8057 51.0424 45.7904 54.0277C45.8057 56.6283 45.0825 58.9596 43.6206 61.0217C42.1741 63.0837 40.1967 64.7071 37.6884 65.892C35.1801 67.0616 32.3102 67.6463 29.0787 67.6463ZM70.9732 67.7848C67.3262 67.7694 64.2101 66.8076 61.6249 64.8995C59.0396 62.9914 57.0622 60.2138 55.6927 56.5668C54.3231 52.9197 53.6384 48.5264 53.6384 43.3867C53.6384 38.2624 54.3231 33.8845 55.6927 30.2528C57.0776 26.6212 59.0627 23.8513 61.6479 21.9432C64.2486 20.035 67.357 19.081 70.9732 19.081C74.5895 19.081 77.6902 20.0427 80.2754 21.9663C82.8607 23.8744 84.8381 26.6443 86.2076 30.2759C87.5926 33.8922 88.285 38.2624 88.285 43.3867C88.285 48.5418 87.6002 52.9428 86.2307 56.5898C84.8611 60.2215 82.8837 62.9991 80.2985 64.9226C77.7133 66.8307 74.6049 67.7848 70.9732 67.7848ZM70.9732 61.6218C74.174 61.6218 76.6746 60.0599 78.475 56.9361C80.2908 53.8123 81.1987 49.2958 81.1987 43.3867C81.1987 39.4627 80.7832 36.1465 79.9523 33.4382C79.1367 30.7145 77.9595 28.6525 76.4207 27.2521C74.8972 25.8364 73.0814 25.1285 70.9732 25.1285C67.7879 25.1285 65.2873 26.6982 63.4715 29.8374C61.6556 32.9766 60.74 37.493 60.7247 43.3867C60.7247 47.3261 61.1324 50.6577 61.948 53.3814C62.779 56.0897 63.9562 58.1441 65.4796 59.5444C67.0031 60.9293 68.8343 61.6218 70.9732 61.6218Z" fill="white"/>
<path d="M33.1416 85.56H48.4016V87.68H33.1416V85.56ZM32.4216 97.78H49.2016V99.92H32.4216V97.78ZM39.4416 95.32H42.1016V98.62H39.4416V95.32ZM40.7616 88.46C42.0416 88.46 43.1482 88.6067 44.0816 88.9C45.0282 89.18 45.7549 89.5933 46.2616 90.14C46.7682 90.6733 47.0216 91.32 47.0216 92.08C47.0216 92.84 46.7682 93.4933 46.2616 94.04C45.7549 94.5733 45.0282 94.9867 44.0816 95.28C43.1482 95.56 42.0349 95.7 40.7416 95.7C39.4616 95.7 38.3482 95.56 37.4016 95.28C36.4682 94.9867 35.7482 94.5733 35.2416 94.04C34.7349 93.4933 34.4816 92.84 34.4816 92.08C34.4816 91.32 34.7349 90.6733 35.2416 90.14C35.7482 89.5933 36.4682 89.18 37.4016 88.9C38.3482 88.6067 39.4682 88.46 40.7616 88.46ZM40.7416 90.52C39.9816 90.52 39.3349 90.58 38.8016 90.7C38.2682 90.8067 37.8616 90.9733 37.5816 91.2C37.3149 91.4267 37.1816 91.72 37.1816 92.08C37.1816 92.4267 37.3149 92.72 37.5816 92.96C37.8616 93.1867 38.2682 93.3533 38.8016 93.46C39.3349 93.5667 39.9816 93.62 40.7416 93.62C41.5282 93.62 42.1816 93.5667 42.7016 93.46C43.2216 93.3533 43.6149 93.1867 43.8816 92.96C44.1616 92.72 44.3016 92.4267 44.3016 92.08C44.3016 91.72 44.1616 91.4267 43.8816 91.2C43.6149 90.9733 43.2216 90.8067 42.7016 90.7C42.1816 90.58 41.5282 90.52 40.7416 90.52ZM39.4416 83.44H42.1016V86.88H39.4416V83.44ZM51.64 84.6H59.56V86.72H51.64V84.6ZM53.92 88.92H56.54V93.54H53.92V88.92ZM58.52 84.6H61.14V85.76C61.14 86.4133 61.12 87.1933 61.08 88.1C61.0533 88.9933 60.9267 90.0267 60.7 91.2L58.12 90.9C58.32 89.7667 58.4333 88.7867 58.46 87.96C58.5 87.1333 58.52 86.4 58.52 85.76V84.6ZM62.92 83.24H65.6V97.1H62.92V83.24ZM64.54 88.9H67.82V91.08H64.54V88.9ZM53.24 99.32H66.2V101.46H53.24V99.32ZM53.24 95.88H55.92V99.98H53.24V95.88ZM50.78 94.64L50.54 92.52C51.6067 92.52 52.7867 92.5133 54.08 92.5C55.3733 92.4733 56.6933 92.42 58.04 92.34C59.3867 92.2467 60.68 92.1133 61.92 91.94L62.1 93.84C60.82 94.0667 59.5133 94.24 58.18 94.36C56.8467 94.4667 55.5467 94.54 54.28 94.58C53.0133 94.6067 51.8467 94.6267 50.78 94.64Z" fill="white"/>
</svg>
