<svg width="100" height="133" viewBox="0 0 100 133" fill="none" xmlns="http://www.w3.org/2000/svg">
    <path d="M100 49.875C100 72.5785 69.5312 112.998 56.1719 129.675C52.9687 133.649 47.0312 133.649 43.8281 129.675C30.4687 112.998 0 72.5785 0 49.875C0 22.3398 22.3958 0 50 0C77.6042 0 100 22.3398 100 49.875Z"
          fill="#2C4088"/>
    <path d="M14.0809 67V61.8295L30.077 45.2564C31.7851 43.456 33.1931 41.8787 34.3011 40.5245C35.4244 39.1549 36.2631 37.8546 36.8171 36.6236C37.3711 35.3925 37.648 34.0845 37.648 32.6996C37.648 31.13 37.2787 29.7758 36.5401 28.6371C35.8014 27.483 34.7935 26.5981 33.5163 25.9826C32.2391 25.3517 30.8003 25.0362 29.1999 25.0362C27.5072 25.0362 26.0299 25.3825 24.7681 26.0749C23.5062 26.7674 22.5368 27.7446 21.8597 29.0064C21.1826 30.2682 20.8441 31.7455 20.8441 33.4382H14.0348C14.0348 30.5606 14.6965 28.0446 16.0198 25.8903C17.3432 23.7359 19.159 22.0663 21.4673 20.8814C23.7755 19.6811 26.3992 19.081 29.3384 19.081C32.3083 19.081 34.9243 19.6734 37.1864 20.8583C39.4639 22.0278 41.2412 23.6282 42.5184 25.6594C43.7956 27.6753 44.4343 29.9528 44.4343 32.4918C44.4343 34.2461 44.1034 35.9619 43.4417 37.6392C42.7954 39.3165 41.6644 41.1862 40.0486 43.2482C38.4328 45.2949 36.1862 47.7801 33.3086 50.7038L23.914 60.5369V60.8832H45.196V67H14.0809ZM69.9172 67.6463C66.6087 67.6463 63.685 67.0769 61.1459 65.9382C58.6222 64.7995 56.6448 63.2299 55.2137 61.2294C53.7826 59.2289 53.0748 56.9515 53.0902 54.397C53.0748 52.3965 53.4826 50.5576 54.3135 48.8803C55.1599 47.1876 56.3063 45.7796 57.7528 44.6562C59.1993 43.5175 60.8151 42.7943 62.6001 42.4865V42.2095C60.2457 41.6402 58.3606 40.3783 56.9449 38.424C55.5292 36.4697 54.829 34.223 54.8444 31.6839C54.829 29.268 55.4676 27.1136 56.7603 25.2209C58.0683 23.3127 59.861 21.8124 62.1385 20.7198C64.4159 19.6272 67.0088 19.081 69.9172 19.081C72.7948 19.081 75.3647 19.6349 77.6267 20.7429C79.9042 21.8355 81.6969 23.3358 83.0049 25.244C84.3129 27.1367 84.9746 29.2834 84.99 31.6839C84.9746 34.223 84.2514 36.4697 82.8203 38.424C81.3892 40.3783 79.5272 41.6402 77.2343 42.2095V42.4865C79.004 42.7943 80.5967 43.5175 82.0124 44.6562C83.4435 45.7796 84.5822 47.1876 85.4286 48.8803C86.2903 50.5576 86.7289 52.3965 86.7443 54.397C86.7289 56.9515 86.0056 59.2289 84.5745 61.2294C83.1434 63.2299 81.1583 64.7995 78.6193 65.9382C76.0956 67.0769 73.1949 67.6463 69.9172 67.6463ZM69.9172 61.8065C71.8715 61.8065 73.5642 61.4833 74.9953 60.837C76.4264 60.1753 77.5344 59.2597 78.3192 58.0902C79.104 56.9053 79.5041 55.5204 79.5195 53.9354C79.5041 52.2888 79.0732 50.8346 78.2269 49.5728C77.3959 48.311 76.2649 47.3184 74.8338 46.5952C73.4027 45.8719 71.7638 45.5103 69.9172 45.5103C68.0552 45.5103 66.401 45.8719 64.9545 46.5952C63.508 47.3184 62.3693 48.311 61.5383 49.5728C60.7073 50.8346 60.2996 52.2888 60.3149 53.9354C60.2996 55.5204 60.6766 56.9053 61.446 58.0902C62.2308 59.2597 63.3464 60.1753 64.7929 60.837C66.2394 61.4833 67.9475 61.8065 69.9172 61.8065ZM69.9172 39.8089C71.4868 39.8089 72.8795 39.4935 74.0951 38.8626C75.3108 38.2317 76.2649 37.3545 76.9573 36.2312C77.6652 35.1078 78.0268 33.7921 78.0422 32.2841C78.0268 30.8068 77.6729 29.5142 76.9804 28.4062C76.3033 27.2983 75.357 26.4442 74.1413 25.8441C72.9256 25.2286 71.5176 24.9208 69.9172 24.9208C68.2861 24.9208 66.855 25.2286 65.6239 25.8441C64.4082 26.4442 63.4618 27.2983 62.7848 28.4062C62.1077 29.5142 61.7768 30.8068 61.7922 32.2841C61.7768 33.7921 62.1154 35.1078 62.8078 36.2312C63.5003 37.3545 64.4544 38.2317 65.6701 38.8626C66.9011 39.4935 68.3168 39.8089 69.9172 39.8089Z"
          fill="white"/>
    <path d="M33.1416 85.56H48.4016V87.68H33.1416V85.56ZM32.4216 97.78H49.2016V99.92H32.4216V97.78ZM39.4416 95.32H42.1016V98.62H39.4416V95.32ZM40.7616 88.46C42.0416 88.46 43.1482 88.6067 44.0816 88.9C45.0282 89.18 45.7549 89.5933 46.2616 90.14C46.7682 90.6733 47.0216 91.32 47.0216 92.08C47.0216 92.84 46.7682 93.4933 46.2616 94.04C45.7549 94.5733 45.0282 94.9867 44.0816 95.28C43.1482 95.56 42.0349 95.7 40.7416 95.7C39.4616 95.7 38.3482 95.56 37.4016 95.28C36.4682 94.9867 35.7482 94.5733 35.2416 94.04C34.7349 93.4933 34.4816 92.84 34.4816 92.08C34.4816 91.32 34.7349 90.6733 35.2416 90.14C35.7482 89.5933 36.4682 89.18 37.4016 88.9C38.3482 88.6067 39.4682 88.46 40.7616 88.46ZM40.7416 90.52C39.9816 90.52 39.3349 90.58 38.8016 90.7C38.2682 90.8067 37.8616 90.9733 37.5816 91.2C37.3149 91.4267 37.1816 91.72 37.1816 92.08C37.1816 92.4267 37.3149 92.72 37.5816 92.96C37.8616 93.1867 38.2682 93.3533 38.8016 93.46C39.3349 93.5667 39.9816 93.62 40.7416 93.62C41.5282 93.62 42.1816 93.5667 42.7016 93.46C43.2216 93.3533 43.6149 93.1867 43.8816 92.96C44.1616 92.72 44.3016 92.4267 44.3016 92.08C44.3016 91.72 44.1616 91.4267 43.8816 91.2C43.6149 90.9733 43.2216 90.8067 42.7016 90.7C42.1816 90.58 41.5282 90.52 40.7416 90.52ZM39.4416 83.44H42.1016V86.88H39.4416V83.44ZM51.64 84.6H59.56V86.72H51.64V84.6ZM53.92 88.92H56.54V93.54H53.92V88.92ZM58.52 84.6H61.14V85.76C61.14 86.4133 61.12 87.1933 61.08 88.1C61.0533 88.9933 60.9267 90.0267 60.7 91.2L58.12 90.9C58.32 89.7667 58.4333 88.7867 58.46 87.96C58.5 87.1333 58.52 86.4 58.52 85.76V84.6ZM62.92 83.24H65.6V97.1H62.92V83.24ZM64.54 88.9H67.82V91.08H64.54V88.9ZM53.24 99.32H66.2V101.46H53.24V99.32ZM53.24 95.88H55.92V99.98H53.24V95.88ZM50.78 94.64L50.54 92.52C51.6067 92.52 52.7867 92.5133 54.08 92.5C55.3733 92.4733 56.6933 92.42 58.04 92.34C59.3867 92.2467 60.68 92.1133 61.92 91.94L62.1 93.84C60.82 94.0667 59.5133 94.24 58.18 94.36C56.8467 94.4667 55.5467 94.54 54.28 94.58C53.0133 94.6067 51.8467 94.6267 50.78 94.64Z"
          fill="white"/>
</svg>
