<svg width="100" height="133" viewBox="0 0 100 133" fill="none" xmlns="http://www.w3.org/2000/svg">
    <path d="M100 49.875C100 72.5785 69.5312 112.998 56.1719 129.675C52.9687 133.649 47.0312 133.649 43.8281 129.675C30.4687 112.998 0 72.5785 0 49.875C0 22.3398 22.3958 0 50 0C77.6042 0 100 22.3398 100 49.875Z"
          fill="#2C4088"/>
    <path d="M36.1737 19.7273V67H29.0181V26.8828H28.7411L17.4308 34.2692V27.4368L29.2259 19.7273H36.1737ZM65.419 67.6463C62.2491 67.6463 59.4176 67.1 56.9247 66.0075C54.4472 64.9149 52.4852 63.3991 51.0387 61.4602C49.6076 59.5059 48.8382 57.2438 48.7305 54.674H55.9783C56.0707 56.0743 56.54 57.29 57.3864 58.321C58.2481 59.3366 59.3714 60.1214 60.7564 60.6754C62.1413 61.2294 63.6802 61.5064 65.3729 61.5064C67.2348 61.5064 68.8814 61.1832 70.3125 60.5369C71.759 59.8906 72.89 58.9904 73.7056 57.8363C74.5212 56.6668 74.929 55.3203 74.929 53.7969C74.929 52.2119 74.5212 50.8192 73.7056 49.619C72.9054 48.4033 71.7282 47.4492 70.174 46.7567C68.6352 46.0643 66.7732 45.718 64.5881 45.718H60.5948V39.9013H64.5881C66.3423 39.9013 67.8812 39.5858 69.2045 38.9549C70.5433 38.324 71.5897 37.4469 72.3438 36.3235C73.0978 35.1848 73.4748 33.8537 73.4748 32.3303C73.4748 30.8684 73.1439 29.5988 72.4822 28.5217C71.8359 27.4291 70.9126 26.575 69.7124 25.9595C68.5275 25.344 67.1271 25.0362 65.5114 25.0362C63.9725 25.0362 62.5337 25.3209 61.195 25.8903C59.8716 26.4442 58.7944 27.2444 57.9634 28.2908C57.1325 29.3218 56.6862 30.5606 56.6246 32.0071H49.723C49.8 29.4527 50.554 27.206 51.9851 25.267C53.4316 23.3281 55.3397 21.8124 57.7095 20.7198C60.0793 19.6272 62.7107 19.081 65.6037 19.081C68.6352 19.081 71.2512 19.6734 73.4517 20.8583C75.6676 22.0278 77.3757 23.5897 78.576 25.544C79.7917 27.4983 80.3918 29.6373 80.3764 31.9609C80.3918 34.6077 79.6532 36.8544 78.1605 38.701C76.6832 40.5476 74.7135 41.7863 72.2514 42.4173V42.7866C75.3906 43.2636 77.822 44.5101 79.5455 46.5259C81.2843 48.5418 82.1461 51.0424 82.1307 54.0277C82.1461 56.6283 81.4228 58.9596 79.9609 61.0217C78.5144 63.0837 76.5371 64.7071 74.0288 65.892C71.5205 67.0616 68.6506 67.6463 65.419 67.6463Z"
          fill="white"/>
    <path d="M33.1416 85.56H48.4016V87.68H33.1416V85.56ZM32.4216 97.78H49.2016V99.92H32.4216V97.78ZM39.4416 95.32H42.1016V98.62H39.4416V95.32ZM40.7616 88.46C42.0416 88.46 43.1482 88.6067 44.0816 88.9C45.0282 89.18 45.7549 89.5933 46.2616 90.14C46.7682 90.6733 47.0216 91.32 47.0216 92.08C47.0216 92.84 46.7682 93.4933 46.2616 94.04C45.7549 94.5733 45.0282 94.9867 44.0816 95.28C43.1482 95.56 42.0349 95.7 40.7416 95.7C39.4616 95.7 38.3482 95.56 37.4016 95.28C36.4682 94.9867 35.7482 94.5733 35.2416 94.04C34.7349 93.4933 34.4816 92.84 34.4816 92.08C34.4816 91.32 34.7349 90.6733 35.2416 90.14C35.7482 89.5933 36.4682 89.18 37.4016 88.9C38.3482 88.6067 39.4682 88.46 40.7616 88.46ZM40.7416 90.52C39.9816 90.52 39.3349 90.58 38.8016 90.7C38.2682 90.8067 37.8616 90.9733 37.5816 91.2C37.3149 91.4267 37.1816 91.72 37.1816 92.08C37.1816 92.4267 37.3149 92.72 37.5816 92.96C37.8616 93.1867 38.2682 93.3533 38.8016 93.46C39.3349 93.5667 39.9816 93.62 40.7416 93.62C41.5282 93.62 42.1816 93.5667 42.7016 93.46C43.2216 93.3533 43.6149 93.1867 43.8816 92.96C44.1616 92.72 44.3016 92.4267 44.3016 92.08C44.3016 91.72 44.1616 91.4267 43.8816 91.2C43.6149 90.9733 43.2216 90.8067 42.7016 90.7C42.1816 90.58 41.5282 90.52 40.7416 90.52ZM39.4416 83.44H42.1016V86.88H39.4416V83.44ZM51.64 84.6H59.56V86.72H51.64V84.6ZM53.92 88.92H56.54V93.54H53.92V88.92ZM58.52 84.6H61.14V85.76C61.14 86.4133 61.12 87.1933 61.08 88.1C61.0533 88.9933 60.9267 90.0267 60.7 91.2L58.12 90.9C58.32 89.7667 58.4333 88.7867 58.46 87.96C58.5 87.1333 58.52 86.4 58.52 85.76V84.6ZM62.92 83.24H65.6V97.1H62.92V83.24ZM64.54 88.9H67.82V91.08H64.54V88.9ZM53.24 99.32H66.2V101.46H53.24V99.32ZM53.24 95.88H55.92V99.98H53.24V95.88ZM50.78 94.64L50.54 92.52C51.6067 92.52 52.7867 92.5133 54.08 92.5C55.3733 92.4733 56.6933 92.42 58.04 92.34C59.3867 92.2467 60.68 92.1133 61.92 91.94L62.1 93.84C60.82 94.0667 59.5133 94.24 58.18 94.36C56.8467 94.4667 55.5467 94.54 54.28 94.58C53.0133 94.6067 51.8467 94.6267 50.78 94.64Z"
          fill="white"/>
</svg>
