<svg width="116" height="133" viewBox="0 0 116 133" fill="none" xmlns="http://www.w3.org/2000/svg">
<path d="M108 49.875C108 72.5785 77.5312 112.998 64.1719 129.675C60.9687 133.649 55.0312 133.649 51.8281 129.675C38.4687 112.998 8 72.5785 8 49.875C8 22.3398 30.3958 0 58 0C85.6042 0 108 22.3398 108 49.875Z" fill="#2C4088"/>
<path d="M19.1835 32.35H32.5335V51.04H19.1835V32.35ZM28.6335 35.5H23.1135V47.89H28.6335V35.5ZM36.8835 29.83H40.8735V57.7H36.8835V29.83ZM55.9612 47.65H59.9512V57.7H55.9612V47.65ZM45.4312 46.51H70.5712V49.75H45.4312V46.51ZM55.9312 34.87H59.4412V35.53C59.4412 36.45 59.2812 37.35 58.9612 38.23C58.6612 39.09 58.2012 39.9 57.5812 40.66C56.9612 41.4 56.1912 42.08 55.2712 42.7C54.3512 43.3 53.2912 43.81 52.0912 44.23C50.8912 44.63 49.5612 44.92 48.1012 45.1L46.6912 41.95C47.9512 41.81 49.0712 41.58 50.0512 41.26C51.0512 40.94 51.9212 40.56 52.6612 40.12C53.4012 39.68 54.0112 39.21 54.4912 38.71C54.9912 38.19 55.3512 37.66 55.5712 37.12C55.8112 36.56 55.9312 36.03 55.9312 35.53V34.87ZM56.4712 34.87H59.9512V35.53C59.9512 36.01 60.0712 36.53 60.3112 37.09C60.5712 37.63 60.9412 38.16 61.4212 38.68C61.9012 39.18 62.5112 39.66 63.2512 40.12C63.9912 40.56 64.8512 40.94 65.8312 41.26C66.8312 41.58 67.9512 41.81 69.1912 41.95L67.8112 45.1C66.3312 44.94 64.9912 44.65 63.7912 44.23C62.6112 43.79 61.5612 43.27 60.6412 42.67C59.7212 42.07 58.9512 41.39 58.3312 40.63C57.7112 39.85 57.2412 39.03 56.9212 38.17C56.6212 37.31 56.4712 36.43 56.4712 35.53V34.87ZM47.6812 33.04H68.2612V36.19H47.6812V33.04ZM55.9612 29.95H59.9512V34.12H55.9612V29.95ZM74.1988 31.54H96.8488V34.3H74.1988V31.54ZM85.5688 34.93C88.6488 34.93 90.9688 35.22 92.5288 35.8C94.0888 36.36 94.8688 37.24 94.8688 38.44C94.8688 39.62 94.0888 40.5 92.5288 41.08C90.9688 41.64 88.6488 41.92 85.5688 41.92C82.5088 41.92 80.1888 41.64 78.6088 41.08C77.0488 40.5 76.2688 39.62 76.2688 38.44C76.2688 37.24 77.0488 36.36 78.6088 35.8C80.1888 35.22 82.5088 34.93 85.5688 34.93ZM85.5688 37.45C83.7288 37.45 82.4188 37.53 81.6388 37.69C80.8788 37.83 80.4988 38.08 80.4988 38.44C80.4988 38.78 80.8788 39.03 81.6388 39.19C82.4188 39.33 83.7288 39.4 85.5688 39.4C87.4088 39.4 88.7088 39.33 89.4688 39.19C90.2488 39.03 90.6388 38.78 90.6388 38.44C90.6388 38.08 90.2488 37.83 89.4688 37.69C88.7088 37.53 87.4088 37.45 85.5688 37.45ZM83.5888 29.59H87.5488V33.85H83.5888V29.59ZM72.9988 43.09H98.1388V45.97H72.9988V43.09ZM83.5888 40.78H87.5488V44.56H83.5888V40.78ZM75.8788 47.05H95.0788V53.47H79.9588V55.18H75.9088V50.92H91.0288V49.78H75.8788V47.05ZM75.9088 54.73H95.8288V57.49H75.9088V54.73ZM38.3005 91H34.0818L41.7629 69.1818H46.6421L54.3339 91H50.1151L44.2877 73.6562H44.1173L38.3005 91ZM38.439 82.4453H49.9447V85.62H38.439V82.4453ZM56.3157 78.94H81.4257V82.09H56.3157V78.94ZM66.8757 74.77H70.8657V80.17H66.8757V74.77ZM59.3457 73.51H78.5757V76.63H59.3457V73.51ZM59.3457 67.06H78.4257V70.21H63.3057V75.49H59.3457V67.06ZM68.7657 83.47C71.7657 83.47 74.1257 83.92 75.8457 84.82C77.5657 85.7 78.4257 86.96 78.4257 88.6C78.4257 90.22 77.5657 91.47 75.8457 92.35C74.1257 93.25 71.7657 93.7 68.7657 93.7C65.7657 93.7 63.4057 93.25 61.6857 92.35C59.9857 91.47 59.1357 90.22 59.1357 88.6C59.1357 86.96 59.9857 85.7 61.6857 84.82C63.4057 83.92 65.7657 83.47 68.7657 83.47ZM68.7657 86.5C67.5257 86.5 66.4857 86.58 65.6457 86.74C64.8257 86.88 64.2057 87.11 63.7857 87.43C63.3657 87.73 63.1557 88.11 63.1557 88.57C63.1557 89.05 63.3657 89.45 63.7857 89.77C64.2057 90.07 64.8257 90.3 65.6457 90.46C66.4857 90.6 67.5257 90.67 68.7657 90.67C70.0057 90.67 71.0357 90.6 71.8557 90.46C72.6957 90.3 73.3257 90.07 73.7457 89.77C74.1657 89.45 74.3757 89.05 74.3757 88.57C74.3757 88.11 74.1657 87.73 73.7457 87.43C73.3257 87.11 72.6957 86.88 71.8557 86.74C71.0357 86.58 70.0057 86.5 68.7657 86.5Z" fill="white"/>
</svg>
