<svg width="100" height="133" viewBox="0 0 100 133" fill="none" xmlns="http://www.w3.org/2000/svg">
    <path d="M100 49.875C100 72.5785 69.5312 112.998 56.1719 129.675C52.9687 133.649 47.0312 133.649 43.8281 129.675C30.4687 112.998 0 72.5785 0 49.875C0 22.3398 22.3958 0 50 0C77.6042 0 100 22.3398 100 49.875Z"
          fill="#2C4088"/>
    <path d="M13.6366 67V61.8295L29.6327 45.2564C31.3408 43.456 32.7488 41.8787 33.8568 40.5245C34.9801 39.1549 35.8188 37.8546 36.3727 36.6236C36.9267 35.3925 37.2037 34.0845 37.2037 32.6996C37.2037 31.13 36.8344 29.7758 36.0957 28.6371C35.3571 27.483 34.3492 26.5981 33.072 25.9826C31.7947 25.3517 30.3559 25.0362 28.7555 25.0362C27.0628 25.0362 25.5856 25.3825 24.3237 26.0749C23.0619 26.7674 22.0924 27.7446 21.4154 29.0064C20.7383 30.2682 20.3997 31.7455 20.3997 33.4382H13.5904C13.5904 30.5606 14.2521 28.0446 15.5755 25.8903C16.8989 23.7359 18.7147 22.0663 21.0229 20.8814C23.3312 19.6811 25.9549 19.081 28.894 19.081C31.864 19.081 34.48 19.6734 36.7421 20.8583C39.0195 22.0278 40.7969 23.6282 42.0741 25.6594C43.3513 27.6753 43.9899 29.9528 43.9899 32.4918C43.9899 34.2461 43.6591 35.9619 42.9974 37.6392C42.3511 39.3165 41.22 41.1862 39.6043 43.2482C37.9885 45.2949 35.7418 47.7801 32.8642 50.7038L23.4697 60.5369V60.8832H44.7516V67H13.6366ZM69.9576 67.7848C66.3106 67.7694 63.1945 66.8076 60.6092 64.8995C58.024 62.9914 56.0466 60.2138 54.6771 56.5668C53.3075 52.9197 52.6227 48.5264 52.6227 43.3867C52.6227 38.2624 53.3075 33.8845 54.6771 30.2528C56.062 26.6212 58.0471 23.8513 60.6323 21.9432C63.2329 20.035 66.3414 19.081 69.9576 19.081C73.5738 19.081 76.6746 20.0427 79.2598 21.9663C81.845 23.8744 83.8224 26.6443 85.192 30.2759C86.5769 33.8922 87.2694 38.2624 87.2694 43.3867C87.2694 48.5418 86.5846 52.9428 85.2151 56.5898C83.8455 60.2215 81.8681 62.9991 79.2829 64.9226C76.6977 66.8307 73.5892 67.7848 69.9576 67.7848ZM69.9576 61.6218C73.1584 61.6218 75.659 60.0599 77.4594 56.9361C79.2752 53.8123 80.1831 49.2958 80.1831 43.3867C80.1831 39.4627 79.7676 36.1465 78.9367 33.4382C78.1211 30.7145 76.9439 28.6525 75.4051 27.2521C73.8816 25.8364 72.0658 25.1285 69.9576 25.1285C66.7722 25.1285 64.2716 26.6982 62.4558 29.8374C60.64 32.9766 59.7244 37.493 59.709 43.3867C59.709 47.3261 60.1168 50.6577 60.9324 53.3814C61.7634 56.0897 62.9406 58.1441 64.464 59.5444C65.9874 60.9293 67.8186 61.6218 69.9576 61.6218Z"
          fill="white"/>
    <path d="M33.1416 85.56H48.4016V87.68H33.1416V85.56ZM32.4216 97.78H49.2016V99.92H32.4216V97.78ZM39.4416 95.32H42.1016V98.62H39.4416V95.32ZM40.7616 88.46C42.0416 88.46 43.1482 88.6067 44.0816 88.9C45.0282 89.18 45.7549 89.5933 46.2616 90.14C46.7682 90.6733 47.0216 91.32 47.0216 92.08C47.0216 92.84 46.7682 93.4933 46.2616 94.04C45.7549 94.5733 45.0282 94.9867 44.0816 95.28C43.1482 95.56 42.0349 95.7 40.7416 95.7C39.4616 95.7 38.3482 95.56 37.4016 95.28C36.4682 94.9867 35.7482 94.5733 35.2416 94.04C34.7349 93.4933 34.4816 92.84 34.4816 92.08C34.4816 91.32 34.7349 90.6733 35.2416 90.14C35.7482 89.5933 36.4682 89.18 37.4016 88.9C38.3482 88.6067 39.4682 88.46 40.7616 88.46ZM40.7416 90.52C39.9816 90.52 39.3349 90.58 38.8016 90.7C38.2682 90.8067 37.8616 90.9733 37.5816 91.2C37.3149 91.4267 37.1816 91.72 37.1816 92.08C37.1816 92.4267 37.3149 92.72 37.5816 92.96C37.8616 93.1867 38.2682 93.3533 38.8016 93.46C39.3349 93.5667 39.9816 93.62 40.7416 93.62C41.5282 93.62 42.1816 93.5667 42.7016 93.46C43.2216 93.3533 43.6149 93.1867 43.8816 92.96C44.1616 92.72 44.3016 92.4267 44.3016 92.08C44.3016 91.72 44.1616 91.4267 43.8816 91.2C43.6149 90.9733 43.2216 90.8067 42.7016 90.7C42.1816 90.58 41.5282 90.52 40.7416 90.52ZM39.4416 83.44H42.1016V86.88H39.4416V83.44ZM51.64 84.6H59.56V86.72H51.64V84.6ZM53.92 88.92H56.54V93.54H53.92V88.92ZM58.52 84.6H61.14V85.76C61.14 86.4133 61.12 87.1933 61.08 88.1C61.0533 88.9933 60.9267 90.0267 60.7 91.2L58.12 90.9C58.32 89.7667 58.4333 88.7867 58.46 87.96C58.5 87.1333 58.52 86.4 58.52 85.76V84.6ZM62.92 83.24H65.6V97.1H62.92V83.24ZM64.54 88.9H67.82V91.08H64.54V88.9ZM53.24 99.32H66.2V101.46H53.24V99.32ZM53.24 95.88H55.92V99.98H53.24V95.88ZM50.78 94.64L50.54 92.52C51.6067 92.52 52.7867 92.5133 54.08 92.5C55.3733 92.4733 56.6933 92.42 58.04 92.34C59.3867 92.2467 60.68 92.1133 61.92 91.94L62.1 93.84C60.82 94.0667 59.5133 94.24 58.18 94.36C56.8467 94.4667 55.5467 94.54 54.28 94.58C53.0133 94.6067 51.8467 94.6267 50.78 94.64Z"
          fill="white"/>
</svg>
