<svg width="100" height="133" viewBox="0 0 100 133" fill="none" xmlns="http://www.w3.org/2000/svg">
<path d="M100 49.875C100 72.5785 69.5312 112.998 56.1719 129.675C52.9687 133.649 47.0312 133.649 43.8281 129.675C30.4687 112.998 0 72.5785 0 49.875C0 22.3398 22.3958 0 50 0C77.6042 0 100 22.3398 100 49.875Z" fill="#2C4088"/>
<path d="M49.9856 67.6463C46.6771 67.6463 43.7533 67.0769 41.2143 65.9382C38.6906 64.7995 36.7132 63.2299 35.2821 61.2294C33.851 59.2289 33.1431 56.9515 33.1585 54.397C33.1431 52.3965 33.5509 50.5576 34.3819 48.8803C35.2282 47.1876 36.3747 45.7796 37.8212 44.6562C39.2677 43.5175 40.8834 42.7943 42.6685 42.4865V42.2095C40.3141 41.6402 38.429 40.3783 37.0133 38.424C35.5976 36.4697 34.8974 34.223 34.9128 31.6839C34.8974 29.268 35.536 27.1136 36.8286 25.2209C38.1366 23.3127 39.9293 21.8124 42.2068 20.7198C44.4843 19.6272 47.0772 19.081 49.9856 19.081C52.8632 19.081 55.433 19.6349 57.6951 20.7429C59.9726 21.8355 61.7653 23.3358 63.0733 25.244C64.3813 27.1367 65.043 29.2834 65.0584 31.6839C65.043 34.223 64.3197 36.4697 62.8886 38.424C61.4575 40.3783 59.5955 41.6402 57.3027 42.2095V42.4865C59.0723 42.7943 60.665 43.5175 62.0807 44.6562C63.5119 45.7796 64.6506 47.1876 65.4969 48.8803C66.3587 50.5576 66.7972 52.3965 66.8126 54.397C66.7972 56.9515 66.074 59.2289 64.6429 61.2294C63.2118 63.2299 61.2267 64.7995 58.6876 65.9382C56.164 67.0769 53.2633 67.6463 49.9856 67.6463ZM49.9856 61.8065C51.9399 61.8065 53.6326 61.4833 55.0637 60.837C56.4948 60.1753 57.6028 59.2597 58.3876 58.0902C59.1724 56.9053 59.5725 55.5204 59.5878 53.9354C59.5725 52.2888 59.1416 50.8346 58.2952 49.5728C57.4643 48.311 56.3332 47.3184 54.9021 46.5952C53.471 45.8719 51.8322 45.5103 49.9856 45.5103C48.1236 45.5103 46.4694 45.8719 45.0229 46.5952C43.5764 47.3184 42.4376 48.311 41.6067 49.5728C40.7757 50.8346 40.3679 52.2888 40.3833 53.9354C40.3679 55.5204 40.7449 56.9053 41.5143 58.0902C42.2991 59.2597 43.4148 60.1753 44.8613 60.837C46.3078 61.4833 48.0159 61.8065 49.9856 61.8065ZM49.9856 39.8089C51.5552 39.8089 52.9478 39.4935 54.1635 38.8626C55.3792 38.2317 56.3332 37.3545 57.0257 36.2312C57.7336 35.1078 58.0952 33.7921 58.1106 32.2841C58.0952 30.8068 57.7413 29.5142 57.0488 28.4062C56.3717 27.2983 55.4253 26.4442 54.2097 25.8441C52.994 25.2286 51.586 24.9208 49.9856 24.9208C48.3544 24.9208 46.9233 25.2286 45.6922 25.8441C44.4766 26.4442 43.5302 27.2983 42.8531 28.4062C42.176 29.5142 41.8452 30.8068 41.8606 32.2841C41.8452 33.7921 42.1837 35.1078 42.8762 36.2312C43.5687 37.3545 44.5227 38.2317 45.7384 38.8626C46.9695 39.4935 48.3852 39.8089 49.9856 39.8089Z" fill="white"/>
<path d="M33.1416 85.56H48.4016V87.68H33.1416V85.56ZM32.4216 97.78H49.2016V99.92H32.4216V97.78ZM39.4416 95.32H42.1016V98.62H39.4416V95.32ZM40.7616 88.46C42.0416 88.46 43.1482 88.6067 44.0816 88.9C45.0282 89.18 45.7549 89.5933 46.2616 90.14C46.7682 90.6733 47.0216 91.32 47.0216 92.08C47.0216 92.84 46.7682 93.4933 46.2616 94.04C45.7549 94.5733 45.0282 94.9867 44.0816 95.28C43.1482 95.56 42.0349 95.7 40.7416 95.7C39.4616 95.7 38.3482 95.56 37.4016 95.28C36.4682 94.9867 35.7482 94.5733 35.2416 94.04C34.7349 93.4933 34.4816 92.84 34.4816 92.08C34.4816 91.32 34.7349 90.6733 35.2416 90.14C35.7482 89.5933 36.4682 89.18 37.4016 88.9C38.3482 88.6067 39.4682 88.46 40.7616 88.46ZM40.7416 90.52C39.9816 90.52 39.3349 90.58 38.8016 90.7C38.2682 90.8067 37.8616 90.9733 37.5816 91.2C37.3149 91.4267 37.1816 91.72 37.1816 92.08C37.1816 92.4267 37.3149 92.72 37.5816 92.96C37.8616 93.1867 38.2682 93.3533 38.8016 93.46C39.3349 93.5667 39.9816 93.62 40.7416 93.62C41.5282 93.62 42.1816 93.5667 42.7016 93.46C43.2216 93.3533 43.6149 93.1867 43.8816 92.96C44.1616 92.72 44.3016 92.4267 44.3016 92.08C44.3016 91.72 44.1616 91.4267 43.8816 91.2C43.6149 90.9733 43.2216 90.8067 42.7016 90.7C42.1816 90.58 41.5282 90.52 40.7416 90.52ZM39.4416 83.44H42.1016V86.88H39.4416V83.44ZM51.64 84.6H59.56V86.72H51.64V84.6ZM53.92 88.92H56.54V93.54H53.92V88.92ZM58.52 84.6H61.14V85.76C61.14 86.4133 61.12 87.1933 61.08 88.1C61.0533 88.9933 60.9267 90.0267 60.7 91.2L58.12 90.9C58.32 89.7667 58.4333 88.7867 58.46 87.96C58.5 87.1333 58.52 86.4 58.52 85.76V84.6ZM62.92 83.24H65.6V97.1H62.92V83.24ZM64.54 88.9H67.82V91.08H64.54V88.9ZM53.24 99.32H66.2V101.46H53.24V99.32ZM53.24 95.88H55.92V99.98H53.24V95.88ZM50.78 94.64L50.54 92.52C51.6067 92.52 52.7867 92.5133 54.08 92.5C55.3733 92.4733 56.6933 92.42 58.04 92.34C59.3867 92.2467 60.68 92.1133 61.92 91.94L62.1 93.84C60.82 94.0667 59.5133 94.24 58.18 94.36C56.8467 94.4667 55.5467 94.54 54.28 94.58C53.0133 94.6067 51.8467 94.6267 50.78 94.64Z" fill="white"/>
</svg>
