<svg width="100" height="133" viewBox="0 0 100 133" fill="none" xmlns="http://www.w3.org/2000/svg">
<path d="M100 49.875C100 72.5785 69.5312 112.998 56.1719 129.675C52.9687 133.649 47.0312 133.649 43.8281 129.675C30.4687 112.998 0 72.5785 0 49.875C0 22.3398 22.3958 0 50 0C77.6042 0 100 22.3398 100 49.875Z" fill="#2C4088"/>
<path d="M36.4593 19.7273V67H29.3038V26.8828H29.0268L17.7164 34.2692V27.4368L29.5115 19.7273H36.4593ZM65.7508 67.6463C63.6427 67.6155 61.5652 67.2308 59.5186 66.4922C57.4873 65.7536 55.6408 64.5225 53.9788 62.799C52.3169 61.0755 50.9858 58.7596 49.9856 55.8512C49.0007 52.9428 48.5083 49.3112 48.5083 44.9563C48.5083 40.8323 48.9161 37.1699 49.7317 33.9691C50.5626 30.7683 51.7552 28.0677 53.3094 25.8672C54.8637 23.6513 56.741 21.9663 58.9415 20.8121C61.1421 19.658 63.6119 19.081 66.351 19.081C69.167 19.081 71.6676 19.6349 73.8528 20.7429C76.0379 21.8509 77.8075 23.382 79.1617 25.3363C80.5313 27.2906 81.4007 29.5142 81.77 32.0071H74.7299C74.2529 30.0374 73.3065 28.4293 71.8908 27.1829C70.475 25.9364 68.6284 25.3132 66.351 25.3132C62.8886 25.3132 60.188 26.8213 58.2491 29.8374C56.3255 32.8535 55.3561 37.0468 55.3407 42.4173H55.6869C56.5025 41.0785 57.5027 39.9397 58.6876 39.0011C59.8879 38.047 61.2267 37.316 62.704 36.8082C64.1966 36.285 65.7662 36.0234 67.4128 36.0234C70.1519 36.0234 72.6294 36.6928 74.8453 38.0316C77.0766 39.355 78.8539 41.1862 80.1773 43.5252C81.5007 45.8642 82.1624 48.5418 82.1624 51.5579C82.1624 54.574 81.4776 57.3054 80.1081 59.7521C78.7539 62.1989 76.8458 64.1378 74.3837 65.5689C71.9215 66.9846 69.0439 67.6771 65.7508 67.6463ZM65.7278 61.6449C67.5436 61.6449 69.167 61.1986 70.5981 60.3061C72.0293 59.4136 73.1603 58.2133 73.9913 56.7053C74.8222 55.1972 75.2377 53.5122 75.2377 51.6502C75.2377 49.8344 74.8299 48.1802 74.0143 46.6875C73.2142 45.1948 72.1062 44.0099 70.6905 43.1328C69.2901 42.2557 67.6898 41.8171 65.8893 41.8171C64.5198 41.8171 63.2503 42.0787 62.0807 42.6019C60.9266 43.1251 59.911 43.8484 59.0339 44.7717C58.1567 45.695 57.4643 46.7567 56.9565 47.957C56.464 49.1419 56.2178 50.3961 56.2178 51.7195C56.2178 53.4891 56.6256 55.128 57.4412 56.636C58.2722 58.1441 59.4032 59.3597 60.8343 60.283C62.2808 61.1909 63.9119 61.6449 65.7278 61.6449Z" fill="white"/>
<path d="M33.1416 85.56H48.4016V87.68H33.1416V85.56ZM32.4216 97.78H49.2016V99.92H32.4216V97.78ZM39.4416 95.32H42.1016V98.62H39.4416V95.32ZM40.7616 88.46C42.0416 88.46 43.1482 88.6067 44.0816 88.9C45.0282 89.18 45.7549 89.5933 46.2616 90.14C46.7682 90.6733 47.0216 91.32 47.0216 92.08C47.0216 92.84 46.7682 93.4933 46.2616 94.04C45.7549 94.5733 45.0282 94.9867 44.0816 95.28C43.1482 95.56 42.0349 95.7 40.7416 95.7C39.4616 95.7 38.3482 95.56 37.4016 95.28C36.4682 94.9867 35.7482 94.5733 35.2416 94.04C34.7349 93.4933 34.4816 92.84 34.4816 92.08C34.4816 91.32 34.7349 90.6733 35.2416 90.14C35.7482 89.5933 36.4682 89.18 37.4016 88.9C38.3482 88.6067 39.4682 88.46 40.7616 88.46ZM40.7416 90.52C39.9816 90.52 39.3349 90.58 38.8016 90.7C38.2682 90.8067 37.8616 90.9733 37.5816 91.2C37.3149 91.4267 37.1816 91.72 37.1816 92.08C37.1816 92.4267 37.3149 92.72 37.5816 92.96C37.8616 93.1867 38.2682 93.3533 38.8016 93.46C39.3349 93.5667 39.9816 93.62 40.7416 93.62C41.5282 93.62 42.1816 93.5667 42.7016 93.46C43.2216 93.3533 43.6149 93.1867 43.8816 92.96C44.1616 92.72 44.3016 92.4267 44.3016 92.08C44.3016 91.72 44.1616 91.4267 43.8816 91.2C43.6149 90.9733 43.2216 90.8067 42.7016 90.7C42.1816 90.58 41.5282 90.52 40.7416 90.52ZM39.4416 83.44H42.1016V86.88H39.4416V83.44ZM51.64 84.6H59.56V86.72H51.64V84.6ZM53.92 88.92H56.54V93.54H53.92V88.92ZM58.52 84.6H61.14V85.76C61.14 86.4133 61.12 87.1933 61.08 88.1C61.0533 88.9933 60.9267 90.0267 60.7 91.2L58.12 90.9C58.32 89.7667 58.4333 88.7867 58.46 87.96C58.5 87.1333 58.52 86.4 58.52 85.76V84.6ZM62.92 83.24H65.6V97.1H62.92V83.24ZM64.54 88.9H67.82V91.08H64.54V88.9ZM53.24 99.32H66.2V101.46H53.24V99.32ZM53.24 95.88H55.92V99.98H53.24V95.88ZM50.78 94.64L50.54 92.52C51.6067 92.52 52.7867 92.5133 54.08 92.5C55.3733 92.4733 56.6933 92.42 58.04 92.34C59.3867 92.2467 60.68 92.1133 61.92 91.94L62.1 93.84C60.82 94.0667 59.5133 94.24 58.18 94.36C56.8467 94.4667 55.5467 94.54 54.28 94.58C53.0133 94.6067 51.8467 94.6267 50.78 94.64Z" fill="white"/>
</svg>
