<svg width="100" height="133" viewBox="0 0 100 133" fill="none" xmlns="http://www.w3.org/2000/svg">
    <path d="M100 49.875C100 72.5785 69.5312 112.998 56.1719 129.675C52.9687 133.649 47.0312 133.649 43.8281 129.675C30.4687 112.998 0 72.5785 0 49.875C0 22.3398 22.3958 0 50 0C77.6042 0 100 22.3398 100 49.875Z"
          fill="#2C4088"/>
    <path d="M49.6047 19.081C51.7129 19.0964 53.7903 19.4811 55.837 20.2351C57.8836 20.9891 59.7302 22.2202 61.3767 23.9283C63.0387 25.6364 64.3621 27.9446 65.3469 30.853C66.3471 33.746 66.855 37.3468 66.8703 41.6555C66.8703 45.795 66.4549 49.4805 65.6239 52.712C64.7929 55.9281 63.6003 58.6442 62.0461 60.8601C60.5073 63.076 58.6376 64.761 56.4371 65.9151C54.2366 67.0692 51.7591 67.6463 49.0046 67.6463C46.1885 67.6463 43.6879 67.0923 41.5028 65.9844C39.3177 64.8764 37.5403 63.3453 36.1708 61.391C34.8012 59.4213 33.9472 57.1592 33.6086 54.6048H40.6487C41.1104 56.636 42.0491 58.2826 43.4648 59.5444C44.8959 60.7908 46.7425 61.4141 49.0046 61.4141C52.4669 61.4141 55.1676 59.906 57.1065 56.8899C59.0454 53.8584 60.0226 49.6267 60.038 44.1946H59.6686C58.8684 45.518 57.8682 46.6567 56.6679 47.6108C55.483 48.5649 54.1519 49.3035 52.6747 49.8267C51.1974 50.3499 49.6201 50.6115 47.9428 50.6115C45.2191 50.6115 42.7416 49.9421 40.5103 48.6033C38.279 47.2646 36.5016 45.4257 35.1782 43.0866C33.8548 40.7476 33.1931 38.0778 33.1931 35.0771C33.1931 32.0917 33.8702 29.3834 35.2244 26.9521C36.5939 24.5207 38.5021 22.5972 40.9488 21.1815C43.4109 19.7504 46.2962 19.0502 49.6047 19.081ZM49.6278 25.0824C47.8274 25.0824 46.2039 25.5286 44.7574 26.4212C43.3263 27.2983 42.1953 28.4909 41.3643 29.9989C40.5333 31.4916 40.1179 33.1535 40.1179 34.9847C40.1179 36.8159 40.5179 38.4779 41.3181 39.9705C42.1337 41.4478 43.2417 42.625 44.642 43.5021C46.0577 44.3639 47.6735 44.7947 49.4893 44.7947C50.8435 44.7947 52.1053 44.5331 53.2748 44.0099C54.4443 43.4867 55.4676 42.7635 56.3448 41.8402C57.2219 40.9015 57.9067 39.8397 58.3991 38.6548C58.8915 37.4699 59.1377 36.2235 59.1377 34.9155C59.1377 33.1766 58.7223 31.5608 57.8913 30.0682C57.0757 28.5755 55.9524 27.3752 54.5213 26.4673C53.0902 25.544 51.459 25.0824 49.6278 25.0824Z"
          fill="white"/>
    <path d="M33.1416 85.56H48.4016V87.68H33.1416V85.56ZM32.4216 97.78H49.2016V99.92H32.4216V97.78ZM39.4416 95.32H42.1016V98.62H39.4416V95.32ZM40.7616 88.46C42.0416 88.46 43.1482 88.6067 44.0816 88.9C45.0282 89.18 45.7549 89.5933 46.2616 90.14C46.7682 90.6733 47.0216 91.32 47.0216 92.08C47.0216 92.84 46.7682 93.4933 46.2616 94.04C45.7549 94.5733 45.0282 94.9867 44.0816 95.28C43.1482 95.56 42.0349 95.7 40.7416 95.7C39.4616 95.7 38.3482 95.56 37.4016 95.28C36.4682 94.9867 35.7482 94.5733 35.2416 94.04C34.7349 93.4933 34.4816 92.84 34.4816 92.08C34.4816 91.32 34.7349 90.6733 35.2416 90.14C35.7482 89.5933 36.4682 89.18 37.4016 88.9C38.3482 88.6067 39.4682 88.46 40.7616 88.46ZM40.7416 90.52C39.9816 90.52 39.3349 90.58 38.8016 90.7C38.2682 90.8067 37.8616 90.9733 37.5816 91.2C37.3149 91.4267 37.1816 91.72 37.1816 92.08C37.1816 92.4267 37.3149 92.72 37.5816 92.96C37.8616 93.1867 38.2682 93.3533 38.8016 93.46C39.3349 93.5667 39.9816 93.62 40.7416 93.62C41.5282 93.62 42.1816 93.5667 42.7016 93.46C43.2216 93.3533 43.6149 93.1867 43.8816 92.96C44.1616 92.72 44.3016 92.4267 44.3016 92.08C44.3016 91.72 44.1616 91.4267 43.8816 91.2C43.6149 90.9733 43.2216 90.8067 42.7016 90.7C42.1816 90.58 41.5282 90.52 40.7416 90.52ZM39.4416 83.44H42.1016V86.88H39.4416V83.44ZM51.64 84.6H59.56V86.72H51.64V84.6ZM53.92 88.92H56.54V93.54H53.92V88.92ZM58.52 84.6H61.14V85.76C61.14 86.4133 61.12 87.1933 61.08 88.1C61.0533 88.9933 60.9267 90.0267 60.7 91.2L58.12 90.9C58.32 89.7667 58.4333 88.7867 58.46 87.96C58.5 87.1333 58.52 86.4 58.52 85.76V84.6ZM62.92 83.24H65.6V97.1H62.92V83.24ZM64.54 88.9H67.82V91.08H64.54V88.9ZM53.24 99.32H66.2V101.46H53.24V99.32ZM53.24 95.88H55.92V99.98H53.24V95.88ZM50.78 94.64L50.54 92.52C51.6067 92.52 52.7867 92.5133 54.08 92.5C55.3733 92.4733 56.6933 92.42 58.04 92.34C59.3867 92.2467 60.68 92.1133 61.92 91.94L62.1 93.84C60.82 94.0667 59.5133 94.24 58.18 94.36C56.8467 94.4667 55.5467 94.54 54.28 94.58C53.0133 94.6067 51.8467 94.6267 50.78 94.64Z"
          fill="white"/>
</svg>
