<svg width="17" height="12" viewBox="0 0 17 12" fill="none" xmlns="http://www.w3.org/2000/svg">
    <path d="M0.334229 11.8084V6.80415C0.334229 6.42883 0.410045 6.08827 0.561678 5.78245C0.713311 5.47664 0.913191 5.20557 1.16132 4.96926V2.63395C1.16132 1.93892 1.40255 1.34814 1.88502 0.86162C2.36749 0.375097 2.95334 0.131836 3.64258 0.131836H6.95094C7.26799 0.131836 7.56436 0.190914 7.84006 0.309069C8.11576 0.427225 8.37078 0.590558 8.60512 0.799067C8.83946 0.590558 9.09448 0.427225 9.37018 0.309069C9.64587 0.190914 9.94225 0.131836 10.2593 0.131836H13.5677C14.2569 0.131836 14.8427 0.375097 15.3252 0.86162C15.8077 1.34814 16.0489 1.93892 16.0489 2.63395V4.96926C16.297 5.20557 16.4969 5.47664 16.6486 5.78245C16.8002 6.08827 16.876 6.42883 16.876 6.80415V11.8084H15.2218V10.1403H1.98841V11.8084H0.334229ZM9.43221 4.30203H14.3947V2.63395C14.3947 2.39764 14.3155 2.19956 14.157 2.0397C13.9984 1.87984 13.802 1.79991 13.5677 1.79991H10.2593C10.025 1.79991 9.82852 1.87984 9.67 2.0397C9.51147 2.19956 9.43221 2.39764 9.43221 2.63395V4.30203ZM2.8155 4.30203H7.77803V2.63395C7.77803 2.39764 7.69877 2.19956 7.54024 2.0397C7.38172 1.87984 7.18528 1.79991 6.95094 1.79991H3.64258C3.40824 1.79991 3.21181 1.87984 3.05328 2.0397C2.89476 2.19956 2.8155 2.39764 2.8155 2.63395V4.30203ZM1.98841 8.47223H15.2218V6.80415C15.2218 6.56784 15.1426 6.36975 14.984 6.2099C14.8255 6.05004 14.6291 5.97011 14.3947 5.97011H2.8155C2.58115 5.97011 2.38472 6.05004 2.22619 6.2099C2.06767 6.36975 1.98841 6.56784 1.98841 6.80415V8.47223Z"
          fill="white"/>
</svg>
