<svg width="32" height="32" viewBox="0 0 32 32" fill="none" xmlns="http://www.w3.org/2000/svg">
    <path fill-rule="evenodd" clip-rule="evenodd"
          d="M16 32C24.8366 32 32 24.8366 32 16C32 7.16344 24.8366 0 16 0C7.16344 0 0 7.16344 0 16C0 24.8366 7.16344 32 16 32Z"
          fill="#521313"/>
    <path d="M11.7975 21.757H12.7005C12.7005 22.261 12.6609 22.7417 12.5815 23.199C12.5069 23.6563 12.3669 24.0903 12.1615 24.501C11.9562 24.9117 11.6645 25.2967 11.2865 25.656C10.9085 26.0153 10.4162 26.349 9.80955 26.657L9.31255 25.943C9.81655 25.691 10.2295 25.4227 10.5515 25.138C10.8782 24.8487 11.1302 24.5407 11.3075 24.214C11.4895 23.8827 11.6155 23.5233 11.6855 23.136C11.7602 22.7487 11.7975 22.3287 11.7975 21.876V21.757ZM9.71855 21.757H12.3435V22.499H9.71855V21.757ZM11.8185 23.346V24.06L9.49455 24.284L9.37555 23.493L11.8185 23.346ZM13.4845 21.127H14.4225V27.609H13.4845V21.127ZM14.1845 23.612H15.3255V24.375H14.1845V23.612ZM20.526 21.141H21.408V27.623H20.526V21.141ZM18.622 23.5H19.49V24.312H18.622V23.5ZM19.238 21.26H20.106V27.315H19.238V21.26ZM15.829 21.869H18.783V22.611H15.829V21.869ZM15.822 26.153L15.724 25.39C15.9247 25.39 16.1557 25.39 16.417 25.39C16.6783 25.3853 16.9513 25.3783 17.236 25.369C17.5207 25.355 17.803 25.3387 18.083 25.32C18.3677 25.2967 18.6337 25.2687 18.881 25.236L18.937 25.908C18.6057 25.9827 18.2487 26.0387 17.866 26.076C17.4833 26.1087 17.1123 26.1297 16.753 26.139C16.3983 26.1483 16.088 26.153 15.822 26.153ZM16.228 22.338H17.068V25.593H16.228V22.338ZM17.537 22.338H18.37V25.593H17.537V22.338Z"
          fill="white"/>
    <path d="M9 17H23V18H9V17ZM20.25 8.5H12C11.7348 8.5 11.4804 8.60536 11.2929 8.79289C11.1054 8.98043 11 9.23478 11 9.5V13.5C11.0008 14.1628 11.2644 14.7982 11.7331 15.2669C12.2018 15.7356 12.8372 15.9992 13.5 16H17.5C18.1628 15.9992 18.7982 15.7356 19.2669 15.2669C19.7356 14.7982 19.9992 14.1628 20 13.5V13H20.25C20.8467 13 21.419 12.7629 21.841 12.341C22.2629 11.919 22.5 11.3467 22.5 10.75C22.5 10.1533 22.2629 9.58097 21.841 9.15901C21.419 8.73705 20.8467 8.5 20.25 8.5ZM19 13.5C18.9996 13.8977 18.8414 14.279 18.5602 14.5602C18.279 14.8414 17.8977 14.9996 17.5 15H13.5C13.1023 14.9996 12.721 14.8414 12.4398 14.5602C12.1586 14.279 12.0004 13.8977 12 13.5V9.5H19V13.5ZM20.25 12H20V9.5H20.25C20.5815 9.5 20.8995 9.6317 21.1339 9.86612C21.3683 10.1005 21.5 10.4185 21.5 10.75C21.5 11.0815 21.3683 11.3995 21.1339 11.6339C20.8995 11.8683 20.5815 12 20.25 12ZM17.5 7.5H16.5V7.427C16.5006 7.24118 16.4492 7.05891 16.3515 6.90082C16.2539 6.74273 16.1139 6.61514 15.9475 6.5325L14.605 5.862C14.2721 5.69673 13.9922 5.44155 13.7969 5.12537C13.6016 4.80918 13.4988 4.44463 13.5 4.073V3.5H14.5V4.073C14.4994 4.25887 14.5509 4.44118 14.6487 4.59928C14.7464 4.75737 14.8865 4.88493 15.053 4.9675L16.3945 5.638C16.7275 5.8032 17.0075 6.05835 17.2029 6.37454C17.3983 6.69073 17.5012 7.05532 17.5 7.427V7.5Z"
          fill="white"/>
</svg>
