<svg width="32" height="32" viewBox="0 0 32 32" fill="none" xmlns="http://www.w3.org/2000/svg">
    <path fill-rule="evenodd" clip-rule="evenodd"
          d="M16 32C24.8366 32 32 24.8366 32 16C32 7.16344 24.8366 0 16 0C7.16344 0 0 7.16344 0 16C0 24.8366 7.16344 32 16 32Z"
          fill="#00C907"/>
    <path d="M11.1148 21.141H12.0528V25.915H11.1148V21.141ZM6.78182 21.596H10.2048V22.345H6.78182V21.596ZM6.71882 25.138L6.62782 24.382C6.97315 24.382 7.35582 24.3797 7.77582 24.375C8.19582 24.3657 8.62282 24.3517 9.05682 24.333C9.49082 24.3097 9.90149 24.2747 10.2888 24.228L10.3448 24.914C9.94349 24.9793 9.52815 25.0283 9.09882 25.061C8.66949 25.0937 8.24949 25.1147 7.83882 25.124C7.43282 25.1333 7.05949 25.138 6.71882 25.138ZM7.29982 22.254H8.19582V24.466H7.29982V22.254ZM8.80482 22.254H9.69382V24.466H8.80482V22.254ZM10.3308 22.268H11.6258V23.017H10.3308V22.268ZM10.3308 23.577H11.6258V24.319H10.3308V23.577ZM7.76882 26.762H12.1928V27.511H7.76882V26.762ZM7.76882 25.558H8.69982V27.322H7.76882V25.558ZM15.1533 21.568C15.4893 21.568 15.7926 21.6357 16.0633 21.771C16.3339 21.9063 16.5463 22.0953 16.7003 22.338C16.8543 22.576 16.9313 22.8513 16.9313 23.164C16.9313 23.472 16.8543 23.7473 16.7003 23.99C16.5463 24.2327 16.3339 24.4217 16.0633 24.557C15.7926 24.6923 15.4893 24.76 15.1533 24.76C14.8126 24.76 14.5069 24.6923 14.2363 24.557C13.9656 24.4217 13.7509 24.2327 13.5923 23.99C13.4383 23.7473 13.3613 23.472 13.3613 23.164C13.3613 22.8513 13.4383 22.576 13.5923 22.338C13.7509 22.0953 13.9656 21.9063 14.2363 21.771C14.5069 21.6357 14.8126 21.568 15.1533 21.568ZM15.1533 22.366C14.9853 22.366 14.8336 22.3987 14.6983 22.464C14.5676 22.5247 14.4626 22.6157 14.3833 22.737C14.3086 22.8537 14.2713 22.996 14.2713 23.164C14.2713 23.332 14.3086 23.4767 14.3833 23.598C14.4626 23.7193 14.5676 23.8127 14.6983 23.878C14.8336 23.9387 14.9853 23.969 15.1533 23.969C15.3166 23.969 15.4636 23.9387 15.5943 23.878C15.7249 23.8127 15.8276 23.7193 15.9023 23.598C15.9816 23.4767 16.0213 23.332 16.0213 23.164C16.0213 22.996 15.9816 22.8537 15.9023 22.737C15.8276 22.6157 15.7249 22.5247 15.5943 22.464C15.4636 22.3987 15.3166 22.366 15.1533 22.366ZM17.5403 21.127H18.4713V27.63H17.5403V21.127ZM13.2003 26.321L13.0953 25.565C13.4733 25.565 13.8909 25.5627 14.3483 25.558C14.8103 25.5487 15.2839 25.53 15.7693 25.502C16.2593 25.4693 16.7329 25.4203 17.1903 25.355L17.2533 26.027C16.7866 26.1203 16.3129 26.188 15.8323 26.23C15.3516 26.2673 14.8873 26.293 14.4393 26.307C13.9913 26.3163 13.5783 26.321 13.2003 26.321ZM23.0137 22.625H24.2387V23.381H23.0137V22.625ZM23.9937 21.141H24.9317V24.886H23.9937V21.141ZM20.6057 25.145H24.9317V27.553H20.6057V25.145ZM24.0147 25.873H21.5227V26.818H24.0147V25.873ZM21.0047 21.736H21.7607V22.149C21.7607 22.555 21.6954 22.9423 21.5647 23.311C21.4341 23.6797 21.2334 24.004 20.9627 24.284C20.6967 24.5593 20.3537 24.7647 19.9337 24.9L19.4717 24.165C19.7377 24.0763 19.9664 23.962 20.1577 23.822C20.3537 23.6773 20.5124 23.514 20.6337 23.332C20.7597 23.15 20.8531 22.9587 20.9137 22.758C20.9744 22.5573 21.0047 22.3543 21.0047 22.149V21.736ZM21.2007 21.736H21.9427V22.142C21.9427 22.394 21.9941 22.646 22.0967 22.898C22.1994 23.1453 22.3581 23.3693 22.5727 23.57C22.7921 23.7707 23.0721 23.9293 23.4127 24.046L22.9577 24.774C22.5564 24.6387 22.2251 24.438 21.9637 24.172C21.7071 23.906 21.5157 23.598 21.3897 23.248C21.2637 22.898 21.2007 22.5293 21.2007 22.142V21.736ZM19.7237 21.463H23.2097V22.205H19.7237V21.463Z"
          fill="white"/>
    <path d="M10.998 7.069C10.998 7.069 11.186 6.007 11.998 6.007H13.004V5.727C13.004 5.59439 13.0567 5.46722 13.1504 5.37345C13.2442 5.27968 13.3714 5.227 13.504 5.227H17.488C17.6206 5.227 17.7478 5.27968 17.8415 5.37345C17.9353 5.46722 17.988 5.59439 17.988 5.727V6.007H18.998C19.1193 6.00625 19.2393 6.0321 19.3495 6.08272C19.4597 6.13334 19.5575 6.20751 19.636 6.3C19.8177 6.52291 19.942 6.78694 19.998 7.069C19.998 7.069 20.309 8.641 20.59 9.987H19.652L19 7L11.982 6.996L11.334 9.986H10.382L10.998 7.069ZM21.998 11.983C21.998 12.248 21.8928 12.5022 21.7055 12.6898C21.5181 12.8773 21.264 12.9827 20.999 12.983L19.999 16.956C19.999 16.956 19.811 17.998 18.999 17.998H11.999C11.186 17.998 10.999 16.956 10.999 16.956L9.981 12.98C9.72153 12.97 9.47617 12.8593 9.29689 12.6715C9.11762 12.4836 9.01852 12.2334 9.0206 11.9737C9.02268 11.7141 9.12577 11.4655 9.30804 11.2805C9.4903 11.0956 9.73741 10.9889 9.997 10.983H20.997C21.2622 10.983 21.5166 11.0884 21.7041 11.2759C21.8916 11.4634 21.997 11.7178 21.997 11.983M13.033 16.13L13.03 15.005L12.64 13.469C12.6305 13.399 12.6074 13.3316 12.5719 13.2705C12.5363 13.2095 12.4892 13.156 12.433 13.1132C12.3768 13.0704 12.3127 13.0391 12.2444 13.021C12.1762 13.003 12.105 12.9985 12.035 13.008C11.965 13.0175 11.8976 13.0406 11.8365 13.0761C11.7755 13.1116 11.722 13.1588 11.6792 13.215C11.6364 13.2712 11.6051 13.3353 11.587 13.4035C11.569 13.4718 11.5645 13.543 11.574 13.613L11.78 15.008L11.967 16.275C11.9862 16.4164 12.0608 16.5443 12.1744 16.6307C12.2879 16.717 12.4311 16.7547 12.5725 16.7355C12.7139 16.7163 12.8418 16.6417 12.9281 16.5281C13.0145 16.4146 13.0522 16.2714 13.033 16.13ZM15.033 13.533C15.033 13.4629 15.0192 13.3935 14.9923 13.3288C14.9655 13.2641 14.9261 13.2053 14.8765 13.1558C14.8269 13.1063 14.7681 13.067 14.7033 13.0403C14.6385 13.0136 14.5691 12.9999 14.499 13H14.489C14.4223 12.9999 14.3563 13.0131 14.2948 13.0388C14.2334 13.0646 14.1777 13.1024 14.131 13.15C14.0789 13.1995 14.0374 13.259 14.009 13.325C13.9807 13.3911 13.966 13.4622 13.966 13.534V16.214C13.966 16.3555 14.0222 16.4912 14.1223 16.5912C14.2223 16.6913 14.358 16.7475 14.4995 16.7475C14.641 16.7475 14.7767 16.6913 14.8767 16.5912C14.9768 16.4912 15.033 16.3555 15.033 16.214V13.533ZM17.031 13.533C17.0309 13.4265 16.9987 13.3225 16.9385 13.2345C16.8784 13.1466 16.7932 13.0788 16.694 13.04C16.6319 13.0135 16.565 12.9998 16.4975 12.9998C16.43 12.9998 16.3631 13.0135 16.301 13.04C16.2018 13.0788 16.1166 13.1466 16.0565 13.2345C15.9963 13.3225 15.9641 13.4265 15.964 13.533V16.213C15.964 16.3545 16.0202 16.4902 16.1203 16.5902C16.2203 16.6903 16.356 16.7465 16.4975 16.7465C16.639 16.7465 16.7747 16.6903 16.8747 16.5902C16.9748 16.4902 17.031 16.3545 17.031 16.213V13.533ZM19.416 13.613C19.4255 13.5431 19.421 13.472 19.403 13.4037C19.385 13.3355 19.3537 13.2715 19.3109 13.2154C19.2682 13.1592 19.2148 13.1121 19.1538 13.0766C19.0928 13.0411 19.0254 13.018 18.9555 13.0085C18.8856 12.999 18.8145 13.0035 18.7462 13.0215C18.678 13.0395 18.614 13.0708 18.5579 13.1136C18.5017 13.1563 18.4546 13.2097 18.4191 13.2707C18.3836 13.3317 18.3605 13.3991 18.351 13.469L17.96 14.994L17.958 16.13C17.9485 16.1999 17.9528 16.271 17.9708 16.3393C17.9888 16.4075 18.02 16.4716 18.0627 16.5278C18.1054 16.5839 18.1588 16.6312 18.2197 16.6667C18.2807 16.7023 18.3481 16.7255 18.418 16.735C18.4879 16.7445 18.559 16.7402 18.6273 16.7222C18.6955 16.7042 18.7596 16.673 18.8158 16.6303C18.8719 16.5876 18.9192 16.5342 18.9547 16.4733C18.9903 16.4123 19.0135 16.3449 19.023 16.275L19.416 13.613Z"
          fill="white"/>
</svg>
