<svg width="32" height="32" viewBox="0 0 32 32" fill="none" xmlns="http://www.w3.org/2000/svg">
<path fill-rule="evenodd" clip-rule="evenodd" d="M16 32C24.8366 32 32 24.8366 32 16C32 7.16344 24.8366 0 16 0C7.16344 0 0 7.16344 0 16C0 24.8366 7.16344 32 16 32Z" fill="#003FB3"/>
<path d="M13.5125 22.134H14.4435V25.788H13.5125V22.134ZM14.1915 23.499H15.3045V24.262H14.1915V23.499ZM10.2295 26.082H14.4435V28.553H10.2295V26.082ZM13.5405 26.817H11.1465V27.818H13.5405V26.817ZM9.60655 22.442H10.5375V25.095H9.60655V22.442ZM9.60655 24.696H10.1455C10.5889 24.696 11.0485 24.6797 11.5245 24.647C12.0052 24.6097 12.4999 24.542 13.0085 24.444L13.1135 25.186C12.5909 25.2933 12.0799 25.368 11.5805 25.41C11.0859 25.4473 10.6075 25.466 10.1455 25.466H9.60655V24.696ZM17.236 23.163H17.971V23.891C17.971 24.2503 17.9313 24.6097 17.852 24.969C17.7773 25.3283 17.6653 25.6667 17.516 25.984C17.3667 26.2967 17.1777 26.5767 16.949 26.824C16.725 27.0713 16.4637 27.265 16.165 27.405L15.64 26.67C15.9107 26.544 16.144 26.3783 16.34 26.173C16.5407 25.9677 16.7063 25.739 16.837 25.487C16.9723 25.235 17.0727 24.9737 17.138 24.703C17.2033 24.4277 17.236 24.157 17.236 23.891V23.163ZM17.432 23.163H18.167V23.891C18.167 24.1337 18.1997 24.3833 18.265 24.64C18.3303 24.8967 18.426 25.144 18.552 25.382C18.6827 25.62 18.846 25.837 19.042 26.033C19.2427 26.2243 19.476 26.3807 19.742 26.502L19.224 27.244C18.9253 27.104 18.664 26.9173 18.44 26.684C18.2207 26.446 18.034 26.1777 17.88 25.879C17.7307 25.5757 17.6187 25.256 17.544 24.92C17.4693 24.5793 17.432 24.2363 17.432 23.891V23.163ZM15.892 22.757H19.455V23.527H15.892V22.757ZM19.924 22.141H20.862V28.623H19.924V22.141ZM20.659 24.612H21.8V25.375H20.659V24.612Z" fill="white"/>
<path d="M13.8751 9.5V19.8125C13.8737 19.936 13.8969 20.0586 13.9435 20.1729C13.9902 20.2873 14.0592 20.3912 14.1465 20.4786C14.2338 20.5659 14.3378 20.6349 14.4521 20.6815C14.5665 20.7281 14.6891 20.7514 14.8126 20.75C14.9361 20.7514 15.0586 20.7281 15.173 20.6815C15.2874 20.6349 15.3913 20.5659 15.4786 20.4786C15.566 20.3912 15.635 20.2873 15.6816 20.1729C15.7282 20.0586 15.7515 19.936 15.7501 19.8125M15.7501 19.8125L15.7501 14.5M15.7501 19.8125C15.7487 19.936 15.7719 20.0586 15.8185 20.1729C15.8652 20.2873 15.9342 20.3912 16.0215 20.4786C16.1088 20.5659 16.2128 20.6349 16.3271 20.6815C16.4415 20.7281 16.5641 20.7514 16.6876 20.75C16.8111 20.7514 16.9336 20.7281 17.048 20.6815C17.1624 20.6349 17.2663 20.5659 17.3536 20.4786C17.441 20.3912 17.51 20.2873 17.5566 20.1729C17.6032 20.0586 17.6265 19.936 17.6251 19.8125V9.5M13.8751 8.875V12.3125C13.8765 12.436 13.8533 12.5586 13.8067 12.673C13.7601 12.7874 13.6911 12.8913 13.6037 12.9787C13.5164 13.066 13.4125 13.135 13.2981 13.1816C13.1837 13.2282 13.0611 13.2515 12.9376 13.25C12.814 13.2515 12.6915 13.2282 12.5771 13.1816C12.4627 13.135 12.3587 13.066 12.2714 12.9787C12.184 12.8913 12.115 12.7874 12.0684 12.673C12.0218 12.5586 11.9986 12.436 12.0001 12.3125V8.875C12.0001 8.37772 12.1976 7.90081 12.5492 7.54917C12.9009 7.19754 13.3778 7 13.8751 7H17.6251C18.1223 7 18.5993 7.19754 18.9509 7.54917C19.3025 7.90081 19.5001 8.37772 19.5001 8.875V12.3125C19.5015 12.436 19.4783 12.5586 19.4317 12.673C19.3851 12.7874 19.3161 12.8913 19.2287 12.9787C19.1414 13.066 19.0375 13.135 18.9231 13.1816C18.8087 13.2282 18.6861 13.2515 18.5626 13.25C18.439 13.2515 18.3165 13.2282 18.2021 13.1816C18.0877 13.135 17.9837 13.066 17.8964 12.9787C17.809 12.8913 17.74 12.7874 17.6934 12.673C17.6468 12.5586 17.6236 12.436 17.6251 12.3125V8.875M17.3126 3.5625C17.3126 4.42544 16.613 5.125 15.7501 5.125C14.8871 5.125 14.1876 4.42544 14.1876 3.5625C14.1876 2.69956 14.8871 2 15.7501 2C16.613 2 17.3126 2.69956 17.3126 3.5625Z" stroke="white" stroke-miterlimit="10" stroke-linecap="round"/>
</svg>
