<svg width="32" height="32" viewBox="0 0 32 32" fill="none" xmlns="http://www.w3.org/2000/svg">
    <path fill-rule="evenodd" clip-rule="evenodd"
          d="M16 32C24.8366 32 32 24.8366 32 16C32 7.16344 24.8366 0 16 0C7.16344 0 0 7.16344 0 16C0 24.8366 7.16344 32 16 32Z"
          fill="#008F05"/>
    <path fill-rule="evenodd" clip-rule="evenodd"
          d="M22 10.1364C22 14.9091 16 19 16 19C16 19 10 14.9091 10 10.1364C10 6.74734 12.6863 4 16 4C19.3137 4 22 6.74734 22 10.1364V10.1364Z"
          fill="#008F05" stroke="white" stroke-width="2" stroke-linecap="round" stroke-linejoin="round"/>
    <path fill-rule="evenodd" clip-rule="evenodd"
          d="M16 12.1818C17.1046 12.1818 18 11.266 18 10.1363C18 9.00667 17.1046 8.09089 16 8.09089C14.8954 8.09089 14 9.00667 14 10.1363C14 11.266 14.8954 12.1818 16 12.1818Z"
          fill="#008F05" stroke="white" stroke-width="2" stroke-linecap="round" stroke-linejoin="round"/>
    <path d="M13.2385 26.173C13.7052 26.173 14.1112 26.222 14.4565 26.32C14.8019 26.418 15.0679 26.558 15.2545 26.74C15.4459 26.922 15.5415 27.1413 15.5415 27.398C15.5415 27.65 15.4459 27.867 15.2545 28.049C15.0679 28.2357 14.8019 28.378 14.4565 28.476C14.1112 28.574 13.7052 28.623 13.2385 28.623C12.7765 28.623 12.3729 28.574 12.0275 28.476C11.6822 28.378 11.4139 28.2357 11.2225 28.049C11.0359 27.867 10.9425 27.65 10.9425 27.398C10.9425 27.1413 11.0359 26.922 11.2225 26.74C11.4139 26.558 11.6822 26.418 12.0275 26.32C12.3729 26.222 12.7765 26.173 13.2385 26.173ZM13.2385 26.873C12.9492 26.873 12.7019 26.8917 12.4965 26.929C12.2912 26.9663 12.1349 27.0247 12.0275 27.104C11.9249 27.1833 11.8735 27.2813 11.8735 27.398C11.8735 27.5147 11.9249 27.6127 12.0275 27.692C12.1349 27.7667 12.2912 27.825 12.4965 27.867C12.7019 27.9043 12.9492 27.923 13.2385 27.923C13.5325 27.923 13.7822 27.9043 13.9875 27.867C14.1929 27.825 14.3492 27.7667 14.4565 27.692C14.5639 27.6127 14.6175 27.5147 14.6175 27.398C14.6175 27.2813 14.5639 27.1833 14.4565 27.104C14.3492 27.0247 14.1929 26.9663 13.9875 26.929C13.7822 26.8917 13.5325 26.873 13.2385 26.873ZM11.0125 22.428H15.1215V23.156H11.0125V22.428ZM10.3615 25.032H16.1925V25.767H10.3615V25.032ZM12.5175 23.898H13.4485V25.214H12.5175V23.898ZM14.5755 22.428H15.5065V22.96C15.5065 23.2167 15.4995 23.485 15.4855 23.765C15.4715 24.045 15.4179 24.353 15.3245 24.689L14.4005 24.598C14.4892 24.2667 14.5405 23.9727 14.5545 23.716C14.5685 23.4593 14.5755 23.2073 14.5755 22.96V22.428ZM18.103 24.304H19.027V25.494H18.103V24.304ZM20.378 24.304H21.309V25.494H20.378V24.304ZM16.78 25.214H22.646V25.942H16.78V25.214ZM19.699 26.271C20.399 26.271 20.9497 26.3737 21.351 26.579C21.7523 26.7797 21.953 27.069 21.953 27.447C21.953 27.8203 21.7523 28.1097 21.351 28.315C20.9497 28.5203 20.399 28.623 19.699 28.623C18.999 28.623 18.4483 28.5203 18.047 28.315C17.6503 28.1097 17.452 27.8203 17.452 27.447C17.452 27.069 17.6503 26.7797 18.047 26.579C18.4483 26.3737 18.999 26.271 19.699 26.271ZM19.699 26.971C19.4097 26.971 19.167 26.9897 18.971 27.027C18.7797 27.0597 18.635 27.111 18.537 27.181C18.439 27.251 18.39 27.3397 18.39 27.447C18.39 27.5543 18.439 27.6453 18.537 27.72C18.635 27.79 18.7797 27.8413 18.971 27.874C19.167 27.9067 19.4097 27.923 19.699 27.923C19.9883 27.923 20.2287 27.9067 20.42 27.874C20.616 27.8413 20.763 27.79 20.861 27.72C20.959 27.6453 21.008 27.5543 21.008 27.447C21.008 27.3397 20.959 27.251 20.861 27.181C20.763 27.111 20.616 27.0597 20.42 27.027C20.2287 26.9897 19.9883 26.971 19.699 26.971ZM19.713 22.232C20.1937 22.232 20.609 22.2833 20.959 22.386C21.3137 22.484 21.5867 22.6263 21.778 22.813C21.9693 22.9997 22.065 23.2213 22.065 23.478C22.065 23.7347 21.9693 23.9563 21.778 24.143C21.5867 24.325 21.3137 24.4673 20.959 24.57C20.609 24.668 20.1937 24.717 19.713 24.717C19.2417 24.717 18.8287 24.668 18.474 24.57C18.1193 24.4673 17.8463 24.325 17.655 24.143C17.4637 23.9563 17.368 23.7347 17.368 23.478C17.368 23.2213 17.4637 22.9997 17.655 22.813C17.8463 22.6263 18.1193 22.484 18.474 22.386C18.8287 22.2833 19.2417 22.232 19.713 22.232ZM19.713 22.939C19.4237 22.939 19.174 22.96 18.964 23.002C18.754 23.0393 18.5953 23.0977 18.488 23.177C18.3853 23.2563 18.334 23.3567 18.334 23.478C18.334 23.5947 18.3853 23.6927 18.488 23.772C18.5953 23.8513 18.754 23.912 18.964 23.954C19.174 23.9913 19.4237 24.01 19.713 24.01C20.0117 24.01 20.2637 23.9913 20.469 23.954C20.6743 23.912 20.8307 23.8513 20.938 23.772C21.0453 23.6927 21.099 23.5947 21.099 23.478C21.099 23.3567 21.0453 23.2563 20.938 23.177C20.8307 23.0977 20.6743 23.0393 20.469 23.002C20.2637 22.96 20.0117 22.939 19.713 22.939Z"
          fill="white"/>
</svg>
