<svg width="32" height="32" viewBox="0 0 32 32" fill="none" xmlns="http://www.w3.org/2000/svg">
    <path fill-rule="evenodd" clip-rule="evenodd"
          d="M16 32C24.8366 32 32 24.8366 32 16C32 7.16344 24.8366 0 16 0C7.16344 0 0 7.16344 0 16C0 24.8366 7.16344 32 16 32Z"
          fill="#2C4088"/>
    <path d="M11.8665 21.435H12.6365V22.051C12.6365 22.457 12.5689 22.8467 12.4335 23.22C12.2982 23.5887 12.0929 23.9107 11.8175 24.186C11.5422 24.4613 11.1945 24.6667 10.7745 24.802L10.3195 24.06C10.5902 23.976 10.8235 23.864 11.0195 23.724C11.2155 23.5793 11.3742 23.4183 11.4955 23.241C11.6215 23.059 11.7149 22.8677 11.7755 22.667C11.8362 22.4617 11.8665 22.2563 11.8665 22.051V21.435ZM12.0555 21.435H12.8115V22.051C12.8115 22.2517 12.8419 22.45 12.9025 22.646C12.9632 22.8373 13.0519 23.0193 13.1685 23.192C13.2899 23.36 13.4462 23.5093 13.6375 23.64C13.8289 23.7707 14.0575 23.8757 14.3235 23.955L13.8685 24.69C13.4532 24.5593 13.1102 24.3633 12.8395 24.102C12.5735 23.8407 12.3752 23.535 12.2445 23.185C12.1185 22.8303 12.0555 22.4523 12.0555 22.051V21.435ZM11.3135 25.285H15.7305V27.623H14.7995V26.027H11.3135V25.285ZM14.7995 21.141H15.7305V25.005H14.7995V21.141ZM20.959 21.134H21.897V24.879H20.959V21.134ZM21.631 22.667H22.744V23.43H21.631V22.667ZM19.769 24.991C20.217 24.991 20.6043 25.0447 20.931 25.152C21.2577 25.2593 21.5097 25.411 21.687 25.607C21.869 25.7983 21.96 26.0317 21.96 26.307C21.96 26.5823 21.869 26.818 21.687 27.014C21.5097 27.2147 21.2577 27.3663 20.931 27.469C20.6043 27.5763 20.217 27.63 19.769 27.63C19.3257 27.63 18.9383 27.5763 18.607 27.469C18.2757 27.3663 18.019 27.2147 17.837 27.014C17.6597 26.818 17.571 26.5823 17.571 26.307C17.571 26.0317 17.6597 25.7983 17.837 25.607C18.019 25.411 18.2757 25.2593 18.607 25.152C18.9383 25.0447 19.3257 24.991 19.769 24.991ZM19.769 25.733C19.4937 25.733 19.2627 25.754 19.076 25.796C18.8893 25.838 18.7447 25.901 18.642 25.985C18.544 26.069 18.495 26.1763 18.495 26.307C18.495 26.433 18.544 26.5403 18.642 26.629C18.7447 26.713 18.8893 26.776 19.076 26.818C19.2627 26.86 19.4937 26.881 19.769 26.881C20.0443 26.881 20.2753 26.86 20.462 26.818C20.6533 26.776 20.798 26.713 20.896 26.629C20.994 26.5403 21.043 26.433 21.043 26.307C21.043 26.1763 20.994 26.069 20.896 25.985C20.798 25.901 20.6533 25.838 20.462 25.796C20.2753 25.754 20.0443 25.733 19.769 25.733ZM17.004 23.794H17.55C18.026 23.794 18.432 23.7893 18.768 23.78C19.104 23.7707 19.405 23.752 19.671 23.724C19.937 23.6913 20.2007 23.647 20.462 23.591L20.553 24.333C20.287 24.389 20.0163 24.4333 19.741 24.466C19.4657 24.494 19.153 24.515 18.803 24.529C18.4577 24.5383 18.04 24.543 17.55 24.543H17.004V23.794ZM17.004 21.568H19.909V22.317H17.935V24.305H17.004V21.568Z"
          fill="white"/>
    <path d="M12.5 5H13.5V10H12.5V5Z" fill="white"/>
    <path d="M15 9.5C15 10.0304 14.7893 10.5391 14.4142 10.9142C14.0391 11.2893 13.5304 11.5 13 11.5C12.4696 11.5 11.9609 11.2893 11.5858 10.9142C11.2107 10.5391 11 10.0304 11 9.5V5H10V9.5C10.0007 10.2084 10.2521 10.8938 10.7097 11.4346C11.1673 11.9755 11.8015 12.3369 12.5 12.455V19H13.5V12.455C14.1985 12.3369 14.8327 11.9755 15.2903 11.4346C15.7479 10.8938 15.9993 10.2084 16 9.5V5H15V9.5ZM19 5H18.5V19H19.5V14H21C21.2652 14 21.5196 13.8946 21.7071 13.7071C21.8946 13.5196 22 13.2652 22 13V8C22.0155 7.60189 21.9484 7.20488 21.8032 6.8339C21.6579 6.46293 21.4374 6.126 21.1557 5.84428C20.874 5.56256 20.5371 5.34214 20.1661 5.19684C19.7951 5.05155 19.3981 4.98454 19 5ZM21 13H19.5V6.045C20.94 6.325 21 7.815 21 8V13Z"
          fill="white"/>
</svg>
