<svg width="12" height="18" viewBox="0 0 12 18" fill="none" xmlns="http://www.w3.org/2000/svg">
    <path d="M5.10111 17.6877V15.6359H3.04007V13.5842H5.10111V11.4299C3.74426 11.1905 2.63215 10.5451 1.7648 9.49361C0.897439 8.4421 0.46376 7.22389 0.46376 5.83898C0.46376 4.28309 1.01767 2.9623 2.12548 1.8766C3.23329 0.790898 4.56868 0.248047 6.13163 0.248047C7.69459 0.248047 9.02998 0.790898 10.1378 1.8766C11.2456 2.9623 11.7995 4.28309 11.7995 5.83898C11.7995 7.22389 11.3658 8.4421 10.4985 9.49361C9.63112 10.5451 8.51901 11.1905 7.16216 11.4299V13.5842H9.2232V15.6359H7.16216V17.6877H5.10111ZM6.13163 9.48078C7.12781 9.48078 7.97799 9.13028 8.68218 8.42928C9.38637 7.72827 9.73846 6.88194 9.73846 5.89028C9.73846 4.89861 9.38637 4.05228 8.68218 3.35127C7.97799 2.65027 7.12781 2.29977 6.13163 2.29977C5.13546 2.29977 4.28528 2.65027 3.58109 3.35127C2.8769 4.05228 2.52481 4.89861 2.52481 5.89028C2.52481 6.88194 2.8769 7.72827 3.58109 8.42928C4.28528 9.13028 5.13546 9.48078 6.13163 9.48078Z"
          fill="white"/>
</svg>
