<svg width="32" height="32" viewBox="0 0 32 32" fill="none" xmlns="http://www.w3.org/2000/svg">
    <path fill-rule="evenodd" clip-rule="evenodd"
          d="M16 32C24.8366 32 32 24.8366 32 16C32 7.16344 24.8366 0 16 0C7.16344 0 0 7.16344 0 16C0 24.8366 7.16344 32 16 32Z"
          fill="#BE00A8"/>
    <path d="M12.2455 23.457H14.0095V24.206H12.2455V23.457ZM12.2455 25.473H14.0095V26.222H12.2455V25.473ZM11.1185 22.582C11.4405 22.582 11.7275 22.6777 11.9795 22.869C12.2362 23.0557 12.4345 23.324 12.5745 23.674C12.7192 24.0193 12.7915 24.4277 12.7915 24.899C12.7915 25.375 12.7192 25.788 12.5745 26.138C12.4345 26.4833 12.2362 26.7517 11.9795 26.943C11.7275 27.1297 11.4405 27.223 11.1185 27.223C10.7965 27.223 10.5095 27.1297 10.2575 26.943C10.0055 26.7517 9.80721 26.4833 9.66255 26.138C9.51788 25.788 9.44555 25.375 9.44555 24.899C9.44555 24.4277 9.51788 24.0193 9.66255 23.674C9.80721 23.324 10.0055 23.0557 10.2575 22.869C10.5095 22.6777 10.7965 22.582 11.1185 22.582ZM11.1185 23.429C10.9645 23.429 10.8269 23.485 10.7055 23.597C10.5889 23.709 10.4955 23.8747 10.4255 24.094C10.3602 24.3087 10.3275 24.577 10.3275 24.899C10.3275 25.2163 10.3602 25.487 10.4255 25.711C10.4955 25.9303 10.5889 26.096 10.7055 26.208C10.8269 26.32 10.9645 26.376 11.1185 26.376C11.2819 26.376 11.4219 26.32 11.5385 26.208C11.6552 26.096 11.7462 25.9303 11.8115 25.711C11.8769 25.487 11.9095 25.2163 11.9095 24.899C11.9095 24.577 11.8769 24.3087 11.8115 24.094C11.7462 23.8747 11.6552 23.709 11.5385 23.597C11.4219 23.485 11.2819 23.429 11.1185 23.429ZM13.8555 22.127H14.7865V28.63H13.8555V22.127ZM17.236 23.163H17.971V23.891C17.971 24.2503 17.9313 24.6097 17.852 24.969C17.7773 25.3283 17.6653 25.6667 17.516 25.984C17.3667 26.2967 17.1777 26.5767 16.949 26.824C16.725 27.0713 16.4637 27.265 16.165 27.405L15.64 26.67C15.9107 26.544 16.144 26.3783 16.34 26.173C16.5407 25.9677 16.7063 25.739 16.837 25.487C16.9723 25.235 17.0727 24.9737 17.138 24.703C17.2033 24.4277 17.236 24.157 17.236 23.891V23.163ZM17.432 23.163H18.167V23.891C18.167 24.1337 18.1997 24.3833 18.265 24.64C18.3303 24.8967 18.426 25.144 18.552 25.382C18.6827 25.62 18.846 25.837 19.042 26.033C19.2427 26.2243 19.476 26.3807 19.742 26.502L19.224 27.244C18.9253 27.104 18.664 26.9173 18.44 26.684C18.2207 26.446 18.034 26.1777 17.88 25.879C17.7307 25.5757 17.6187 25.256 17.544 24.92C17.4693 24.5793 17.432 24.2363 17.432 23.891V23.163ZM15.892 22.757H19.455V23.527H15.892V22.757ZM19.924 22.141H20.862V28.623H19.924V22.141ZM20.659 24.612H21.8V25.375H20.659V24.612Z"
          fill="white"/>
    <path d="M14.125 15.375V19.4375C14.1236 19.561 14.1469 19.6836 14.1935 19.7979C14.2401 19.9123 14.3091 20.0162 14.3964 20.1036C14.4838 20.1909 14.5877 20.2599 14.7021 20.3065C14.8164 20.3531 14.939 20.3764 15.0625 20.375C15.186 20.3764 15.3085 20.3531 15.4229 20.3065C15.5373 20.2599 15.6412 20.1909 15.7286 20.1036C15.8159 20.0162 15.8849 19.9123 15.9315 19.7979C15.9781 19.6836 16.0014 19.561 16 19.4375"
          stroke="white" stroke-miterlimit="10" stroke-linecap="round"/>
    <path d="M16 15.375V19.4375C15.9986 19.561 16.0219 19.6836 16.0685 19.7979C16.1151 19.9123 16.1841 20.0162 16.2714 20.1036C16.3588 20.1909 16.4627 20.2599 16.5771 20.3065C16.6914 20.3531 16.814 20.3764 16.9375 20.375C17.061 20.3764 17.1836 20.3531 17.2979 20.3065C17.4123 20.2599 17.5162 20.1909 17.6036 20.1036C17.6909 20.0162 17.7599 19.9123 17.8065 19.7979C17.8531 19.6836 17.8764 19.561 17.875 19.4375V15.375M13.1484 11.7031C13.1147 11.8219 13.0575 11.9328 12.9802 12.0292C12.903 12.1256 12.8073 12.2056 12.6987 12.2645C12.5901 12.3234 12.4708 12.36 12.3479 12.3721C12.2249 12.3842 12.1008 12.3717 11.9828 12.3352C11.864 12.3014 11.7531 12.2442 11.6567 12.1669C11.5604 12.0897 11.4804 11.994 11.4215 11.8854C11.3627 11.7768 11.3261 11.6575 11.3141 11.5345C11.302 11.4116 11.3146 11.2875 11.3512 11.1695L12.3277 7.87734C12.4354 7.51542 12.6572 7.19797 12.9599 6.9723C13.2626 6.74663 13.6302 6.62481 14.0078 6.625H17.9922C18.3698 6.62495 18.7374 6.74692 19.0401 6.97273C19.3427 7.19855 19.5644 7.51612 19.6719 7.87813L20.6484 11.1703C20.685 11.2883 20.6976 11.4124 20.6856 11.5353C20.6735 11.6583 20.6369 11.7775 20.5781 11.8861C20.5192 11.9947 20.4393 12.0905 20.3429 12.1677C20.2465 12.245 20.1356 12.3022 20.0168 12.3359C19.8989 12.3721 19.7749 12.3843 19.6522 12.372C19.5295 12.3596 19.4105 12.3229 19.3022 12.264C19.1939 12.205 19.0984 12.1251 19.0213 12.0288C18.9443 11.9325 18.8872 11.8218 18.8535 11.7031"
          stroke="white" stroke-miterlimit="10" stroke-linecap="round"/>
    <path d="M16 4.75C16.8629 4.75 17.5625 4.05044 17.5625 3.1875C17.5625 2.32456 16.8629 1.625 16 1.625C15.1371 1.625 14.4375 2.32456 14.4375 3.1875C14.4375 4.05044 15.1371 4.75 16 4.75Z"
          stroke="white" stroke-miterlimit="10" stroke-linecap="round"/>
    <path d="M14.125 8.5L12.25 14.75H19.75L17.875 8.5" stroke="white" stroke-linecap="round" stroke-linejoin="round"/>
</svg>
