<svg width="60" height="72" viewBox="0 0 60 72" fill="none" xmlns="http://www.w3.org/2000/svg">
<g filter="url(#filter0_d_392_1739)">
<path d="M55 25.5717C55 40.9076 37.6906 56.8792 31.8781 61.812C31.3366 62.2122 30.6775 62.4286 30 62.4286C29.3225 62.4286 28.6634 62.2122 28.1219 61.812C22.3094 56.8792 5 40.9076 5 25.5717C5 19.0549 7.63392 12.805 12.3223 8.1969C17.0107 3.5888 23.3696 1 30 1C36.6304 1 42.9893 3.5888 47.6777 8.1969C52.3661 12.805 55 19.0549 55 25.5717Z" fill="#3F9AF4"/>
<path d="M30 34.7861C35.1777 34.7861 39.375 30.6607 39.375 25.5717C39.375 20.4828 35.1777 16.3573 30 16.3573C24.8223 16.3573 20.625 20.4828 20.625 25.5717C20.625 30.6607 24.8223 34.7861 30 34.7861Z" fill="#3F9AF4"/>
<path d="M55 25.5717C55 40.9076 37.6906 56.8792 31.8781 61.812C31.3366 62.2122 30.6775 62.4286 30 62.4286C29.3225 62.4286 28.6634 62.2122 28.1219 61.812C22.3094 56.8792 5 40.9076 5 25.5717C5 19.0549 7.63392 12.805 12.3223 8.1969C17.0107 3.5888 23.3696 1 30 1C36.6304 1 42.9893 3.5888 47.6777 8.1969C52.3661 12.805 55 19.0549 55 25.5717Z" stroke="white" stroke-width="2" stroke-linecap="round" stroke-linejoin="round"/>
<path d="M30 34.7861C35.1777 34.7861 39.375 30.6607 39.375 25.5717C39.375 20.4828 35.1777 16.3573 30 16.3573C24.8223 16.3573 20.625 20.4828 20.625 25.5717C20.625 30.6607 24.8223 34.7861 30 34.7861Z" stroke="white" stroke-width="2" stroke-linecap="round" stroke-linejoin="round"/>
</g>
<path d="M46 27C46 35.8366 38.8366 43 30 43C21.1634 43 14 35.8366 14 27C14 18.1634 21.1634 11 30 11C38.8366 11 46 18.1634 46 27Z" fill="white"/>
<path d="M23.083 26.879H24.812V28.712H23.083V26.879ZM18.52 25.839H29.414V27.217H18.52V25.839ZM19.729 28.231H28.101V32.157H26.372V29.596H19.729V28.231ZM19.911 20.418H21.614V21.471H26.32V20.418H28.036V25.059H19.911V20.418ZM21.614 22.771V23.707H26.32V22.771H21.614ZM29.829 26.06H40.736V27.425H29.829V26.06ZM34.561 26.918H36.29V29.453H34.561V26.918ZM31.168 20.613H39.345V25.098H31.168V20.613ZM37.642 21.965H32.871V23.733H37.642V21.965ZM31.09 30.558H39.527V31.949H31.09V30.558ZM31.09 28.439H32.819V31.026H31.09V28.439Z" fill="#073B7B"/>
<defs>
<filter id="filter0_d_392_1739" x="0" y="0" width="60" height="71.4286" filterUnits="userSpaceOnUse" color-interpolation-filters="sRGB">
<feFlood flood-opacity="0" result="BackgroundImageFix"/>
<feColorMatrix in="SourceAlpha" type="matrix" values="0 0 0 0 0 0 0 0 0 0 0 0 0 0 0 0 0 0 127 0" result="hardAlpha"/>
<feOffset dy="4"/>
<feGaussianBlur stdDeviation="2"/>
<feComposite in2="hardAlpha" operator="out"/>
<feColorMatrix type="matrix" values="0 0 0 0 0 0 0 0 0 0 0 0 0 0 0 0 0 0 0.25 0"/>
<feBlend mode="normal" in2="BackgroundImageFix" result="effect1_dropShadow_392_1739"/>
<feBlend mode="normal" in="SourceGraphic" in2="effect1_dropShadow_392_1739" result="shape"/>
</filter>
</defs>
</svg>
