<svg width="60" height="72" viewBox="0 0 60 72" fill="none" xmlns="http://www.w3.org/2000/svg">
<g filter="url(#filter0_d_392_1744)">
<path d="M55 25.5717C55 40.9076 37.6906 56.8792 31.8781 61.812C31.3366 62.2122 30.6775 62.4286 30 62.4286C29.3225 62.4286 28.6634 62.2122 28.1219 61.812C22.3094 56.8792 5 40.9076 5 25.5717C5 19.0549 7.63392 12.805 12.3223 8.1969C17.0107 3.5888 23.3696 1 30 1C36.6304 1 42.9893 3.5888 47.6777 8.1969C52.3661 12.805 55 19.0549 55 25.5717Z" fill="#3F9AF4"/>
<path d="M30 34.7861C35.1777 34.7861 39.375 30.6607 39.375 25.5717C39.375 20.4828 35.1777 16.3573 30 16.3573C24.8223 16.3573 20.625 20.4828 20.625 25.5717C20.625 30.6607 24.8223 34.7861 30 34.7861Z" fill="#3F9AF4"/>
<path d="M55 25.5717C55 40.9076 37.6906 56.8792 31.8781 61.812C31.3366 62.2122 30.6775 62.4286 30 62.4286C29.3225 62.4286 28.6634 62.2122 28.1219 61.812C22.3094 56.8792 5 40.9076 5 25.5717C5 19.0549 7.63392 12.805 12.3223 8.1969C17.0107 3.5888 23.3696 1 30 1C36.6304 1 42.9893 3.5888 47.6777 8.1969C52.3661 12.805 55 19.0549 55 25.5717Z" stroke="white" stroke-width="2" stroke-linecap="round" stroke-linejoin="round"/>
<path d="M30 34.7861C35.1777 34.7861 39.375 30.6607 39.375 25.5717C39.375 20.4828 35.1777 16.3573 30 16.3573C24.8223 16.3573 20.625 20.4828 20.625 25.5717C20.625 30.6607 24.8223 34.7861 30 34.7861Z" stroke="white" stroke-width="2" stroke-linecap="round" stroke-linejoin="round"/>
</g>
<path d="M46 27C46 35.8366 38.8366 43 30 43C21.1634 43 14 35.8366 14 27C14 18.1634 21.1634 11 30 11C38.8366 11 46 18.1634 46 27Z" fill="white"/>
<path d="M19.301 25.401H20.764V27.227H19.301V25.401ZM19.29 21.969H20.544V22.277C20.544 22.651 20.4853 23.0103 20.368 23.355C20.2507 23.6923 20.0783 24.004 19.851 24.29C19.6237 24.576 19.345 24.8363 19.015 25.071C18.685 25.2983 18.3037 25.4927 17.871 25.654C17.4457 25.8153 16.969 25.9327 16.441 26.006L15.902 24.851C16.364 24.7997 16.7747 24.7153 17.134 24.598C17.5007 24.4733 17.816 24.3267 18.08 24.158C18.3513 23.9893 18.575 23.8023 18.751 23.597C18.9343 23.3917 19.07 23.179 19.158 22.959C19.246 22.7317 19.29 22.5043 19.29 22.277V21.969ZM19.532 21.969H20.775V22.277C20.775 22.5117 20.819 22.7427 20.907 22.97C20.995 23.1973 21.127 23.4137 21.303 23.619C21.479 23.817 21.699 24.0003 21.963 24.169C22.2343 24.3377 22.5533 24.4807 22.92 24.598C23.2867 24.7153 23.701 24.7997 24.163 24.851L23.624 26.006C23.1033 25.9327 22.6267 25.8153 22.194 25.654C21.7687 25.4927 21.3873 25.302 21.05 25.082C20.72 24.8547 20.4413 24.598 20.214 24.312C19.9867 24.0187 19.8143 23.7033 19.697 23.366C19.587 23.0287 19.532 22.6657 19.532 22.277V21.969ZM15.44 26.644H24.658V27.799H15.44V26.644ZM20.027 28.349C21.1343 28.349 21.9997 28.5103 22.623 28.833C23.2537 29.1483 23.569 29.592 23.569 30.164C23.569 30.7507 23.2537 31.198 22.623 31.506C21.9997 31.8213 21.1343 31.979 20.027 31.979C18.9197 31.979 18.0543 31.8213 17.431 31.506C16.8077 31.198 16.496 30.7507 16.496 30.164C16.496 29.592 16.8077 29.1483 17.431 28.833C18.0543 28.5103 18.9197 28.349 20.027 28.349ZM20.027 29.449C19.345 29.449 18.8317 29.5077 18.487 29.625C18.1423 29.735 17.97 29.9147 17.97 30.164C17.97 30.4133 18.1423 30.5967 18.487 30.714C18.8317 30.8313 19.345 30.89 20.027 30.89C20.7163 30.89 21.2297 30.8313 21.567 30.714C21.9117 30.5967 22.084 30.4133 22.084 30.164C22.084 29.9147 21.9117 29.735 21.567 29.625C21.2297 29.5077 20.7163 29.449 20.027 29.449ZM26.0981 26.325H33.2591V27.502H26.0981V26.325ZM25.0201 29.636H34.2491V30.835H25.0201V29.636ZM28.8921 26.864H30.3441V30.021H28.8921V26.864ZM26.0981 22.486H33.1821V23.652H27.5501V26.831H26.0981V22.486ZM37.6473 22.431H39.0663C39.0663 23.3037 38.9379 24.0957 38.6813 24.807C38.4319 25.511 38.0249 26.1307 37.4603 26.666C36.8956 27.2013 36.1476 27.667 35.2163 28.063L34.5233 27.018C35.3006 26.7027 35.9166 26.347 36.3713 25.951C36.8259 25.555 37.1523 25.104 37.3503 24.598C37.5483 24.0847 37.6473 23.52 37.6473 22.904V22.431ZM35.0623 22.431H38.0983V23.597H35.0623V22.431ZM37.7023 24.279V25.28L34.8203 25.588L34.6443 24.433L37.7023 24.279ZM41.8713 21.782H43.2683V27.744H41.8713V21.782ZM40.6503 24.158H42.2783V25.335H40.6503V24.158ZM39.6493 21.969H41.0133V27.678H39.6493V21.969ZM36.3603 28.151H43.2683V31.869H36.3603V28.151ZM41.8383 29.295H37.8013V30.714H41.8383V29.295Z" fill="#073B7B"/>
<defs>
<filter id="filter0_d_392_1744" x="0" y="0" width="60" height="71.4286" filterUnits="userSpaceOnUse" color-interpolation-filters="sRGB">
<feFlood flood-opacity="0" result="BackgroundImageFix"/>
<feColorMatrix in="SourceAlpha" type="matrix" values="0 0 0 0 0 0 0 0 0 0 0 0 0 0 0 0 0 0 127 0" result="hardAlpha"/>
<feOffset dy="4"/>
<feGaussianBlur stdDeviation="2"/>
<feComposite in2="hardAlpha" operator="out"/>
<feColorMatrix type="matrix" values="0 0 0 0 0 0 0 0 0 0 0 0 0 0 0 0 0 0 0.25 0"/>
<feBlend mode="normal" in2="BackgroundImageFix" result="effect1_dropShadow_392_1744"/>
<feBlend mode="normal" in="SourceGraphic" in2="effect1_dropShadow_392_1744" result="shape"/>
</filter>
</defs>
</svg>
