<svg width="60" height="72" viewBox="0 0 60 72" fill="none" xmlns="http://www.w3.org/2000/svg">
<g filter="url(#filter0_d_394_1756)">
<path d="M55 25.5717C55 40.9076 37.6906 56.8792 31.8781 61.812C31.3366 62.2122 30.6775 62.4286 30 62.4286C29.3225 62.4286 28.6634 62.2122 28.1219 61.812C22.3094 56.8792 5 40.9076 5 25.5717C5 19.0549 7.63392 12.805 12.3223 8.1969C17.0107 3.5888 23.3696 1 30 1C36.6304 1 42.9893 3.5888 47.6777 8.1969C52.3661 12.805 55 19.0549 55 25.5717Z" fill="#3F9AF4"/>
<path d="M30 34.7861C35.1777 34.7861 39.375 30.6607 39.375 25.5717C39.375 20.4828 35.1777 16.3573 30 16.3573C24.8223 16.3573 20.625 20.4828 20.625 25.5717C20.625 30.6607 24.8223 34.7861 30 34.7861Z" fill="#3F9AF4"/>
<path d="M55 25.5717C55 40.9076 37.6906 56.8792 31.8781 61.812C31.3366 62.2122 30.6775 62.4286 30 62.4286C29.3225 62.4286 28.6634 62.2122 28.1219 61.812C22.3094 56.8792 5 40.9076 5 25.5717C5 19.0549 7.63392 12.805 12.3223 8.1969C17.0107 3.5888 23.3696 1 30 1C36.6304 1 42.9893 3.5888 47.6777 8.1969C52.3661 12.805 55 19.0549 55 25.5717Z" stroke="white" stroke-width="2" stroke-linecap="round" stroke-linejoin="round"/>
<path d="M30 34.7861C35.1777 34.7861 39.375 30.6607 39.375 25.5717C39.375 20.4828 35.1777 16.3573 30 16.3573C24.8223 16.3573 20.625 20.4828 20.625 25.5717C20.625 30.6607 24.8223 34.7861 30 34.7861Z" stroke="white" stroke-width="2" stroke-linecap="round" stroke-linejoin="round"/>
</g>
<path d="M46 27C46 35.8366 38.8366 43 30 43C21.1634 43 14 35.8366 14 27C14 18.1634 21.1634 11 30 11C38.8366 11 46 18.1634 46 27Z" fill="white"/>
<path d="M26.801 20.119H28.53V28.764H26.801V20.119ZM20.509 30.558H28.842V31.949H20.509V30.558ZM20.509 27.906H22.238V31.13H20.509V27.906ZM21.978 20.886C22.5933 20.886 23.148 21.016 23.642 21.276C24.136 21.536 24.526 21.8957 24.812 22.355C25.1067 22.8143 25.254 23.343 25.254 23.941C25.254 24.5217 25.1067 25.046 24.812 25.514C24.526 25.9733 24.136 26.3373 23.642 26.606C23.148 26.866 22.5933 26.996 21.978 26.996C21.3627 26.996 20.808 26.866 20.314 26.606C19.82 26.3373 19.4257 25.9733 19.131 25.514C18.845 25.046 18.702 24.5217 18.702 23.941C18.702 23.343 18.845 22.8143 19.131 22.355C19.4257 21.8957 19.82 21.536 20.314 21.276C20.808 21.016 21.3627 20.886 21.978 20.886ZM21.978 22.368C21.6833 22.368 21.4147 22.433 21.172 22.563C20.9293 22.6843 20.7387 22.862 20.6 23.096C20.4613 23.3213 20.392 23.603 20.392 23.941C20.392 24.2617 20.4613 24.539 20.6 24.773C20.7387 24.9983 20.9293 25.176 21.172 25.306C21.4147 25.4273 21.6833 25.488 21.978 25.488C22.2727 25.488 22.5413 25.4273 22.784 25.306C23.0267 25.176 23.2173 24.9983 23.356 24.773C23.4947 24.539 23.564 24.2617 23.564 23.941C23.564 23.603 23.4947 23.3213 23.356 23.096C23.2173 22.862 23.0267 22.6843 22.784 22.563C22.5413 22.433 22.2727 22.368 21.978 22.368ZM38.11 20.119H39.839V26.58H38.11V20.119ZM31.844 27.113H33.547V28.231H38.123V27.113H39.839V32.027H31.844V27.113ZM33.547 29.557V30.649H38.123V29.557H33.547ZM33.287 20.613C33.911 20.613 34.47 20.7343 34.964 20.977C35.458 21.2197 35.848 21.5533 36.134 21.978C36.42 22.4027 36.563 22.8923 36.563 23.447C36.563 24.0017 36.42 24.4957 36.134 24.929C35.848 25.3537 35.458 25.6873 34.964 25.93C34.47 26.1727 33.911 26.294 33.287 26.294C32.663 26.294 32.104 26.1727 31.61 25.93C31.116 25.6873 30.726 25.3537 30.44 24.929C30.154 24.4957 30.011 24.0017 30.011 23.447C30.011 22.8923 30.154 22.4027 30.44 21.978C30.726 21.5533 31.116 21.2197 31.61 20.977C32.104 20.7343 32.663 20.613 33.287 20.613ZM33.287 22.03C32.9837 22.03 32.7107 22.0863 32.468 22.199C32.2253 22.3117 32.0347 22.4763 31.896 22.693C31.766 22.901 31.701 23.1523 31.701 23.447C31.701 23.7503 31.766 24.0103 31.896 24.227C32.0347 24.435 32.2253 24.5953 32.468 24.708C32.7107 24.812 32.9837 24.864 33.287 24.864C33.5903 24.864 33.859 24.812 34.093 24.708C34.3357 24.5953 34.5263 24.435 34.665 24.227C34.8037 24.0103 34.873 23.7503 34.873 23.447C34.873 23.1523 34.8037 22.901 34.665 22.693C34.5263 22.4763 34.3357 22.3117 34.093 22.199C33.859 22.0863 33.5903 22.03 33.287 22.03Z" fill="#073B7B"/>
<defs>
<filter id="filter0_d_394_1756" x="0" y="0" width="60" height="71.4286" filterUnits="userSpaceOnUse" color-interpolation-filters="sRGB">
<feFlood flood-opacity="0" result="BackgroundImageFix"/>
<feColorMatrix in="SourceAlpha" type="matrix" values="0 0 0 0 0 0 0 0 0 0 0 0 0 0 0 0 0 0 127 0" result="hardAlpha"/>
<feOffset dy="4"/>
<feGaussianBlur stdDeviation="2"/>
<feComposite in2="hardAlpha" operator="out"/>
<feColorMatrix type="matrix" values="0 0 0 0 0 0 0 0 0 0 0 0 0 0 0 0 0 0 0.25 0"/>
<feBlend mode="normal" in2="BackgroundImageFix" result="effect1_dropShadow_394_1756"/>
<feBlend mode="normal" in="SourceGraphic" in2="effect1_dropShadow_394_1756" result="shape"/>
</filter>
</defs>
</svg>
