<svg width="60" height="72" viewBox="0 0 60 72" fill="none" xmlns="http://www.w3.org/2000/svg">
<g filter="url(#filter0_d_392_1738)">
<path d="M55 25.5717C55 40.9076 37.6906 56.8792 31.8781 61.812C31.3366 62.2122 30.6775 62.4286 30 62.4286C29.3225 62.4286 28.6634 62.2122 28.1219 61.812C22.3094 56.8792 5 40.9076 5 25.5717C5 19.0549 7.63392 12.805 12.3223 8.1969C17.0107 3.5888 23.3696 1 30 1C36.6304 1 42.9893 3.5888 47.6777 8.1969C52.3661 12.805 55 19.0549 55 25.5717Z" fill="#3F9AF4"/>
<path d="M30 34.7861C35.1777 34.7861 39.375 30.6607 39.375 25.5717C39.375 20.4828 35.1777 16.3573 30 16.3573C24.8223 16.3573 20.625 20.4828 20.625 25.5717C20.625 30.6607 24.8223 34.7861 30 34.7861Z" fill="#3F9AF4"/>
<path d="M55 25.5717C55 40.9076 37.6906 56.8792 31.8781 61.812C31.3366 62.2122 30.6775 62.4286 30 62.4286C29.3225 62.4286 28.6634 62.2122 28.1219 61.812C22.3094 56.8792 5 40.9076 5 25.5717C5 19.0549 7.63392 12.805 12.3223 8.1969C17.0107 3.5888 23.3696 1 30 1C36.6304 1 42.9893 3.5888 47.6777 8.1969C52.3661 12.805 55 19.0549 55 25.5717Z" stroke="white" stroke-width="2" stroke-linecap="round" stroke-linejoin="round"/>
<path d="M30 34.7861C35.1777 34.7861 39.375 30.6607 39.375 25.5717C39.375 20.4828 35.1777 16.3573 30 16.3573C24.8223 16.3573 20.625 20.4828 20.625 25.5717C20.625 30.6607 24.8223 34.7861 30 34.7861Z" stroke="white" stroke-width="2" stroke-linecap="round" stroke-linejoin="round"/>
</g>
<path d="M46 27C46 35.8366 38.8366 43 30 43C21.1634 43 14 35.8366 14 27C14 18.1634 21.1634 11 30 11C38.8366 11 46 18.1634 46 27Z" fill="white"/>
<path d="M25.059 23.018H27.347V24.422H25.059V23.018ZM26.866 20.119H28.608V27.269H26.866V20.119ZM24.526 27.529C25.3753 27.529 26.1077 27.62 26.723 27.802C27.3383 27.984 27.8107 28.2483 28.14 28.595C28.478 28.9417 28.647 29.3577 28.647 29.843C28.647 30.5883 28.2787 31.1603 27.542 31.559C26.8053 31.9663 25.8 32.17 24.526 32.17C23.252 32.17 22.2467 31.9663 21.51 31.559C20.7733 31.1603 20.405 30.5883 20.405 29.843C20.405 29.3577 20.5697 28.9417 20.899 28.595C21.237 28.2483 21.7137 27.984 22.329 27.802C22.9443 27.62 23.6767 27.529 24.526 27.529ZM24.526 28.842C24.006 28.842 23.5683 28.881 23.213 28.959C22.8577 29.0283 22.5847 29.1367 22.394 29.284C22.212 29.4313 22.121 29.6177 22.121 29.843C22.121 30.0683 22.212 30.259 22.394 30.415C22.5847 30.5623 22.8577 30.675 23.213 30.753C23.5683 30.8223 24.006 30.857 24.526 30.857C25.046 30.857 25.4837 30.8223 25.839 30.753C26.1943 30.675 26.463 30.5623 26.645 30.415C26.827 30.259 26.918 30.0683 26.918 29.843C26.918 29.6177 26.827 29.4313 26.645 29.284C26.463 29.1367 26.1943 29.0283 25.839 28.959C25.4837 28.881 25.046 28.842 24.526 28.842ZM21.315 21.315H22.719V22.082C22.719 22.8447 22.5977 23.5727 22.355 24.266C22.1123 24.9593 21.7397 25.5703 21.237 26.099C20.743 26.619 20.1103 27.009 19.339 27.269L18.468 25.904C18.962 25.7393 19.3867 25.5183 19.742 25.241C20.106 24.9637 20.4007 24.656 20.626 24.318C20.86 23.9713 21.0333 23.6073 21.146 23.226C21.2587 22.8447 21.315 22.4633 21.315 22.082V21.315ZM21.679 21.315H23.057V22.069C23.057 22.5457 23.1523 23.0137 23.343 23.473C23.5337 23.9323 23.8283 24.3483 24.227 24.721C24.6343 25.0937 25.1543 25.3883 25.787 25.605L24.942 26.957C24.1967 26.7057 23.5813 26.3373 23.096 25.852C22.6193 25.358 22.264 24.786 22.03 24.136C21.796 23.4773 21.679 22.7883 21.679 22.069V21.315ZM18.936 20.847H25.41V22.212H18.936V20.847ZM29.829 26.06H40.736V27.425H29.829V26.06ZM34.561 26.918H36.29V29.453H34.561V26.918ZM31.168 20.613H39.345V25.098H31.168V20.613ZM37.642 21.965H32.871V23.733H37.642V21.965ZM31.09 30.558H39.527V31.949H31.09V30.558ZM31.09 28.439H32.819V31.026H31.09V28.439Z" fill="#073B7B"/>
<defs>
<filter id="filter0_d_392_1738" x="0" y="0" width="60" height="71.4286" filterUnits="userSpaceOnUse" color-interpolation-filters="sRGB">
<feFlood flood-opacity="0" result="BackgroundImageFix"/>
<feColorMatrix in="SourceAlpha" type="matrix" values="0 0 0 0 0 0 0 0 0 0 0 0 0 0 0 0 0 0 127 0" result="hardAlpha"/>
<feOffset dy="4"/>
<feGaussianBlur stdDeviation="2"/>
<feComposite in2="hardAlpha" operator="out"/>
<feColorMatrix type="matrix" values="0 0 0 0 0 0 0 0 0 0 0 0 0 0 0 0 0 0 0.25 0"/>
<feBlend mode="normal" in2="BackgroundImageFix" result="effect1_dropShadow_392_1738"/>
<feBlend mode="normal" in="SourceGraphic" in2="effect1_dropShadow_392_1738" result="shape"/>
</filter>
</defs>
</svg>
