<svg width="60" height="72" viewBox="0 0 60 72" fill="none" xmlns="http://www.w3.org/2000/svg">
<g filter="url(#filter0_d_392_1741)">
<path d="M55 25.5717C55 40.9076 37.6906 56.8792 31.8781 61.812C31.3366 62.2122 30.6775 62.4286 30 62.4286C29.3225 62.4286 28.6634 62.2122 28.1219 61.812C22.3094 56.8792 5 40.9076 5 25.5717C5 19.0549 7.63392 12.805 12.3223 8.1969C17.0107 3.5888 23.3696 1 30 1C36.6304 1 42.9893 3.5888 47.6777 8.1969C52.3661 12.805 55 19.0549 55 25.5717Z" fill="#3F9AF4"/>
<path d="M30 34.7861C35.1777 34.7861 39.375 30.6607 39.375 25.5717C39.375 20.4828 35.1777 16.3573 30 16.3573C24.8223 16.3573 20.625 20.4828 20.625 25.5717C20.625 30.6607 24.8223 34.7861 30 34.7861Z" fill="#3F9AF4"/>
<path d="M55 25.5717C55 40.9076 37.6906 56.8792 31.8781 61.812C31.3366 62.2122 30.6775 62.4286 30 62.4286C29.3225 62.4286 28.6634 62.2122 28.1219 61.812C22.3094 56.8792 5 40.9076 5 25.5717C5 19.0549 7.63392 12.805 12.3223 8.1969C17.0107 3.5888 23.3696 1 30 1C36.6304 1 42.9893 3.5888 47.6777 8.1969C52.3661 12.805 55 19.0549 55 25.5717Z" stroke="white" stroke-width="2" stroke-linecap="round" stroke-linejoin="round"/>
<path d="M30 34.7861C35.1777 34.7861 39.375 30.6607 39.375 25.5717C39.375 20.4828 35.1777 16.3573 30 16.3573C24.8223 16.3573 20.625 20.4828 20.625 25.5717C20.625 30.6607 24.8223 34.7861 30 34.7861Z" stroke="white" stroke-width="2" stroke-linecap="round" stroke-linejoin="round"/>
</g>
<path d="M46 27C46 35.8366 38.8366 43 30 43C21.1634 43 14 35.8366 14 27C14 18.1634 21.1634 11 30 11C38.8366 11 46 18.1634 46 27Z" fill="white"/>
<path d="M18.962 25.384H19.963C20.743 25.384 21.432 25.3797 22.03 25.371C22.6367 25.3537 23.1957 25.3233 23.707 25.28C24.2183 25.228 24.7383 25.1543 25.267 25.059L25.449 26.411C24.9117 26.5063 24.3743 26.58 23.837 26.632C23.2997 26.6753 22.719 26.7057 22.095 26.723C21.4797 26.7403 20.769 26.749 19.963 26.749H18.962V25.384ZM18.962 20.808H24.617V22.173H20.691V25.917H18.962V20.808ZM20.158 23.096H24.37V24.435H20.158V23.096ZM20.171 27.685H27.997V32.027H20.171V27.685ZM26.307 29.037H21.874V30.662H26.307V29.037ZM26.268 20.119H27.997V27.152H26.268V20.119ZM27.529 22.927H29.596V24.344H27.529V22.927ZM34.314 20.808H35.809V21.679C35.809 22.199 35.7353 22.706 35.588 23.2C35.4493 23.6853 35.2413 24.1447 34.964 24.578C34.6867 25.0113 34.3443 25.4057 33.937 25.761C33.5383 26.1077 33.079 26.4067 32.559 26.658C32.039 26.9093 31.467 27.0957 30.843 27.217L30.102 25.774C30.6393 25.6787 31.129 25.5357 31.571 25.345C32.0217 25.1457 32.416 24.9073 32.754 24.63C33.092 24.3527 33.378 24.0537 33.612 23.733C33.846 23.4037 34.0193 23.0657 34.132 22.719C34.2533 22.3637 34.314 22.017 34.314 21.679V20.808ZM34.652 20.808H36.16V21.679C36.16 22.0257 36.2163 22.3767 36.329 22.732C36.4503 23.0873 36.6237 23.4297 36.849 23.759C37.083 24.0797 37.369 24.3743 37.707 24.643C38.045 24.9117 38.435 25.1457 38.877 25.345C39.319 25.5357 39.8173 25.6787 40.372 25.774L39.631 27.217C39.007 27.0957 38.435 26.9093 37.915 26.658C37.395 26.4067 36.9313 26.1077 36.524 25.761C36.1253 25.4143 35.783 25.0243 35.497 24.591C35.2197 24.1577 35.0073 23.694 34.86 23.2C34.7213 22.706 34.652 22.199 34.652 21.679V20.808ZM29.842 29.271H40.749V30.688H29.842V29.271Z" fill="#073B7B"/>
<defs>
<filter id="filter0_d_392_1741" x="0" y="0" width="60" height="71.4286" filterUnits="userSpaceOnUse" color-interpolation-filters="sRGB">
<feFlood flood-opacity="0" result="BackgroundImageFix"/>
<feColorMatrix in="SourceAlpha" type="matrix" values="0 0 0 0 0 0 0 0 0 0 0 0 0 0 0 0 0 0 127 0" result="hardAlpha"/>
<feOffset dy="4"/>
<feGaussianBlur stdDeviation="2"/>
<feComposite in2="hardAlpha" operator="out"/>
<feColorMatrix type="matrix" values="0 0 0 0 0 0 0 0 0 0 0 0 0 0 0 0 0 0 0.25 0"/>
<feBlend mode="normal" in2="BackgroundImageFix" result="effect1_dropShadow_392_1741"/>
<feBlend mode="normal" in="SourceGraphic" in2="effect1_dropShadow_392_1741" result="shape"/>
</filter>
</defs>
</svg>
