<svg width="38" height="34" viewBox="0 0 38 34" fill="none" xmlns="http://www.w3.org/2000/svg">
    <path d="M19.19 28.812L19 28.9973L18.791 28.812C9.766 20.8262 3.8 15.5455 3.8 10.1907C3.8 6.48501 6.65 3.70572 10.45 3.70572C13.376 3.70572 16.226 5.55858 17.233 8.07847H20.767C21.774 5.55858 24.624 3.70572 27.55 3.70572C31.35 3.70572 34.2 6.48501 34.2 10.1907C34.2 15.5455 28.234 20.8262 19.19 28.812ZM27.55 0C24.244 0 21.071 1.50082 19 3.85395C16.929 1.50082 13.756 0 10.45 0C4.598 0 0 4.4654 0 10.1907C0 17.176 6.46 22.9014 16.245 31.5542L19 34L21.755 31.5542C31.54 22.9014 38 17.176 38 10.1907C38 4.4654 33.402 0 27.55 0Z"
          fill="#FF0000" fill-opacity="0.32"/>
</svg>
