<svg width="10" height="8" viewBox="0 0 10 8" fill="none" xmlns="http://www.w3.org/2000/svg">
  <path
    d="M8.875 2.67244C8.87472 3.80546 8.01726 4.91275 6.99686 5.80637C6.14555 6.55191 5.27597 7.06616 5 7.22167C4.72403 7.06616 3.85445 6.55191 3.00314 5.80637C1.98265 4.91267 1.12514 3.80527 1.125 2.67215C1.12565 2.16257 1.32837 1.67404 1.6887 1.3137C2.04904 0.953368 2.53757 0.75065 3.04715 0.75C3.70755 0.750079 4.26092 1.0316 4.60016 1.48342L5 2.01595L5.39984 1.48342C5.73908 1.0316 6.29245 0.750079 6.95285 0.75C7.46243 0.75065 7.95096 0.953368 8.3113 1.3137C8.67169 1.67409 8.87441 2.16272 8.875 2.67239V2.67244Z"
    fill="#4071B9" stroke="white" />
</svg>