<svg width="36" height="36" viewBox="0 0 36 36" fill="none" xmlns="http://www.w3.org/2000/svg">
    <g clip-path="url(#clip0_273_749)">
        <rect width="36" height="36" fill="white"/>
        <path d="M24 6C25.1478 5.99994 26.2523 6.43849 27.0874 7.22593C27.9225 8.01336 28.4252 9.09016 28.4925 10.236L28.5 10.5V13.5C29.6478 13.4999 30.7523 13.9385 31.5874 14.7259C32.4225 15.5134 32.9252 16.5902 32.9925 17.736L33 18V24C33.0001 25.1478 32.5615 26.2523 31.7741 27.0874C30.9866 27.9225 29.9098 28.4252 28.764 28.4925L28.5 28.5V29.949C28.5 31.479 26.7855 32.34 25.569 31.4985L25.425 31.3905L21.957 28.5H16.5C15.3942 28.5016 14.3269 28.0945 13.503 27.357L13.293 27.156L10.5 29.25C9.3135 30.1395 7.641 29.3625 7.509 27.9315L7.5 27.75V25.5C6.35218 25.5001 5.24773 25.0615 4.41261 24.2741C3.57749 23.4866 3.07484 22.4098 3.0075 21.264L3 21V10.5C2.99994 9.35218 3.43849 8.24773 4.22593 7.41261C5.01336 6.57749 6.09016 6.07484 7.236 6.0075L7.5 6H24ZM28.5 16.5H16.5C16.1022 16.5 15.7206 16.658 15.4393 16.9393C15.158 17.2206 15 17.6022 15 18V24C15 24.3978 15.158 24.7794 15.4393 25.0607C15.7206 25.342 16.1022 25.5 16.5 25.5H21.957C22.6587 25.5003 23.3381 25.7466 23.877 26.196L25.509 27.555C25.5578 26.9942 25.815 26.4721 26.2299 26.0917C26.6447 25.7112 27.1871 25.5001 27.75 25.5H28.5C28.8978 25.5 29.2794 25.342 29.5607 25.0607C29.842 24.7794 30 24.3978 30 24V18C30 17.6022 29.842 17.2206 29.5607 16.9393C29.2794 16.658 28.8978 16.5 28.5 16.5ZM24 9H7.5C7.10217 9 6.72064 9.15804 6.43934 9.43934C6.15804 9.72064 6 10.1022 6 10.5V21C6 21.3978 6.15804 21.7794 6.43934 22.0607C6.72064 22.342 7.10217 22.5 7.5 22.5H8.25C8.84674 22.5 9.41903 22.7371 9.84099 23.159C10.2629 23.581 10.5 24.1533 10.5 24.75V25.5L12.015 24.3645C12.0051 24.2432 12.0001 24.1217 12 24V18C12 16.8065 12.4741 15.6619 13.318 14.818C14.1619 13.9741 15.3065 13.5 16.5 13.5H25.5V10.5C25.5 10.1022 25.342 9.72064 25.0607 9.43934C24.7794 9.15804 24.3978 9 24 9Z"
              fill="#88A3E9"/>
    </g>
    <defs>
        <clipPath id="clip0_273_749">
            <rect width="36" height="36" fill="white"/>
        </clipPath>
    </defs>
</svg>
