<svg width="14" height="19" viewBox="0 0 14 19" fill="none" xmlns="http://www.w3.org/2000/svg">
    <path
            d="M13 0H1C0.734784 0 0.48043 0.100088 0.292893 0.278245C0.105357 0.456402 0 0.698035 0 0.949987V18.0497C0 18.2373 0.0603872 18.4204 0.170705 18.5759C0.281022 18.7314 0.437365 18.8525 0.62 18.9237C0.738655 18.9769 0.868764 19.0029 1 18.9997C1.13162 19.0005 1.2621 18.9765 1.3839 18.9292C1.5057 18.8819 1.61657 18.8123 1.71 18.7242L7 14.5063L12.29 18.7242C12.4353 18.8423 12.6131 18.9658 12.8625 18.9908C13.0519 19.0157 13.2448 18.9886 13.4184 18.9127C13.5919 18.8367 13.739 18.715 13.8421 18.5621C13.9452 18.4092 14 18.2314 14 18.0497V0.949987C14 0.698035 13.8946 0.456402 13.7071 0.278245C13.5196 0.100088 13.2652 0 13 0ZM12 16.0168L7.64 12.5398C7.46031 12.3976 7.23385 12.3198 7 12.3198C6.76615 12.3198 6.53969 12.3976 6.36 12.5398L2 16.0168V1.89997H12V16.0168Z"
            fill="#888888"/>
    <path
            d="M7 12.3198C7.23385 12.3198 7.46031 12.3976 7.64 12.5398L12 16.0168V1.89997H2V16.0168L6.36 12.5398C6.53969 12.3976 6.76615 12.3198 7 12.3198Z"
            fill="#888888"/>
</svg>