<svg width="22" height="27" viewBox="0 0 22 27" fill="none" xmlns="http://www.w3.org/2000/svg">
    <path
            d="M9.83578 17.4988L2 23.1085V2.27965C2.00988 2.26507 2.03074 2.24027 2.07171 2.20674C2.19072 2.10937 2.42378 2 2.75 2H19.25C19.5762 2 19.8093 2.10937 19.9283 2.20674C19.9693 2.24027 19.9901 2.26507 20 2.27965V23.1085L12.1642 17.4988L11 16.6653L9.83578 17.4988ZM1.99218 2.29471C1.99181 2.29465 1.99262 2.29183 1.99572 2.28644C1.9941 2.29208 1.99255 2.29477 1.99218 2.29471ZM20.0078 2.29471C20.0075 2.29477 20.0059 2.29207 20.0043 2.28644C20.0074 2.29183 20.0082 2.29465 20.0078 2.29471Z"
            stroke="white" stroke-width="4" stroke-linejoin="round" stroke-linecap="round"/>
</svg>