<svg width="10" height="18" viewBox="0 0 10 18" fill="none" xmlns="http://www.w3.org/2000/svg">
    <path d="M2.60766 9.00635L9.64115 15.983C9.88038 16.2203 9.99617 16.4971 9.98852 16.8135C9.98086 17.1299 9.8571 17.4068 9.61723 17.6441C9.37799 17.8814 9.09888 18 8.7799 18C8.46092 18 8.18182 17.8814 7.94258 17.6441L0.574163 10.359C0.382775 10.1691 0.239235 9.95554 0.143541 9.71824C0.0478472 9.48094 2.73468e-07 9.24365 2.66448e-07 9.00635C2.59427e-07 8.76905 0.0478472 8.53175 0.143541 8.29445C0.239235 8.05715 0.382775 7.84358 0.574163 7.65374L7.94258 0.344912C8.18182 0.107612 8.46507 -0.0072404 8.79234 0.00035319C9.11962 0.00794678 9.40255 0.13071 9.64115 0.368642C9.88038 0.605942 10 0.882791 10 1.19919C10 1.51559 9.88038 1.79244 9.64115 2.02974L2.60766 9.00635Z"
          fill="black"/>
</svg>
