<svg width="28" height="28" viewBox="0 0 28 28" fill="none" xmlns="http://www.w3.org/2000/svg">
<path d="M20.64 12.6271H6.88V6.8875H20.64M18.92 19.5146C18.4638 19.5146 18.0263 19.3332 17.7038 19.0103C17.3812 18.6873 17.2 18.2494 17.2 17.7927C17.2 17.336 17.3812 16.8981 17.7038 16.5752C18.0263 16.2522 18.4638 16.0708 18.92 16.0708C19.3762 16.0708 19.8137 16.2522 20.1362 16.5752C20.4588 16.8981 20.64 17.336 20.64 17.7927C20.64 18.2494 20.4588 18.6873 20.1362 19.0103C19.8137 19.3332 19.3762 19.5146 18.92 19.5146ZM8.6 19.5146C8.14383 19.5146 7.70634 19.3332 7.38378 19.0103C7.06122 18.6873 6.88 18.2494 6.88 17.7927C6.88 17.336 7.06122 16.8981 7.38378 16.5752C7.70634 16.2522 8.14383 16.0708 8.6 16.0708C9.05618 16.0708 9.49366 16.2522 9.81623 16.5752C10.1388 16.8981 10.32 17.336 10.32 17.7927C10.32 18.2494 10.1388 18.6873 9.81623 19.0103C9.49366 19.3332 9.05618 19.5146 8.6 19.5146ZM4.58667 18.3667C4.58667 19.3768 5.03387 20.2837 5.73334 20.915V22.9583C5.73334 23.2628 5.85415 23.5548 6.06919 23.77C6.28423 23.9853 6.57589 24.1063 6.88 24.1063H8.02667C8.33078 24.1063 8.62244 23.9853 8.83749 23.77C9.05253 23.5548 9.17334 23.2628 9.17334 22.9583V21.8104H18.3467V22.9583C18.3467 23.2628 18.4675 23.5548 18.6825 23.77C18.8976 23.9853 19.1892 24.1063 19.4933 24.1063H20.64C20.9441 24.1063 21.2358 23.9853 21.4508 23.77C21.6659 23.5548 21.7867 23.2628 21.7867 22.9583V20.915C22.4861 20.2837 22.9333 19.3768 22.9333 18.3667V6.8875C22.9333 2.8698 18.8283 2.29584 13.76 2.29584C8.69174 2.29584 4.58667 2.8698 4.58667 6.8875V18.3667Z" fill="#D6D1D5"/>
</svg>
