<svg width="29" height="28" viewBox="0 0 29 28" fill="none" xmlns="http://www.w3.org/2000/svg">
    <g clip-path="url(#clip0_25_723)">
        <path d="M16.92 16.3842H12.3333V24.4187H16.92V16.3842Z" fill="#D6D1D5"/>
        <path d="M24.2816 11.9997L15.4408 2.95517C15.3342 2.84759 15.2074 2.76221 15.0677 2.70393C14.9279 2.64566 14.7781 2.61566 14.6267 2.61566C14.4753 2.61566 14.3254 2.64566 14.1857 2.70393C14.046 2.76221 13.9191 2.84759 13.8125 2.95517L4.97175 12.0112C4.75782 12.227 4.58887 12.4833 4.4747 12.7651C4.36053 13.0468 4.30342 13.3485 4.30668 13.6525V23.2709C4.30579 23.8585 4.53002 24.424 4.93319 24.8511C5.33636 25.2781 5.88778 25.5342 6.47388 25.5665H10.04V15.2365C10.04 14.932 10.1608 14.6401 10.3759 14.4248C10.5909 14.2096 10.8826 14.0887 11.1867 14.0887H18.0667C18.3708 14.0887 18.6625 14.2096 18.8775 14.4248C19.0925 14.6401 19.2133 14.932 19.2133 15.2365V25.5665H22.7795C23.3656 25.5342 23.917 25.2781 24.3202 24.8511C24.7233 24.424 24.9476 23.8585 24.9467 23.2709V13.6525C24.9476 13.0361 24.7091 12.4434 24.2816 11.9997Z"
              fill="#D6D1D5"/>
    </g>
    <defs>
        <clipPath id="clip0_25_723">
            <rect width="27.52" height="27.5468" fill="white" transform="translate(0.866669 0.315247)"/>
        </clipPath>
    </defs>
</svg>
