<svg width="29" height="28" viewBox="0 0 29 28" fill="none" xmlns="http://www.w3.org/2000/svg">
<g clip-path="url(#clip0_9_2445)">
<path d="M16.92 16.3842H12.3334V24.4187H16.92V16.3842Z" fill="#B5C5F2"/>
<path d="M24.2816 11.9997L15.4408 2.95517C15.3342 2.84759 15.2074 2.76221 15.0676 2.70393C14.9279 2.64566 14.778 2.61566 14.6267 2.61566C14.4753 2.61566 14.3254 2.64566 14.1857 2.70393C14.0459 2.76221 13.9191 2.84759 13.8125 2.95517L4.97172 12.0112C4.75779 12.227 4.58884 12.4833 4.47467 12.7651C4.3605 13.0468 4.30339 13.3485 4.30665 13.6525V23.2709C4.30576 23.8585 4.52999 24.424 4.93316 24.8511C5.33633 25.2781 5.88774 25.5342 6.47385 25.5665H10.04V15.2365C10.04 14.932 10.1608 14.6401 10.3758 14.4248C10.5909 14.2096 10.8825 14.0887 11.1867 14.0887H18.0667C18.3708 14.0887 18.6624 14.2096 18.8775 14.4248C19.0925 14.6401 19.2133 14.932 19.2133 15.2365V25.5665H22.7795C23.3656 25.5342 23.917 25.2781 24.3201 24.8511C24.7233 24.424 24.9475 23.8585 24.9467 23.2709V13.6525C24.9476 13.0361 24.7091 12.4434 24.2816 11.9997Z" fill="#9CAFE2"/>
</g>
<defs>
<clipPath id="clip0_9_2445">
<rect width="27.52" height="27.5468" fill="white" transform="translate(0.866699 0.315247)"/>
</clipPath>
</defs>
</svg>
