<svg width="28" height="28" viewBox="0 0 28 28" fill="none" xmlns="http://www.w3.org/2000/svg">
<path d="M14.2267 4.90637C15.4431 4.90637 16.6098 5.39008 17.4699 6.25108C18.3301 7.11209 18.8133 8.27986 18.8133 9.49751C18.8133 10.7151 18.3301 11.8829 17.4699 12.7439C16.6098 13.6049 15.4431 14.0886 14.2267 14.0886C13.0102 14.0886 11.8436 13.6049 10.9834 12.7439C10.1232 11.8829 9.64 10.7151 9.64 9.49751C9.64 8.27986 10.1232 7.11209 10.9834 6.25108C11.8436 5.39008 13.0102 4.90637 14.2267 4.90637ZM14.2267 16.3842C19.2949 16.3842 23.4 18.4387 23.4 20.9753V23.2709H5.05333V20.9753C5.05333 18.4387 9.1584 16.3842 14.2267 16.3842Z" fill="#D6D1D5"/>
</svg>
