<svg width="28" height="28" viewBox="0 0 28 28" fill="none" xmlns="http://www.w3.org/2000/svg">
    <path d="M14.2267 4.59113C15.4431 4.59113 16.6098 5.07483 17.4699 5.93584C18.3301 6.79684 18.8133 7.96461 18.8133 9.18226C18.8133 10.3999 18.3301 11.5677 17.4699 12.4287C16.6098 13.2897 15.4431 13.7734 14.2267 13.7734C13.0102 13.7734 11.8436 13.2897 10.9834 12.4287C10.1232 11.5677 9.64001 10.3999 9.64001 9.18226C9.64001 7.96461 10.1232 6.79684 10.9834 5.93584C11.8436 5.07483 13.0102 4.59113 14.2267 4.59113ZM14.2267 16.069C19.2949 16.069 23.4 18.1235 23.4 20.6601V22.9557H5.05334V20.6601C5.05334 18.1235 9.15841 16.069 14.2267 16.069Z"
          fill="#9CAFE2"/>
</svg>
