<svg width="28" height="28" viewBox="0 0 28 28" fill="none" xmlns="http://www.w3.org/2000/svg">
    <g clip-path="url(#clip0_67_49)">
        <path d="M5.38643 6.8867H0.95571C0.44659 6.8867 -0.0625295 7.32745 0.00627053 8.04367L2.15283 21.8033C2.15283 21.8033 4.69843 11.6661 5.19379 9.22818C5.34515 8.49819 6.03315 8.26404 6.54227 8.26404H13.6424C13.6424 8.26404 12.6792 5.39917 12.5829 5.08238C12.4178 4.47635 12.1151 4.13202 11.5096 4.13202H6.95507C6.45971 4.13202 5.99187 4.44881 5.85427 5.01352C5.73043 5.56445 5.38643 6.8867 5.38643 6.8867ZM12.1013 6.8867H6.59731C6.59731 6.8867 7.17523 5.50936 7.79443 5.50936H10.7253C11.3858 5.50936 12.1013 6.8867 12.1013 6.8867ZM3.55635 22.3818C3.12979 23.0291 2.51059 23.4148 1.82259 23.4148H23.4671C24.2101 23.4148 24.733 22.9878 24.8843 22.2716C25.4898 19.2552 27.196 10.6468 27.196 10.6468C27.2924 9.95817 26.7832 9.64138 26.3429 9.64138H21.8984V7.61669C21.8984 7.39632 21.5407 6.8867 20.9903 6.8867H15.8165C15.101 6.8867 14.6194 7.68556 14.6194 7.68556L13.6424 9.64138H7.57427C7.13395 9.64138 6.70739 9.90307 6.62483 10.33C6.62483 10.33 4.43699 19.5582 4.25811 20.426C4.16179 20.9356 3.95539 21.7895 3.55635 22.3818ZM21.0453 9.64138H15.0184C15.0184 9.64138 15.8165 8.26404 16.5733 8.26404H19.7244C20.7013 8.26404 21.0453 9.64138 21.0453 9.64138Z"
              fill="#9CAFE2"/>
    </g>
    <defs>
        <clipPath id="clip0_67_49">
            <rect width="27.52" height="27.5468" fill="white"/>
        </clipPath>
    </defs>
</svg>
