<svg width="28" height="28" viewBox="0 0 28 28" fill="none" xmlns="http://www.w3.org/2000/svg">
    <g clip-path="url(#clip0_25_697)">
        <path d="M5.38637 7.20195H0.955649C0.446529 7.20195 -0.0625905 7.64269 0.00620949 8.35891L2.15277 22.1185C2.15277 22.1185 4.69837 11.9813 5.19373 9.54342C5.34509 8.81343 6.03309 8.57929 6.54221 8.57929H13.6424C13.6424 8.57929 12.6792 5.71442 12.5828 5.39763C12.4177 4.7916 12.115 4.44727 11.5096 4.44727H6.95501C6.45965 4.44727 5.99181 4.76405 5.85421 5.32876C5.73037 5.8797 5.38637 7.20195 5.38637 7.20195ZM12.1013 7.20195H6.59725C6.59725 7.20195 7.17517 5.82461 7.79437 5.82461H10.7253C11.3857 5.82461 12.1013 7.20195 12.1013 7.20195ZM3.55629 22.697C3.12973 23.3444 2.51053 23.73 1.82253 23.73H23.467C24.21 23.73 24.7329 23.3031 24.8843 22.5868C25.4897 19.5705 27.196 10.9621 27.196 10.9621C27.2923 10.2734 26.7832 9.95663 26.3428 9.95663H21.8984V7.93194C21.8984 7.71156 21.5406 7.20195 20.9902 7.20195H15.8165C15.1009 7.20195 14.6193 8.0008 14.6193 8.0008L13.6424 9.95663H7.57421C7.13389 9.95663 6.70733 10.2183 6.62477 10.6453C6.62477 10.6453 4.43693 19.8735 4.25805 20.7412C4.16173 21.2508 3.95533 22.1048 3.55629 22.697ZM21.0453 9.95663H15.0184C15.0184 9.95663 15.8165 8.57929 16.5732 8.57929H19.7243C20.7013 8.57929 21.0453 9.95663 21.0453 9.95663Z"
              fill="#D6D1D5"/>
    </g>
    <defs>
        <clipPath id="clip0_25_697">
            <rect width="27.52" height="27.5468" fill="white" transform="translate(-6.10352e-05 0.315247)"/>
        </clipPath>
    </defs>
</svg>
