<svg width="24" height="24" viewBox="0 0 24 24" fill="none" xmlns="http://www.w3.org/2000/svg">
<path d="M4.1567 0.758606C3.35896 0.758756 2.58405 1.02523 1.95465 1.51586C1.32524 2.00648 0.877301 2.69322 0.681724 3.46737C1.03182 3.3462 1.40604 3.31171 1.77235 3.36687C2.13867 3.42204 2.48619 3.5652 2.78517 3.78412C3.08416 4.00304 3.32571 4.2912 3.48918 4.62394C3.65264 4.95669 3.73314 5.32412 3.7238 5.6948C3.71445 6.06549 3.61554 6.42838 3.43552 6.75246C3.2555 7.07653 2.99973 7.35213 2.6901 7.55567C2.38046 7.75922 2.02617 7.88466 1.65754 7.92126C1.28891 7.95785 0.916912 7.90452 0.573364 7.76582V17.8319C0.573364 18.7832 0.950893 19.6955 1.6229 20.3681C2.2949 21.0408 3.20634 21.4187 4.1567 21.4187H10.9186C10.1513 20.2198 9.7445 18.8253 9.7467 17.4015C9.7467 16.0425 10.1096 14.7684 10.7443 13.6712H7.02336C6.83329 13.6712 6.651 13.5956 6.5166 13.4611C6.3822 13.3265 6.3067 13.1441 6.3067 12.9538C6.3067 12.7635 6.3822 12.5811 6.5166 12.4465C6.651 12.312 6.83329 12.2364 7.02336 12.2364H11.8222C13.1781 10.8218 15.0862 9.94087 17.2 9.94087C18.6775 9.94087 20.0552 10.3713 21.2134 11.1139V4.34543C21.2134 3.39414 20.8358 2.48182 20.1638 1.80916C19.4918 1.1365 18.5804 0.758606 17.63 0.758606H4.1567ZM6.3067 8.93656C6.3067 8.54058 6.62776 8.2192 7.02336 8.2192H14.7634C14.8575 8.2192 14.9507 8.23775 15.0376 8.2738C15.1246 8.30985 15.2036 8.36269 15.2701 8.42931C15.3367 8.49592 15.3895 8.575 15.4255 8.66204C15.4615 8.74907 15.48 8.84236 15.48 8.93656C15.48 9.03077 15.4615 9.12405 15.4255 9.21109C15.3895 9.29812 15.3367 9.3772 15.2701 9.44382C15.2036 9.51043 15.1246 9.56327 15.0376 9.59932C14.9507 9.63537 14.8575 9.65393 14.7634 9.65393H7.02336C6.62776 9.65393 6.3067 9.33255 6.3067 8.93656Z" fill="#D6D1D5"/>
<path d="M1.43334 4.20197C1.24502 4.20166 1.0585 4.23857 0.884465 4.31056C0.710429 4.38256 0.552299 4.48823 0.419142 4.62152C0.285984 4.7548 0.180417 4.91309 0.108493 5.08729C0.0365678 5.2615 -0.000300185 5.4482 1.84073e-06 5.6367C-0.000300185 5.82519 0.0365678 6.0119 0.108493 6.1861C0.180417 6.36031 0.285984 6.51859 0.419142 6.65188C0.552299 6.78516 0.710429 6.89083 0.884465 6.96283C1.0585 7.03482 1.24502 7.07173 1.43334 7.07143C1.81348 7.07143 2.17805 6.92027 2.44686 6.6512C2.71566 6.38214 2.86667 6.01721 2.86667 5.6367C2.86667 5.25618 2.71566 4.89125 2.44686 4.62219C2.17805 4.35313 1.81348 4.20197 1.43334 4.20197Z" fill="#D6D1D5"/>
<path d="M23.5066 17.4015C23.5066 20.8879 20.683 23.7143 17.2 23.7143C13.717 23.7143 10.8933 20.8879 10.8933 17.4015C10.8933 13.9151 13.717 11.0887 17.2 11.0887C20.683 11.0887 23.5066 13.9151 23.5066 17.4015ZM17.7733 13.3843C17.7733 13.232 17.7129 13.0861 17.6054 12.9784C17.4979 12.8708 17.352 12.8104 17.2 12.8104C17.0479 12.8104 16.9021 12.8708 16.7946 12.9784C16.687 13.0861 16.6266 13.232 16.6266 13.3843V16.8276H13.1866C13.0346 16.8276 12.8888 16.8881 12.7812 16.9957C12.6737 17.1033 12.6133 17.2493 12.6133 17.4015C12.6133 17.5537 12.6737 17.6997 12.7812 17.8073C12.8888 17.9149 13.0346 17.9754 13.1866 17.9754H16.6266V21.4187C16.6266 21.5709 16.687 21.7169 16.7946 21.8245C16.9021 21.9322 17.0479 21.9926 17.2 21.9926C17.352 21.9926 17.4979 21.9322 17.6054 21.8245C17.7129 21.7169 17.7733 21.5709 17.7733 21.4187V17.9754H21.2133C21.3654 17.9754 21.5112 17.9149 21.6187 17.8073C21.7262 17.6997 21.7866 17.5537 21.7866 17.4015C21.7866 17.2493 21.7262 17.1033 21.6187 16.9957C21.5112 16.8881 21.3654 16.8276 21.2133 16.8276H17.7733V13.3843Z" fill="#D6D1D5"/>
</svg>
