<svg width="15" height="8" viewBox="0 0 15 8" fill="none" xmlns="http://www.w3.org/2000/svg">
    <path d="M7.29763 1.36723L0.932659 7.83391C0.881365 7.88715 0.820468 7.92924 0.753491 7.95775C0.686514 7.98625 0.614788 8.00061 0.542462 7.99998C0.470137 7.99935 0.398649 7.98376 0.332135 7.95409C0.265621 7.92443 0.205402 7.88129 0.154962 7.82716C0.104523 7.77304 0.0648646 7.70901 0.0382824 7.63878C0.0117002 7.56854 -0.001278 7.4935 9.87943e-05 7.418C0.00147559 7.3425 0.0171801 7.26803 0.0463034 7.1989C0.0754267 7.12978 0.117391 7.06737 0.169767 7.01529L6.91618 0.161774C7.0183 0.0580403 7.15515 2.60654e-07 7.29763 2.65844e-07C7.4401 2.71034e-07 7.57696 0.0580403 7.67907 0.161774L14.4255 7.01529C14.4779 7.06737 14.5198 7.12978 14.549 7.19891C14.5781 7.26803 14.5938 7.3425 14.5952 7.418C14.5965 7.49351 14.5836 7.56854 14.557 7.63878C14.5304 7.70901 14.4907 7.77304 14.4403 7.82716C14.3899 7.88129 14.3296 7.92443 14.2631 7.95409C14.1966 7.98376 14.1251 7.99935 14.0528 7.99998C13.9805 8.00061 13.9087 7.98625 13.8418 7.95775C13.7748 7.92924 13.7139 7.88715 13.6626 7.83391L7.29763 1.36723Z"
          fill="#888888"/>
</svg>
