<svg width="99" height="99" viewBox="0 0 99 99" fill="none" xmlns="http://www.w3.org/2000/svg">
    <path d="M20.625 86.625C18.3562 86.625 16.4141 85.8172 14.7984 84.2016C13.1828 82.5859 12.375 80.6437 12.375 78.375V20.625C12.375 18.3562 13.1828 16.4141 14.7984 14.7984C16.4141 13.1828 18.3562 12.375 20.625 12.375H78.375C80.6437 12.375 82.5859 13.1828 84.2016 14.7984C85.8172 16.4141 86.625 18.3562 86.625 20.625V78.375C86.625 80.6437 85.8172 82.5859 84.2016 84.2016C82.5859 85.8172 80.6437 86.625 78.375 86.625H20.625ZM20.625 78.375H78.375V20.625H20.625V78.375ZM24.75 70.125H74.25L58.7812 49.5L46.4062 66L37.125 53.625L24.75 70.125Z"
          fill="#B8D0F5"/>
</svg>
