<svg width="15" height="8" viewBox="0 0 15 8" fill="none" xmlns="http://www.w3.org/2000/svg">
<path d="M7.29762 6.63277L13.6626 0.166093C13.7139 0.112852 13.7748 0.0707602 13.8418 0.042254C13.9087 0.0137477 13.9805 -0.000607493 14.0528 1.95478e-05C14.1251 0.000647066 14.1966 0.0162444 14.2631 0.0459084C14.3296 0.0755725 14.3898 0.118714 14.4403 0.172838C14.4907 0.226962 14.5304 0.290992 14.557 0.361224C14.5835 0.431456 14.5965 0.506495 14.5951 0.581999C14.5938 0.657502 14.5781 0.731971 14.5489 0.801095C14.5198 0.87022 14.4779 0.932627 14.4255 0.984707L7.67906 7.83823C7.57694 7.94196 7.44009 8 7.29762 8C7.15514 8 7.01829 7.94196 6.91617 7.83823L0.169753 0.984707C0.117377 0.932627 0.0754138 0.87022 0.0462905 0.801095C0.0171672 0.731971 0.00146398 0.657502 8.68728e-05 0.581999C-0.00129023 0.506495 0.0116883 0.431456 0.0382701 0.361224C0.0648519 0.290992 0.104509 0.226962 0.154949 0.172838C0.205389 0.118714 0.265608 0.0755724 0.332122 0.0459084C0.398636 0.0162443 0.470124 0.000647002 0.54245 1.94851e-05C0.614776 -0.000607555 0.686502 0.0137476 0.753478 0.0422539C0.820455 0.0707602 0.881353 0.112852 0.932646 0.166093L7.29762 6.63277Z" fill="#888888"/>
</svg>
