<svg width="35" height="35" viewBox="0 0 35 35" fill="none" xmlns="http://www.w3.org/2000/svg">
    <g clip-path="url(#clip0_13_89)">
        <path d="M26.521 15.6554C27.2631 15.6554 27.8647 15.0532 27.8647 14.3103C27.8647 13.5674 27.2631 12.9652 26.521 12.9652C25.7789 12.9652 25.1772 13.5674 25.1772 14.3103C25.1772 15.0532 25.7789 15.6554 26.521 15.6554Z"
              fill="#9CAFE2"/>
        <path d="M29.6117 2.87731H27.8648V1.53225C27.8648 0.789378 27.2632 0.187195 26.521 0.187195C25.7789 0.187195 25.1773 0.789378 25.1773 1.53225V2.87731H19.0632V1.53225C19.0632 0.789378 18.4616 0.187195 17.7195 0.187195C16.9773 0.187195 16.3757 0.789378 16.3757 1.53225V2.87731H10.3289V1.53225C10.3289 0.789378 9.72726 0.187195 8.98511 0.187195C8.24296 0.187195 7.64136 0.789378 7.64136 1.53225V2.87731H5.96167C2.9979 2.87731 0.58667 5.29088 0.58667 8.25755V29.2405C0.58667 32.2071 2.9979 34.6207 5.96167 34.6207H16.2414C16.9835 34.6207 17.5851 34.0185 17.5851 33.2756C17.5851 32.5328 16.9835 31.9306 16.2414 31.9306H5.96167C4.47978 31.9306 3.27417 30.7238 3.27417 29.2405V8.25755C3.27417 6.77422 4.47978 5.56743 5.96167 5.56743H7.64136V6.91249C7.64136 7.65536 8.24296 8.25755 8.98511 8.25755C9.72726 8.25755 10.3289 7.65536 10.3289 6.91249V5.56743H16.3757V6.91249C16.3757 7.65536 16.9773 8.25755 17.7195 8.25755C18.4616 8.25755 19.0632 7.65536 19.0632 6.91249V5.56743H25.1773V6.91249C25.1773 7.65536 25.7789 8.25755 26.521 8.25755C27.2632 8.25755 27.8648 7.65536 27.8648 6.91249V5.56743H29.6117C31.0936 5.56743 32.2992 6.77422 32.2992 8.25755V15.9244C32.2992 16.6673 32.9008 17.2694 33.6429 17.2694C34.3851 17.2694 34.9867 16.6673 34.9867 15.9244V8.25755C34.9867 5.29088 32.5754 2.87731 29.6117 2.87731Z"
              fill="#4071B9"/>
        <path d="M26.2836 17.8747C21.8009 17.8747 18.1539 21.5252 18.1539 26.0123C18.1539 30.4994 21.8009 34.1499 26.2836 34.1499C30.7664 34.1499 34.4133 30.4994 34.4133 26.0123C34.4133 21.5252 30.7664 17.8747 26.2836 17.8747Z"
              fill="#7AA7E5"/>
        <path d="M27.9588 24.7525H27.3541V23.3401C27.3541 22.5973 26.7525 21.9951 26.0104 21.9951C25.2682 21.9951 24.6666 22.5973 24.6666 23.3401V26.0975C24.6666 26.8404 25.2682 27.4426 26.0104 27.4426H27.9588C28.701 27.4426 29.3026 26.8404 29.3026 26.0975C29.3026 25.3546 28.701 24.7525 27.9588 24.7525Z"
              fill="white"/>
        <path d="M20.6758 15.6554C21.4179 15.6554 22.0195 15.0532 22.0195 14.3103C22.0195 13.5674 21.4179 12.9652 20.6758 12.9652C19.9336 12.9652 19.332 13.5674 19.332 14.3103C19.332 15.0532 19.9336 15.6554 20.6758 15.6554Z"
              fill="#9CAFE2"/>
        <path d="M14.8304 21.5064C15.5726 21.5064 16.1742 20.9042 16.1742 20.1613C16.1742 19.4185 15.5726 18.8163 14.8304 18.8163C14.0883 18.8163 13.4867 19.4185 13.4867 20.1613C13.4867 20.9042 14.0883 21.5064 14.8304 21.5064Z"
              fill="#9CAFE2"/>
        <path d="M8.98511 15.6554C9.72724 15.6554 10.3289 15.0532 10.3289 14.3103C10.3289 13.5674 9.72724 12.9652 8.98511 12.9652C8.24297 12.9652 7.64136 13.5674 7.64136 14.3103C7.64136 15.0532 8.24297 15.6554 8.98511 15.6554Z"
              fill="#9CAFE2"/>
        <path d="M8.98511 21.5064C9.72724 21.5064 10.3289 20.9042 10.3289 20.1613C10.3289 19.4185 9.72724 18.8163 8.98511 18.8163C8.24297 18.8163 7.64136 19.4185 7.64136 20.1613C7.64136 20.9042 8.24297 21.5064 8.98511 21.5064Z"
              fill="#9CAFE2"/>
        <path d="M8.98511 27.3574C9.72724 27.3574 10.3289 26.7552 10.3289 26.0123C10.3289 25.2695 9.72724 24.6673 8.98511 24.6673C8.24297 24.6673 7.64136 25.2695 7.64136 26.0123C7.64136 26.7552 8.24297 27.3574 8.98511 27.3574Z"
              fill="#9CAFE2"/>
        <path d="M14.8304 27.3574C15.5726 27.3574 16.1742 26.7552 16.1742 26.0123C16.1742 25.2695 15.5726 24.6673 14.8304 24.6673C14.0883 24.6673 13.4867 25.2695 13.4867 26.0123C13.4867 26.7552 14.0883 27.3574 14.8304 27.3574Z"
              fill="#9CAFE2"/>
        <path d="M14.8304 15.6554C15.5726 15.6554 16.1742 15.0532 16.1742 14.3103C16.1742 13.5674 15.5726 12.9652 14.8304 12.9652C14.0883 12.9652 13.4867 13.5674 13.4867 14.3103C13.4867 15.0532 14.0883 15.6554 14.8304 15.6554Z"
              fill="#9CAFE2"/>
    </g>
    <defs>
        <clipPath id="clip0_13_89">
            <rect width="34.4" height="34.4335" fill="white" transform="translate(0.58667 0.187195)"/>
        </clipPath>
    </defs>
</svg>
