<svg width="35" height="35" viewBox="0 0 35 35" fill="none" xmlns="http://www.w3.org/2000/svg">
    <g clip-path="url(#clip0_13_153)">
        <path d="M20.5952 26.9382L17.5838 28.1794C17.4608 28.23 17.3304 28.2554 17.2001 28.2554C17.0697 28.2554 16.9392 28.23 16.8164 28.1794L13.8049 26.9382H0V30.8207C0 31.3778 0.451231 31.8295 1.00781 31.8295H33.3922C33.9488 31.8295 34.4 31.3778 34.4 30.8207V26.9382H20.5952Z"
              fill="#9CAFE2"/>
        <path d="M14.0042 24.9206C14.1358 24.9206 14.2662 24.9464 14.3879 24.9966L16.1922 25.7402V25.6653V3.32405C15.4969 2.86956 14.6676 2.60397 13.777 2.60397H1.00781C0.451231 2.60397 0 3.05564 0 3.61277V24.9205H14.0042V24.9206ZM11.5187 16.4385H4.6735C4.11691 16.4385 3.66568 15.9868 3.66568 15.4297C3.66568 14.8726 4.11691 14.4209 4.6735 14.4209H11.5187C12.0753 14.4209 12.5265 14.8726 12.5265 15.4297C12.5265 15.9868 12.0753 16.4385 11.5187 16.4385ZM12.5265 19.7691C12.5265 20.3262 12.0753 20.7779 11.5187 20.7779H4.6735C4.11691 20.7779 3.66568 20.3262 3.66568 19.7691C3.66568 19.212 4.11691 18.7603 4.6735 18.7603H11.5187C12.0753 18.7603 12.5265 19.212 12.5265 19.7691ZM11.5187 12.0991H4.6735C4.11691 12.0991 3.66568 11.6474 3.66568 11.0903C3.66568 10.5332 4.11691 10.0815 4.6735 10.0815H11.5187C12.0753 10.0815 12.5265 10.5332 12.5265 11.0903C12.5265 11.6474 12.0753 12.0991 11.5187 12.0991Z"
              fill="#4071B9"/>
        <path d="M18.2078 25.6653V25.7402L20.012 24.9965C20.1338 24.9463 20.2641 24.9205 20.3957 24.9205H34.4V3.61283C34.4 3.05571 33.9487 2.60403 33.3921 2.60403H20.623C19.7323 2.60403 18.9031 2.86962 18.2078 3.32411V25.6653ZM29.3974 16.4385H22.5523C21.9957 16.4385 21.5445 15.9868 21.5445 15.4297C21.5445 14.8726 21.9957 14.4209 22.5523 14.4209H29.3975C29.9541 14.4209 30.4053 14.8726 30.4053 15.4297C30.4053 15.9868 29.9541 16.4385 29.3974 16.4385ZM30.4053 19.7691C30.4053 20.3262 29.954 20.7779 29.3974 20.7779H22.5523C21.9957 20.7779 21.5445 20.3262 21.5445 19.7691C21.5445 19.2119 21.9957 18.7603 22.5523 18.7603H29.3975C29.9541 18.7603 30.4053 19.2119 30.4053 19.7691ZM29.3974 12.0991H22.5523C21.9957 12.0991 21.5445 11.6474 21.5445 11.0903C21.5445 10.5332 21.9957 10.0815 22.5523 10.0815H29.3975C29.9541 10.0815 30.4053 10.5332 30.4053 11.0903C30.4053 11.6474 29.9541 12.0991 29.3974 12.0991Z"
              fill="#4071B9"/>
    </g>
    <defs>
        <clipPath id="clip0_13_153">
            <rect width="34.4" height="34.4335" fill="white"/>
        </clipPath>
    </defs>
</svg>
