<svg width="18" height="18" viewBox="0 0 18 18" fill="none" xmlns="http://www.w3.org/2000/svg">
    <path d="M8.25 8.23508C8.25 8.03617 8.32902 7.8454 8.46967 7.70475C8.61032 7.5641 8.80109 7.48508 9 7.48508C9.19891 7.48508 9.38968 7.5641 9.53033 7.70475C9.67098 7.8454 9.75 8.03617 9.75 8.23508V12.7351C9.75 12.934 9.67098 13.1248 9.53033 13.2654C9.38968 13.4061 9.19891 13.4851 9 13.4851C8.80109 13.4851 8.61032 13.4061 8.46967 13.2654C8.32902 13.1248 8.25 12.934 8.25 12.7351V8.23508ZM9 4.53833C8.80109 4.53833 8.61032 4.61735 8.46967 4.758C8.32902 4.89865 8.25 5.08942 8.25 5.28833C8.25 5.48724 8.32902 5.67801 8.46967 5.81866C8.61032 5.95931 8.80109 6.03833 9 6.03833C9.19891 6.03833 9.38968 5.95931 9.53033 5.81866C9.67098 5.67801 9.75 5.48724 9.75 5.28833C9.75 5.08942 9.67098 4.89865 9.53033 4.758C9.38968 4.61735 9.19891 4.53833 9 4.53833Z"
          fill="#9B9B9B"/>
    <path fill-rule="evenodd" clip-rule="evenodd"
          d="M9 1.5C4.85775 1.5 1.5 4.85775 1.5 9C1.5 13.1423 4.85775 16.5 9 16.5C13.1423 16.5 16.5 13.1423 16.5 9C16.5 4.85775 13.1423 1.5 9 1.5ZM3 9C3 10.5913 3.63214 12.1174 4.75736 13.2426C5.88258 14.3679 7.4087 15 9 15C10.5913 15 12.1174 14.3679 13.2426 13.2426C14.3679 12.1174 15 10.5913 15 9C15 7.4087 14.3679 5.88258 13.2426 4.75736C12.1174 3.63214 10.5913 3 9 3C7.4087 3 5.88258 3.63214 4.75736 4.75736C3.63214 5.88258 3 7.4087 3 9Z"
          fill="#9B9B9B"/>
</svg>
