<svg width="14" height="14" viewBox="0 0 14 14" fill="none" xmlns="http://www.w3.org/2000/svg">
<path d="M4.08325 6.4165H5.24992V7.58317H4.08325V6.4165ZM4.08325 8.74984H5.24992V9.9165H4.08325V8.74984ZM6.41659 6.4165H7.58325V7.58317H6.41659V6.4165ZM6.41659 8.74984H7.58325V9.9165H6.41659V8.74984ZM8.74992 6.4165H9.91659V7.58317H8.74992V6.4165ZM8.74992 8.74984H9.91659V9.9165H8.74992V8.74984Z" fill="#969696"/>
<path d="M2.91667 12.8332H11.0833C11.7267 12.8332 12.25 12.3099 12.25 11.6665V3.49984C12.25 2.85642 11.7267 2.33317 11.0833 2.33317H9.91667V1.1665H8.75V2.33317H5.25V1.1665H4.08333V2.33317H2.91667C2.27325 2.33317 1.75 2.85642 1.75 3.49984V11.6665C1.75 12.3099 2.27325 12.8332 2.91667 12.8332ZM11.0833 4.6665L11.0839 11.6665H2.91667V4.6665H11.0833Z" fill="#969696"/>
</svg>
