<svg width="24" height="24" viewBox="0 0 24 24" fill="none" xmlns="http://www.w3.org/2000/svg">
<path d="M3.59961 6.00001C3.59961 5.36349 3.85247 4.75304 4.30255 4.30295C4.75264 3.85286 5.36309 3.60001 5.99961 3.60001H16.0544C16.6909 3.60014 17.3012 3.85309 17.7512 4.30321L19.6964 6.24841C20.1465 6.69839 20.3995 7.30874 20.3996 7.94521V18C20.3996 18.6365 20.1468 19.247 19.6967 19.6971C19.2466 20.1471 18.6361 20.4 17.9996 20.4H5.99961C5.36309 20.4 4.75264 20.1471 4.30255 19.6971C3.85247 19.247 3.59961 18.6365 3.59961 18V6.00001ZM5.99961 4.80001C5.68135 4.80001 5.37612 4.92643 5.15108 5.15148C4.92604 5.37652 4.79961 5.68175 4.79961 6.00001V18C4.79961 18.3183 4.92604 18.6235 5.15108 18.8485C5.37612 19.0736 5.68135 19.2 5.99961 19.2V13.8C5.99961 13.3226 6.18925 12.8648 6.52682 12.5272C6.86438 12.1896 7.32222 12 7.79961 12H16.1996C16.677 12 17.1348 12.1896 17.4724 12.5272C17.81 12.8648 17.9996 13.3226 17.9996 13.8V19.2C18.3179 19.2 18.6231 19.0736 18.8481 18.8485C19.0732 18.6235 19.1996 18.3183 19.1996 18V7.94521C19.1995 7.62697 19.0731 7.3218 18.848 7.09681L16.9028 5.15161C16.6778 4.92655 16.3726 4.80007 16.0544 4.80001H15.5996V7.80001C15.5996 8.2774 15.41 8.73523 15.0724 9.0728C14.7348 9.41036 14.277 9.60001 13.7996 9.60001H8.99961C8.52222 9.60001 8.06438 9.41036 7.72682 9.0728C7.38925 8.73523 7.19961 8.2774 7.19961 7.80001V4.80001H5.99961ZM8.39961 4.80001V7.80001C8.39961 7.95914 8.46282 8.11175 8.57535 8.22427C8.68787 8.33679 8.84048 8.40001 8.99961 8.40001H13.7996C13.9587 8.40001 14.1114 8.33679 14.2239 8.22427C14.3364 8.11175 14.3996 7.95914 14.3996 7.80001V4.80001H8.39961ZM16.7996 19.2V13.8C16.7996 13.6409 16.7364 13.4883 16.6239 13.3757C16.5114 13.2632 16.3587 13.2 16.1996 13.2H7.79961C7.64048 13.2 7.48787 13.2632 7.37535 13.3757C7.26282 13.4883 7.19961 13.6409 7.19961 13.8V19.2H16.7996Z" fill="#969696"/>
</svg>
