<svg width="22" height="22" viewBox="0 0 22 22" fill="none" xmlns="http://www.w3.org/2000/svg">
<path d="M10.9375 6.125C9.98568 6.125 9.05523 6.40725 8.26382 6.93605C7.47241 7.46486 6.85558 8.21647 6.49133 9.09584C6.12708 9.97521 6.03178 10.9428 6.21747 11.8764C6.40316 12.8099 6.86151 13.6674 7.53455 14.3405C8.20759 15.0135 9.06509 15.4718 9.99863 15.6575C10.9322 15.8432 11.8998 15.7479 12.7792 15.3837C13.6585 15.0194 14.4101 14.4026 14.9389 13.6112C15.4678 12.8198 15.75 11.8893 15.75 10.9375C15.7486 9.66159 15.2411 8.43835 14.3389 7.53615C13.4366 6.63394 12.2134 6.12645 10.9375 6.125ZM10.9375 14.875C10.1587 14.875 9.39746 14.6441 8.74994 14.2114C8.10242 13.7788 7.59774 13.1638 7.29972 12.4443C7.0017 11.7248 6.92373 10.9331 7.07566 10.1693C7.22759 9.40553 7.6026 8.70394 8.15327 8.15327C8.70394 7.6026 9.40553 7.22759 10.1693 7.07566C10.9331 6.92373 11.7248 7.0017 12.4443 7.29972C13.1638 7.59774 13.7788 8.10242 14.2114 8.74994C14.6441 9.39746 14.875 10.1587 14.875 10.9375C14.875 11.9818 14.4602 12.9833 13.7217 13.7217C12.9833 14.4602 11.9818 14.875 10.9375 14.875ZM16.1875 0H5.6875C4.17961 0.00173686 2.73399 0.601512 1.66775 1.66775C0.601512 2.73399 0.00173686 4.17961 0 5.6875V16.1875C0.00173686 17.6954 0.601512 19.141 1.66775 20.2073C2.73399 21.2735 4.17961 21.8733 5.6875 21.875H16.1875C17.6954 21.8733 19.141 21.2735 20.2073 20.2073C21.2735 19.141 21.8733 17.6954 21.875 16.1875V5.6875C21.8733 4.17961 21.2735 2.73399 20.2073 1.66775C19.141 0.601512 17.6954 0.00173686 16.1875 0ZM21 16.1875C20.9986 17.4634 20.4911 18.6866 19.5889 19.5889C18.6866 20.4911 17.4634 20.9986 16.1875 21H5.6875C4.41159 20.9986 3.18835 20.4911 2.28615 19.5889C1.38394 18.6866 0.876447 17.4634 0.875 16.1875V5.6875C0.876447 4.41159 1.38394 3.18835 2.28615 2.28615C3.18835 1.38394 4.41159 0.876447 5.6875 0.875H16.1875C17.4634 0.876447 18.6866 1.38394 19.5889 2.28615C20.4911 3.18835 20.9986 4.41159 21 5.6875V16.1875ZM17.5 5.25C17.5 5.42306 17.4487 5.59223 17.3525 5.73612C17.2564 5.88002 17.1197 5.99217 16.9598 6.05839C16.8 6.12462 16.624 6.14195 16.4543 6.10819C16.2846 6.07443 16.1287 5.99109 16.0063 5.86872C15.8839 5.74635 15.8006 5.59044 15.7668 5.4207C15.7331 5.25097 15.7504 5.07504 15.8166 4.91515C15.8828 4.75527 15.995 4.61861 16.1389 4.52246C16.2828 4.42632 16.4519 4.375 16.625 4.375C16.8571 4.375 17.0796 4.46719 17.2437 4.63128C17.4078 4.79538 17.5 5.01794 17.5 5.25Z" fill="#969696"/>
</svg>
