<svg width="37" height="21" viewBox="0 0 37 21" fill="none" xmlns="http://www.w3.org/2000/svg">
<path d="M3.85387 19.0455H2.97144L3.41475 17.874L3.85387 19.0455ZM3.30776 16.2416C3.30776 16.1057 3.30843 16.0158 3.31329 15.9426C3.34993 15.9885 3.38282 16.0301 3.41453 16.0721C3.53212 16.2279 3.56156 16.3013 3.56817 16.3132C3.56512 16.3546 3.55451 16.4106 3.53149 16.476C3.50359 16.5553 3.46642 16.6229 3.43513 16.6666L3.41438 16.6956L3.39008 16.6622C3.3909 16.6633 3.39131 16.6639 3.39137 16.6639C3.39179 16.6636 3.3688 16.625 3.34538 16.5346C3.32081 16.4398 3.30776 16.3334 3.30776 16.2416ZM4.34134 11.8429L4.0832 11.6997V11.6862L3.57513 11.3991L2.02718 10.5245L18.4962 1.15058L34.9764 10.5269L29.6614 13.5454C27.0638 11.071 22.9212 9.60023 18.5441 9.60023C14.1643 9.60023 10.0198 11.0737 7.42293 13.552L4.34134 11.8429ZM27.5962 17.0468V20H9.49505V17.0468C11.6104 15.0645 14.7766 13.7728 18.5448 13.7728C22.3139 13.7728 25.4808 15.0646 27.5962 17.0468Z" stroke="#95BAED" stroke-width="2"/>
</svg>
