<svg width="13" height="16" viewBox="0 0 13 16" fill="none" xmlns="http://www.w3.org/2000/svg">
<path d="M3.44974 0.0851646C3.91567 -0.0468024 4.41565 -0.0248782 4.86647 0.147288C5.31729 0.319453 5.69173 0.631474 5.92748 1.03141L6.00627 1.18045L6.71115 2.65183C6.92466 3.0985 6.99388 3.59424 6.91021 4.07753C6.82655 4.56083 6.59369 5.01042 6.24052 5.37053L6.09891 5.50256L4.98834 6.47581C4.78817 6.65386 4.9383 7.34303 5.66235 8.52134C6.31399 9.58161 6.84425 10.0767 7.10512 10.1037H7.15091L7.20734 10.0937L9.39013 9.46658C9.68349 9.38206 9.99656 9.37872 10.2919 9.45695C10.5872 9.53517 10.8523 9.69166 11.0554 9.90769L11.1523 10.0227L12.5972 11.9032C12.8804 12.2718 13.0215 12.72 12.9973 13.174C12.9731 13.628 12.7851 14.0607 12.4641 14.4009L12.3342 14.5269L11.7571 15.041C11.2389 15.5021 10.5906 15.8136 9.88941 15.9386C9.18818 16.0636 8.46349 15.9968 7.80149 15.7462C5.74114 14.966 3.86926 13.1835 2.16881 10.4168C0.465169 7.64311 -0.242908 5.22549 0.0733308 3.15496C0.169026 2.52906 0.443384 1.9392 0.867266 1.44801C1.29115 0.956825 1.84873 0.582654 2.48079 0.365237L2.68629 0.30122L3.44974 0.0851646Z" fill="#969696"/>
</svg>
