<svg width="64" height="64" viewBox="0 0 64 64" fill="none" xmlns="http://www.w3.org/2000/svg">
    <path d="M10.6667 10.6666H18.6667L24 5.33331H40L45.3333 10.6666H53.3333C54.7478 10.6666 56.1044 11.2285 57.1046 12.2287C58.1048 13.2289 58.6667 14.5855 58.6667 16V48C58.6667 49.4145 58.1048 50.771 57.1046 51.7712C56.1044 52.7714 54.7478 53.3333 53.3333 53.3333H10.6667C9.25217 53.3333 7.89562 52.7714 6.89543 51.7712C5.89523 50.771 5.33333 49.4145 5.33333 48V16C5.33333 14.5855 5.89523 13.2289 6.89543 12.2287C7.89562 11.2285 9.25217 10.6666 10.6667 10.6666ZM32 18.6666C28.4638 18.6666 25.0724 20.0714 22.5719 22.5719C20.0714 25.0724 18.6667 28.4638 18.6667 32C18.6667 35.5362 20.0714 38.9276 22.5719 41.4281C25.0724 43.9286 28.4638 45.3333 32 45.3333C35.5362 45.3333 38.9276 43.9286 41.4281 41.4281C43.9286 38.9276 45.3333 35.5362 45.3333 32C45.3333 28.4638 43.9286 25.0724 41.4281 22.5719C38.9276 20.0714 35.5362 18.6666 32 18.6666Z"
          fill="#4071B9"/>
    <path d="M37.6569 26.3431C36.1566 24.8429 34.1217 24 32 24C29.8783 24 27.8434 24.8429 26.3431 26.3431C24.8429 27.8434 24 29.8783 24 32C24 34.1217 24.8429 36.1566 26.3431 37.6569C27.8434 39.1571 29.8783 40 32 40C34.1217 40 36.1566 39.1571 37.6569 37.6569C39.1571 36.1566 40 34.1217 40 32C40 29.8783 39.1571 27.8434 37.6569 26.3431Z"
          fill="#7AA7E5"/>
</svg>
