<svg width="49" height="64" viewBox="0 0 49 64" fill="none" xmlns="http://www.w3.org/2000/svg">
<path d="M6.75004 63.0835C5.12296 63.0835 3.73008 62.5042 2.57139 61.3455C1.41271 60.1868 0.833374 58.7939 0.833374 57.1668V27.5835C0.833374 25.9564 1.41271 24.5635 2.57139 23.4049C3.73008 22.2462 5.12296 21.6668 6.75004 21.6668H9.70837V15.7502C9.70837 11.6578 11.1506 8.16943 14.0349 5.28506C16.9193 2.40068 20.4077 0.958496 24.5 0.958496C28.5924 0.958496 32.0808 2.40068 34.9651 5.28506C37.8495 8.16943 39.2917 11.6578 39.2917 15.7502V21.6668H42.25C43.8771 21.6668 45.27 22.2462 46.4287 23.4049C47.5874 24.5635 48.1667 25.9564 48.1667 27.5835V57.1668C48.1667 58.7939 47.5874 60.1868 46.4287 61.3455C45.27 62.5042 43.8771 63.0835 42.25 63.0835H6.75004ZM6.75004 57.1668H42.25V27.5835H6.75004V57.1668ZM24.5 48.2918C26.1271 48.2918 27.52 47.7125 28.6787 46.5538C29.8374 45.3951 30.4167 44.0022 30.4167 42.3752C30.4167 40.7481 29.8374 39.3552 28.6787 38.1965C27.52 37.0378 26.1271 36.4585 24.5 36.4585C22.873 36.4585 21.4801 37.0378 20.3214 38.1965C19.1627 39.3552 18.5834 40.7481 18.5834 42.3752C18.5834 44.0022 19.1627 45.3951 20.3214 46.5538C21.4801 47.7125 22.873 48.2918 24.5 48.2918ZM15.625 21.6668H33.375V15.7502C33.375 13.2849 32.5122 11.1894 30.7865 9.4637C29.0608 7.73801 26.9653 6.87516 24.5 6.87516C22.0348 6.87516 19.9393 7.73801 18.2136 9.4637C16.4879 11.1894 15.625 13.2849 15.625 15.7502V21.6668Z" fill="#E9E9E9"/>
</svg>
