<svg width="24" height="24" viewBox="0 0 24 24" fill="none" xmlns="http://www.w3.org/2000/svg">
<path d="M5.248 4.50391H4.25C3.42157 4.50391 2.75 5.17548 2.75 6.00391V18.0039C2.75 18.8323 3.42157 19.5039 4.25 19.5039H5.248C6.07643 19.5039 6.748 18.8323 6.748 18.0039V6.00391C6.748 5.17548 6.07643 4.50391 5.248 4.50391Z" stroke="#0E4D9D" stroke-width="1.5" stroke-linecap="round" stroke-linejoin="round"/>
<path d="M11.699 4.50391H10.701C9.87256 4.50391 9.20099 5.17548 9.20099 6.00391V18.0039C9.20099 18.8323 9.87256 19.5039 10.701 19.5039H11.699C12.5274 19.5039 13.199 18.8323 13.199 18.0039V6.00391C13.199 5.17548 12.5274 4.50391 11.699 4.50391Z" stroke="#0E4D9D" stroke-width="1.5" stroke-linecap="round" stroke-linejoin="round"/>
<path d="M15.267 8.37783C15.102 7.76283 15.467 7.13083 16.081 6.96683L17.119 6.68883C17.733 6.52383 18.364 6.88883 18.529 7.50283L21.21 17.5168C21.2493 17.6629 21.2594 17.8152 21.2398 17.9652C21.2201 18.1151 21.1711 18.2597 21.0955 18.3907C21.0199 18.5216 20.9192 18.6364 20.7991 18.7284C20.6791 18.8204 20.5421 18.8878 20.396 18.9268L19.358 19.2058C19.2119 19.2451 19.0595 19.2552 18.9095 19.2355C18.7595 19.2157 18.6149 19.1666 18.4839 19.0909C18.3529 19.0152 18.2382 18.9144 18.1462 18.7943C18.0542 18.6741 17.9869 18.537 17.948 18.3908L15.267 8.37783Z" stroke="#0E4D9D" stroke-width="1.5" stroke-linecap="round" stroke-linejoin="round"/>
</svg>
