<svg width="24" height="24" viewBox="0 0 24 24" fill="none" xmlns="http://www.w3.org/2000/svg">
<path d="M14 21H16M14 21C13.6022 21 13.2206 20.842 12.9393 20.5607C12.658 20.2794 12.5 19.8978 12.5 19.5V17H12M14 21H10M12 17H11.5V19.5C11.5 19.8978 11.342 20.2794 11.0607 20.5607C10.7794 20.842 10.3978 21 10 21M12 17V21M10 21H8M16 3H8C5.172 3 3.757 3 2.879 3.879C2 4.757 2 6.172 2 9V11C2 13.828 2 15.243 2.879 16.121C3.757 17 5.172 17 8 17H16C18.828 17 20.243 17 21.121 16.121C22 15.243 22 13.828 22 11V9C22 6.172 22 4.757 21.121 3.879C20.243 3 18.828 3 16 3Z" stroke="#0E4D9D" stroke-width="1.5" stroke-linecap="round" stroke-linejoin="round"/>
</svg>
