<svg width="24" height="24" viewBox="0 0 24 24" fill="none" xmlns="http://www.w3.org/2000/svg">
<path d="M20 15C20 16.864 20 17.796 19.696 18.53C19.495 19.0154 19.2003 19.4564 18.8288 19.8278C18.4574 20.1993 18.0164 20.494 17.531 20.695C16.796 21 15.864 21 14 21H11C7.228 21 5.342 21 4.17 19.828C3 18.657 3 16.771 3 13V7C3 5.93913 3.42143 4.92172 4.17157 4.17157C4.92172 3.42143 5.93913 3 7 3" stroke="#0E4D9D" stroke-width="1.5" stroke-linecap="round" stroke-linejoin="round"/>
<path d="M10 8.5L10.434 12.469C10.4524 12.6317 10.5131 12.7868 10.6099 12.9189C10.7067 13.051 10.8364 13.1554 10.986 13.222C11.672 13.517 12.957 14 14 14C15.043 14 16.328 13.517 17.014 13.222C17.1638 13.1556 17.2937 13.0512 17.3907 12.9191C17.4877 12.787 17.5485 12.6318 17.567 12.469L18 8.5M20.5 7.5V11.27M14 4L7 7L14 10L21 7L14 4Z" stroke="#0E4D9D" stroke-width="1.5" stroke-linecap="round" stroke-linejoin="round"/>
</svg>
