<svg width="8" height="5" viewBox="0 0 8 5" fill="none" xmlns="http://www.w3.org/2000/svg">
<path d="M3.67091 4.86488L0.0509123 0.405406C0.0175595 0.36432 8.86176e-07 0.317714 4.13486e-07 0.270272C-5.36041e-07 0.222831 0.017558 0.176224 0.0509099 0.135138C0.0842618 0.0940521 0.132232 0.0599335 0.19 0.0362118C0.247768 0.0124901 0.313298 1.23536e-06 0.380003 -1.89324e-07L7.62 4.43616e-07C7.6867 1.87996e-06 7.75223 0.0124907 7.81 0.0362124C7.86777 0.0599341 7.91574 0.0940528 7.94909 0.135139C7.98244 0.176225 8 0.222831 8 0.270273C8 0.317715 7.98244 0.364321 7.94909 0.405407L4.32909 4.86488C4.29574 4.90596 4.24777 4.94007 4.19 4.96379C4.13223 4.98751 4.0667 5 4 5C3.9333 5 3.86777 4.98751 3.81 4.96379C3.75223 4.94007 3.70426 4.90596 3.67091 4.86488Z" fill="#5C5C5C"/>
</svg>
