<svg width="22" height="22" viewBox="0 0 22 22" fill="none" xmlns="http://www.w3.org/2000/svg">
<path d="M9.243 15.3141L5 11.0701L6.414 9.65615L9.243 12.4841L14.899 6.82715L16.314 8.24215L9.243 15.3141Z" fill="#FFC249"/>
<path fill-rule="evenodd" clip-rule="evenodd" d="M0 4C0 2.93913 0.421427 1.92172 1.17157 1.17157C1.92172 0.421427 2.93913 0 4 0H18C19.0609 0 20.0783 0.421427 20.8284 1.17157C21.5786 1.92172 22 2.93913 22 4V18C22 19.0609 21.5786 20.0783 20.8284 20.8284C20.0783 21.5786 19.0609 22 18 22H4C2.93913 22 1.92172 21.5786 1.17157 20.8284C0.421427 20.0783 0 19.0609 0 18V4ZM4 2H18C18.5304 2 19.0391 2.21071 19.4142 2.58579C19.7893 2.96086 20 3.46957 20 4V18C20 18.5304 19.7893 19.0391 19.4142 19.4142C19.0391 19.7893 18.5304 20 18 20H4C3.46957 20 2.96086 19.7893 2.58579 19.4142C2.21071 19.0391 2 18.5304 2 18V4C2 3.46957 2.21071 2.96086 2.58579 2.58579C2.96086 2.21071 3.46957 2 4 2Z" fill="#FFC249"/>
</svg>
