<svg width="17" height="17" viewBox="0 0 17 17" fill="none" xmlns="http://www.w3.org/2000/svg">
<path d="M13.845 12.7172C13.9947 12.8669 14.0788 13.07 14.0788 13.2817C14.0788 13.4934 13.9947 13.6964 13.845 13.8461C13.6953 13.9958 13.4923 14.08 13.2806 14.08C13.0688 14.08 12.8658 13.9958 12.7161 13.8461L8.49997 9.62869L4.28251 13.8448C4.13281 13.9945 3.92977 14.0786 3.71806 14.0786C3.50635 14.0786 3.30331 13.9945 3.1536 13.8448C3.0039 13.6951 2.9198 13.4921 2.9198 13.2804C2.9198 13.0687 3.0039 12.8656 3.1536 12.7159L7.37106 8.49978L3.15493 4.28232C3.00523 4.13262 2.92113 3.92958 2.92113 3.71787C2.92113 3.50616 3.00523 3.30312 3.15493 3.15341C3.30463 3.00371 3.50767 2.91961 3.71939 2.91961C3.9311 2.91961 4.13414 3.00371 4.28384 3.15341L8.49997 7.37087L12.7174 3.15275C12.8671 3.00305 13.0702 2.91895 13.2819 2.91895C13.4936 2.91895 13.6966 3.00305 13.8463 3.15275C13.996 3.30245 14.0801 3.50549 14.0801 3.7172C14.0801 3.92891 13.996 4.13195 13.8463 4.28166L9.62888 8.49978L13.845 12.7172Z" fill="#969696"/>
</svg>
