<svg width="18" height="15" viewBox="0 0 18 15" fill="none" xmlns="http://www.w3.org/2000/svg">
<path d="M18 4.84489C18 10.3149 9.65973 14.7425 9.30455 14.9254C9.21094 14.9744 9.1063 15 9 15C8.8937 15 8.78906 14.9744 8.69545 14.9254C8.34027 14.7425 0 10.3149 0 4.84489C0.00148881 3.56039 0.52687 2.32892 1.46088 1.42064C2.39489 0.512355 3.66125 0.00144779 4.98214 0C6.64152 0 8.09437 0.693914 9 1.86685C9.90563 0.693914 11.3585 0 13.0179 0C14.3387 0.00144779 15.6051 0.512355 16.5391 1.42064C17.4731 2.32892 17.9985 3.56039 18 4.84489Z" fill="#FFADAD"/>
</svg>
