<svg width="10" height="10" viewBox="0 0 10 10" fill="none" xmlns="http://www.w3.org/2000/svg">
<g clip-path="url(#clip0_498_778)">
<path d="M8.875 3.67244L9.375 3.67188C9.375 6.40625 5.3207 8.61953 5.14805 8.71094C5.10254 8.73542 5.05167 8.74823 5 8.74823C4.94833 8.74823 4.89746 8.73542 4.85195 8.71094L8.875 3.67244ZM8.875 3.67244C8.87472 4.80546 8.01726 5.91275 6.99686 6.80637C6.14555 7.55191 5.27597 8.06616 5 8.22167C4.72403 8.06616 3.85445 7.55191 3.00314 6.80637C1.98265 5.91267 1.12514 4.80527 1.125 3.67215C1.12565 3.16257 1.32837 2.67404 1.6887 2.3137C2.04904 1.95337 2.53757 1.75065 3.04715 1.75C3.70755 1.75008 4.26092 2.0316 4.60016 2.48342L5 3.01595L5.39984 2.48342C5.73908 2.0316 6.29245 1.75008 6.95285 1.75C7.46243 1.75065 7.95096 1.95337 8.3113 2.3137C8.67169 2.67409 8.87441 3.16272 8.875 3.67239V3.67244Z" fill="#4071B9" stroke="white"/>
</g>
<defs>
<clipPath id="clip0_498_778">
<rect width="10" height="10" fill="white"/>
</clipPath>
</defs>
</svg>
