<svg width="20" height="18" viewBox="0 0 20 18" fill="none" xmlns="http://www.w3.org/2000/svg">
<path d="M19.707 8.29279L11.707 0.292787C11.5671 0.152977 11.389 0.057771 11.195 0.0192035C11.0011 -0.0193641 10.8 0.000438951 10.6173 0.076109C10.4346 0.151779 10.2785 0.279918 10.1686 0.444328C10.0587 0.608738 10 0.802037 10 0.999787V4.54479C7.26829 4.79758 4.72923 6.06065 2.87969 8.08681C1.03015 10.113 0.00327173 12.7564 0 15.4998V16.9998C0.000157856 17.2074 0.0649097 17.4098 0.185274 17.5789C0.305639 17.748 0.475649 17.8755 0.671726 17.9436C0.867802 18.0118 1.08022 18.0172 1.27953 17.9592C1.47883 17.9011 1.65514 17.7825 1.784 17.6198C2.7637 16.4547 3.96576 15.4966 5.31994 14.8014C6.67413 14.1062 8.15329 13.6878 9.671 13.5708C9.721 13.5648 9.846 13.5548 10 13.5448V16.9998C10 17.1975 10.0587 17.3908 10.1686 17.5552C10.2785 17.7197 10.4346 17.8478 10.6173 17.9235C10.8 17.9991 11.0011 18.0189 11.195 17.9804C11.389 17.9418 11.5671 17.8466 11.707 17.7068L19.707 9.70679C19.8945 9.51926 19.9998 9.26495 19.9998 8.99979C19.9998 8.73462 19.8945 8.48032 19.707 8.29279ZM12 14.5858V12.4998C12 12.2346 11.8946 11.9802 11.7071 11.7927C11.5196 11.6051 11.2652 11.4998 11 11.4998C10.745 11.4998 9.704 11.5498 9.438 11.5848C6.74286 11.8331 4.17742 12.8571 2.052 14.5328C2.29324 12.3272 3.33954 10.2881 4.99055 8.80595C6.64157 7.32376 8.78128 6.50263 11 6.49979C11.2652 6.49979 11.5196 6.39443 11.7071 6.20689C11.8946 6.01936 12 5.765 12 5.49979V3.41379L17.586 8.99979L12 14.5858Z" fill="#969696"/>
</svg>
