<svg width="25" height="19" viewBox="0 0 25 19" fill="none" xmlns="http://www.w3.org/2000/svg">
<path d="M22.1834 18.3333H2.81681C2.36956 18.3343 1.9289 18.2256 1.53348 18.0166C1.06867 17.7863 0.678245 17.4295 0.407024 16.9873C0.135803 16.5451 -0.00521889 16.0354 0.000147651 15.5166V11.25C0.000147651 11.029 0.0879447 10.817 0.244225 10.6607C0.400504 10.5044 0.612465 10.4166 0.833479 10.4166C1.05449 10.4166 1.26645 10.5044 1.42273 10.6607C1.57901 10.817 1.66681 11.029 1.66681 11.25V15.5166C1.66416 15.7278 1.72147 15.9355 1.8321 16.1154C1.94273 16.2954 2.10214 16.4403 2.29181 16.5333C2.45296 16.6208 2.63343 16.6666 2.81681 16.6666H22.1834C22.3351 16.6689 22.4856 16.6407 22.6261 16.5837C22.7667 16.5267 22.8944 16.442 23.0016 16.3348C23.1088 16.2276 23.1935 16.0999 23.2505 15.9593C23.3074 15.8188 23.3357 15.6683 23.3334 15.5166V2.81666C23.3334 2.51166 23.2123 2.21915 22.9966 2.00349C22.7809 1.78782 22.4884 1.66666 22.1834 1.66666H2.80847C2.50568 1.66666 2.2153 1.78694 2.00119 2.00105C1.78709 2.21515 1.66681 2.50554 1.66681 2.80833V6.31665C1.66681 6.53766 1.57901 6.74962 1.42273 6.9059C1.26645 7.06218 1.05449 7.14998 0.833479 7.14998C0.612465 7.14998 0.400504 7.06218 0.244225 6.9059C0.0879447 6.74962 0.000147651 6.53766 0.000147651 6.31665V2.81666C0.00234604 2.07031 0.299806 1.35516 0.827556 0.827409C1.35531 0.299658 2.07046 0.00219839 2.81681 0H22.1834C22.5533 0 22.9196 0.0728549 23.2613 0.214405C23.603 0.355956 23.9135 0.563429 24.1751 0.82498C24.4366 1.08653 24.6441 1.39704 24.7857 1.73877C24.9272 2.0805 25.0001 2.44677 25.0001 2.81666V15.5166C25.0023 15.8871 24.9309 16.2544 24.7902 16.5971C24.6494 16.9399 24.442 17.2512 24.18 17.5132C23.918 17.7752 23.6066 17.9826 23.2639 18.1234C22.9212 18.2641 22.5539 18.3355 22.1834 18.3333Z" fill="#969696"/>
<path d="M17.6585 18.3335H2.81692C2.62581 18.3351 2.43704 18.2914 2.2661 18.2059C2.09516 18.1205 1.94694 17.9957 1.83359 17.8418L0.933594 17.3668L1.60859 16.5918L7.12524 9.92515C7.32396 9.67145 7.57657 9.46508 7.86481 9.32096C8.15305 9.17684 8.46971 9.09857 8.7919 9.09182C9.10879 9.09048 9.42213 9.1584 9.71002 9.29083C9.99791 9.42326 10.2534 9.61699 10.4586 9.85848L17.6585 18.3335ZM3.70859 16.6668H14.0586L9.1669 10.9335C9.11874 10.8764 9.05879 10.8305 8.99117 10.7989C8.92356 10.7672 8.84989 10.7506 8.77524 10.7501C8.70049 10.75 8.62664 10.7664 8.55894 10.7981C8.49124 10.8298 8.43136 10.876 8.38357 10.9335L3.70859 16.6668Z" fill="#969696"/>
<path d="M22.1835 18.3331H15.4752L12.3752 14.6747L16.4752 9.84143C16.6789 9.59754 16.9338 9.40161 17.2219 9.26764C17.51 9.13368 17.8242 9.06497 18.1419 9.06643C18.4603 9.06599 18.7748 9.13599 19.063 9.27142C19.3511 9.40685 19.6057 9.60435 19.8086 9.84976L24.5085 15.3997C24.638 15.5484 24.7422 15.7173 24.8169 15.8997L24.9502 16.2081L24.8252 16.5247C24.6215 17.0594 24.2594 17.519 23.7873 17.8422C23.3152 18.1653 22.7556 18.3366 22.1835 18.3331ZM16.2419 16.6664H22.1835C22.3419 16.6621 22.4977 16.625 22.6411 16.5576C22.7845 16.4902 22.9125 16.3939 23.0169 16.2747L18.4836 10.9248C18.4362 10.8668 18.3764 10.8203 18.3086 10.7886C18.2408 10.7568 18.1667 10.7407 18.0919 10.7414C18.0184 10.7414 17.9457 10.7578 17.8794 10.7895C17.8131 10.8213 17.7547 10.8675 17.7086 10.9248L14.5169 14.6831L16.2419 16.6664Z" fill="#969696"/>
<path d="M13.4667 7.15022C14.3872 7.15022 15.1334 6.40403 15.1334 5.48356C15.1334 4.56308 14.3872 3.81689 13.4667 3.81689C12.5462 3.81689 11.8 4.56308 11.8 5.48356C11.8 6.40403 12.5462 7.15022 13.4667 7.15022Z" fill="#969696"/>
</svg>
