<svg width="14" height="14" viewBox="0 0 14 14" fill="none" xmlns="http://www.w3.org/2000/svg">
<path d="M10.5 7.58219H7.58334V10.4989C7.58334 10.6536 7.52188 10.8019 7.41248 10.9113C7.30309 11.0207 7.15472 11.0822 7.00001 11.0822C6.8453 11.0822 6.69692 11.0207 6.58753 10.9113C6.47813 10.8019 6.41667 10.6536 6.41667 10.4989V7.58219H3.50001C3.3453 7.58219 3.19692 7.52074 3.08753 7.41134C2.97813 7.30194 2.91667 7.15357 2.91667 6.99886C2.91667 6.84415 2.97813 6.69578 3.08753 6.58638C3.19692 6.47699 3.3453 6.41553 3.50001 6.41553H6.41667V3.49886C6.41667 3.34415 6.47813 3.19578 6.58753 3.08638C6.69692 2.97699 6.8453 2.91553 7.00001 2.91553C7.15472 2.91553 7.30309 2.97699 7.41248 3.08638C7.52188 3.19578 7.58334 3.34415 7.58334 3.49886V6.41553H10.5C10.6547 6.41553 10.8031 6.47699 10.9125 6.58638C11.0219 6.69578 11.0833 6.84415 11.0833 6.99886C11.0833 7.15357 11.0219 7.30194 10.9125 7.41134C10.8031 7.52074 10.6547 7.58219 10.5 7.58219Z" fill="#888888"/>
</svg>
