<svg width="16" height="11" viewBox="0 0 16 11" fill="none" xmlns="http://www.w3.org/2000/svg">
<path d="M0.999982 0C1.2652 0 1.51955 0.105357 1.70709 0.292893C1.89463 0.48043 1.99998 0.734784 1.99998 1V5C1.99998 5.26522 2.10534 5.51957 2.29287 5.70711C2.48041 5.89464 2.73477 6 2.99998 6H12.59L11.29 4.71C11.1017 4.5217 10.9959 4.2663 10.9959 4C10.9959 3.7337 11.1017 3.4783 11.29 3.29C11.4783 3.1017 11.7337 2.99591 12 2.99591C12.2663 2.99591 12.5217 3.1017 12.71 3.29L15.71 6.29C15.801 6.3851 15.8724 6.49725 15.92 6.62C16.02 6.86346 16.02 7.13654 15.92 7.38C15.8724 7.50275 15.801 7.6149 15.71 7.71L12.71 10.71C12.617 10.8037 12.5064 10.8781 12.3846 10.9289C12.2627 10.9797 12.132 11.0058 12 11.0058C11.868 11.0058 11.7373 10.9797 11.6154 10.9289C11.4935 10.8781 11.3829 10.8037 11.29 10.71C11.1963 10.617 11.1219 10.5064 11.0711 10.3846C11.0203 10.2627 10.9942 10.132 10.9942 10C10.9942 9.86799 11.0203 9.73728 11.0711 9.61542C11.1219 9.49356 11.1963 9.38296 11.29 9.29L12.59 8H2.99998C2.20433 8 1.44127 7.68393 0.878661 7.12132C0.316052 6.55871 -1.81198e-05 5.79565 -1.81198e-05 5V1C-1.81198e-05 0.734784 0.105338 0.48043 0.292874 0.292893C0.480411 0.105357 0.734765 0 0.999982 0Z" fill="#969696"/>
</svg>
