<svg width="14" height="19" viewBox="0 0 14 19" fill="none" xmlns="http://www.w3.org/2000/svg">
<path d="M13 0H1C0.734784 0 0.48043 0.100088 0.292893 0.278245C0.105357 0.456402 2.16531e-09 0.698035 2.16531e-09 0.949987V18.0497C-1.25753e-05 18.2314 0.0547687 18.4092 0.157854 18.5621C0.260939 18.715 0.408009 18.8367 0.58164 18.9127C0.755271 18.9886 0.948188 19.0157 1.13754 18.9908C1.32688 18.9658 1.50473 18.8898 1.65 18.7717L7 14.5063L12.29 18.7242C12.3834 18.8123 12.4943 18.8819 12.6161 18.9292C12.7379 18.9765 12.8684 19.0005 13 18.9997C13.1312 19.0029 13.2613 18.9769 13.38 18.9237C13.5626 18.8525 13.7189 18.7314 13.8293 18.5759C13.9396 18.4204 13.999 18.2373 14 18.0497V0.949987C14 0.698035 13.8946 0.456402 13.7071 0.278245C13.5196 0.100088 13.2652 0 13 0ZM12 16.0168L7.64 12.5398C7.46031 12.3976 7.23385 12.3198 7 12.3198C6.76615 12.3198 6.53969 12.3976 6.36 12.5398L2 16.0168V1.89997H12V16.0168Z" fill="#888888"/>
</svg>
