<svg width="39" height="38" viewBox="0 0 39 38" fill="none" xmlns="http://www.w3.org/2000/svg">
<path d="M19.0245 1.08156C19.1741 0.620903 19.8259 0.620906 19.9755 1.08156L23.8515 13.0106C24.0523 13.6287 24.6283 14.0471 25.2781 14.0471H37.8211C38.3055 14.0471 38.5068 14.6669 38.115 14.9516L27.9675 22.3242C27.4418 22.7062 27.2218 23.3832 27.4226 24.0013L31.2986 35.9303C31.4483 36.391 30.921 36.7741 30.5292 36.4894L20.3817 29.1168C19.8559 28.7348 19.1441 28.7348 18.6183 29.1168L8.47084 36.4894C8.07898 36.7741 7.55174 36.391 7.70142 35.9303L11.5774 24.0013C11.7782 23.3832 11.5582 22.7062 11.0325 22.3242L0.88502 14.9516C0.493162 14.6669 0.694551 14.0471 1.17891 14.0471H13.7219C14.3717 14.0471 14.9477 13.6287 15.1485 13.0106L19.0245 1.08156Z" stroke="white"/>
</svg>
