<svg width="30" height="30" viewBox="0 0 30 30" fill="none" xmlns="http://www.w3.org/2000/svg">
<path d="M5.76001 24.2404L7.26001 18.3004L16.2 9.36035L20.64 13.8004L11.7 22.7404L5.76001 24.2404ZM8.34001 18.9004L7.44001 22.5603L11.1 21.6603L18.96 13.8004L16.2 11.0404L8.34001 18.9004Z" fill="white"/>
<path d="M10.6801 22.3797C10.3201 20.8797 9.12012 19.6797 7.62012 19.3197L7.92012 18.1797C9.84012 18.6597 11.3401 20.1597 11.8201 22.0797L10.6801 22.3797Z" fill="white"/>
<path d="M17.5789 11.5724L18.4273 12.4208L10.6213 20.2328L9.7729 19.3868L17.5789 11.5724ZM6.6001 23.4002L8.3401 22.9802C8.1601 22.3202 7.6801 21.8402 7.0201 21.6602L6.6001 23.4002ZM21.0001 13.4402L16.5601 9.0002L18.3601 7.2002L18.6601 7.2602C20.8201 7.5602 22.5001 9.2402 22.8001 11.4002L22.8601 11.7002L21.0001 13.4402ZM18.2401 9.0002L21.0001 11.7602L21.5401 11.2202C21.2401 9.8402 20.1601 8.7602 18.7801 8.4602L18.2401 9.0002Z" fill="white"/>
</svg>
