<svg width="25" height="24" viewBox="0 0 25 24" fill="none" xmlns="http://www.w3.org/2000/svg">
<path d="M10.152 15.1358L8.82841 13.8122C8.72992 13.7166 8.59804 13.6631 8.46074 13.6631C8.32345 13.6631 8.19156 13.7166 8.09308 13.8122C7.99742 13.9107 7.94392 14.0426 7.94392 14.1799C7.94392 14.3172 7.99742 14.4491 8.09308 14.5476L9.41667 15.8712C9.61565 16.0701 9.94438 16.0701 10.152 15.8712C10.3596 15.6722 10.3596 15.3435 10.152 15.1358ZM7.08957 15.5597L8.41316 16.8833C8.61214 17.0823 8.61214 17.411 8.41316 17.6187C8.31468 17.7143 8.18279 17.7678 8.0455 17.7678C7.90821 17.7678 7.77632 17.7143 7.67783 17.6187L6.35424 16.2951C6.25858 16.1966 6.20508 16.0647 6.20508 15.9274C6.20508 15.7901 6.25858 15.6582 6.35424 15.5597C6.45272 15.4641 6.58461 15.4106 6.7219 15.4106C6.8592 15.4106 6.99108 15.4641 7.08957 15.5597Z" fill="#888888"/>
<path d="M22.0472 0.360037C22.0168 0.288285 21.9724 0.223267 21.9167 0.168729C21.861 0.11419 21.7951 0.0712085 21.7227 0.0422602C21.6504 0.0133119 21.573 -0.00103101 21.495 5.76363e-05C21.4171 0.00114628 21.3402 0.017645 21.2686 0.0486034C20.9658 0.178368 20.8274 0.524405 20.9572 0.827188C21.0177 0.965604 21.1216 1.06076 21.2513 1.12132C21.3638 1.17323 21.4589 1.25108 21.5109 1.36355L21.6493 1.6819L20.8421 2.05389L20.7063 1.74419C20.6602 1.63099 20.6571 1.50481 20.6977 1.3895C20.7323 1.26839 20.7323 1.12132 20.6804 0.982905C20.6499 0.911153 20.6056 0.846135 20.5499 0.791597C20.4942 0.737058 20.4283 0.694077 20.3559 0.665128C20.2835 0.63618 20.2061 0.621837 20.1282 0.622926C20.0503 0.624014 19.9733 0.640513 19.9018 0.671471C19.599 0.801236 19.4606 1.14727 19.5903 1.45006C19.6509 1.58847 19.7547 1.68363 19.8845 1.74419C19.9969 1.79609 20.0921 1.87395 20.144 1.98641L20.2859 2.31083L19.4701 2.68714L19.3317 2.36706C19.3067 2.31147 19.2931 2.25148 19.2917 2.19058C19.2902 2.12968 19.3008 2.0691 19.323 2.01237C19.3691 1.87955 19.3629 1.73419 19.3057 1.60577C19.2753 1.53402 19.2309 1.469 19.1752 1.41446C19.1196 1.35993 19.0536 1.31694 18.9813 1.288C18.9089 1.25905 18.8315 1.24471 18.7536 1.24579C18.6756 1.24688 18.5987 1.26338 18.5271 1.29434C18.2244 1.4241 18.0859 1.77014 18.2157 2.07292C18.2763 2.21134 18.3801 2.3065 18.5098 2.36706C18.6223 2.41896 18.7175 2.49682 18.7694 2.60928L18.9138 2.94321L18.5868 3.09374C18.5025 3.14137 18.4294 3.2066 18.3725 3.285C18.3156 3.3634 18.2762 3.45313 18.2571 3.54809C18.238 3.64305 18.2395 3.74102 18.2617 3.83533C18.2838 3.92964 18.3259 4.01808 18.3853 4.09465L18.3187 4.02804L10.9152 11.4315C10.7093 10.9086 10.6592 10.3372 10.771 9.78639C10.8828 9.2356 11.1516 8.72893 11.545 8.32756C12.064 7.79985 12.09 6.95206 11.5709 6.42435C11.0519 5.89664 10.1954 5.89664 9.67636 6.4157C8.87182 7.22024 8.36142 8.2151 8.15379 9.26186C7.92022 10.4384 6.92536 11.2948 5.73153 11.4073C4.29547 11.5371 2.90267 12.1513 1.81265 13.2499C-0.635567 15.7241 -0.600963 19.7987 1.89916 22.221C4.36468 24.6173 8.30951 24.5913 10.7491 22.1518C11.7956 21.099 12.4386 19.7118 12.5658 18.2329C12.6167 17.654 12.8543 17.1073 13.2428 16.6752C13.6313 16.243 14.1497 15.9487 14.7199 15.8366C15.1957 15.7414 15.6628 15.577 16.1127 15.3521C16.7701 15.0234 17.0383 14.2189 16.7096 13.5614C16.5507 13.2453 16.2731 13.005 15.9375 12.8931C15.6019 12.7812 15.2356 12.8069 14.9188 12.9645C14.5515 13.1498 14.1489 13.2545 13.7379 13.2716C13.3269 13.2888 12.9169 13.218 12.5355 13.0639L19.9424 5.65788C20.0134 5.71888 20.0962 5.7645 20.1857 5.79186C20.2752 5.81922 20.3693 5.82772 20.4623 5.81682C20.5552 5.80593 20.6449 5.77587 20.7256 5.72856C20.8063 5.68125 20.8763 5.61771 20.9312 5.54195L21.8655 3.97613C21.9694 3.80311 22.177 3.72525 22.3673 3.80311C22.8604 3.99343 23.44 3.88962 23.8207 3.47438C24.2878 2.97262 24.2965 2.18539 23.838 1.68363C23.4054 1.2087 22.7947 1.18361 22.2012 1.43016L22.0645 1.12997C22.0184 1.01677 22.0153 0.890595 22.0559 0.775283C22.1078 0.645518 22.1078 0.498452 22.0472 0.360037ZM9.69366 11.4159C9.95838 11.5691 10.1487 11.8251 10.2162 12.1305L10.0743 12.2724C9.85803 12.4887 9.85803 12.8347 10.0743 13.0423L10.9307 13.8988C11.1418 14.1098 11.4766 14.115 11.686 13.9143C11.9369 13.9818 12.3218 14.0363 12.571 14.0718L12.7474 14.0977C12.7675 14.1017 12.7877 14.1046 12.808 14.1064C12.8279 14.109 12.8469 14.1107 12.8686 14.115L12.8833 14.1168C13.0528 14.1358 13.5347 14.1903 14.097 14.0804C14.1333 14.0744 14.1697 14.0666 14.2077 14.0588C14.5252 13.9948 14.8955 13.9204 15.0572 14.3832C15.1178 14.5389 15.0659 14.7206 14.841 14.8677C14.7112 14.9542 14.3911 15.0753 14.2441 15.1099C13.5347 15.2743 13.0329 15.5597 12.5658 16.0702C11.9429 16.6584 11.5623 17.3678 11.4239 18.1377C11.32 18.726 11.2162 19.3056 10.974 19.842C10.7145 20.3956 10.3684 20.8974 9.92724 21.3386C9.42548 21.849 8.83722 22.2296 8.1884 22.4892C7.58283 22.7314 6.8821 22.4459 6.64853 21.8403C6.59662 21.7106 6.57067 21.5635 6.57067 21.4251C6.57327 21.2071 6.62517 20.9623 6.67967 20.7053C6.81809 20.0556 6.97207 19.3264 6.389 18.7433L4.44254 16.7968C3.57744 15.9317 3.56014 14.5216 4.41659 13.6392L4.43389 13.6219C5.11731 12.9299 6.01701 12.5752 6.95996 12.5406C7.52227 12.5146 8.00673 12.2291 8.27491 11.7879C8.49118 11.4332 8.88912 11.2429 9.29572 11.2862C9.43413 11.3035 9.57255 11.3467 9.69366 11.4159ZM6.3717 19.6949C6.45821 19.7814 6.45821 19.9198 6.36305 19.9977L5.44605 20.9147C5.35954 21.0012 5.22112 21.0012 5.13461 20.9147L3.04974 18.8298C2.96323 18.7433 2.96323 18.6049 3.04974 18.5184L3.97539 17.61C4.0619 17.5235 4.20031 17.5235 4.28682 17.61L6.3717 19.6949Z" fill="#888888"/>
</svg>
