<svg width="23" height="23" viewBox="0 0 23 23" fill="none" xmlns="http://www.w3.org/2000/svg">
<path d="M17.25 7.1875H11.5V5.75H17.25V7.1875ZM11.5 11.5H17.25V12.9375H11.5V11.5ZM12.9712 21.5625L14.4087 23H2.875V0H20.125V14.4087L18.6875 15.8462V1.4375H4.3125V21.5625H12.9712ZM10.5679 4.81787L7.90625 7.47949L5.96338 5.53662L6.97412 4.52588L7.90625 5.45801L9.55713 3.80713L10.5679 4.81787ZM10.5679 10.5679L7.90625 13.2295L5.96338 11.2866L6.97412 10.2759L7.90625 11.208L9.55713 9.55713L10.5679 10.5679ZM7.90625 16.958L9.55713 15.3071L10.5679 16.3179L7.90625 18.9795L5.96338 17.0366L6.97412 16.0259L7.90625 16.958ZM22.7866 16.3179L16.5312 22.5845L13.5103 19.5522L14.521 18.5415L16.5312 20.5405L21.7759 15.3071L22.7866 16.3179Z" fill="white"/>
</svg>
