<svg width="24" height="24" viewBox="0 0 24 24" fill="none" xmlns="http://www.w3.org/2000/svg">
<g clip-path="url(#clip0_461_1052)">
<path d="M6.39992 15.2533V7.06667H16.2666L17.3199 6H5.33325V15.2533H6.39992Z" fill="#888888"/>
<path d="M4.00008 4.66683H20.0001V15.3335H21.3334V4.3335C21.3334 4.06828 21.2281 3.81393 21.0405 3.62639C20.853 3.43885 20.5986 3.3335 20.3334 3.3335H3.66675C3.40153 3.3335 3.14718 3.43885 2.95964 3.62639C2.7721 3.81393 2.66675 4.06828 2.66675 4.3335V15.3335H4.00008V4.66683Z" fill="#888888"/>
<path d="M0.666748 16.6665V18.9332C0.666748 19.3929 0.849367 19.8338 1.17443 20.1588C1.49949 20.4839 1.94037 20.6665 2.40008 20.6665H21.5601C22.0198 20.6665 22.4607 20.4839 22.7857 20.1588C23.1108 19.8338 23.2934 19.3929 23.2934 18.9332V16.6665H0.666748ZM22.0001 18.9332C22.0001 19.0393 21.9579 19.141 21.8829 19.216C21.8079 19.291 21.7062 19.3332 21.6001 19.3332H2.37341C2.26733 19.3332 2.16559 19.291 2.09057 19.216C2.01556 19.141 1.97341 19.0393 1.97341 18.9332V17.6865H8.60675C8.69009 17.8832 8.82922 18.0511 9.00693 18.1696C9.18464 18.288 9.39317 18.3519 9.60675 18.3532H14.3601C14.5737 18.3519 14.7822 18.288 14.9599 18.1696C15.1376 18.0511 15.2767 17.8832 15.3601 17.6865H22.0001V18.9332Z" fill="#888888"/>
</g>
<defs>
<clipPath id="clip0_461_1052">
<rect width="24" height="24" fill="white"/>
</clipPath>
</defs>
</svg>
