<svg width="30" height="17" viewBox="0 0 30 17" fill="none" xmlns="http://www.w3.org/2000/svg">
<path d="M3.49007 9.63892L3.2499 9.50593V9.49462L2.86839 9.27941L1.52222 8.52001L14.9969 0.8626L28.4805 8.52182L24.0403 11.0395C21.9502 9.03057 18.5914 7.83114 15.0357 7.83114C11.4782 7.83114 8.11802 9.03263 6.02844 11.0445L3.49007 9.63892ZM3.21189 15.4773H2.32185L2.76898 14.2976L3.21189 15.4773ZM2.69888 12.8249C2.70468 12.8322 2.71034 12.8393 2.71579 12.8461L2.72417 12.8565C2.75802 12.8988 2.78827 12.9368 2.81742 12.9754C2.93529 13.1313 2.9521 13.1949 2.95439 13.1944C2.95448 13.1944 2.95455 13.1942 2.9546 13.194C2.95346 13.2355 2.9438 13.292 2.92086 13.3571C2.89646 13.4264 2.86378 13.4861 2.83502 13.5262L2.76885 13.6185L2.69898 13.5227C2.69906 13.5228 2.69899 13.5227 2.69879 13.5224C2.69637 13.5182 2.67457 13.4809 2.65353 13.3998C2.63235 13.3182 2.62116 13.2272 2.62116 13.148C2.62116 13.0207 2.62184 12.9404 2.62808 12.8727C2.62907 12.862 2.63013 12.8526 2.63119 12.8445C2.64496 12.8397 2.66278 12.8342 2.68533 12.8284L2.69888 12.8249ZM7.63788 16.25V13.7744C9.36544 12.1481 11.9558 11.0899 15.0364 11.0899C18.1176 11.0899 20.7085 12.1482 22.4361 13.7744V16.25H7.63788Z" stroke="white" stroke-width="1.5"/>
</svg>
