<svg width="20" height="20" viewBox="0 0 20 20" fill="none" xmlns="http://www.w3.org/2000/svg">
<path d="M12.5 15.8333C13.5 12.7683 14.605 11.6624 17.5 10.8333C14.605 10.0041 13.5 8.89825 12.5 5.83325C11.5 8.89825 10.395 10.0041 7.49998 10.8333C10.395 11.6624 11.5 12.7683 12.5 15.8333ZM5.83331 8.33325C6.33331 6.79992 6.88581 6.24742 8.33331 5.83325C6.88581 5.41909 6.33331 4.86659 5.83331 3.33325C5.33331 4.86659 4.78081 5.41909 3.33331 5.83325C4.78081 6.24742 5.33331 6.79992 5.83331 8.33325ZM7.08331 16.6666C7.33331 15.8999 7.60915 15.6241 8.33331 15.4166C7.60915 15.2091 7.33331 14.9333 7.08331 14.1666C6.83331 14.9333 6.55748 15.2091 5.83331 15.4166C6.55748 15.6241 6.83331 15.8999 7.08331 16.6666Z" stroke="#4071B9" stroke-width="2" stroke-linejoin="round"/>
</svg>
