<svg width="20" height="20" viewBox="0 0 20 20" fill="none" xmlns="http://www.w3.org/2000/svg">
<path d="M16.025 12.7166L13.9083 12.475C13.6594 12.4457 13.4071 12.4733 13.1704 12.5556C12.9337 12.6378 12.7187 12.7727 12.5416 12.95L11.0083 14.4833C8.6428 13.2799 6.72003 11.3571 5.51664 8.99164L7.05831 7.44997C7.41664 7.09164 7.59164 6.59164 7.53331 6.0833L7.29164 3.9833C7.24457 3.57671 7.04953 3.20166 6.74369 2.92963C6.43786 2.65761 6.04261 2.50763 5.63331 2.5083H4.19164C3.24997 2.5083 2.46664 3.29164 2.52497 4.2333C2.96664 11.35 8.65831 17.0333 15.7666 17.475C16.7083 17.5333 17.4916 16.75 17.4916 15.8083V14.3666C17.5 13.525 16.8666 12.8166 16.025 12.7166Z" fill="#4071B9"/>
</svg>
