<svg width="24" height="24" viewBox="0 0 24 24" fill="none" xmlns="http://www.w3.org/2000/svg">
<path d="M8.941 6.349L10.755 8.9C11.125 9.42 11.309 9.68 11.405 9.979C11.5 10.279 11.5 10.598 11.5 11.237V20H5.5C3.614 20 2.672 20 2.086 19.411C1.5 18.823 1.5 17.875 1.5 15.98V11.238C1.5 10.598 1.5 10.279 1.595 9.98C1.691 9.68 1.875 9.42 2.245 8.9L4.06 6.35C5.172 4.783 5.729 4 6.5 4C7.272 4 7.828 4.783 8.941 6.349Z" stroke="#0E4D9D" stroke-width="1.5" stroke-linecap="round" stroke-linejoin="round"/>
<path d="M8.5 20V16C8.5 15.252 8.5 14.879 8.34 14.6C8.23457 14.4172 8.0828 14.2654 7.9 14.16C7.622 14 7.248 14 6.5 14C5.752 14 5.378 14 5.1 14.16C4.9172 14.2654 4.76543 14.4172 4.66 14.6C4.5 14.879 4.5 15.252 4.5 16V20" stroke="#0E4D9D" stroke-width="1.5" stroke-linecap="round" stroke-linejoin="round"/>
<path d="M8.5 20H18.5C20.386 20 21.328 20 21.914 19.414C22.5 18.828 22.5 17.886 22.5 16V11.448C22.5 10.732 22.5 10.373 22.38 10.043C22.261 9.713 22.032 9.438 21.573 8.887L18.699 5.44C18.109 4.733 17.815 4.379 17.412 4.19C17.008 4 16.548 4 15.627 4H6.5M22 10H11.5" stroke="#0E4D9D" stroke-width="1.5" stroke-linecap="round" stroke-linejoin="round"/>
</svg>
