<svg width="57" height="80" viewBox="0 0 57 80" fill="none" xmlns="http://www.w3.org/2000/svg">
<path d="M7.23022 40.9289C6.22144 36.3774 8.05225 30.2766 10.6139 26.4101C15.6752 18.7705 26.4934 12.6175 25.0305 2.08092C24.9692 1.63953 24.2881 0.167744 25.2809 0.0527344C27.053 0.187729 28.985 1.63135 30.4002 2.64517C34.6802 5.87217 38.5389 11.5042 39.2815 16.855C39.3403 17.2649 39.3777 17.6777 39.3932 18.0915C39.617 17.4894 39.7999 16.9823 40.1276 16.4106C41.0983 14.7419 42.5878 13.219 44.3286 12.3638C44.7427 12.203 45.3551 11.8501 45.8005 12.008C46.1317 12.1254 46.2623 12.5687 46.0819 12.8408C45.6846 13.4396 45.338 13.9328 45.0163 14.5886C43.8338 16.9912 43.9305 19.6856 44.7878 22.1707C45.1284 23.1579 45.5514 24.0466 45.9625 25.0117C47.1763 27.8629 48.5777 30.7978 49.17 33.8614C50.0007 38.1581 49.8435 43.1579 47.9481 47.1703C45.9698 51.2028 42.4289 53.7765 38.2348 55.1426C36.9605 55.5576 35.5418 55.854 34.2142 56.0628C35.2519 58.3069 35.0534 60.5193 33.1825 62.2596C33.2981 62.7751 33.3943 63.5209 33.4669 64.0527C33.6477 65.372 33.9101 67.0534 33.7465 68.3834C35.6427 68.0556 36.8282 67.1333 37.9745 65.5962C38.4427 64.9686 39.3068 63.471 39.7763 62.9688C39.1767 61.9443 39.0771 60.7878 39.3777 59.6778C40.1233 56.9224 43.0831 55.3814 45.7889 55.3922C46.2167 55.3939 46.7184 55.3183 47.1367 55.2504C47.7226 55.1477 48.7126 54.5979 49.2379 54.6142C49.6773 54.8444 49.371 55.6392 49.2508 56.0172C49.8658 55.7388 52.5193 54.472 53.0085 54.6541C53.1198 54.6958 53.2044 54.7684 53.2529 54.8775C53.4655 55.3582 52.9909 56.4133 52.7929 56.8678C52.1929 58.2434 51.1681 59.7521 50.017 60.7255C51.388 60.5906 50.2257 61.8016 49.8431 62.2033C47.6131 64.5459 43.6431 66.1044 40.7448 64.008C40.2286 64.7379 39.754 65.5026 39.2725 66.2569C38.0651 68.1488 35.7673 69.7254 33.469 69.7834C33.2392 71.0494 32.9824 72.2776 33.1868 73.5732C34.8138 74.4582 36.4188 76.171 35.4155 78.1866C35.0479 78.9255 34.0145 79.3813 33.2658 79.5982C31.4336 80.0257 29.0794 80.1812 27.3812 79.2636C25.9956 78.5152 26.0536 76.6796 26.7026 75.4398C26.4565 74.5471 25.7 71.6117 25.281 70.9059C24.878 71.8772 24.6528 73.4594 24.6923 74.5257C24.7077 74.9402 24.9064 75.5721 24.9707 76.0137C25.1869 77.4963 24.4248 78.5608 23.0376 79.0956C21.3059 79.7636 18.385 79.9475 16.6374 79.2584C16.127 79.0574 15.6424 78.6686 15.4369 78.1626C15.1845 77.5409 15.3291 76.6839 15.6043 76.0924C16.1789 74.8573 17.1981 74.0265 18.4115 73.4719C18.1081 72.2995 17.8006 71.1298 17.5451 69.9462C17.5012 69.7426 17.4566 69.5394 17.3966 69.3397C15.8425 69.5424 14.1538 69.6309 12.5887 69.7499C11.6447 69.8221 11.3255 68.868 10.9836 68.1441C9.93585 68.386 9.02847 68.3675 8.08665 67.7794C7.20436 67.2196 6.5845 66.3278 6.36683 65.3054C6.08391 64.0183 6.34484 62.6286 7.29933 61.6796C6.9275 61.0576 6.09229 59.4814 5.8954 58.813C5.35469 56.9778 7.80756 57.4572 8.73774 57.1342C8.73774 57.1342 8.79096 56.9971 8.80264 56.9666C8.96366 56.5624 9.19104 56.5168 9.57747 56.394C9.23322 55.7668 8.90448 55.131 8.59154 54.4875C7.80528 54.6026 7.09827 54.6434 6.30463 54.5373C4.43005 54.2813 2.73415 53.2902 1.59012 51.7832C0.357048 50.1856 -0.184773 48.1605 0.0856872 46.1603C0.316203 44.4896 1.20743 42.9813 2.55951 41.9735C3.9725 40.9217 5.52633 40.6716 7.23022 40.9289ZM11.5728 53.1244C11.803 53.5213 12.6718 55.4184 12.9728 55.5236C12.9862 55.5284 13.0003 55.5305 13.0141 55.5339C13.2574 55.4686 13.6579 55.4265 13.8983 55.5507C14.1248 55.6671 14.4152 56.2028 14.4827 56.2415C14.8057 56.4258 14.8815 56.2879 15.2089 56.6414C15.4465 56.6204 15.7603 56.583 15.9923 56.5757L16.762 56.5181C17.2611 55.5954 17.9221 54.8518 18.6824 54.1425C16.623 53.2343 14.7244 51.998 13.0607 50.4815C12.9342 51.4095 12.2511 52.4804 11.5728 53.1244Z" fill="#0648B0"/>
<path d="M13.7314 36.9993C17.1248 33.0271 21.9295 29.665 26.3888 26.9872C26.6435 26.8341 27.1744 26.5143 27.4385 26.5059C27.832 26.4932 28.5737 27.5108 28.8039 27.7878C29.4001 28.5087 29.9919 29.2328 30.5795 29.9603C31.6434 31.2748 32.6699 32.6191 33.6578 33.9916C36.1369 37.4319 38.3372 41.1022 38.5408 45.4437C38.6542 47.8635 38.2002 50.1451 36.5398 52.0095C34.0821 54.7692 29.9649 54.9376 26.5422 54.673C26.5121 51.8703 24.4647 49.4341 21.5369 49.3396C19.8471 49.285 18.8623 50.975 20.2228 52.3227C19.9535 52.5744 19.7852 52.7475 19.5796 53.0586C17.2976 52.1745 14.9093 50.5687 13.2929 48.7274C13.3272 48.3129 13.2089 47.5834 13.144 47.1556C12.9025 46.1589 12.6509 45.5218 12.165 44.6386C12.3225 43.9891 12.4124 43.7219 12.7602 43.1557C12.0789 41.8046 12.0203 39.939 12.7199 38.5842C12.9101 38.2905 13.0777 37.981 13.2835 37.6682C13.4252 37.4691 13.6312 37.2663 13.802 37.0869L13.7314 36.9993Z" fill="#FDFDFD"/>
<path d="M13.802 37.0869C17.0767 34.0598 22.7765 36.4255 22.8144 40.93C23.3788 40.7277 23.883 40.6844 24.4494 40.9469C24.6774 41.0523 24.887 41.1935 25.0703 41.3653C26.8853 36.3636 34.9068 37.0454 35.6988 42.7064C36.1674 42.6166 37.8364 42.1307 37.422 43.2051C37.2957 43.532 36.0368 43.6158 35.707 43.6446C35.5034 44.8393 35.1812 45.6598 34.3291 46.5675C32.7266 48.1716 30.6023 48.6192 28.4457 47.9594C26.3257 47.3618 24.7921 45.3475 24.7777 43.1432C24.7762 42.9186 24.783 42.6917 24.789 42.4671C24.295 41.5336 23.5731 41.4654 22.7113 41.9438C22.5673 42.6492 22.2674 43.2176 21.8564 43.7979C22.8224 43.7348 25.5719 43.9968 24.7615 45.5782C24.4874 46.113 23.5152 46.6581 22.9453 46.8094C22.9372 47.065 22.916 47.3137 22.8958 47.5684C23.3724 47.7283 24.403 48.2859 24.2904 48.889C24.2683 49.0071 24.1989 49.1115 24.0981 49.1773C23.6332 49.4823 23.0823 48.3915 22.4786 48.2579C21.8553 48.1196 21.4993 48.7687 20.9203 48.6759C20.8075 48.5943 20.7674 48.5685 20.75 48.4212C20.6718 47.7609 21.5619 47.5414 22.0574 47.486C22.0643 47.2243 22.0962 46.9769 22.1258 46.717C21.3742 46.2483 21.0404 45.5868 20.9086 44.737C19.9658 45.472 19.0657 45.7483 17.8982 45.8862C17.6074 46.7123 17.2118 47.3541 16.3936 47.748C15.7351 48.0573 14.9814 48.0947 14.2955 47.852C13.859 47.6982 13.494 47.4542 13.144 47.1556C12.9025 46.159 12.6509 45.5219 12.165 44.6386C12.3225 43.9891 12.4124 43.7219 12.7602 43.1557C12.0789 41.8046 12.0203 39.939 12.7199 38.5843C12.9101 38.2906 13.0777 37.981 13.2835 37.6683C13.4252 37.4692 13.6312 37.2663 13.802 37.0869Z" fill="#0648B0"/>
<path d="M12.7602 43.1556C13.7804 45.1403 15.7225 46.0115 17.8982 45.8861C17.6074 46.7122 17.2118 47.354 16.3936 47.7479C15.7351 48.0572 14.9814 48.0946 14.2955 47.8519C13.859 47.6981 13.494 47.4541 13.144 47.1555C12.9025 46.1589 12.6509 45.5218 12.165 44.6386C12.3225 43.989 12.4124 43.7218 12.7602 43.1556Z" fill="#FEC318"/>
<path d="M28.7658 47.1432C27.0259 46.601 25.8169 45.213 25.697 43.3615C25.4247 39.1586 30.5152 37.5894 33.407 40.0875C35.1766 41.6162 35.2771 44.2198 33.7021 45.9442C32.7486 46.8979 31.5812 47.3837 30.2261 47.3773C29.7305 47.3756 29.2374 47.2965 28.7658 47.1432Z" fill="#FDFDFD"/>
<path d="M28.7656 47.1432C28.7751 47.126 28.7841 47.1084 28.7935 47.0912C29.2321 46.2964 29.9738 45.7131 30.85 45.4751C31.9229 45.1821 32.7703 45.4085 33.7019 45.9442C32.7484 46.8979 31.581 47.3837 30.2259 47.3773C29.7303 47.3756 29.2372 47.2965 28.7656 47.1432Z" fill="#FEC318"/>
<path d="M31.9861 40.7262C32.7364 40.8323 32.7004 41.6572 31.9668 41.8295C31.475 41.9451 30.9742 42.0598 30.4807 42.1723C30.9652 43.1849 30.9634 44.3826 30.3011 45.3152C29.6964 46.1662 28.7231 46.2985 27.9024 45.6692C27.3225 45.0708 27.1387 44.3838 27.2856 43.5569C27.3264 43.3283 27.423 43.1548 27.3715 42.9456C27.2139 42.7329 26.8625 42.8141 26.7985 42.5555C26.7393 42.3162 26.8814 41.9644 27.1383 41.8875C27.6404 41.7376 28.1635 41.6345 28.6763 41.5154C29.7827 41.2649 30.8857 41.0018 31.9861 40.7262Z" fill="#0648B0"/>
<path d="M13.4625 42.4211C12.7847 40.7024 13.2752 38.7427 14.6826 37.5458C16.09 36.3489 18.1028 36.18 19.6899 37.1255C21.2771 38.071 22.0873 39.9215 21.7055 41.7295C21.3237 43.5372 19.8346 44.902 18.0007 45.1245C16.0491 45.3616 14.1837 44.2503 13.4625 42.4211Z" fill="#FDFDFD"/>
<path d="M17.6414 39.6265C17.2503 39.4093 16.3268 39.0282 16.7847 38.4589C16.8731 38.3472 17.0035 38.2767 17.1453 38.2639C17.2206 38.2574 17.3474 38.2664 17.4116 38.3035C18.5732 38.9743 19.7855 39.6142 20.9268 40.312C21.1529 40.4502 21.2548 41.2911 20.4097 41.1869C20.2707 42.7424 19.3871 44.4372 17.5685 43.3911C17.2917 43.1046 17.2224 42.9676 17.0554 42.6222C16.7811 41.5056 16.9164 40.5408 17.6414 39.6265Z" fill="#0648B0"/>
<path d="M13.4629 42.4212C14.7979 41.5173 15.8104 41.69 17.0555 42.6222C17.2225 42.9676 17.2918 43.1046 17.5686 43.3912C17.8308 44.0506 17.9621 44.4071 18.0011 45.1246C16.0495 45.3617 14.1841 44.2503 13.4629 42.4212Z" fill="#FEC318"/>
<path d="M21.7601 44.5901C21.9221 44.5776 22.0846 44.5742 22.247 44.5789C22.6482 44.5927 23.0678 44.6623 23.458 44.7512C24.3788 44.9608 24.1188 45.1374 23.5476 45.5794C23.3546 45.7221 22.8698 46.1018 22.6486 46.0602C22.1926 45.9734 21.7462 44.9978 21.7601 44.5901Z" fill="#FC6464"/>
<path d="M34.3282 46.5675C34.9145 47.26 35.2465 47.9637 35.1683 48.8937C34.9162 51.8991 30.8479 52.8636 29.0251 50.6361C28.511 50.015 28.2705 49.2125 28.3572 48.4109C28.3748 48.2614 28.4109 48.1059 28.4448 47.9594C30.6014 48.6192 32.7257 48.1716 34.3282 46.5675Z" fill="#FEC318"/>
<path d="M8.59154 54.4874C7.80528 54.6025 7.09827 54.6434 6.30463 54.5372C4.43005 54.2812 2.73415 53.2901 1.59012 51.7831C0.357048 50.1855 -0.184773 48.1604 0.0856872 46.1603C0.316203 44.4896 1.20743 42.9813 2.55951 41.9735C3.9725 40.9216 5.52633 40.6716 7.23022 40.9288C8.62633 41.2951 10.2501 42.0658 11.1449 43.2262C11.5428 43.7279 11.826 44.0987 12.1644 44.6386C12.6503 45.5219 12.9019 46.159 13.1433 47.1556C13.2082 47.5835 13.3265 48.3129 13.2922 48.7275C13.2164 49.4947 13.2589 49.6558 13.0607 50.4815C12.9342 51.4094 12.2511 52.4804 11.5728 53.1243C11.803 53.5213 12.6718 55.4183 12.9728 55.5236C12.9862 55.5283 13.0003 55.5305 13.0141 55.5339C13.2574 55.4686 13.6579 55.4265 13.8983 55.5506C14.1248 55.6671 14.4152 56.2028 14.4827 56.2414C14.8057 56.4257 14.8815 56.2878 15.2089 56.6414C15.4465 56.6203 15.7603 56.5829 15.9923 56.5756C15.8218 56.7153 15.4665 56.7032 15.2386 56.7101C15.4997 57.8395 15.7843 57.0611 16.5558 57.3253C16.1181 57.376 15.7492 57.4254 15.3071 57.4267C15.8282 59.0196 15.0266 58.8434 13.7194 58.9465L11.7072 59.1072C11.4648 59.127 11.2129 59.1523 10.9705 59.1699C9.4883 59.2769 9.13491 59.5888 8.81046 57.9705C8.77653 57.6251 8.73976 57.3115 8.8449 56.9747L8.80264 56.9666C8.96366 56.5623 9.19104 56.5168 9.57747 56.3939C9.23322 55.7667 8.90448 55.1309 8.59154 54.4874Z" fill="#023CA1"/>
<path d="M10.9815 53.5269C11.2996 54.0677 11.6077 54.6167 11.9215 55.1602C12.1214 55.5064 12.3528 55.7564 12.4829 56.1388L12.976 56.0881C12.9752 55.8333 12.9606 55.7569 13.1198 55.5859C14.0628 55.4781 13.8603 56.0022 14.2699 56.348C14.3953 56.4541 14.7503 56.372 15.1728 56.7668C15.2273 56.9988 15.2672 57.1921 15.3069 57.4267C15.828 59.0196 15.0265 58.8435 13.7193 58.9466L11.707 59.1072C11.4646 59.127 11.2128 59.1523 10.9704 59.1699C9.48817 59.2769 9.13477 59.5888 8.81032 57.9705C8.77639 57.6251 8.73963 57.3115 8.84477 56.9747C8.84739 56.9726 8.95125 56.8802 8.94631 56.8858C9.27415 56.5254 9.63695 56.7574 9.80725 56.2376C9.85832 56.0816 9.97961 55.9931 10.1079 55.8922C9.8307 55.3573 9.54993 54.8242 9.26552 54.2932C9.99147 54.0896 10.3446 53.9324 10.9815 53.5269Z" fill="#2A2929"/>
<path d="M12.9763 56.088C13.2258 56.0854 13.4423 56.0588 13.6422 56.2143C13.7402 56.4068 13.7196 56.8303 13.9493 56.9304C14.2557 57.0636 14.4205 56.6495 14.6156 57.2539C14.7087 57.531 14.7808 57.9262 14.8521 58.2218C14.1233 58.2867 10.1345 58.7124 9.71952 58.6058C9.42192 58.3335 9.48639 57.8468 9.33773 57.4657C9.30423 57.3802 9.37609 57.2806 9.41917 57.217C9.75912 57.0155 10.2356 57.2118 10.2915 56.8892C10.3149 56.7547 10.2955 56.4377 10.4577 56.3707C10.8762 56.198 12.0524 56.1683 12.4831 56.1387L12.9763 56.088Z" fill="#FDFDFD"/>
<path d="M4.09823 43.1334C10.0246 42.6016 13.0045 52.474 7.30557 53.5071C4.24856 53.8306 1.58339 51.0095 1.13966 48.1501C0.787382 45.8798 1.56595 43.4955 4.09823 43.1334Z" fill="#A6CDFA"/>
<path d="M3.79371 44.3663C3.915 44.3672 4.02599 44.3732 4.13272 44.4269C4.57099 44.6249 4.53569 45.0262 4.25281 45.3479C3.48919 46.2157 3.33655 47.3047 3.54468 48.4191C3.63849 48.9213 3.86553 49.3973 4.06533 49.8762C4.2291 50.2685 3.87506 50.4588 3.55371 50.5679C1.83895 50.1894 1.7792 45.0936 3.79371 44.3663Z" fill="#FDFDFD"/>
<path d="M5.65106 41.7612C11.236 41.4317 14.8591 49.7696 10.1948 53.0332L10.462 52.6698C10.9869 51.7461 11.2743 51.0893 11.3307 49.9973C11.5374 45.9982 8.19812 41.75 3.9707 42.2239C4.5547 41.9382 5.008 41.8437 5.65106 41.7612Z" fill="#5B9FF0"/>
<path d="M16.5565 57.3253C16.9076 57.2991 17.5302 57.141 17.8108 57.3975C17.8736 57.4551 22.2412 67.5758 22.2349 67.8193C22.2333 67.8825 22.176 67.9293 22.1388 67.9774C21.8299 68.1248 13.8093 68.7649 12.8838 68.8843C12.8038 68.895 12.5304 68.8993 12.464 68.8534C12.2 68.6695 11.9294 68.0659 11.7789 67.7751C13.1413 66.769 13.797 64.8659 12.4099 63.5973C12.4403 61.1255 10.0744 60.244 8.02601 61.1796C7.81031 60.7784 6.76373 58.7928 6.73242 58.4736C6.77533 58.3637 6.82665 58.2258 6.95039 58.1957C7.52048 58.0552 8.22195 58.0535 8.8111 57.9706C9.13555 59.5888 9.48895 59.277 10.9711 59.17C11.2136 59.1524 11.4654 59.127 11.7078 59.1073L13.7201 58.9466C15.0273 58.8435 15.8288 59.0196 15.3077 57.4267C15.7499 57.4254 16.1188 57.376 16.5565 57.3253Z" fill="#D49E5D"/>
<path d="M12.6697 38.4854L12.7199 38.5843C12.0202 39.939 12.0789 41.8047 12.7602 43.1557C12.4123 43.7219 12.3224 43.9891 12.165 44.6387C11.8266 44.0987 11.5434 43.7279 11.1455 43.2262C11.2861 41.2844 11.679 40.1519 12.6697 38.4854Z" fill="#FDFDFD"/>
<path d="M13.2215 37.6304L13.2826 37.6683C13.0768 37.981 12.9092 38.2906 12.7191 38.5843L12.6689 38.4854C12.7443 38.2574 13.0659 37.8424 13.2215 37.6304Z" fill="#5B9FF0"/>
<path d="M13.7307 36.9994L13.8013 37.0869C13.6304 37.2663 13.4245 37.4692 13.2828 37.6683L13.2217 37.6303L13.7307 36.9994Z" fill="#A6CDFA"/>
<path d="M18.9302 55.1924C18.9895 55.2749 19.0189 55.768 19.0695 55.9235C19.2005 56.3261 19.361 56.6521 19.6163 56.9881C20.0798 57.5977 20.8583 58.0754 21.6218 58.1703C21.8276 58.8125 22.1327 59.4217 22.471 60.0025C24.6128 63.6793 28.5603 65.1112 32.3177 62.8966C32.5337 64.3164 32.8605 66.2049 32.8082 67.6109C32.7347 69.5699 31.6695 72.1895 32.3675 74.1673C33.5134 74.7507 35.1125 75.817 34.7259 77.4417C34.5906 78.0096 34.0056 78.3279 33.5117 78.5745C33.4756 78.114 33.2059 75.9055 32.2867 76.6981C32.2507 76.729 32.1669 76.8841 32.1811 76.9197C32.4534 77.5968 32.5857 78.0946 32.6041 78.8237C31.9878 78.9405 31.5643 78.9912 30.948 79.0337C30.9604 78.5891 30.9157 77.2316 30.6684 76.9558C30.2255 76.4618 29.6689 76.9674 29.9107 77.6457C29.9949 77.8816 30.0121 78.8035 30.0073 79.0337C27.2117 78.7635 26.6731 78.0856 27.6459 75.4694C27.6081 75.2426 27.557 75.0214 27.4939 74.8006C27.1318 73.5294 26.7886 72.2497 26.3737 70.9948C26.1336 70.4411 25.8965 70.0334 25.1983 69.9999C24.9909 69.9896 24.6624 70.1777 24.5547 70.3565C23.8219 71.5718 23.7688 73.3687 23.7661 74.7645C23.8417 75.2624 24.0193 75.7457 24.0663 76.2487C24.2508 78.2235 21.917 78.6338 20.3168 78.7485C20.395 77.9589 20.5159 77.778 20.8695 77.0654C20.8404 76.6444 20.4044 76.4145 20.127 76.6865C19.6201 77.1843 19.4302 78.1015 19.3934 78.7708C18.8299 78.7734 18.4845 78.7481 17.9286 78.6587C17.9679 77.9129 18.2223 77.5598 18.5772 76.921C18.7135 76.6757 18.1965 76.2496 17.8831 76.5206C17.3574 76.9756 17.1236 77.7901 17.0241 78.4418C16.6931 78.2892 16.3033 78.0556 16.2692 77.65C16.1413 76.1288 17.4935 74.874 18.7728 74.3082C19.053 74.1841 19.6038 73.968 19.4508 73.5822C19.3259 73.1084 19.1904 72.6238 19.0661 72.1509C18.8109 71.1881 18.5718 70.2211 18.3491 69.2507C19.1199 69.1631 22.1233 69.0041 22.6278 68.6991C22.9653 68.4955 23.0754 68.1703 23.17 67.8111C23.051 67.33 22.4512 65.9888 22.2378 65.4845L20.3892 61.1224L19.266 58.5191C19.0471 58.0139 18.7916 57.3687 18.4986 56.906C18.3912 56.7363 18.0566 56.5632 17.8631 56.4859C18.2335 55.9631 18.5025 55.6542 18.9302 55.1924Z" fill="#FDFDFD"/>
<path d="M33.1444 56.1533C34.5467 58.3704 33.921 60.8895 31.6961 62.2561C30.4213 63.0225 28.8979 63.2617 27.4496 62.9228C25.6532 62.4906 24.2992 61.2861 23.3574 59.7331C23.0993 59.3044 22.8681 58.8602 22.6652 58.4026C22.5109 58.0452 22.4271 57.4331 22.0236 57.363C21.4801 57.2685 20.9689 57.1212 20.5583 56.7324C19.4141 55.7074 19.7108 53.6561 21.0111 52.8992C22.6736 51.9313 20.2824 51.9605 20.4709 50.8887C20.6369 50.0523 21.8198 50.1421 22.4586 50.3358C23.6086 50.6911 24.5731 51.4837 25.1446 52.5435C25.6932 53.5801 25.6055 54.5256 25.6075 55.6279C25.6355 55.722 25.7658 55.7598 25.8107 55.7873C26.0417 55.9291 26.25 56.3157 26.4042 56.5494C27.2752 57.8687 28.8489 59.2906 30.5584 58.8786C30.8401 58.8108 31.1098 58.5655 31.072 58.2441C30.8006 57.8416 30.5038 58.0427 30.1735 58.0525C30.8801 57.5533 30.9226 57.1684 30.963 56.3514C31.5462 56.3105 32.6045 56.2564 33.1444 56.1533Z" fill="#FDFDFD"/>
<path d="M36.0131 28.3576C36.8236 28.2317 37.8523 28.4027 38.5786 28.7919C39.4492 29.2658 40.096 30.0665 40.3756 31.0176C40.69 32.1045 40.5345 33.3379 39.965 34.306C39.1889 35.6249 38.2101 36.2393 36.7905 36.646C36.267 35.8302 35.767 35.0026 35.2344 34.1797C35.1747 34.0942 35.1649 34.0963 35.1528 33.9953C35.4432 33.4914 36.7089 32.6749 37.2467 32.3083C37.7883 32.0978 37.7956 31.1858 37.187 31.2106C36.4774 31.2394 34.9402 32.6599 34.4858 33.0949L32.6338 30.4834C32.6913 30.4014 32.7498 30.3203 32.8095 30.2401C33.6281 29.1449 34.6722 28.5493 36.0131 28.3576Z" fill="#FDFDFD"/>
<path d="M18.8175 25.6553C20.5988 25.5767 21.8516 26.533 22.5292 28.1221C21.8031 28.6002 20.4521 29.6058 19.7833 30.1503C19.5027 29.7148 19.1867 29.3163 18.9015 28.8942C18.5977 28.4445 17.8258 28.0448 17.6729 28.8004C17.6455 28.9301 17.6631 29.0652 17.7227 29.1836C17.8828 29.5008 18.6261 30.3662 18.8874 30.7289L18.887 30.7554C18.8685 30.7944 16.5435 32.7958 16.2736 33.0551C16.185 32.9874 16.0982 32.9174 16.0132 32.8452C15.1664 32.1266 14.6675 31.2686 14.5819 30.1482C14.5043 29.0843 14.853 28.0332 15.5511 27.2268C16.4216 26.2159 17.5099 25.7505 18.8175 25.6553Z" fill="#FDFDFD"/>
<path d="M9.34032 61.6917C11.7931 61.4412 11.4921 63.9655 11.5073 63.9788C13.1263 65.3999 11.9326 67.0714 10.2439 67.3889C6.82148 67.6737 5.95212 62.2381 9.34032 61.6917Z" fill="#FDFDFD"/>
<path d="M27.2959 56.299C28.4457 56.3999 29.8081 56.3857 30.963 56.3514C30.9226 57.1684 30.8801 57.5533 30.1736 58.0525C28.8383 58.1049 28.0935 57.2213 27.2959 56.299Z" fill="#2A2929"/>
<path d="M53.9282 33.6979C54.0231 33.7158 54.1691 33.7395 54.2112 33.8257C54.4947 34.5713 54.5664 35.1706 54.9298 35.8999C55.2682 36.5787 56.9584 36.934 56.9738 37.2556C56.653 37.6635 55.623 37.8302 55.1952 38.3498C54.7833 38.8311 54.6098 39.4106 54.45 40.0098C54.35 40.3852 54.3263 40.5865 53.9948 40.8083C53.6932 40.6747 53.6529 40.4551 53.5893 40.1646C53.3642 39.1304 53.0378 38.2751 52.0031 37.8346C51.7351 37.7205 51.0187 37.4989 50.9414 37.2125C51.1742 36.8646 52.4211 36.6111 52.8252 36.119C53.2375 35.6248 53.4287 34.9997 53.5966 34.3898C53.6722 34.1155 53.6907 33.8721 53.9282 33.6979Z" fill="#FEC318"/>
<path d="M51.9898 41.2938C52.3845 41.3137 52.403 41.5392 52.4833 41.8799C52.5825 42.3026 52.6422 42.6557 52.839 43.0475C53.0524 43.4728 54.0484 43.6756 54.2099 44.0016C54.0794 44.3766 53.3312 44.4703 52.9867 44.8238C52.4326 45.3926 52.5937 46.2943 52.1298 46.7566C51.9301 46.684 51.8537 46.6359 51.7884 46.4138C51.6436 45.9223 51.5891 45.5679 51.355 45.1082C51.0685 44.5463 50.2503 44.4918 49.9767 44.0867C49.9437 43.5742 50.6386 43.8392 51.1665 43.2662C51.7356 42.6488 51.6724 41.7553 51.9898 41.2938Z" fill="#FEC318"/>
</svg>
