<svg width="128" height="128" viewBox="0 0 128 128" fill="none" xmlns="http://www.w3.org/2000/svg">
    <mask id="mask0_1191_957" style="mask-type:luminance" maskUnits="userSpaceOnUse" x="0" y="0" width="128"
          height="128">
        <path d="M0 0H128V128H0V0Z" fill="white"/>
    </mask>
    <g mask="url(#mask0_1191_957)">
        <path d="M3.36841 101.053C3.36841 104.626 4.78795 108.053 7.31476 110.58C9.84157 113.107 13.2686 114.526 16.8421 114.526H97.6842C101.258 114.526 104.685 113.107 107.212 110.58C109.738 108.053 111.158 104.626 111.158 101.053V43.7895C111.158 40.2161 109.738 36.789 107.212 34.2622C104.685 31.7354 101.258 30.3158 97.6842 30.3158H67.3684C55.3701 30.3158 57.2631 13.4737 38.949 13.4737H16.8421C13.2686 13.4737 9.84157 14.8933 7.31476 17.4201C4.78795 19.9469 3.36841 23.374 3.36841 26.9474V101.053Z"
              fill="#7BABE5"/>
        <path d="M104.421 37.0527H82.3175C64 37.0527 65.893 53.8948 53.8947 53.8948H23.5789C20.0055 53.8948 16.5784 55.3143 14.0516 57.8411C11.5248 60.3679 10.1052 63.795 10.1052 67.3685V101.053C10.1052 101.946 9.75037 102.803 9.11866 103.435C8.48696 104.066 7.63019 104.421 6.73683 104.421C5.84347 104.421 4.98669 104.066 4.35499 103.435C3.72329 102.803 3.36841 101.946 3.36841 101.053C3.36841 104.626 4.78796 108.053 7.31476 110.58C9.84157 113.107 13.2686 114.526 16.8421 114.526H104.421C107.994 114.526 111.422 113.107 113.948 110.58C116.475 108.053 117.895 104.626 117.895 101.053V50.5264C117.895 46.9529 116.475 43.5258 113.948 40.999C111.422 38.4722 107.994 37.0527 104.421 37.0527Z"
              fill="#C7DCFA"/>
    </g>
    <rect x="19" y="85" width="89" height="22" rx="5" fill="white" fill-opacity="0.7"/>
</svg>
