<svg width="39" height="39" viewBox="0 0 39 39" fill="none" xmlns="http://www.w3.org/2000/svg">
<path d="M29.25 17.875H9.75V9.75H29.25M26.8125 27.625C26.166 27.625 25.546 27.3682 25.0889 26.9111C24.6318 26.454 24.375 25.834 24.375 25.1875C24.375 24.541 24.6318 23.921 25.0889 23.4639C25.546 23.0068 26.166 22.75 26.8125 22.75C27.459 22.75 28.079 23.0068 28.5361 23.4639C28.9932 23.921 29.25 24.541 29.25 25.1875C29.25 25.834 28.9932 26.454 28.5361 26.9111C28.079 27.3682 27.459 27.625 26.8125 27.625ZM12.1875 27.625C11.541 27.625 10.921 27.3682 10.4639 26.9111C10.0068 26.454 9.75 25.834 9.75 25.1875C9.75 24.541 10.0068 23.921 10.4639 23.4639C10.921 23.0068 11.541 22.75 12.1875 22.75C12.834 22.75 13.454 23.0068 13.9111 23.4639C14.3682 23.921 14.625 24.541 14.625 25.1875C14.625 25.834 14.3682 26.454 13.9111 26.9111C13.454 27.3682 12.834 27.625 12.1875 27.625ZM6.5 26C6.5 27.43 7.13375 28.7137 8.125 29.6075V32.5C8.125 32.931 8.29621 33.3443 8.60095 33.649C8.9057 33.9538 9.31902 34.125 9.75 34.125H11.375C11.806 34.125 12.2193 33.9538 12.524 33.649C12.8288 33.3443 13 32.931 13 32.5V30.875H26V32.5C26 32.931 26.1712 33.3443 26.476 33.649C26.7807 33.9538 27.194 34.125 27.625 34.125H29.25C29.681 34.125 30.0943 33.9538 30.399 33.649C30.7038 33.3443 30.875 32.931 30.875 32.5V29.6075C31.8663 28.7137 32.5 27.43 32.5 26V9.75C32.5 4.0625 26.6825 3.25 19.5 3.25C12.3175 3.25 6.5 4.0625 6.5 9.75V26Z" fill="#4071B9"/>
</svg>
