<svg width="38" height="38" viewBox="0 0 38 38" fill="none" xmlns="http://www.w3.org/2000/svg">
    <path d="M30.0834 11.8753C30.532 11.8753 30.908 11.7236 31.2115 11.4201C31.515 11.1166 31.6667 10.7406 31.6667 10.292C31.6667 9.84338 31.515 9.46734 31.2115 9.16387C30.908 8.86039 30.532 8.70866 30.0834 8.70866C29.6348 8.70866 29.2587 8.86039 28.9552 9.16387C28.6518 9.46734 28.5 9.84338 28.5 10.292C28.5 10.7406 28.6518 11.1166 28.9552 11.4201C29.2587 11.7236 29.6348 11.8753 30.0834 11.8753ZM23.75 11.8753C24.1987 11.8753 24.5747 11.7236 24.8782 11.4201C25.1816 11.1166 25.3334 10.7406 25.3334 10.292C25.3334 9.84338 25.1816 9.46734 24.8782 9.16387C24.5747 8.86039 24.1987 8.70866 23.75 8.70866C23.3014 8.70866 22.9254 8.86039 22.6219 9.16387C22.3184 9.46734 22.1667 9.84338 22.1667 10.292C22.1667 10.7406 22.3184 11.1166 22.6219 11.4201C22.9254 11.7236 23.3014 11.8753 23.75 11.8753ZM22.9584 17.2587H30.875C30.875 16.335 30.4726 15.6028 29.6677 15.0618C28.8629 14.5208 27.9459 14.2503 26.9167 14.2503C25.8875 14.2503 24.9705 14.5208 24.1657 15.0618C23.3608 15.6028 22.9584 16.335 22.9584 17.2587ZM11.0834 34.8337C8.44449 34.8337 6.20143 33.91 4.35421 32.0628C2.50699 30.2156 1.58337 27.9725 1.58337 25.3337V14.2503H20.5834V25.3337C20.5834 27.9725 19.6598 30.2156 17.8125 32.0628C15.9653 33.91 13.7223 34.8337 11.0834 34.8337ZM11.0834 31.667C12.825 31.667 14.316 31.0469 15.5563 29.8066C16.7966 28.5663 17.4167 27.0753 17.4167 25.3337V17.417H4.75004V25.3337C4.75004 27.0753 5.37018 28.5663 6.61046 29.8066C7.85074 31.0469 9.34171 31.667 11.0834 31.667ZM26.9167 23.7503C26.2306 23.7503 25.5511 23.6778 24.8782 23.5326C24.2052 23.3875 23.5653 23.1698 22.9584 22.8795V19.1587C23.5389 19.6073 24.1657 19.9569 24.8386 20.2076C25.5115 20.4583 26.2042 20.5837 26.9167 20.5837C28.6584 20.5837 30.1493 19.9635 31.3896 18.7232C32.6299 17.483 33.25 15.992 33.25 14.2503V6.33366H20.5834V11.8753H17.4167V3.16699H36.4167V14.2503C36.4167 16.8892 35.4931 19.1323 33.6459 20.9795C31.7987 22.8267 29.5556 23.7503 26.9167 23.7503ZM7.91671 22.9587C8.36532 22.9587 8.74136 22.8069 9.04483 22.5035C9.3483 22.2 9.50004 21.8239 9.50004 21.3753C9.50004 20.9267 9.3483 20.5507 9.04483 20.2472C8.74136 19.9437 8.36532 19.792 7.91671 19.792C7.4681 19.792 7.09205 19.9437 6.78858 20.2472C6.48511 20.5507 6.33337 20.9267 6.33337 21.3753C6.33337 21.8239 6.48511 22.2 6.78858 22.5035C7.09205 22.8069 7.4681 22.9587 7.91671 22.9587ZM14.25 22.9587C14.6987 22.9587 15.0747 22.8069 15.3782 22.5035C15.6816 22.2 15.8334 21.8239 15.8334 21.3753C15.8334 20.9267 15.6816 20.5507 15.3782 20.2472C15.0747 19.9437 14.6987 19.792 14.25 19.792C13.8014 19.792 13.4254 19.9437 13.1219 20.2472C12.8184 20.5507 12.6667 20.9267 12.6667 21.3753C12.6667 21.8239 12.8184 22.2 13.1219 22.5035C13.4254 22.8069 13.8014 22.9587 14.25 22.9587ZM11.0834 28.342C12.1125 28.342 13.0296 28.0715 13.8344 27.5305C14.6393 26.9896 15.0417 26.2573 15.0417 25.3337H7.12504C7.12504 26.2573 7.52747 26.9896 8.33233 27.5305C9.13719 28.0715 10.0542 28.342 11.0834 28.342Z"
          fill="#4071B9"/>
</svg>
