<svg width="42" height="42" viewBox="0 0 42 42" fill="none" xmlns="http://www.w3.org/2000/svg">
<g clip-path="url(#clip0_1145_4273)">
<path d="M0 31.5V28.7437C0 27.4896 0.641667 26.4688 1.925 25.6812C3.20833 24.8938 4.9 24.5 7 24.5C7.37917 24.5 7.74375 24.5073 8.09375 24.5219C8.44375 24.5365 8.77917 24.5729 9.1 24.6312C8.69167 25.2437 8.38542 25.8854 8.18125 26.5562C7.97708 27.2271 7.875 27.9271 7.875 28.6562V31.5H0ZM10.5 31.5V28.6562C10.5 27.7229 10.7552 26.8698 11.2656 26.0969C11.776 25.324 12.4979 24.6458 13.4312 24.0625C14.3646 23.4792 15.4802 23.0417 16.7781 22.75C18.076 22.4583 19.4833 22.3125 21 22.3125C22.5458 22.3125 23.9677 22.4583 25.2656 22.75C26.5635 23.0417 27.6792 23.4792 28.6125 24.0625C29.5458 24.6458 30.2604 25.324 30.7563 26.0969C31.2521 26.8698 31.5 27.7229 31.5 28.6562V31.5H10.5ZM34.125 31.5V28.6562C34.125 27.8979 34.0302 27.1833 33.8406 26.5125C33.651 25.8417 33.3667 25.2146 32.9875 24.6312C33.3083 24.5729 33.6365 24.5365 33.9719 24.5219C34.3073 24.5073 34.65 24.5 35 24.5C37.1 24.5 38.7917 24.8865 40.075 25.6594C41.3583 26.4323 42 27.4604 42 28.7437V31.5H34.125ZM14.2188 28H27.825C27.5333 27.4167 26.724 26.9062 25.3969 26.4688C24.0698 26.0312 22.6042 25.8125 21 25.8125C19.3958 25.8125 17.9302 26.0312 16.6031 26.4688C15.276 26.9062 14.4812 27.4167 14.2188 28ZM7 22.75C6.0375 22.75 5.21354 22.4073 4.52812 21.7219C3.84271 21.0365 3.5 20.2125 3.5 19.25C3.5 18.2583 3.84271 17.4271 4.52812 16.7562C5.21354 16.0854 6.0375 15.75 7 15.75C7.99167 15.75 8.82292 16.0854 9.49375 16.7562C10.1646 17.4271 10.5 18.2583 10.5 19.25C10.5 20.2125 10.1646 21.0365 9.49375 21.7219C8.82292 22.4073 7.99167 22.75 7 22.75ZM35 22.75C34.0375 22.75 33.2135 22.4073 32.5281 21.7219C31.8427 21.0365 31.5 20.2125 31.5 19.25C31.5 18.2583 31.8427 17.4271 32.5281 16.7562C33.2135 16.0854 34.0375 15.75 35 15.75C35.9917 15.75 36.8229 16.0854 37.4937 16.7562C38.1646 17.4271 38.5 18.2583 38.5 19.25C38.5 20.2125 38.1646 21.0365 37.4937 21.7219C36.8229 22.4073 35.9917 22.75 35 22.75ZM21 21C19.5417 21 18.3021 20.4896 17.2812 19.4688C16.2604 18.4479 15.75 17.2083 15.75 15.75C15.75 14.2625 16.2604 13.0156 17.2812 12.0094C18.3021 11.0031 19.5417 10.5 21 10.5C22.4875 10.5 23.7344 11.0031 24.7406 12.0094C25.7469 13.0156 26.25 14.2625 26.25 15.75C26.25 17.2083 25.7469 18.4479 24.7406 19.4688C23.7344 20.4896 22.4875 21 21 21ZM21 17.5C21.4958 17.5 21.9115 17.3323 22.2469 16.9969C22.5823 16.6615 22.75 16.2458 22.75 15.75C22.75 15.2542 22.5823 14.8385 22.2469 14.5031C21.9115 14.1677 21.4958 14 21 14C20.5042 14 20.0885 14.1677 19.7531 14.5031C19.4177 14.8385 19.25 15.2542 19.25 15.75C19.25 16.2458 19.4177 16.6615 19.7531 16.9969C20.0885 17.3323 20.5042 17.5 21 17.5Z" fill="#4071B9"/>
</g>
<defs>
<clipPath id="clip0_1145_4273">
<rect width="42" height="42" fill="white"/>
</clipPath>
</defs>
</svg>
