<svg width="33" height="33" viewBox="0 0 33 33" fill="none" xmlns="http://www.w3.org/2000/svg">
<rect y="0.546814" width="32.1067" height="32.1379" rx="10" fill="#9CAFE2"/>
<path d="M18.7289 18.1461H18.125L17.9109 17.9395C18.686 17.0397 19.112 15.8909 19.1111 14.7028C19.1111 13.7191 18.8197 12.7575 18.2737 11.9395C17.7277 11.1216 16.9517 10.4841 16.0437 10.1077C15.1358 9.73122 14.1367 9.63272 13.1728 9.82464C12.209 10.0165 11.3236 10.4902 10.6287 11.1858C9.93378 11.8814 9.46054 12.7677 9.26882 13.7325C9.07709 14.6973 9.17549 15.6973 9.55158 16.6062C9.92766 17.515 10.5645 18.2918 11.3817 18.8383C12.1988 19.3848 13.1595 19.6765 14.1422 19.6765C15.373 19.6765 16.5044 19.2251 17.3758 18.4752L17.5822 18.6894V19.2939L21.4045 23.1122L22.5435 21.9721L18.7289 18.1461ZM14.1422 18.1461C12.2388 18.1461 10.7022 16.6081 10.7022 14.7028C10.7022 12.7975 12.2388 11.2594 14.1422 11.2594C16.0457 11.2594 17.5822 12.7975 17.5822 14.7028C17.5822 16.6081 16.0457 18.1461 14.1422 18.1461Z" fill="white"/>
</svg>
