<svg width="40" height="40" viewBox="0 0 40 40" fill="none" xmlns="http://www.w3.org/2000/svg">
<path d="M25 35L15 31.5L7.25 34.5C6.69444 34.7222 6.18056 34.6597 5.70833 34.3125C5.23611 33.9653 5 33.5 5 32.9167V9.58333C5 9.22222 5.10417 8.90278 5.3125 8.625C5.52083 8.34722 5.80556 8.13889 6.16667 8L15 5L25 8.5L32.75 5.5C33.3056 5.27778 33.8194 5.34028 34.2917 5.6875C34.7639 6.03472 35 6.5 35 7.08333V30.4167C35 30.7778 34.8958 31.0972 34.6875 31.375C34.4792 31.6528 34.1944 31.8611 33.8333 32L25 35ZM23.3333 30.9167V11.4167L16.6667 9.08333V28.5833L23.3333 30.9167ZM26.6667 30.9167L31.6667 29.25V9.5L26.6667 11.4167V30.9167ZM8.33333 30.5L13.3333 28.5833V9.08333L8.33333 10.75V30.5Z" fill="#4071B9"/>
</svg>
