<svg width="39" height="31" viewBox="0 0 39 31" fill="none" xmlns="http://www.w3.org/2000/svg">
<path d="M0 13.5625V30.0313C0 30.5665 0.436313 31 0.975 31H5.85V11.625H1.95C0.873234 11.625 0 12.4926 0 13.5625ZM21.9375 10.6563H20.475V8.23438C20.475 7.96676 20.2568 7.75001 19.9875 7.75001H19.0125C18.7432 7.75001 18.525 7.96676 18.525 8.23438V12.1094C18.525 12.377 18.7432 12.5938 19.0125 12.5938H21.9375C22.2068 12.5938 22.425 12.377 22.425 12.1094V11.1406C22.425 10.873 22.2068 10.6563 21.9375 10.6563ZM30.3316 6.78368L20.5816 0.325142C20.2613 0.113126 19.8849 0 19.5 0C19.1151 0 18.7387 0.113126 18.4184 0.325142L8.66836 6.78368C8.40129 6.96057 8.18231 7.20024 8.03083 7.4814C7.87935 7.76256 7.80006 8.07652 7.8 8.39544V31H15.6V22.2813C15.6 21.746 16.0363 21.3125 16.575 21.3125H22.425C22.9637 21.3125 23.4 21.746 23.4 22.2813V31H31.2V8.39604C31.2 7.74819 30.874 7.14272 30.3316 6.78368ZM19.5 15.5C16.8078 15.5 14.625 13.3312 14.625 10.6563C14.625 7.98129 16.8078 5.81251 19.5 5.81251C22.1922 5.81251 24.375 7.98129 24.375 10.6563C24.375 13.3312 22.1922 15.5 19.5 15.5ZM37.05 11.625H33.15V31H38.025C38.5637 31 39 30.5665 39 30.0313V13.5625C39 12.4926 38.1268 11.625 37.05 11.625Z" fill="#4979D1"/>
</svg>
