<svg width="216" height="33" viewBox="0 0 216 33" fill="none" xmlns="http://www.w3.org/2000/svg">
<path d="M13.6963 17.7744C13.6963 18.6859 13.5254 19.5404 13.1836 20.3379C12.8499 21.1273 12.3901 21.819 11.8042 22.4131C11.2183 22.999 10.5265 23.4629 9.729 23.8047C8.93148 24.1383 8.07292 24.3052 7.15332 24.3052C6.23372 24.3052 5.37516 24.1383 4.57764 23.8047C3.78825 23.4629 3.10059 22.999 2.51465 22.4131C1.92871 21.8271 1.46484 21.1395 1.12305 20.3501C0.789388 19.5526 0.622559 18.694 0.622559 17.7744C0.622559 16.8467 0.789388 15.9881 1.12305 15.1987C1.46484 14.4012 1.92871 13.7135 2.51465 13.1357C3.10059 12.5498 3.78825 12.09 4.57764 11.7563C5.37516 11.4227 6.23372 11.2559 7.15332 11.2559C8.08105 11.2559 8.94368 11.4227 9.74121 11.7563C10.5387 12.09 11.2305 12.5498 11.8164 13.1357C12.4023 13.7135 12.8621 14.4012 13.1958 15.1987C13.5295 15.9881 13.6963 16.8467 13.6963 17.7744ZM13.1226 17.7744C13.1226 16.9362 12.9679 16.1549 12.6587 15.4307C12.3494 14.7064 11.9263 14.0757 11.3892 13.5386C10.8521 13.0015 10.2214 12.5783 9.49707 12.269C8.77279 11.9598 7.99154 11.8052 7.15332 11.8052C6.32324 11.8052 5.54606 11.9598 4.82178 12.269C4.09749 12.5783 3.4668 13.0055 2.92969 13.5508C2.40072 14.0879 1.98161 14.7186 1.67236 15.4429C1.37126 16.1672 1.2207 16.9443 1.2207 17.7744C1.2207 18.6045 1.37126 19.3817 1.67236 20.106C1.98161 20.8221 2.40072 21.4487 2.92969 21.9858C3.4668 22.5148 4.09749 22.9339 4.82178 23.2432C5.54606 23.5443 6.32324 23.6948 7.15332 23.6948C7.99154 23.6948 8.77279 23.5443 9.49707 23.2432C10.2214 22.9339 10.8521 22.5148 11.3892 21.9858C11.9263 21.4487 12.3494 20.8221 12.6587 20.106C12.9679 19.3817 13.1226 18.6045 13.1226 17.7744ZM10.73 20.0449C10.2987 20.6634 9.78597 21.1313 9.19189 21.4487C8.60596 21.7661 7.94271 21.9248 7.20215 21.9248C6.61621 21.9248 6.06283 21.8231 5.54199 21.6196C5.02116 21.4162 4.56543 21.1354 4.1748 20.7773C3.79232 20.4111 3.48714 19.9798 3.25928 19.4834C3.03955 18.9788 2.92969 18.4255 2.92969 17.8232C2.92969 17.1641 3.05176 16.57 3.2959 16.041C3.54004 15.512 3.86963 15.0645 4.28467 14.6982C4.69971 14.3239 5.18392 14.0391 5.7373 13.8438C6.29883 13.6484 6.8929 13.5508 7.51953 13.5508C7.71484 13.5508 7.91423 13.5752 8.11768 13.624C8.32113 13.6647 8.51237 13.7135 8.69141 13.7705C8.87858 13.8193 9.04541 13.8682 9.19189 13.917C9.34652 13.9577 9.47266 13.978 9.57031 13.978C9.68424 13.978 9.77783 13.9333 9.85107 13.8438C9.92432 13.7461 9.98128 13.6484 10.022 13.5508H10.376L10.5713 16.1265H10.2295C10.0016 15.4591 9.65983 14.9342 9.2041 14.5518C8.75651 14.1693 8.16243 13.978 7.42188 13.978C6.90104 13.978 6.44938 14.0757 6.06689 14.271C5.69255 14.4663 5.38737 14.7308 5.15137 15.0645C4.91536 15.39 4.7404 15.7684 4.62646 16.1997C4.51253 16.631 4.45557 17.0827 4.45557 17.5547C4.45557 18.043 4.50846 18.515 4.61426 18.9707C4.72819 19.4264 4.90316 19.8293 5.13916 20.1792C5.3833 20.5291 5.70068 20.8099 6.09131 21.0215C6.48193 21.2249 6.95801 21.3267 7.51953 21.3267C8.74837 21.3267 9.70052 20.8343 10.376 19.8496L10.73 20.0449Z" fill="#888888"/>
<path d="M19.3809 23V22.7168C19.6999 22.7168 19.9538 22.6973 20.1426 22.6582C20.3314 22.6126 20.4746 22.5378 20.5723 22.4336C20.6699 22.3229 20.7318 22.1732 20.7578 21.9844C20.7839 21.7891 20.7969 21.5417 20.7969 21.2422V14.7773C20.7969 14.4714 20.7839 14.224 20.7578 14.0352C20.7318 13.8398 20.6699 13.6868 20.5723 13.5762C20.4746 13.4655 20.3314 13.3906 20.1426 13.3516C19.9538 13.306 19.6999 13.2832 19.3809 13.2832V13.0195H23.6582V13.2832C23.3457 13.2832 23.0951 13.306 22.9062 13.3516C22.7174 13.3906 22.571 13.4655 22.4668 13.5762C22.3691 13.6868 22.304 13.8398 22.2715 14.0352C22.2389 14.224 22.2227 14.4714 22.2227 14.7773V21.2422C22.2227 21.5417 22.2357 21.7891 22.2617 21.9844C22.2943 22.1732 22.3594 22.3229 22.457 22.4336C22.5547 22.5378 22.6979 22.6126 22.8867 22.6582C23.0755 22.6973 23.3327 22.7168 23.6582 22.7168V23H19.3809ZM34.7031 13.2832C34.3906 13.2832 34.14 13.3027 33.9512 13.3418C33.7624 13.3809 33.6159 13.4557 33.5117 13.5664C33.4141 13.6706 33.349 13.8171 33.3164 14.0059C33.2904 14.1947 33.2773 14.4388 33.2773 14.7383V23.1562H33.0234L26.4219 15.1191V21.2617C26.4219 21.5742 26.4349 21.8249 26.4609 22.0137C26.4935 22.2025 26.5586 22.349 26.6562 22.4531C26.7539 22.5573 26.8971 22.6289 27.0859 22.668C27.2747 22.7005 27.5254 22.7168 27.8379 22.7168V23H24.3613V22.7168C24.6738 22.7168 24.9212 22.6973 25.1035 22.6582C25.2923 22.6191 25.4355 22.5475 25.5332 22.4434C25.6309 22.3327 25.696 22.1829 25.7285 21.9941C25.7611 21.8053 25.7773 21.5612 25.7773 21.2617V14.3184C25.6536 14.1491 25.5365 14.0026 25.4258 13.8789C25.3216 13.7487 25.2077 13.6413 25.084 13.5566C24.9668 13.4655 24.8301 13.3971 24.6738 13.3516C24.5176 13.306 24.3255 13.2832 24.0977 13.2832V13.0195H26.5391L32.6426 20.5V14.7383C32.6426 14.4388 32.6263 14.1947 32.5938 14.0059C32.5612 13.8171 32.4928 13.6706 32.3887 13.5664C32.291 13.4557 32.1478 13.3809 31.959 13.3418C31.7767 13.3027 31.5293 13.2832 31.2168 13.2832V13.0195H34.7031V13.2832ZM43.4141 15.3633C43.3555 14.7969 43.1829 14.3704 42.8965 14.084C42.61 13.791 42.1706 13.6445 41.5781 13.6445H40.1816V21.2617C40.1816 21.5677 40.1947 21.8151 40.2207 22.0039C40.2467 22.1927 40.3086 22.3424 40.4062 22.4531C40.5039 22.5573 40.6439 22.6289 40.8262 22.668C41.015 22.7005 41.2656 22.7168 41.5781 22.7168V23H37.3594V22.7168C37.6719 22.7168 37.9193 22.6973 38.1016 22.6582C38.2839 22.6191 38.4238 22.5475 38.5215 22.4434C38.6191 22.3327 38.681 22.1829 38.707 21.9941C38.7396 21.8053 38.7559 21.5612 38.7559 21.2617V13.6445H37.5547C37.2422 13.6445 36.9688 13.6738 36.7344 13.7324C36.5 13.7845 36.3014 13.8757 36.1387 14.0059C35.9824 14.1361 35.8587 14.3118 35.7676 14.5332C35.6829 14.7546 35.6276 15.0312 35.6016 15.3633H35.2598L35.3574 13.0195H43.6387L43.7363 15.3633H43.4141ZM44.459 23V22.7168C44.778 22.7168 45.0319 22.6973 45.2207 22.6582C45.4095 22.6126 45.5527 22.5378 45.6504 22.4336C45.748 22.3229 45.8099 22.1732 45.8359 21.9844C45.862 21.7891 45.875 21.5417 45.875 21.2422V14.7773C45.875 14.4714 45.862 14.224 45.8359 14.0352C45.8099 13.8398 45.748 13.6868 45.6504 13.5762C45.5527 13.4655 45.4095 13.3906 45.2207 13.3516C45.0319 13.306 44.778 13.2832 44.459 13.2832V13.0195H48.7363V13.2832C48.4238 13.2832 48.1732 13.306 47.9844 13.3516C47.7956 13.3906 47.6491 13.4655 47.5449 13.5762C47.4473 13.6868 47.3822 13.8398 47.3496 14.0352C47.3171 14.224 47.3008 14.4714 47.3008 14.7773V21.2422C47.3008 21.5417 47.3138 21.7891 47.3398 21.9844C47.3724 22.1732 47.4375 22.3229 47.5352 22.4336C47.6328 22.5378 47.776 22.6126 47.9648 22.6582C48.1536 22.6973 48.4108 22.7168 48.7363 22.7168V23H44.459ZM56.959 15.7832C56.959 16.3236 56.8646 16.7728 56.6758 17.1309C56.4935 17.4824 56.2428 17.7624 55.9238 17.9707C55.6048 18.179 55.2305 18.3255 54.8008 18.4102C54.3776 18.4948 53.9284 18.5371 53.4531 18.5371C53.2448 18.5371 53.0365 18.5339 52.8281 18.5273C52.6263 18.5208 52.4082 18.498 52.1738 18.459V21.2422C52.1738 21.5482 52.1901 21.7988 52.2227 21.9941C52.2617 22.1829 52.3301 22.3327 52.4277 22.4434C52.5319 22.5475 52.6784 22.6191 52.8672 22.6582C53.056 22.6973 53.3066 22.7168 53.6191 22.7168V23H49.3613V22.7168C49.6738 22.7168 49.9212 22.6973 50.1035 22.6582C50.2923 22.6191 50.4355 22.5475 50.5332 22.4434C50.6309 22.3327 50.6927 22.1829 50.7188 21.9941C50.7448 21.7988 50.7578 21.5482 50.7578 21.2422V14.7773C50.7578 14.4648 50.7448 14.2142 50.7188 14.0254C50.6927 13.8301 50.6309 13.6771 50.5332 13.5664C50.4421 13.4557 50.3021 13.3809 50.1133 13.3418C49.931 13.3027 49.6803 13.2832 49.3613 13.2832V13.0195H52.9941C53.4434 13.0195 53.9023 13.0586 54.3711 13.1367C54.8464 13.2148 55.2728 13.3581 55.6504 13.5664C56.0345 13.7682 56.347 14.0482 56.5879 14.4062C56.8353 14.7643 56.959 15.2233 56.959 15.7832ZM55.2793 15.9199C55.2793 15.6009 55.2305 15.3014 55.1328 15.0215C55.0417 14.735 54.9049 14.4876 54.7227 14.2793C54.5469 14.071 54.3255 13.9049 54.0586 13.7812C53.7982 13.6576 53.4987 13.5957 53.1602 13.5957C52.9974 13.5957 52.8314 13.612 52.6621 13.6445C52.4993 13.6771 52.3366 13.7096 52.1738 13.7422V17.9609C52.3757 17.9935 52.5775 18.0195 52.7793 18.0391C52.9811 18.0521 53.1862 18.0586 53.3945 18.0586C53.6875 18.0586 53.9479 18 54.1758 17.8828C54.4102 17.7591 54.6087 17.5996 54.7715 17.4043C54.9342 17.2025 55.0579 16.9746 55.1426 16.7207C55.2337 16.4603 55.2793 16.1934 55.2793 15.9199ZM61.041 22.3555C61.041 22.6029 60.9564 22.8112 60.7871 22.9805C60.6243 23.1432 60.4193 23.2246 60.1719 23.2246C60.0547 23.2246 59.944 23.2018 59.8398 23.1562C59.7422 23.1107 59.6543 23.0488 59.5762 22.9707C59.5046 22.8926 59.446 22.8014 59.4004 22.6973C59.3548 22.5931 59.332 22.4792 59.332 22.3555C59.332 22.2383 59.3548 22.1309 59.4004 22.0332C59.446 21.929 59.5046 21.8411 59.5762 21.7695C59.6543 21.6914 59.7422 21.6296 59.8398 21.584C59.944 21.5384 60.0547 21.5156 60.1719 21.5156C60.2956 21.5156 60.4095 21.5384 60.5137 21.584C60.6178 21.6296 60.709 21.6914 60.7871 21.7695C60.8652 21.8411 60.9271 21.929 60.9727 22.0332C61.0182 22.1309 61.041 22.2383 61.041 22.3555ZM64.127 23V22.7168C64.446 22.7168 64.6999 22.6973 64.8887 22.6582C65.0775 22.6126 65.2207 22.5378 65.3184 22.4336C65.416 22.3229 65.4779 22.1732 65.5039 21.9844C65.5299 21.7891 65.543 21.5417 65.543 21.2422V14.7773C65.543 14.4714 65.5299 14.224 65.5039 14.0352C65.4779 13.8398 65.416 13.6868 65.3184 13.5762C65.2207 13.4655 65.0775 13.3906 64.8887 13.3516C64.6999 13.306 64.446 13.2832 64.127 13.2832V13.0195H68.4043V13.2832C68.0918 13.2832 67.8411 13.306 67.6523 13.3516C67.4635 13.3906 67.3171 13.4655 67.2129 13.5762C67.1152 13.6868 67.0501 13.8398 67.0176 14.0352C66.985 14.224 66.9688 14.4714 66.9688 14.7773V21.2422C66.9688 21.5417 66.9818 21.7891 67.0078 21.9844C67.0404 22.1732 67.1055 22.3229 67.2031 22.4336C67.3008 22.5378 67.444 22.6126 67.6328 22.6582C67.8216 22.6973 68.0788 22.7168 68.4043 22.7168V23H64.127ZM79.4492 13.2832C79.1367 13.2832 78.8861 13.3027 78.6973 13.3418C78.5085 13.3809 78.362 13.4557 78.2578 13.5664C78.1602 13.6706 78.0951 13.8171 78.0625 14.0059C78.0365 14.1947 78.0234 14.4388 78.0234 14.7383V23.1562H77.7695L71.168 15.1191V21.2617C71.168 21.5742 71.181 21.8249 71.207 22.0137C71.2396 22.2025 71.3047 22.349 71.4023 22.4531C71.5 22.5573 71.6432 22.6289 71.832 22.668C72.0208 22.7005 72.2715 22.7168 72.584 22.7168V23H69.1074V22.7168C69.4199 22.7168 69.6673 22.6973 69.8496 22.6582C70.0384 22.6191 70.1816 22.5475 70.2793 22.4434C70.377 22.3327 70.4421 22.1829 70.4746 21.9941C70.5072 21.8053 70.5234 21.5612 70.5234 21.2617V14.3184C70.3997 14.1491 70.2826 14.0026 70.1719 13.8789C70.0677 13.7487 69.9538 13.6413 69.8301 13.5566C69.7129 13.4655 69.5762 13.3971 69.4199 13.3516C69.2637 13.306 69.0716 13.2832 68.8438 13.2832V13.0195H71.2852L77.3887 20.5V14.7383C77.3887 14.4388 77.3724 14.1947 77.3398 14.0059C77.3073 13.8171 77.2389 13.6706 77.1348 13.5664C77.0371 13.4557 76.8939 13.3809 76.7051 13.3418C76.5228 13.3027 76.2754 13.2832 75.9629 13.2832V13.0195H79.4492V13.2832ZM90.3867 13.2832C90.0872 13.2832 89.8431 13.3092 89.6543 13.3613C89.4655 13.4134 89.319 13.5013 89.2148 13.625C89.1107 13.7487 89.0391 13.9115 89 14.1133C88.9609 14.3086 88.9414 14.5495 88.9414 14.8359V18.8984C88.9414 19.582 88.8763 20.194 88.7461 20.7344C88.6224 21.2682 88.4108 21.7207 88.1113 22.0918C87.8184 22.4629 87.4245 22.7493 86.9297 22.9512C86.4349 23.1465 85.8197 23.2441 85.084 23.2441C84.2702 23.2441 83.6061 23.1432 83.0918 22.9414C82.584 22.7396 82.1868 22.4466 81.9004 22.0625C81.6139 21.6719 81.4186 21.1966 81.3145 20.6367C81.2168 20.0703 81.168 19.4258 81.168 18.7031V14.7773C81.168 14.5039 81.1549 14.2728 81.1289 14.084C81.1029 13.8952 81.0443 13.7422 80.9531 13.625C80.8685 13.5013 80.7383 13.4134 80.5625 13.3613C80.3932 13.3092 80.1621 13.2832 79.8691 13.2832V13.0195H83.8828V13.2832C83.5964 13.2832 83.3685 13.3092 83.1992 13.3613C83.0299 13.4134 82.8997 13.5013 82.8086 13.625C82.7174 13.7422 82.6556 13.8952 82.623 14.084C82.597 14.2728 82.584 14.5039 82.584 14.7773V19.1426C82.584 19.6048 82.6133 20.0475 82.6719 20.4707C82.737 20.8874 82.8607 21.2552 83.043 21.5742C83.2318 21.8867 83.4954 22.1374 83.834 22.3262C84.179 22.5085 84.6283 22.5996 85.1816 22.5996C85.6309 22.5996 86.0605 22.528 86.4707 22.3848C86.8809 22.2415 87.252 22.0137 87.584 21.7012C87.7467 21.5514 87.8737 21.3561 87.9648 21.1152C88.056 20.8678 88.1243 20.6107 88.1699 20.3438C88.2155 20.0703 88.2415 19.8001 88.248 19.5332C88.2611 19.2598 88.2676 19.0221 88.2676 18.8203V14.7773C88.2676 14.4648 88.2513 14.2142 88.2188 14.0254C88.1927 13.8301 88.1276 13.6771 88.0234 13.5664C87.9258 13.4557 87.7826 13.3809 87.5938 13.3418C87.4049 13.3027 87.1543 13.2832 86.8418 13.2832V13.0195H90.3867V13.2832ZM101.852 23V22.7168C101.962 22.7168 102.076 22.7103 102.193 22.6973C102.311 22.6777 102.418 22.6452 102.516 22.5996C102.613 22.554 102.695 22.4922 102.76 22.4141C102.825 22.3294 102.857 22.2188 102.857 22.082C102.857 21.9518 102.818 21.7695 102.74 21.5352C102.662 21.3008 102.574 21.0599 102.477 20.8125C102.379 20.5651 102.281 20.334 102.184 20.1191C102.086 19.9043 102.018 19.7513 101.979 19.6602H98.1113C98.0853 19.7122 98.043 19.8001 97.9844 19.9238C97.9323 20.041 97.8704 20.1777 97.7988 20.334C97.7272 20.4837 97.6556 20.6432 97.584 20.8125C97.5124 20.9818 97.444 21.1478 97.3789 21.3105C97.3203 21.4733 97.2715 21.623 97.2324 21.7598C97.1934 21.8965 97.1738 22.0039 97.1738 22.082C97.1738 22.2122 97.2161 22.3197 97.3008 22.4043C97.3854 22.4824 97.4896 22.5443 97.6133 22.5898C97.737 22.6354 97.8639 22.668 97.9941 22.6875C98.1243 22.7005 98.2383 22.7103 98.3359 22.7168V23H95.1914V22.7168C95.4258 22.7103 95.6276 22.6549 95.7969 22.5508C95.9661 22.4466 96.1126 22.3132 96.2363 22.1504C96.3665 21.9876 96.4772 21.8086 96.5684 21.6133C96.6595 21.4115 96.7474 21.2129 96.832 21.0176L100.357 12.8047H100.611L104.078 21.0762C104.176 21.304 104.267 21.5156 104.352 21.7109C104.443 21.8997 104.55 22.069 104.674 22.2188C104.798 22.362 104.947 22.4792 105.123 22.5703C105.299 22.6549 105.523 22.7038 105.797 22.7168V23H101.852ZM100.074 15.0605L98.3359 19.123H101.773L100.074 15.0605ZM106.471 23V22.7168C106.705 22.7168 106.887 22.6908 107.018 22.6387C107.154 22.5801 107.255 22.4987 107.32 22.3945C107.392 22.2904 107.434 22.1634 107.447 22.0137C107.467 21.8574 107.477 21.6784 107.477 21.4766V15.1973C107.477 15.0801 107.48 14.9271 107.486 14.7383C107.499 14.5495 107.493 14.3639 107.467 14.1816C107.441 13.9928 107.389 13.8333 107.311 13.7031C107.232 13.5664 107.105 13.498 106.93 13.498C106.852 13.498 106.777 13.5078 106.705 13.5273C106.633 13.5404 106.555 13.5632 106.471 13.5957L106.354 13.3418L108.375 12.541H108.697V21.4766C108.697 21.7044 108.707 21.8965 108.727 22.0527C108.753 22.209 108.801 22.3359 108.873 22.4336C108.951 22.5312 109.062 22.6029 109.205 22.6484C109.355 22.694 109.55 22.7168 109.791 22.7168V23H106.471ZM110.67 23V22.7168C110.904 22.7168 111.087 22.6908 111.217 22.6387C111.354 22.5801 111.454 22.4987 111.52 22.3945C111.591 22.2904 111.633 22.1634 111.646 22.0137C111.666 21.8574 111.676 21.6784 111.676 21.4766V15.1973C111.676 15.0801 111.679 14.9271 111.686 14.7383C111.699 14.5495 111.692 14.3639 111.666 14.1816C111.64 13.9928 111.588 13.8333 111.51 13.7031C111.432 13.5664 111.305 13.498 111.129 13.498C111.051 13.498 110.976 13.5078 110.904 13.5273C110.833 13.5404 110.755 13.5632 110.67 13.5957L110.553 13.3418L112.574 12.541H112.896V21.4766C112.896 21.7044 112.906 21.8965 112.926 22.0527C112.952 22.209 113.001 22.3359 113.072 22.4336C113.15 22.5312 113.261 22.6029 113.404 22.6484C113.554 22.694 113.749 22.7168 113.99 22.7168V23H110.67ZM124 16.877C124 17.0592 123.932 17.2188 123.795 17.3555C123.665 17.4922 123.508 17.5605 123.326 17.5605C123.215 17.5605 123.111 17.5345 123.014 17.4824C122.923 17.4238 122.831 17.3652 122.74 17.3066C122.656 17.2415 122.574 17.1829 122.496 17.1309C122.424 17.0723 122.353 17.043 122.281 17.043C122.184 17.043 122.083 17.0918 121.979 17.1895C121.881 17.2806 121.786 17.3913 121.695 17.5215C121.611 17.6452 121.533 17.7689 121.461 17.8926C121.389 18.0163 121.337 18.1107 121.305 18.1758V21.4375C121.305 21.8672 121.386 22.1895 121.549 22.4043C121.712 22.6126 122.024 22.7168 122.486 22.7168V23H119V22.7168C119.254 22.7168 119.449 22.6973 119.586 22.6582C119.729 22.6191 119.837 22.5508 119.908 22.4531C119.98 22.3555 120.022 22.2285 120.035 22.0723C120.055 21.9095 120.064 21.7109 120.064 21.4766V18.7617C120.064 18.6836 120.061 18.5664 120.055 18.4102C120.055 18.2539 120.048 18.0911 120.035 17.9219C120.022 17.7526 119.999 17.5931 119.967 17.4434C119.941 17.2936 119.898 17.1862 119.84 17.1211C119.736 17.069 119.609 17.043 119.459 17.043C119.316 17.043 119.163 17.0755 119 17.1406L118.922 16.877L121.002 16.0566H121.305V17.5801C121.389 17.4238 121.49 17.2578 121.607 17.082C121.725 16.9062 121.855 16.7435 121.998 16.5938C122.148 16.4375 122.307 16.3105 122.477 16.2129C122.652 16.1087 122.841 16.0566 123.043 16.0566C123.16 16.0566 123.277 16.0762 123.395 16.1152C123.512 16.1478 123.613 16.1999 123.697 16.2715C123.788 16.3431 123.86 16.431 123.912 16.5352C123.971 16.6328 124 16.7467 124 16.877ZM126.979 13.957C126.979 14.1654 126.907 14.3444 126.764 14.4941C126.62 14.6439 126.445 14.7188 126.236 14.7188C126.028 14.7188 125.849 14.6471 125.699 14.5039C125.556 14.3607 125.484 14.1784 125.484 13.957C125.484 13.7487 125.556 13.5762 125.699 13.4395C125.849 13.2962 126.028 13.2246 126.236 13.2246C126.438 13.2246 126.611 13.2962 126.754 13.4395C126.904 13.5827 126.979 13.7552 126.979 13.957ZM124.576 23V22.7168C124.798 22.7168 124.977 22.7005 125.113 22.668C125.25 22.6354 125.354 22.5768 125.426 22.4922C125.504 22.4076 125.556 22.2969 125.582 22.1602C125.608 22.0169 125.621 21.8379 125.621 21.623V18.0195C125.621 17.9349 125.615 17.8372 125.602 17.7266C125.595 17.6094 125.576 17.4987 125.543 17.3945C125.51 17.2904 125.458 17.2025 125.387 17.1309C125.315 17.0592 125.221 17.0234 125.104 17.0234C125.019 17.0234 124.931 17.0365 124.84 17.0625C124.755 17.082 124.667 17.1081 124.576 17.1406L124.479 16.877L126.52 16.0566H126.842V21.623C126.842 21.8379 126.855 22.0169 126.881 22.1602C126.907 22.2969 126.956 22.4076 127.027 22.4922C127.105 22.5768 127.21 22.6354 127.34 22.668C127.477 22.7005 127.656 22.7168 127.877 22.7168V23H124.576ZM135.475 16.8574C135.475 17.0007 135.423 17.0983 135.318 17.1504C135.221 17.2025 135.1 17.2318 134.957 17.2383C134.82 17.2448 134.674 17.2415 134.518 17.2285C134.368 17.209 134.241 17.1992 134.137 17.1992C134.28 17.388 134.381 17.6029 134.439 17.8438C134.505 18.0781 134.537 18.3092 134.537 18.5371C134.537 18.9147 134.462 19.2467 134.312 19.5332C134.169 19.8132 133.974 20.0508 133.727 20.2461C133.479 20.4349 133.196 20.5781 132.877 20.6758C132.558 20.7734 132.226 20.8223 131.881 20.8223C131.712 20.8223 131.539 20.8125 131.363 20.793C131.194 20.7669 131.025 20.7279 130.855 20.6758C130.725 20.7799 130.598 20.9004 130.475 21.0371C130.357 21.1738 130.299 21.3268 130.299 21.4961C130.299 21.6458 130.37 21.7533 130.514 21.8184C130.663 21.8835 130.855 21.929 131.09 21.9551C131.331 21.9811 131.604 21.9941 131.91 21.9941C132.216 21.9941 132.529 22.0007 132.848 22.0137C133.167 22.0267 133.479 22.056 133.785 22.1016C134.091 22.1471 134.361 22.2285 134.596 22.3457C134.837 22.4564 135.029 22.6126 135.172 22.8145C135.322 23.0163 135.396 23.2832 135.396 23.6152C135.396 23.9147 135.338 24.1882 135.221 24.4355C135.104 24.6829 134.947 24.9043 134.752 25.0996C134.557 25.3014 134.329 25.474 134.068 25.6172C133.814 25.7604 133.548 25.8809 133.268 25.9785C132.988 26.0762 132.704 26.1478 132.418 26.1934C132.138 26.2389 131.871 26.2617 131.617 26.2617C131.493 26.2617 131.331 26.2487 131.129 26.2227C130.934 26.2031 130.725 26.1673 130.504 26.1152C130.289 26.0697 130.071 26.0078 129.85 25.9297C129.628 25.8581 129.43 25.7702 129.254 25.666C129.078 25.5618 128.935 25.4414 128.824 25.3047C128.714 25.1745 128.658 25.0247 128.658 24.8555C128.658 24.7188 128.71 24.556 128.814 24.3672C128.925 24.1849 129.052 24.0026 129.195 23.8203C129.345 23.6445 129.495 23.4753 129.645 23.3125C129.801 23.1562 129.924 23.0326 130.016 22.9414C129.951 22.9023 129.879 22.8535 129.801 22.7949C129.723 22.7363 129.648 22.6712 129.576 22.5996C129.505 22.528 129.443 22.4531 129.391 22.375C129.345 22.2904 129.322 22.2057 129.322 22.1211C129.322 21.9844 129.365 21.8411 129.449 21.6914C129.534 21.5352 129.638 21.3854 129.762 21.2422C129.885 21.099 130.012 20.9655 130.143 20.8418C130.279 20.7181 130.396 20.6172 130.494 20.5391C130.299 20.4479 130.12 20.3307 129.957 20.1875C129.801 20.0443 129.667 19.8848 129.557 19.709C129.446 19.5267 129.361 19.3346 129.303 19.1328C129.244 18.9245 129.215 18.7129 129.215 18.498C129.215 18.1204 129.286 17.7819 129.43 17.4824C129.579 17.1764 129.778 16.9193 130.025 16.7109C130.273 16.5026 130.556 16.3431 130.875 16.2324C131.201 16.1152 131.542 16.0566 131.9 16.0566C132.115 16.0566 132.324 16.0859 132.525 16.1445C132.734 16.1966 132.939 16.2552 133.141 16.3203C133.342 16.3854 133.544 16.4473 133.746 16.5059C133.948 16.5579 134.153 16.584 134.361 16.584C134.492 16.584 134.622 16.5775 134.752 16.5645C134.882 16.5449 135.012 16.5352 135.143 16.5352C135.273 16.5352 135.361 16.5482 135.406 16.5742C135.452 16.6003 135.475 16.6947 135.475 16.8574ZM133.238 18.7422C133.238 18.5143 133.215 18.2669 133.17 18C133.131 17.7266 133.056 17.4727 132.945 17.2383C132.835 17.0039 132.685 16.8086 132.496 16.6523C132.307 16.4961 132.07 16.418 131.783 16.418C131.536 16.418 131.327 16.4733 131.158 16.584C130.995 16.6882 130.865 16.8249 130.768 16.9941C130.67 17.1569 130.598 17.3424 130.553 17.5508C130.514 17.7591 130.494 17.9674 130.494 18.1758C130.494 18.4102 130.514 18.6608 130.553 18.9277C130.598 19.1947 130.676 19.4421 130.787 19.6699C130.904 19.8978 131.057 20.0866 131.246 20.2363C131.441 20.3861 131.686 20.4609 131.979 20.4609C132.232 20.4609 132.441 20.4121 132.604 20.3145C132.766 20.2168 132.893 20.0866 132.984 19.9238C133.082 19.7611 133.147 19.5788 133.18 19.377C133.219 19.1686 133.238 18.957 133.238 18.7422ZM134.859 23.8984C134.859 23.8008 134.837 23.7161 134.791 23.6445C134.752 23.5729 134.697 23.5111 134.625 23.459C134.56 23.4134 134.482 23.3743 134.391 23.3418C134.306 23.3092 134.221 23.2832 134.137 23.2637C133.948 23.2181 133.691 23.1823 133.365 23.1562C133.04 23.1302 132.695 23.1074 132.33 23.0879C131.972 23.0749 131.62 23.0618 131.275 23.0488C130.93 23.0358 130.644 23.0195 130.416 23C130.351 23.0781 130.276 23.166 130.191 23.2637C130.113 23.3678 130.038 23.4753 129.967 23.5859C129.895 23.7031 129.837 23.8203 129.791 23.9375C129.745 24.0612 129.723 24.1816 129.723 24.2988C129.723 24.4486 129.771 24.5788 129.869 24.6895C129.967 24.8001 130.09 24.8945 130.24 24.9727C130.396 25.0508 130.569 25.1159 130.758 25.168C130.953 25.2201 131.145 25.2591 131.334 25.2852C131.523 25.3177 131.702 25.3372 131.871 25.3438C132.04 25.3568 132.177 25.3633 132.281 25.3633C132.503 25.3633 132.76 25.3405 133.053 25.2949C133.352 25.2559 133.635 25.181 133.902 25.0703C134.169 24.9596 134.394 24.8099 134.576 24.6211C134.765 24.4323 134.859 24.1914 134.859 23.8984ZM139.898 23V22.7168C140.12 22.7168 140.299 22.7005 140.436 22.668C140.579 22.6354 140.689 22.5801 140.768 22.502C140.852 22.4173 140.908 22.3066 140.934 22.1699C140.966 22.0267 140.982 21.8444 140.982 21.623V18.9766C140.982 18.7682 140.979 18.5469 140.973 18.3125C140.966 18.0781 140.93 17.8633 140.865 17.668C140.8 17.4661 140.693 17.3001 140.543 17.1699C140.393 17.0332 140.178 16.9648 139.898 16.9648C139.729 16.9648 139.566 16.9941 139.41 17.0527C139.254 17.1048 139.104 17.1764 138.961 17.2676C138.818 17.3522 138.684 17.4531 138.561 17.5703C138.437 17.6875 138.323 17.8047 138.219 17.9219V21.623C138.219 21.8444 138.229 22.0267 138.248 22.1699C138.274 22.3132 138.326 22.4271 138.404 22.5117C138.482 22.5898 138.59 22.6452 138.727 22.6777C138.87 22.7038 139.059 22.7168 139.293 22.7168V23H135.953V22.7168C136.168 22.7168 136.344 22.7005 136.48 22.668C136.617 22.6289 136.725 22.5671 136.803 22.4824C136.881 22.3913 136.933 22.2773 136.959 22.1406C136.985 21.9974 136.998 21.8249 136.998 21.623V14.5039C136.998 14.4258 136.992 14.3281 136.979 14.2109C136.972 14.0938 136.952 13.9831 136.92 13.8789C136.887 13.7682 136.839 13.6738 136.773 13.5957C136.708 13.5176 136.617 13.4785 136.5 13.4785C136.409 13.4785 136.318 13.4915 136.227 13.5176C136.135 13.5371 136.044 13.5632 135.953 13.5957L135.836 13.3418L137.877 12.541H138.219V17.4629C138.349 17.2676 138.492 17.0853 138.648 16.916C138.805 16.7402 138.974 16.5905 139.156 16.4668C139.345 16.3366 139.547 16.2357 139.762 16.1641C139.983 16.0924 140.214 16.0566 140.455 16.0566C140.885 16.0566 141.217 16.1576 141.451 16.3594C141.692 16.5547 141.868 16.8021 141.979 17.1016C142.096 17.401 142.164 17.7298 142.184 18.0879C142.21 18.446 142.223 18.7845 142.223 19.1035V21.623C142.223 21.8249 142.232 21.9974 142.252 22.1406C142.278 22.2773 142.327 22.3913 142.398 22.4824C142.47 22.5671 142.571 22.6289 142.701 22.668C142.831 22.7005 143.004 22.7168 143.219 22.7168V23H139.898ZM147.496 21.7598C147.444 21.9421 147.366 22.1211 147.262 22.2969C147.158 22.4727 147.031 22.6289 146.881 22.7656C146.738 22.9023 146.575 23.013 146.393 23.0977C146.217 23.1823 146.025 23.2246 145.816 23.2246C145.556 23.2246 145.338 23.1725 145.162 23.0684C144.993 22.9707 144.856 22.8405 144.752 22.6777C144.648 22.5085 144.576 22.3164 144.537 22.1016C144.498 21.8867 144.479 21.6654 144.479 21.4375V16.7598H143.414V16.5352C143.668 16.4375 143.899 16.2975 144.107 16.1152C144.322 15.9329 144.514 15.7279 144.684 15.5C144.859 15.2656 145.012 15.0215 145.143 14.7676C145.279 14.5137 145.396 14.2695 145.494 14.0352H145.719V16.2617H147.301V16.7598H145.719V21.2617C145.719 21.3724 145.725 21.4928 145.738 21.623C145.758 21.7533 145.79 21.877 145.836 21.9941C145.882 22.1048 145.947 22.1992 146.031 22.2773C146.122 22.349 146.236 22.3848 146.373 22.3848C146.594 22.3848 146.77 22.3294 146.9 22.2188C147.031 22.1016 147.135 21.9486 147.213 21.7598H147.496ZM152.838 21.3008C152.838 21.5938 152.77 21.8574 152.633 22.0918C152.496 22.3262 152.32 22.528 152.105 22.6973C151.891 22.8665 151.646 22.9967 151.373 23.0879C151.106 23.179 150.839 23.2246 150.572 23.2246C150.416 23.2246 150.253 23.1986 150.084 23.1465C149.921 23.1009 149.762 23.0488 149.605 22.9902C149.449 22.9316 149.299 22.8796 149.156 22.834C149.02 22.7819 148.893 22.7559 148.775 22.7559C148.749 22.7559 148.72 22.7721 148.688 22.8047C148.661 22.8307 148.635 22.8633 148.609 22.9023C148.59 22.9349 148.57 22.9707 148.551 23.0098C148.538 23.0488 148.525 23.0781 148.512 23.0977H148.258V20.6953H148.512C148.564 20.9622 148.645 21.2194 148.756 21.4668C148.867 21.7142 149.007 21.9355 149.176 22.1309C149.352 22.3197 149.553 22.4727 149.781 22.5898C150.016 22.7005 150.279 22.7559 150.572 22.7559C150.722 22.7559 150.865 22.7363 151.002 22.6973C151.145 22.6517 151.269 22.5866 151.373 22.502C151.484 22.4173 151.572 22.3132 151.637 22.1895C151.702 22.0658 151.734 21.9225 151.734 21.7598C151.734 21.4473 151.646 21.1868 151.471 20.9785C151.301 20.7637 151.087 20.5749 150.826 20.4121C150.566 20.2493 150.286 20.0964 149.986 19.9531C149.687 19.8034 149.407 19.6374 149.146 19.4551C148.886 19.2663 148.668 19.0482 148.492 18.8008C148.323 18.5469 148.238 18.2344 148.238 17.8633C148.238 17.5508 148.3 17.2839 148.424 17.0625C148.548 16.8346 148.71 16.6458 148.912 16.4961C149.114 16.3464 149.345 16.2357 149.605 16.1641C149.872 16.0924 150.143 16.0566 150.416 16.0566C150.546 16.0566 150.673 16.0697 150.797 16.0957C150.921 16.1217 151.044 16.1543 151.168 16.1934C151.292 16.2259 151.412 16.2552 151.529 16.2812C151.653 16.3073 151.777 16.3203 151.9 16.3203C151.979 16.3203 152.04 16.2943 152.086 16.2422C152.138 16.1901 152.18 16.1283 152.213 16.0566H152.477V18.3613H152.213C152.161 18.1204 152.086 17.8893 151.988 17.668C151.897 17.4401 151.78 17.2383 151.637 17.0625C151.493 16.8867 151.318 16.7467 151.109 16.6426C150.908 16.5319 150.67 16.4766 150.396 16.4766C150.253 16.4766 150.104 16.4896 149.947 16.5156C149.798 16.5417 149.658 16.5872 149.527 16.6523C149.404 16.7174 149.299 16.8086 149.215 16.9258C149.137 17.043 149.098 17.196 149.098 17.3848C149.098 17.7103 149.189 17.9772 149.371 18.1855C149.56 18.3874 149.791 18.5664 150.064 18.7227C150.344 18.8724 150.644 19.0156 150.963 19.1523C151.288 19.2891 151.588 19.4486 151.861 19.6309C152.141 19.8066 152.372 20.028 152.555 20.2949C152.743 20.5553 152.838 20.8906 152.838 21.3008ZM163.062 16.877C163.062 17.0592 162.994 17.2188 162.857 17.3555C162.727 17.4922 162.571 17.5605 162.389 17.5605C162.278 17.5605 162.174 17.5345 162.076 17.4824C161.985 17.4238 161.894 17.3652 161.803 17.3066C161.718 17.2415 161.637 17.1829 161.559 17.1309C161.487 17.0723 161.415 17.043 161.344 17.043C161.246 17.043 161.145 17.0918 161.041 17.1895C160.943 17.2806 160.849 17.3913 160.758 17.5215C160.673 17.6452 160.595 17.7689 160.523 17.8926C160.452 18.0163 160.4 18.1107 160.367 18.1758V21.4375C160.367 21.8672 160.449 22.1895 160.611 22.4043C160.774 22.6126 161.087 22.7168 161.549 22.7168V23H158.062V22.7168C158.316 22.7168 158.512 22.6973 158.648 22.6582C158.792 22.6191 158.899 22.5508 158.971 22.4531C159.042 22.3555 159.085 22.2285 159.098 22.0723C159.117 21.9095 159.127 21.7109 159.127 21.4766V18.7617C159.127 18.6836 159.124 18.5664 159.117 18.4102C159.117 18.2539 159.111 18.0911 159.098 17.9219C159.085 17.7526 159.062 17.5931 159.029 17.4434C159.003 17.2936 158.961 17.1862 158.902 17.1211C158.798 17.069 158.671 17.043 158.521 17.043C158.378 17.043 158.225 17.0755 158.062 17.1406L157.984 16.877L160.064 16.0566H160.367V17.5801C160.452 17.4238 160.553 17.2578 160.67 17.082C160.787 16.9062 160.917 16.7435 161.061 16.5938C161.21 16.4375 161.37 16.3105 161.539 16.2129C161.715 16.1087 161.904 16.0566 162.105 16.0566C162.223 16.0566 162.34 16.0762 162.457 16.1152C162.574 16.1478 162.675 16.1999 162.76 16.2715C162.851 16.3431 162.923 16.431 162.975 16.5352C163.033 16.6328 163.062 16.7467 163.062 16.877ZM169.342 20.5391C169.296 20.8906 169.195 21.2292 169.039 21.5547C168.883 21.8737 168.684 22.1569 168.443 22.4043C168.202 22.6517 167.923 22.8503 167.604 23C167.291 23.1497 166.949 23.2246 166.578 23.2246C166.096 23.2246 165.67 23.1237 165.299 22.9219C164.934 22.7201 164.628 22.4531 164.381 22.1211C164.133 21.7891 163.948 21.4115 163.824 20.9883C163.701 20.5651 163.639 20.1354 163.639 19.6992C163.639 19.2109 163.701 18.7487 163.824 18.3125C163.954 17.8698 164.146 17.4824 164.4 17.1504C164.661 16.8184 164.986 16.5547 165.377 16.3594C165.774 16.1576 166.236 16.0566 166.764 16.0566C167.167 16.0566 167.529 16.125 167.848 16.2617C168.167 16.3984 168.437 16.5905 168.658 16.8379C168.88 17.0788 169.049 17.3685 169.166 17.707C169.283 18.0391 169.342 18.4036 169.342 18.8008H164.684C164.684 19.1654 164.732 19.5365 164.83 19.9141C164.928 20.2917 165.077 20.6367 165.279 20.9492C165.481 21.2552 165.735 21.5091 166.041 21.7109C166.354 21.9062 166.721 22.0039 167.145 22.0039C167.405 22.0039 167.636 21.9648 167.838 21.8867C168.046 21.8021 168.229 21.6882 168.385 21.5449C168.548 21.3952 168.688 21.2227 168.805 21.0273C168.928 20.8255 169.033 20.6107 169.117 20.3828L169.342 20.5391ZM167.799 18.3809C167.799 18.153 167.77 17.9316 167.711 17.7168C167.659 17.502 167.571 17.3132 167.447 17.1504C167.33 16.9811 167.18 16.8444 166.998 16.7402C166.816 16.6361 166.598 16.584 166.344 16.584C166.09 16.584 165.865 16.6361 165.67 16.7402C165.475 16.8379 165.305 16.9714 165.162 17.1406C165.025 17.3034 164.915 17.4954 164.83 17.7168C164.752 17.9316 164.703 18.153 164.684 18.3809H167.799ZM175.123 21.3008C175.123 21.5938 175.055 21.8574 174.918 22.0918C174.781 22.3262 174.605 22.528 174.391 22.6973C174.176 22.8665 173.932 22.9967 173.658 23.0879C173.391 23.179 173.124 23.2246 172.857 23.2246C172.701 23.2246 172.538 23.1986 172.369 23.1465C172.206 23.1009 172.047 23.0488 171.891 22.9902C171.734 22.9316 171.585 22.8796 171.441 22.834C171.305 22.7819 171.178 22.7559 171.061 22.7559C171.035 22.7559 171.005 22.7721 170.973 22.8047C170.947 22.8307 170.921 22.8633 170.895 22.9023C170.875 22.9349 170.855 22.9707 170.836 23.0098C170.823 23.0488 170.81 23.0781 170.797 23.0977H170.543V20.6953H170.797C170.849 20.9622 170.93 21.2194 171.041 21.4668C171.152 21.7142 171.292 21.9355 171.461 22.1309C171.637 22.3197 171.839 22.4727 172.066 22.5898C172.301 22.7005 172.564 22.7559 172.857 22.7559C173.007 22.7559 173.15 22.7363 173.287 22.6973C173.43 22.6517 173.554 22.5866 173.658 22.502C173.769 22.4173 173.857 22.3132 173.922 22.1895C173.987 22.0658 174.02 21.9225 174.02 21.7598C174.02 21.4473 173.932 21.1868 173.756 20.9785C173.587 20.7637 173.372 20.5749 173.111 20.4121C172.851 20.2493 172.571 20.0964 172.271 19.9531C171.972 19.8034 171.692 19.6374 171.432 19.4551C171.171 19.2663 170.953 19.0482 170.777 18.8008C170.608 18.5469 170.523 18.2344 170.523 17.8633C170.523 17.5508 170.585 17.2839 170.709 17.0625C170.833 16.8346 170.995 16.6458 171.197 16.4961C171.399 16.3464 171.63 16.2357 171.891 16.1641C172.158 16.0924 172.428 16.0566 172.701 16.0566C172.831 16.0566 172.958 16.0697 173.082 16.0957C173.206 16.1217 173.329 16.1543 173.453 16.1934C173.577 16.2259 173.697 16.2552 173.814 16.2812C173.938 16.3073 174.062 16.3203 174.186 16.3203C174.264 16.3203 174.326 16.2943 174.371 16.2422C174.423 16.1901 174.465 16.1283 174.498 16.0566H174.762V18.3613H174.498C174.446 18.1204 174.371 17.8893 174.273 17.668C174.182 17.4401 174.065 17.2383 173.922 17.0625C173.779 16.8867 173.603 16.7467 173.395 16.6426C173.193 16.5319 172.955 16.4766 172.682 16.4766C172.538 16.4766 172.389 16.4896 172.232 16.5156C172.083 16.5417 171.943 16.5872 171.812 16.6523C171.689 16.7174 171.585 16.8086 171.5 16.9258C171.422 17.043 171.383 17.196 171.383 17.3848C171.383 17.7103 171.474 17.9772 171.656 18.1855C171.845 18.3874 172.076 18.5664 172.35 18.7227C172.63 18.8724 172.929 19.0156 173.248 19.1523C173.574 19.2891 173.873 19.4486 174.146 19.6309C174.426 19.8066 174.658 20.028 174.84 20.2949C175.029 20.5553 175.123 20.8906 175.123 21.3008ZM181.92 20.5391C181.874 20.8906 181.773 21.2292 181.617 21.5547C181.461 21.8737 181.262 22.1569 181.021 22.4043C180.781 22.6517 180.501 22.8503 180.182 23C179.869 23.1497 179.527 23.2246 179.156 23.2246C178.674 23.2246 178.248 23.1237 177.877 22.9219C177.512 22.7201 177.206 22.4531 176.959 22.1211C176.712 21.7891 176.526 21.4115 176.402 20.9883C176.279 20.5651 176.217 20.1354 176.217 19.6992C176.217 19.2109 176.279 18.7487 176.402 18.3125C176.533 17.8698 176.725 17.4824 176.979 17.1504C177.239 16.8184 177.564 16.5547 177.955 16.3594C178.352 16.1576 178.814 16.0566 179.342 16.0566C179.745 16.0566 180.107 16.125 180.426 16.2617C180.745 16.3984 181.015 16.5905 181.236 16.8379C181.458 17.0788 181.627 17.3685 181.744 17.707C181.861 18.0391 181.92 18.4036 181.92 18.8008H177.262C177.262 19.1654 177.311 19.5365 177.408 19.9141C177.506 20.2917 177.656 20.6367 177.857 20.9492C178.059 21.2552 178.313 21.5091 178.619 21.7109C178.932 21.9062 179.299 22.0039 179.723 22.0039C179.983 22.0039 180.214 21.9648 180.416 21.8867C180.624 21.8021 180.807 21.6882 180.963 21.5449C181.126 21.3952 181.266 21.2227 181.383 21.0273C181.507 20.8255 181.611 20.6107 181.695 20.3828L181.92 20.5391ZM180.377 18.3809C180.377 18.153 180.348 17.9316 180.289 17.7168C180.237 17.502 180.149 17.3132 180.025 17.1504C179.908 16.9811 179.758 16.8444 179.576 16.7402C179.394 16.6361 179.176 16.584 178.922 16.584C178.668 16.584 178.443 16.6361 178.248 16.7402C178.053 16.8379 177.883 16.9714 177.74 17.1406C177.604 17.3034 177.493 17.4954 177.408 17.7168C177.33 17.9316 177.281 18.153 177.262 18.3809H180.377ZM187.496 16.877C187.496 17.0592 187.428 17.2188 187.291 17.3555C187.161 17.4922 187.005 17.5605 186.822 17.5605C186.712 17.5605 186.607 17.5345 186.51 17.4824C186.419 17.4238 186.327 17.3652 186.236 17.3066C186.152 17.2415 186.07 17.1829 185.992 17.1309C185.921 17.0723 185.849 17.043 185.777 17.043C185.68 17.043 185.579 17.0918 185.475 17.1895C185.377 17.2806 185.283 17.3913 185.191 17.5215C185.107 17.6452 185.029 17.7689 184.957 17.8926C184.885 18.0163 184.833 18.1107 184.801 18.1758V21.4375C184.801 21.8672 184.882 22.1895 185.045 22.4043C185.208 22.6126 185.52 22.7168 185.982 22.7168V23H182.496V22.7168C182.75 22.7168 182.945 22.6973 183.082 22.6582C183.225 22.6191 183.333 22.5508 183.404 22.4531C183.476 22.3555 183.518 22.2285 183.531 22.0723C183.551 21.9095 183.561 21.7109 183.561 21.4766V18.7617C183.561 18.6836 183.557 18.5664 183.551 18.4102C183.551 18.2539 183.544 18.0911 183.531 17.9219C183.518 17.7526 183.495 17.5931 183.463 17.4434C183.437 17.2936 183.395 17.1862 183.336 17.1211C183.232 17.069 183.105 17.043 182.955 17.043C182.812 17.043 182.659 17.0755 182.496 17.1406L182.418 16.877L184.498 16.0566H184.801V17.5801C184.885 17.4238 184.986 17.2578 185.104 17.082C185.221 16.9062 185.351 16.7435 185.494 16.5938C185.644 16.4375 185.803 16.3105 185.973 16.2129C186.148 16.1087 186.337 16.0566 186.539 16.0566C186.656 16.0566 186.773 16.0762 186.891 16.1152C187.008 16.1478 187.109 16.1999 187.193 16.2715C187.285 16.3431 187.356 16.431 187.408 16.5352C187.467 16.6328 187.496 16.7467 187.496 16.877ZM194.918 16.5352C194.762 16.5417 194.632 16.5677 194.527 16.6133C194.423 16.6523 194.335 16.7109 194.264 16.7891C194.192 16.8607 194.13 16.9518 194.078 17.0625C194.026 17.1667 193.971 17.2871 193.912 17.4238L191.539 23.2246H191.236L188.814 17.502C188.743 17.3392 188.671 17.2025 188.6 17.0918C188.535 16.9811 188.456 16.89 188.365 16.8184C188.281 16.7467 188.18 16.6882 188.062 16.6426C187.945 16.597 187.802 16.5612 187.633 16.5352V16.2617H190.816V16.5352C190.712 16.5352 190.611 16.5384 190.514 16.5449C190.416 16.5514 190.331 16.571 190.26 16.6035C190.188 16.6361 190.13 16.6882 190.084 16.7598C190.038 16.8314 190.016 16.9323 190.016 17.0625C190.016 17.1732 190.032 17.2773 190.064 17.375C190.097 17.4727 190.133 17.5671 190.172 17.6582L191.734 21.3789L193.316 17.502C193.355 17.4108 193.391 17.3132 193.424 17.209C193.456 17.0983 193.473 16.9876 193.473 16.877C193.473 16.7858 193.447 16.7174 193.395 16.6719C193.342 16.6263 193.277 16.5938 193.199 16.5742C193.121 16.5547 193.036 16.5449 192.945 16.5449C192.861 16.5384 192.783 16.5352 192.711 16.5352V16.2617H194.918V16.5352ZM201.314 20.5391C201.269 20.8906 201.168 21.2292 201.012 21.5547C200.855 21.8737 200.657 22.1569 200.416 22.4043C200.175 22.6517 199.895 22.8503 199.576 23C199.264 23.1497 198.922 23.2246 198.551 23.2246C198.069 23.2246 197.643 23.1237 197.271 22.9219C196.907 22.7201 196.601 22.4531 196.354 22.1211C196.106 21.7891 195.921 21.4115 195.797 20.9883C195.673 20.5651 195.611 20.1354 195.611 19.6992C195.611 19.2109 195.673 18.7487 195.797 18.3125C195.927 17.8698 196.119 17.4824 196.373 17.1504C196.633 16.8184 196.959 16.5547 197.35 16.3594C197.747 16.1576 198.209 16.0566 198.736 16.0566C199.14 16.0566 199.501 16.125 199.82 16.2617C200.139 16.3984 200.41 16.5905 200.631 16.8379C200.852 17.0788 201.021 17.3685 201.139 17.707C201.256 18.0391 201.314 18.4036 201.314 18.8008H196.656C196.656 19.1654 196.705 19.5365 196.803 19.9141C196.9 20.2917 197.05 20.6367 197.252 20.9492C197.454 21.2552 197.708 21.5091 198.014 21.7109C198.326 21.9062 198.694 22.0039 199.117 22.0039C199.378 22.0039 199.609 21.9648 199.811 21.8867C200.019 21.8021 200.201 21.6882 200.357 21.5449C200.52 21.3952 200.66 21.2227 200.777 21.0273C200.901 20.8255 201.005 20.6107 201.09 20.3828L201.314 20.5391ZM199.771 18.3809C199.771 18.153 199.742 17.9316 199.684 17.7168C199.632 17.502 199.544 17.3132 199.42 17.1504C199.303 16.9811 199.153 16.8444 198.971 16.7402C198.788 16.6361 198.57 16.584 198.316 16.584C198.062 16.584 197.838 16.6361 197.643 16.7402C197.447 16.8379 197.278 16.9714 197.135 17.1406C196.998 17.3034 196.887 17.4954 196.803 17.7168C196.725 17.9316 196.676 18.153 196.656 18.3809H199.771ZM207.311 23.2246H206.998V22.2383C206.725 22.5247 206.422 22.7624 206.09 22.9512C205.764 23.1335 205.406 23.2246 205.016 23.2246C204.579 23.2246 204.189 23.127 203.844 22.9316C203.499 22.7363 203.209 22.4824 202.975 22.1699C202.74 21.8509 202.561 21.4961 202.438 21.1055C202.314 20.7083 202.252 20.3145 202.252 19.9238C202.252 19.4551 202.327 18.9928 202.477 18.5371C202.626 18.0749 202.841 17.6615 203.121 17.2969C203.408 16.9258 203.753 16.6263 204.156 16.3984C204.566 16.1706 205.025 16.0566 205.533 16.0566C205.807 16.0566 206.067 16.1022 206.314 16.1934C206.568 16.278 206.796 16.4212 206.998 16.623V15.2168C206.998 15.1126 207.001 14.9661 207.008 14.7773C207.014 14.582 207.005 14.39 206.979 14.2012C206.959 14.0124 206.91 13.8496 206.832 13.7129C206.76 13.5697 206.64 13.498 206.471 13.498C206.38 13.498 206.292 13.5078 206.207 13.5273C206.129 13.5404 206.044 13.5632 205.953 13.5957L205.855 13.3418L207.896 12.541H208.219V20.3438C208.219 20.4154 208.215 20.513 208.209 20.6367C208.202 20.7604 208.199 20.8939 208.199 21.0371C208.199 21.1738 208.206 21.3138 208.219 21.457C208.232 21.6003 208.258 21.7305 208.297 21.8477C208.336 21.9648 208.391 22.0592 208.463 22.1309C208.541 22.2025 208.639 22.2383 208.756 22.2383C208.834 22.2383 208.915 22.2285 209 22.209C209.091 22.1829 209.182 22.1536 209.273 22.1211L209.352 22.3848L207.311 23.2246ZM206.998 18.2441C206.998 18.0358 206.959 17.8275 206.881 17.6191C206.803 17.4108 206.692 17.2253 206.549 17.0625C206.412 16.8932 206.249 16.7565 206.061 16.6523C205.872 16.5482 205.663 16.4961 205.436 16.4961C205.084 16.4961 204.791 16.5905 204.557 16.7793C204.322 16.9681 204.133 17.2057 203.99 17.4922C203.854 17.7721 203.756 18.0781 203.697 18.4102C203.639 18.7357 203.609 19.0384 203.609 19.3184C203.609 19.6309 203.645 19.9661 203.717 20.3242C203.788 20.6823 203.902 21.0176 204.059 21.3301C204.221 21.6361 204.433 21.8932 204.693 22.1016C204.96 22.3034 205.286 22.4043 205.67 22.4043C205.937 22.4043 206.181 22.3392 206.402 22.209C206.63 22.0723 206.829 21.9095 206.998 21.7207V18.2441ZM212.857 22.3555C212.857 22.6029 212.773 22.8112 212.604 22.9805C212.441 23.1432 212.236 23.2246 211.988 23.2246C211.871 23.2246 211.76 23.2018 211.656 23.1562C211.559 23.1107 211.471 23.0488 211.393 22.9707C211.321 22.8926 211.262 22.8014 211.217 22.6973C211.171 22.5931 211.148 22.4792 211.148 22.3555C211.148 22.2383 211.171 22.1309 211.217 22.0332C211.262 21.929 211.321 21.8411 211.393 21.7695C211.471 21.6914 211.559 21.6296 211.656 21.584C211.76 21.5384 211.871 21.5156 211.988 21.5156C212.112 21.5156 212.226 21.5384 212.33 21.584C212.434 21.6296 212.525 21.6914 212.604 21.7695C212.682 21.8411 212.743 21.929 212.789 22.0332C212.835 22.1309 212.857 22.2383 212.857 22.3555Z" fill="#888888"/>
</svg>
