<svg preserveAspectRatio="none" overflow="visible" style="display: block;" width="20" height="20" viewBox="0 0 20 20" fill="none" xmlns="http://www.w3.org/2000/svg">
<g id="Group">
<path id="Vector" d="M10 0C7.28417 0 6.94362 0.0115215 5.877 0.0601678C4.81262 0.108725 4.08569 0.277796 3.4496 0.524957C2.79201 0.780514 2.23434 1.12247 1.67842 1.67839C1.12247 2.23431 0.780514 2.79204 0.524987 3.44963C0.277766 4.08569 0.108755 4.81262 0.060138 5.877C0.0114917 6.94362 0 7.28417 0 10C0 12.7158 0.0114917 13.0564 0.060138 14.123C0.108755 15.1874 0.277766 15.9143 0.524987 16.5504C0.780544 17.208 1.1225 17.7656 1.67842 18.3216C2.23437 18.8775 2.79201 19.2195 3.4496 19.475C4.08569 19.7222 4.81262 19.8912 5.877 19.9398C6.94362 19.9885 7.28417 20 10 20C12.7158 20 13.0564 19.9885 14.123 19.9398C15.1874 19.8913 15.9143 19.7222 16.5504 19.475C17.208 19.2195 17.7656 18.8775 18.3216 18.3216C18.8775 17.7656 19.2195 17.208 19.475 16.5504C19.7222 15.9143 19.8913 15.1874 19.9398 14.123C19.9885 13.0564 20 12.7158 20 10C20 7.28417 19.9885 6.94362 19.9398 5.877C19.8913 4.81262 19.7222 4.08569 19.475 3.44963C19.2195 2.79204 18.8775 2.23431 18.3216 1.67839C17.7656 1.12247 17.208 0.780514 16.5504 0.524957C15.9143 0.277796 15.1874 0.108725 14.123 0.0601678C13.0564 0.0115215 12.7158 0 10 0ZM10 1.80179C12.6701 1.80179 12.9864 1.812 14.0409 1.86011C15.0159 1.90456 15.5454 2.06747 15.8977 2.20442C16.3645 2.38584 16.6976 2.60252 17.0475 2.95245C17.3975 3.30238 17.6142 3.63552 17.7956 4.10228C17.9325 4.45465 18.0954 4.98416 18.1399 5.95914C18.188 7.01361 18.1982 7.3299 18.1982 10C18.1982 12.6701 18.188 12.9864 18.1399 14.0409C18.0954 15.0159 17.9325 15.5454 17.7956 15.8977C17.6142 16.3645 17.3975 16.6976 17.0475 17.0475C16.6976 17.3975 16.3645 17.6142 15.8977 17.7956C15.5453 17.9325 15.0158 18.0954 14.0409 18.1399C12.9866 18.188 12.6703 18.1982 10 18.1982C7.32969 18.1982 7.01349 18.188 5.95914 18.1399C4.98413 18.0954 4.45465 17.9325 4.10231 17.7956C3.63549 17.6142 3.30238 17.3975 2.95248 17.0475C2.60255 16.6976 2.38584 16.3645 2.20442 15.8977C2.06747 15.5453 1.90459 15.0158 1.86011 14.0409C1.812 12.9864 1.80179 12.6701 1.80179 10C1.80179 7.3299 1.812 7.01361 1.86011 5.95914C1.90459 4.98413 2.06747 4.45465 2.20442 4.10231C2.38584 3.63549 2.60255 3.30238 2.95245 2.95248C3.30238 2.60252 3.63552 2.38584 4.10228 2.20442C4.45465 2.06747 4.98416 1.90456 5.95914 1.86011C7.01361 1.812 7.3299 1.80179 10 1.80179" fill="#8B95A1"/>
<path id="Vector_2" d="M10 13.3333C8.15903 13.3333 6.66666 11.841 6.66666 10C6.66666 8.15902 8.15903 6.66665 10 6.66665C11.841 6.66665 13.3333 8.15902 13.3333 10C13.3333 11.841 11.841 13.3333 10 13.3333ZM10 4.86486C7.16393 4.86486 4.86487 7.16392 4.86487 10C4.86487 12.8361 7.16393 15.1351 10 15.1351C12.8361 15.1351 15.1351 12.8361 15.1351 10C15.1351 7.16392 12.8361 4.86486 10 4.86486V4.86486ZM16.538 4.66197C16.538 5.32474 16.0008 5.86196 15.338 5.86196C14.6753 5.86196 14.138 5.32474 14.138 4.66197C14.138 3.99923 14.6753 3.46195 15.338 3.46195C16.0008 3.46195 16.538 3.99923 16.538 4.66197" fill="#8B95A1"/>
</g>
</svg>
