<svg width="429" height="74" viewBox="0 0 429 74" fill="none" xmlns="http://www.w3.org/2000/svg">
<g clip-path="url(#clip0_179_4910)">
<path opacity="0.1" d="M128.984 71.736C101.906 70.0782 75.4021 64.0899 50.7825 54.067C40.7212 49.9764 30.3301 46.5404 19.6936 43.787H19.6799C13.2533 42.1345 6.73097 40.7829 0.140564 39.738L0.140564 -1H427.859V52.593C423.604 50.375 419.328 48.306 415.03 46.419C414.748 46.292 414.46 46.168 414.166 46.033C403.695 41.3551 392.534 37.9744 381.003 35.988C345.328 30.262 304.998 42.223 260.18 53.909C224.708 63.157 186.432 72.234 145.424 72.235C139.989 72.235 134.509 72.0687 128.984 71.736Z" fill="#1963F3"/>
<path opacity="0.05" d="M427.859 -1.00082V39.7342C421.268 40.7805 414.745 42.1338 408.318 43.7882H408.304C397.668 46.5409 387.278 49.9765 377.217 54.0672C299.257 85.4572 229.316 69.9432 167.825 53.9102C123.003 42.2242 82.6732 30.2622 46.998 35.9872C35.4668 37.9743 24.306 41.3555 13.8356 46.0342C13.5424 46.1682 13.2527 46.2922 12.971 46.4192C8.67215 48.3062 4.39612 50.3762 0.141724 52.5932V-1.00082L427.859 -1.00082Z" fill="#1963F3"/>
</g>
<defs>
<clipPath id="clip0_179_4910">
<rect width="427.719" height="73.234" fill="white" transform="translate(0.140564 -1)"/>
</clipPath>
</defs>
</svg>
