<svg width="15" height="8" viewBox="0 0 15 8" fill="none" xmlns="http://www.w3.org/2000/svg">
    <path d="M7.29759 6.63277L13.6626 0.166093C13.7138 0.112852 13.7747 0.0707603 13.8417 0.042254C13.9087 0.0137477 13.9804 -0.000607464 14.0528 1.9574e-05C14.1251 0.000647089 14.1966 0.0162444 14.2631 0.0459085C14.3296 0.0755725 14.3898 0.118714 14.4403 0.172838C14.4907 0.226962 14.5303 0.290992 14.5569 0.361224C14.5835 0.431456 14.5965 0.506495 14.5951 0.581999C14.5937 0.657502 14.578 0.731971 14.5489 0.801095C14.5198 0.87022 14.4778 0.932627 14.4254 0.984707L7.67903 7.83823C7.57691 7.94196 7.44006 8 7.29759 8C7.15511 8 7.01826 7.94196 6.91614 7.83823L0.169722 0.984708C0.117346 0.932627 0.0753829 0.87022 0.0462596 0.801096C0.0171363 0.731971 0.0014321 0.657503 5.59425e-05 0.581999C-0.00132117 0.506496 0.0116564 0.431456 0.0382391 0.361224C0.0648209 0.290992 0.104478 0.226962 0.154918 0.172839C0.205357 0.118715 0.265577 0.0755731 0.332091 0.0459091C0.398605 0.016245 0.470093 0.000647685 0.542419 2.01646e-05C0.614744 -0.000606879 0.686471 0.0137483 0.753447 0.0422546C0.820424 0.0707609 0.881322 0.112852 0.932615 0.166093L7.29759 6.63277Z"
          fill="white"/>
</svg>
