<svg width="9" height="15" viewBox="0 0 9 15" fill="none" xmlns="http://www.w3.org/2000/svg">
    <path fill-rule="evenodd" clip-rule="evenodd"
          d="M0.168438 0.168438C0.221696 0.115046 0.284964 0.0726846 0.354618 0.0437812C0.424272 0.0148778 0.498945 0 0.574358 0C0.649771 0 0.724444 0.0148778 0.794098 0.0437812C0.863752 0.0726846 0.92702 0.115046 0.980278 0.168438L7.86028 7.04844C7.91367 7.1017 7.95603 7.16497 7.98494 7.23462C8.01384 7.30427 8.02872 7.37895 8.02872 7.45436C8.02872 7.52977 8.01384 7.60444 7.98494 7.6741C7.95603 7.74375 7.91367 7.80702 7.86028 7.86028L0.980278 14.7403C0.872621 14.8479 0.726608 14.9084 0.574358 14.9084C0.422109 14.9084 0.276095 14.8479 0.168438 14.7403C0.0607812 14.6326 0.000300179 14.4866 0.000300179 14.3344C0.000300179 14.1821 0.0607812 14.0361 0.168438 13.9284L6.64367 7.45436L0.168438 0.980279C0.115045 0.927021 0.0726841 0.863753 0.0437807 0.794098C0.0148773 0.724444 0 0.649772 0 0.574358C0 0.498945 0.0148773 0.424273 0.0437807 0.354618C0.0726841 0.284964 0.115045 0.221696 0.168438 0.168438Z"
          fill="#A0A0A0"/>
</svg>
