<svg width="24" height="24" viewBox="0 0 24 24" fill="none" xmlns="http://www.w3.org/2000/svg">
    <g clip-path="url(#clip0_1190_377)">
        <path d="M12.1214 20.4643L12.1184 20.4659C12.082 20.4855 12.0413 20.4958 12 20.4958C11.9587 20.4958 11.918 20.4855 11.8816 20.4659L11.8786 20.4644C11.6884 20.3636 9.18979 19.0017 6.74637 16.8619C4.27664 14.699 2.00014 11.86 2 8.81277C2.00166 7.40425 2.56193 6.05389 3.55791 5.05791C4.55389 4.06193 5.90425 3.50166 7.31277 3.5C9.10248 3.50008 10.6446 4.26723 11.6002 5.5399L12 6.07243L12.3998 5.5399C13.3554 4.26723 14.8975 3.50008 16.6872 3.5C18.0957 3.50166 19.4461 4.06193 20.4421 5.05791C21.4381 6.05396 21.9984 7.40444 22 8.81306C21.9997 11.8601 19.7233 14.6991 17.2536 16.8619C14.8102 19.0017 12.3116 20.3636 12.1214 20.4643Z"
              fill="#4071B9" stroke="white"/>
    </g>
    <defs>
        <clipPath id="clip0_1190_377">
            <rect width="24" height="24" fill="white"/>
        </clipPath>
    </defs>
</svg>
