<svg width="18" height="18" viewBox="0 0 18 18" fill="none" xmlns="http://www.w3.org/2000/svg">
    <path d="M12.1984 14.7025L7.01103 9.43188C6.89726 9.31688 6.83345 9.16165 6.83345 8.99988C6.83345 8.83811 6.89726 8.68288 7.01103 8.56788L12.1973 3.29725C12.311 3.18154 12.3747 3.0258 12.3747 2.86357C12.3747 2.70133 12.311 2.54559 12.1973 2.42988C12.1417 2.3729 12.0753 2.32762 12.002 2.2967C11.9287 2.26578 11.8499 2.24985 11.7703 2.24985C11.6908 2.24985 11.612 2.26578 11.5387 2.2967C11.4653 2.32762 11.399 2.3729 11.3434 2.42988L6.15715 7.69938C5.81636 8.04647 5.62543 8.51346 5.62543 8.99988C5.62543 9.4863 5.81636 9.95329 6.15715 10.3004L11.3434 15.5699C11.399 15.627 11.4654 15.6725 11.5389 15.7035C11.6123 15.7345 11.6912 15.7505 11.7709 15.7505C11.8506 15.7505 11.9295 15.7345 12.0029 15.7035C12.0764 15.6725 12.1428 15.627 12.1984 15.5699C12.3121 15.4542 12.3758 15.2984 12.3758 15.1362C12.3758 14.974 12.3121 14.8182 12.1984 14.7025Z"
          fill="#303030"/>
</svg>
