<svg width="22" height="18" viewBox="0 0 22 18" fill="none" xmlns="http://www.w3.org/2000/svg">
<g clip-path="url(#clip0_3_626)">
<path d="M3.25414 9.00001L9.99164 14.5125C10.2208 14.7 10.3317 14.9188 10.3244 15.1688C10.3171 15.4188 10.1985 15.6375 9.96873 15.825C9.73956 16.0125 9.4722 16.1063 9.16664 16.1063C8.86109 16.1063 8.59373 16.0125 8.36456 15.825L1.30623 10.0688C1.12289 9.91876 0.985393 9.75001 0.893726 9.56251C0.802059 9.37501 0.756226 9.18751 0.756226 9.00001C0.756226 8.81251 0.802059 8.62501 0.893726 8.43751C0.985392 8.25001 1.12289 8.08126 1.30623 7.93126L8.36456 2.15626C8.59373 1.96876 8.86506 1.87801 9.17856 1.88401C9.49206 1.89001 9.76309 1.98701 9.99164 2.17501C10.2208 2.36251 10.3354 2.58126 10.3354 2.83126C10.3354 3.08126 10.2208 3.30001 9.99164 3.48751L3.25414 9.00001Z" fill="black"/>
</g>
<defs>
<clipPath id="clip0_3_626">
<rect width="22" height="18" fill="white"/>
</clipPath>
</defs>
</svg>
