<svg width="24" height="24" viewBox="0 0 24 24" fill="none" xmlns="http://www.w3.org/2000/svg">
<g clip-path="url(#clip0_1101_229)">
<path d="M17.6933 12.0001C17.6906 11.1036 17.5945 10.2099 17.4067 9.3334H19.8067C19.6831 8.96777 19.5338 8.61133 19.36 8.26673H17.1267C16.7068 6.8641 16.0557 5.54146 15.2 4.3534C14.6533 4.12353 14.0833 3.95365 13.5 3.84673C14.6722 5.10622 15.557 6.60519 16.0933 8.24007H12.5V3.7334H11.5V8.24673H7.90667C8.44406 6.6089 9.33123 5.10753 10.5067 3.84673C9.92585 3.95187 9.35811 4.11951 8.81334 4.34673C7.95431 5.52981 7.29865 6.8479 6.87334 8.24673H4.62667C4.44972 8.59762 4.29822 8.96078 4.17334 9.3334H6.59334C6.40553 10.2099 6.30946 11.1036 6.30667 12.0001C6.30852 12.9806 6.42033 13.9578 6.64001 14.9134H4.28001C4.41793 15.2871 4.5828 15.6503 4.77334 16.0001H6.92667C7.33481 17.2773 7.93988 18.4829 8.72001 19.5734C9.27866 19.813 9.86225 19.9897 10.46 20.1001C9.37195 18.9132 8.53518 17.5186 8.00001 16.0001H11.5067V20.2267H12.5067V16.0001H16C15.463 17.5192 14.6239 18.9139 13.5333 20.1001C14.1339 19.9858 14.7198 19.8047 15.28 19.5601C16.0589 18.4737 16.6639 17.2726 17.0733 16.0001H19.2067C19.3963 15.6567 19.5612 15.3003 19.7 14.9334H17.3333C17.5635 13.9723 17.6843 12.9883 17.6933 12.0001ZM11.5 14.9134H7.67334C7.20399 13.0786 7.18341 11.1578 7.61334 9.3134H11.5V14.9134ZM16.3267 14.9134H12.5V9.3334H16.3867C16.5782 10.2092 16.6721 11.1036 16.6667 12.0001C16.6721 12.9814 16.5579 13.9597 16.3267 14.9134Z" fill="white"/>
<path d="M11.9999 1.3335C9.89026 1.3335 7.82797 1.95909 6.07384 3.13115C4.31972 4.30322 2.95254 5.96913 2.14521 7.91821C1.33787 9.86728 1.12664 12.012 1.53821 14.0811C1.94979 16.1503 2.96569 18.0509 4.45745 19.5426C5.94921 21.0344 7.84983 22.0503 9.91896 22.4619C11.9881 22.8734 14.1328 22.6622 16.0819 21.8549C18.031 21.0475 19.6969 19.6804 20.8689 17.9262C22.041 16.1721 22.6666 14.1098 22.6666 12.0002C22.6666 9.17119 21.5428 6.45808 19.5424 4.45769C17.542 2.4573 14.8289 1.3335 11.9999 1.3335ZM11.9999 21.3335C10.154 21.3335 8.34946 20.7861 6.8146 19.7605C5.27974 18.735 4.08347 17.2773 3.37705 15.5719C2.67063 13.8664 2.4858 11.9898 2.84593 10.1793C3.20606 8.36883 4.09497 6.70579 5.40026 5.4005C6.70555 4.09521 8.36859 3.2063 10.1791 2.84617C11.9896 2.48604 13.8662 2.67087 15.5716 3.37729C17.2771 4.08371 18.7347 5.27998 19.7603 6.81484C20.7859 8.3497 21.3333 10.1542 21.3333 12.0002C21.3333 14.4755 20.3499 16.8495 18.5996 18.5998C16.8492 20.3502 14.4753 21.3335 11.9999 21.3335Z" fill="white"/>
</g>
<defs>
<clipPath id="clip0_1101_229">
<rect width="24" height="24" fill="white"/>
</clipPath>
</defs>
</svg>
