<svg width="26" height="26" viewBox="0 0 26 26" fill="none" xmlns="http://www.w3.org/2000/svg">
<path fill-rule="evenodd" clip-rule="evenodd" d="M1.29995 12.9999H3.10565V22.0999C3.10565 22.2723 3.17413 22.4376 3.29603 22.5595C3.41792 22.6814 3.58325 22.7499 3.75565 22.7499H20.9429C21.1153 22.7499 21.2807 22.6814 21.4026 22.5595C21.5245 22.4376 21.5929 22.2723 21.5929 22.0999V12.9999H23.3999C23.5319 12.9997 23.6607 12.9593 23.7691 12.8842C23.8776 12.8091 23.9606 12.7027 24.0072 12.5792C24.0538 12.4558 24.0616 12.3211 24.0298 12.193C23.998 12.065 23.9279 11.9496 23.8289 11.8624L12.7789 2.11236C12.6603 2.00815 12.5078 1.95068 12.3499 1.95068C12.1921 1.95068 12.0396 2.00815 11.9209 2.11236L0.870945 11.8624C0.771983 11.9496 0.701926 12.065 0.670087 12.193C0.638247 12.3211 0.646132 12.4558 0.692695 12.5792C0.739257 12.7027 0.822291 12.8091 0.93076 12.8842C1.03923 12.9593 1.168 12.9997 1.29995 12.9999ZM3.75565 11.6999H3.01855L12.3499 3.46696L21.6813 11.6999H20.9442C20.7719 11.6999 20.6065 11.7683 20.4846 11.8902C20.3627 12.0121 20.2942 12.1775 20.2942 12.3499V21.4499H4.40695V12.3499C4.40695 12.1775 4.33846 12.0121 4.21656 11.8902C4.09467 11.7683 3.92934 11.6999 3.75695 11.6999" fill="white"/>
<path fill-rule="evenodd" clip-rule="evenodd" d="M13.9204 14.9497H10.6704C10.3256 14.9497 9.99492 15.0867 9.75112 15.3305C9.50732 15.5743 9.37036 15.9049 9.37036 16.2497V21.4497C9.37036 21.7945 9.50732 22.1251 9.75112 22.3689C9.99492 22.6127 10.3256 22.7497 10.6704 22.7497H13.9204C14.2651 22.7497 14.5958 22.6127 14.8396 22.3689C15.0834 22.1251 15.2204 21.7945 15.2204 21.4497V16.2497C15.2204 15.9049 15.0834 15.5743 14.8396 15.3305C14.5958 15.0867 14.2651 14.9497 13.9204 14.9497ZM10.6704 21.4497V16.2497H13.9204V21.4497H10.6704Z" fill="white"/>
</svg>
