<svg width="21" height="21" viewBox="0 0 21 21" fill="none" xmlns="http://www.w3.org/2000/svg">
<path d="M13.3616 14.375L9.34375 10.3572V3.59375H10.7812V9.76062L14.375 13.3616L13.3616 14.375Z" fill="#888888"/>
<path d="M10.0625 0C8.722 0.000189915 7.39516 0.269372 6.16057 0.791604C4.92598 1.31384 3.80874 2.0785 2.875 3.04031V0H1.4375V5.75H7.1875V4.3125H3.65125C4.99965 2.81412 6.83027 1.83535 8.82519 1.54618C10.8201 1.25701 12.8533 1.67571 14.5716 2.72955C16.29 3.7834 17.5849 5.40582 18.2316 7.31505C18.8783 9.22428 18.8358 11.2997 18.1115 13.1809C17.3873 15.062 16.027 16.6301 14.267 17.6127C12.507 18.5954 10.4583 18.9305 8.47693 18.56C6.49552 18.1894 4.70648 17.1366 3.42053 15.5843C2.13458 14.0319 1.43295 12.0783 1.4375 10.0625H0C0 12.0527 0.590155 13.9982 1.69584 15.6529C2.80152 17.3077 4.37307 18.5974 6.21175 19.359C8.05043 20.1206 10.0737 20.3199 12.0256 19.9317C13.9775 19.5434 15.7705 18.585 17.1778 17.1778C18.585 15.7705 19.5434 13.9775 19.9317 12.0256C20.3199 10.0737 20.1206 8.05043 19.359 6.21175C18.5974 4.37307 17.3077 2.80152 15.6529 1.69584C13.9982 0.590155 12.0527 0 10.0625 0Z" fill="#888888"/>
</svg>
