<svg width="19" height="24" viewBox="0 0 19 24" fill="none" xmlns="http://www.w3.org/2000/svg">
<path d="M2.08604 23.25C1.5091 23.25 1.01697 23.0468 0.609667 22.6403C0.203222 22.2339 0 21.7418 0 21.164V9.83604C0 9.2591 0.203222 8.76697 0.609667 8.35967C1.01611 7.95322 1.50824 7.75 2.08604 7.75H3.875V5.16667C3.875 3.72775 4.37617 2.5067 5.3785 1.5035C6.38083 0.500307 7.60189 -0.000860003 9.04167 1.10778e-06C10.4806 1.10778e-06 11.7016 0.501168 12.7048 1.5035C13.708 2.50583 14.2092 3.72689 14.2083 5.16667V7.75H15.9973C16.5742 7.75 17.0664 7.95322 17.4737 8.35967C17.8801 8.76611 18.0833 9.25824 18.0833 9.83604V21.164C18.0833 21.7409 17.8801 22.233 17.4737 22.6403C17.0672 23.0468 16.5751 23.25 15.9973 23.25H2.08604ZM2.08604 21.9583H15.9973C16.2289 21.9583 16.4192 21.8838 16.5682 21.7349C16.7172 21.5859 16.7917 21.3956 16.7917 21.164V9.83604C16.7917 9.6044 16.7172 9.4141 16.5682 9.26513C16.4192 9.11615 16.2289 9.04167 15.9973 9.04167H2.08604C1.8544 9.04167 1.6641 9.11615 1.51512 9.26513C1.36615 9.4141 1.29167 9.6044 1.29167 9.83604V21.164C1.29167 21.3956 1.36615 21.5859 1.51512 21.7349C1.6641 21.8838 1.8544 21.9583 2.08604 21.9583ZM9.04167 17.4375C9.58675 17.4375 10.0457 17.2506 10.4186 16.8769C10.7923 16.5041 10.9792 16.0451 10.9792 15.5C10.9792 14.9549 10.7923 14.4959 10.4186 14.1231C10.0457 13.7494 9.58675 13.5625 9.04167 13.5625C8.49658 13.5625 8.03761 13.7494 7.66475 14.1231C7.29103 14.4959 7.10417 14.9549 7.10417 15.5C7.10417 16.0451 7.29103 16.5041 7.66475 16.8769C8.03761 17.2506 8.49658 17.4375 9.04167 17.4375ZM5.16667 7.75H12.9167V5.16667C12.9167 4.09028 12.5399 3.17535 11.7865 2.42188C11.033 1.6684 10.1181 1.29167 9.04167 1.29167C7.96528 1.29167 7.05035 1.6684 6.29688 2.42188C5.5434 3.17535 5.16667 4.09028 5.16667 5.16667V7.75Z" fill="#888888"/>
</svg>
