<svg width="23" height="23" viewBox="0 0 23 23" fill="none" xmlns="http://www.w3.org/2000/svg">
<path d="M4.27143 23H20.7244H22.3429C22.7058 23 23 22.7058 23 22.3429C23 21.98 22.7058 21.6857 22.3429 21.6857H21.1753C20.8146 20.6929 20.6491 19.7675 20.6744 18.766C20.6751 18.7534 20.6782 18.7414 20.6782 18.7286C20.6782 18.7214 20.6763 18.7148 20.6761 18.7076C20.705 17.824 20.8819 16.8783 21.2101 15.7714H22.3429C22.7058 15.7714 23 15.4772 23 15.1143C23 14.7514 22.7058 14.4571 22.3429 14.4571H21.8036C22.5427 13.6889 23 12.6476 23 11.5C23 10.3524 22.5427 9.3111 21.8036 8.54286H22.3429C22.7058 8.54286 23 8.24862 23 7.88571C23 7.52281 22.7058 7.22857 22.3429 7.22857H21.1753C20.8146 6.23572 20.6491 5.31033 20.6744 4.30881C20.6751 4.29622 20.6782 4.28422 20.6782 4.27143C20.6782 4.26429 20.6763 4.25763 20.6761 4.25049C20.705 3.36685 20.8819 2.42113 21.2101 1.31429H22.3429C22.7058 1.31429 23 1.02005 23 0.657143C23 0.294238 22.7058 0 22.3429 0H20.7244H4.27143C1.91624 0 0 1.91624 0 4.27143C0 5.41906 0.457321 6.46033 1.19637 7.22857H0.657143C0.294238 7.22857 0 7.52281 0 7.88571C0 8.24862 0.294238 8.54286 0.657143 8.54286H1.7899C2.11815 9.6497 2.29503 10.5954 2.3239 11.4791C2.3237 11.4862 2.32182 11.4929 2.32182 11.5C2.32182 11.5128 2.32487 11.5248 2.32559 11.5374C2.35094 12.5389 2.18545 13.4643 1.82467 14.4571H0.657143C0.294238 14.4571 0 14.7514 0 15.1143C0 15.4772 0.294238 15.7714 0.657143 15.7714H1.19637C0.457321 16.5397 0 17.5809 0 18.7286C0 21.0838 1.91624 23 4.27143 23ZM3.2132 14.4571C3.4581 13.6841 3.59295 12.9324 3.62985 12.1571H17.1123C17.4753 12.1571 17.7695 11.8629 17.7695 11.5C17.7695 11.1371 17.4753 10.8429 17.1123 10.8429H3.59904C3.53078 10.1259 3.38542 9.37102 3.15737 8.54286H4.27143H18.7286C20.3592 8.54286 21.6857 9.86934 21.6857 11.5C21.6857 13.1307 20.3592 14.4571 18.7286 14.4571H4.27143H3.2132ZM4.27143 21.6857C2.64076 21.6857 1.31429 20.3592 1.31429 18.7286C1.31429 17.0979 2.64076 15.7714 4.27143 15.7714H18.7286H19.8426C19.6146 16.5996 19.4692 17.3545 19.401 18.0714H5.88765C5.52475 18.0714 5.23051 18.3657 5.23051 18.7286C5.23051 19.0915 5.52475 19.3857 5.88765 19.3857H19.3702C19.4071 20.1609 19.5419 20.9127 19.7868 21.6857H4.27143ZM4.27143 1.31429H19.8426C19.6146 2.14245 19.4692 2.89734 19.401 3.61429H5.88765C5.52475 3.61429 5.23051 3.90852 5.23051 4.27143C5.23051 4.63433 5.52475 4.92857 5.88765 4.92857H19.3702C19.4071 5.70379 19.5419 6.45555 19.7868 7.22857H18.7286H4.27143C2.64076 7.22857 1.31429 5.90209 1.31429 4.27143C1.31429 2.64076 2.64076 1.31429 4.27143 1.31429Z" fill="white"/>
</svg>
