<svg width="60" height="72" viewBox="0 0 60 72" fill="none" xmlns="http://www.w3.org/2000/svg">
<g filter="url(#filter0_d_392_1742)">
<path d="M55 25.5717C55 40.9076 37.6906 56.8792 31.8781 61.812C31.3366 62.2122 30.6775 62.4286 30 62.4286C29.3225 62.4286 28.6634 62.2122 28.1219 61.812C22.3094 56.8792 5 40.9076 5 25.5717C5 19.0549 7.63392 12.805 12.3223 8.1969C17.0107 3.5888 23.3696 1 30 1C36.6304 1 42.9893 3.5888 47.6777 8.1969C52.3661 12.805 55 19.0549 55 25.5717Z" fill="#3F9AF4"/>
<path d="M30 34.7861C35.1777 34.7861 39.375 30.6607 39.375 25.5717C39.375 20.4828 35.1777 16.3573 30 16.3573C24.8223 16.3573 20.625 20.4828 20.625 25.5717C20.625 30.6607 24.8223 34.7861 30 34.7861Z" fill="#3F9AF4"/>
<path d="M55 25.5717C55 40.9076 37.6906 56.8792 31.8781 61.812C31.3366 62.2122 30.6775 62.4286 30 62.4286C29.3225 62.4286 28.6634 62.2122 28.1219 61.812C22.3094 56.8792 5 40.9076 5 25.5717C5 19.0549 7.63392 12.805 12.3223 8.1969C17.0107 3.5888 23.3696 1 30 1C36.6304 1 42.9893 3.5888 47.6777 8.1969C52.3661 12.805 55 19.0549 55 25.5717Z" stroke="white" stroke-width="2" stroke-linecap="round" stroke-linejoin="round"/>
<path d="M30 34.7861C35.1777 34.7861 39.375 30.6607 39.375 25.5717C39.375 20.4828 35.1777 16.3573 30 16.3573C24.8223 16.3573 20.625 20.4828 20.625 25.5717C20.625 30.6607 24.8223 34.7861 30 34.7861Z" stroke="white" stroke-width="2" stroke-linecap="round" stroke-linejoin="round"/>
</g>
<path d="M46 27C46 35.8366 38.8366 43 30 43C21.1634 43 14 35.8366 14 27C14 18.1634 21.1634 11 30 11C38.8366 11 46 18.1634 46 27Z" fill="white"/>
<path d="M23.902 27.607C24.7687 27.607 25.5227 27.698 26.164 27.88C26.8053 28.062 27.2993 28.322 27.646 28.66C28.0013 28.998 28.179 29.4053 28.179 29.882C28.179 30.35 28.0013 30.753 27.646 31.091C27.2993 31.4377 26.8053 31.702 26.164 31.884C25.5227 32.066 24.7687 32.157 23.902 32.157C23.044 32.157 22.2943 32.066 21.653 31.884C21.0117 31.702 20.5133 31.4377 20.158 31.091C19.8113 30.753 19.638 30.35 19.638 29.882C19.638 29.4053 19.8113 28.998 20.158 28.66C20.5133 28.322 21.0117 28.062 21.653 27.88C22.2943 27.698 23.044 27.607 23.902 27.607ZM23.902 28.907C23.3647 28.907 22.9053 28.9417 22.524 29.011C22.1427 29.0803 21.8523 29.1887 21.653 29.336C21.4623 29.4833 21.367 29.6653 21.367 29.882C21.367 30.0987 21.4623 30.2807 21.653 30.428C21.8523 30.5667 22.1427 30.675 22.524 30.753C22.9053 30.8223 23.3647 30.857 23.902 30.857C24.448 30.857 24.9117 30.8223 25.293 30.753C25.6743 30.675 25.9647 30.5667 26.164 30.428C26.3633 30.2807 26.463 30.0987 26.463 29.882C26.463 29.6653 26.3633 29.4833 26.164 29.336C25.9647 29.1887 25.6743 29.0803 25.293 29.011C24.9117 28.9417 24.448 28.907 23.902 28.907ZM19.768 20.652H27.399V22.004H19.768V20.652ZM18.559 25.488H29.388V26.853H18.559V25.488ZM22.563 23.382H24.292V25.826H22.563V23.382ZM26.385 20.652H28.114V21.64C28.114 22.1167 28.101 22.615 28.075 23.135C28.049 23.655 27.9493 24.227 27.776 24.851L26.06 24.682C26.2247 24.0667 26.32 23.5207 26.346 23.044C26.372 22.5673 26.385 22.0993 26.385 21.64V20.652ZM38.526 20.106H40.177V32.144H38.526V20.106ZM36.927 24.747H38.929V26.138H36.927V24.747ZM35.835 20.314H37.434V31.585H35.835V20.314ZM30.18 28.01H31.012C31.5147 28.01 31.9913 28.0057 32.442 27.997C32.8927 27.9797 33.339 27.9493 33.781 27.906C34.2317 27.854 34.691 27.789 35.159 27.711L35.302 29.115C34.8167 29.2017 34.3443 29.271 33.885 29.323C33.4257 29.375 32.962 29.4097 32.494 29.427C32.026 29.4357 31.532 29.44 31.012 29.44H30.18V28.01ZM30.18 21.51H34.613V22.901H31.883V28.699H30.18V21.51Z" fill="#073B7B"/>
<defs>
<filter id="filter0_d_392_1742" x="0" y="0" width="60" height="71.4286" filterUnits="userSpaceOnUse" color-interpolation-filters="sRGB">
<feFlood flood-opacity="0" result="BackgroundImageFix"/>
<feColorMatrix in="SourceAlpha" type="matrix" values="0 0 0 0 0 0 0 0 0 0 0 0 0 0 0 0 0 0 127 0" result="hardAlpha"/>
<feOffset dy="4"/>
<feGaussianBlur stdDeviation="2"/>
<feComposite in2="hardAlpha" operator="out"/>
<feColorMatrix type="matrix" values="0 0 0 0 0 0 0 0 0 0 0 0 0 0 0 0 0 0 0.25 0"/>
<feBlend mode="normal" in2="BackgroundImageFix" result="effect1_dropShadow_392_1742"/>
<feBlend mode="normal" in="SourceGraphic" in2="effect1_dropShadow_392_1742" result="shape"/>
</filter>
</defs>
</svg>
