<svg width="60" height="72" viewBox="0 0 60 72" fill="none" xmlns="http://www.w3.org/2000/svg">
<g filter="url(#filter0_d_392_1743)">
<path d="M55 25.5717C55 40.9076 37.6906 56.8792 31.8781 61.812C31.3366 62.2122 30.6775 62.4286 30 62.4286C29.3225 62.4286 28.6634 62.2122 28.1219 61.812C22.3094 56.8792 5 40.9076 5 25.5717C5 19.0549 7.63392 12.805 12.3223 8.1969C17.0107 3.5888 23.3696 1 30 1C36.6304 1 42.9893 3.5888 47.6777 8.1969C52.3661 12.805 55 19.0549 55 25.5717Z" fill="#3F9AF4"/>
<path d="M30 34.7861C35.1777 34.7861 39.375 30.6607 39.375 25.5717C39.375 20.4828 35.1777 16.3573 30 16.3573C24.8223 16.3573 20.625 20.4828 20.625 25.5717C20.625 30.6607 24.8223 34.7861 30 34.7861Z" fill="#3F9AF4"/>
<path d="M55 25.5717C55 40.9076 37.6906 56.8792 31.8781 61.812C31.3366 62.2122 30.6775 62.4286 30 62.4286C29.3225 62.4286 28.6634 62.2122 28.1219 61.812C22.3094 56.8792 5 40.9076 5 25.5717C5 19.0549 7.63392 12.805 12.3223 8.1969C17.0107 3.5888 23.3696 1 30 1C36.6304 1 42.9893 3.5888 47.6777 8.1969C52.3661 12.805 55 19.0549 55 25.5717Z" stroke="white" stroke-width="2" stroke-linecap="round" stroke-linejoin="round"/>
<path d="M30 34.7861C35.1777 34.7861 39.375 30.6607 39.375 25.5717C39.375 20.4828 35.1777 16.3573 30 16.3573C24.8223 16.3573 20.625 20.4828 20.625 25.5717C20.625 30.6607 24.8223 34.7861 30 34.7861Z" stroke="white" stroke-width="2" stroke-linecap="round" stroke-linejoin="round"/>
</g>
<path d="M46 27C46 35.8366 38.8366 43 30 43C21.1634 43 14 35.8366 14 27C14 18.1634 21.1634 11 30 11C38.8366 11 46 18.1634 46 27Z" fill="white"/>
<path d="M17.728 23.399H18.883V24.543C18.883 25.1077 18.8207 25.6723 18.696 26.237C18.5787 26.8017 18.4027 27.3333 18.168 27.832C17.9333 28.3233 17.6363 28.7633 17.277 29.152C16.925 29.5407 16.5143 29.845 16.045 30.065L15.22 28.91C15.6453 28.712 16.012 28.4517 16.32 28.129C16.6353 27.8063 16.8957 27.447 17.101 27.051C17.3137 26.655 17.4713 26.2443 17.574 25.819C17.6767 25.3863 17.728 24.961 17.728 24.543V23.399ZM18.036 23.399H19.191V24.543C19.191 24.9243 19.2423 25.3167 19.345 25.72C19.4477 26.1233 19.598 26.512 19.796 26.886C20.0013 27.26 20.258 27.601 20.566 27.909C20.8813 28.2097 21.248 28.4553 21.666 28.646L20.852 29.812C20.3827 29.592 19.972 29.2987 19.62 28.932C19.2753 28.558 18.982 28.1363 18.74 27.667C18.5053 27.1903 18.3293 26.688 18.212 26.16C18.0947 25.6247 18.036 25.0857 18.036 24.543V23.399ZM15.616 22.761H21.215V23.971H15.616V22.761ZM21.952 21.793H23.426V31.979H21.952V21.793ZM23.107 25.676H24.9V26.875H23.107V25.676ZM29.6181 23.201H32.6211V24.378H29.6181V23.201ZM29.6181 25.676H32.6211V26.853H29.6181V25.676ZM32.0711 21.793H33.5451V29.24H32.0711V21.793ZM26.8131 30.626H33.7761V31.803H26.8131V30.626ZM26.8131 28.514H28.2761V31.242H26.8131V28.514ZM27.8251 22.398C28.3311 22.398 28.7858 22.5117 29.1891 22.739C29.5998 22.959 29.9225 23.267 30.1571 23.663C30.3991 24.059 30.5201 24.5137 30.5201 25.027C30.5201 25.533 30.3991 25.9877 30.1571 26.391C29.9225 26.787 29.5998 27.0987 29.1891 27.326C28.7858 27.5533 28.3311 27.667 27.8251 27.667C27.3265 27.667 26.8718 27.5533 26.4611 27.326C26.0578 27.0987 25.7351 26.787 25.4931 26.391C25.2585 25.9877 25.1411 25.533 25.1411 25.027C25.1411 24.5137 25.2585 24.059 25.4931 23.663C25.7351 23.267 26.0578 22.959 26.4611 22.739C26.8718 22.5117 27.3265 22.398 27.8251 22.398ZM27.8251 23.674C27.5831 23.674 27.3631 23.729 27.1651 23.839C26.9671 23.949 26.8095 24.1067 26.6921 24.312C26.5821 24.51 26.5271 24.7483 26.5271 25.027C26.5271 25.313 26.5821 25.5587 26.6921 25.764C26.8095 25.962 26.9671 26.116 27.1651 26.226C27.3631 26.3287 27.5831 26.38 27.8251 26.38C28.0745 26.38 28.2945 26.3287 28.4851 26.226C28.6831 26.116 28.8371 25.962 28.9471 25.764C29.0645 25.5587 29.1231 25.313 29.1231 25.027C29.1231 24.7483 29.0645 24.51 28.9471 24.312C28.8371 24.1067 28.6831 23.949 28.4851 23.839C28.2945 23.729 28.0745 23.674 27.8251 23.674ZM41.9373 21.782H43.3343V31.968H41.9373V21.782ZM40.5843 25.709H42.2783V26.886H40.5843V25.709ZM39.6603 21.958H41.0133V31.495H39.6603V21.958ZM34.8753 28.47H35.5793C36.0046 28.47 36.4079 28.4663 36.7893 28.459C37.1706 28.4443 37.5483 28.4187 37.9223 28.382C38.3036 28.338 38.6923 28.283 39.0883 28.217L39.2093 29.405C38.7986 29.4783 38.3989 29.537 38.0103 29.581C37.6216 29.625 37.2293 29.6543 36.8333 29.669C36.4373 29.6763 36.0193 29.68 35.5793 29.68H34.8753V28.47ZM34.8753 22.97H38.6263V24.147H36.3163V29.053H34.8753V22.97Z" fill="#073B7B"/>
<defs>
<filter id="filter0_d_392_1743" x="0" y="0" width="60" height="71.4286" filterUnits="userSpaceOnUse" color-interpolation-filters="sRGB">
<feFlood flood-opacity="0" result="BackgroundImageFix"/>
<feColorMatrix in="SourceAlpha" type="matrix" values="0 0 0 0 0 0 0 0 0 0 0 0 0 0 0 0 0 0 127 0" result="hardAlpha"/>
<feOffset dy="4"/>
<feGaussianBlur stdDeviation="2"/>
<feComposite in2="hardAlpha" operator="out"/>
<feColorMatrix type="matrix" values="0 0 0 0 0 0 0 0 0 0 0 0 0 0 0 0 0 0 0.25 0"/>
<feBlend mode="normal" in2="BackgroundImageFix" result="effect1_dropShadow_392_1743"/>
<feBlend mode="normal" in="SourceGraphic" in2="effect1_dropShadow_392_1743" result="shape"/>
</filter>
</defs>
</svg>
