<svg width="60" height="72" viewBox="0 0 60 72" fill="none" xmlns="http://www.w3.org/2000/svg">
<g filter="url(#filter0_d_392_1740)">
<path d="M55 25.5717C55 40.9076 37.6906 56.8792 31.8781 61.812C31.3366 62.2122 30.6775 62.4286 30 62.4286C29.3225 62.4286 28.6634 62.2122 28.1219 61.812C22.3094 56.8792 5 40.9076 5 25.5717C5 19.0549 7.63392 12.805 12.3223 8.1969C17.0107 3.5888 23.3696 1 30 1C36.6304 1 42.9893 3.5888 47.6777 8.1969C52.3661 12.805 55 19.0549 55 25.5717Z" fill="#3F9AF4"/>
<path d="M30 34.7861C35.1777 34.7861 39.375 30.6607 39.375 25.5717C39.375 20.4828 35.1777 16.3573 30 16.3573C24.8223 16.3573 20.625 20.4828 20.625 25.5717C20.625 30.6607 24.8223 34.7861 30 34.7861Z" fill="#3F9AF4"/>
<path d="M55 25.5717C55 40.9076 37.6906 56.8792 31.8781 61.812C31.3366 62.2122 30.6775 62.4286 30 62.4286C29.3225 62.4286 28.6634 62.2122 28.1219 61.812C22.3094 56.8792 5 40.9076 5 25.5717C5 19.0549 7.63392 12.805 12.3223 8.1969C17.0107 3.5888 23.3696 1 30 1C36.6304 1 42.9893 3.5888 47.6777 8.1969C52.3661 12.805 55 19.0549 55 25.5717Z" stroke="white" stroke-width="2" stroke-linecap="round" stroke-linejoin="round"/>
<path d="M30 34.7861C35.1777 34.7861 39.375 30.6607 39.375 25.5717C39.375 20.4828 35.1777 16.3573 30 16.3573C24.8223 16.3573 20.625 20.4828 20.625 25.5717C20.625 30.6607 24.8223 34.7861 30 34.7861Z" stroke="white" stroke-width="2" stroke-linecap="round" stroke-linejoin="round"/>
</g>
<path d="M46 27C46 35.8366 38.8366 43 30 43C21.1634 43 14 35.8366 14 27C14 18.1634 21.1634 11 30 11C38.8366 11 46 18.1634 46 27Z" fill="white"/>
<path d="M17.904 23.399H19.07V24.543C19.07 25.1297 19.0077 25.7053 18.883 26.27C18.7657 26.8347 18.586 27.3663 18.344 27.865C18.1093 28.3563 17.8123 28.7927 17.453 29.174C17.0937 29.548 16.6757 29.845 16.199 30.065L15.363 28.91C15.7883 28.712 16.1587 28.4553 16.474 28.14C16.7967 27.8247 17.0607 27.4727 17.266 27.084C17.4787 26.688 17.6363 26.2737 17.739 25.841C17.849 25.401 17.904 24.9683 17.904 24.543V23.399ZM18.223 23.399H19.378V24.543C19.378 24.9463 19.4293 25.357 19.532 25.775C19.642 26.1857 19.7997 26.578 20.005 26.952C20.2103 27.3187 20.4707 27.6487 20.786 27.942C21.1013 28.2353 21.4753 28.47 21.908 28.646L21.105 29.812C20.621 29.5993 20.1993 29.3133 19.84 28.954C19.4807 28.5947 19.18 28.1803 18.938 27.711C18.696 27.2417 18.5163 26.7393 18.399 26.204C18.2817 25.6613 18.223 25.1077 18.223 24.543V23.399ZM15.77 22.761H21.49V23.971H15.77V22.761ZM22.436 21.793H23.899V31.979H22.436V21.793ZM30.5421 24.246H32.4781V25.434H30.5421V24.246ZM32.0711 21.793H33.5451V27.843H32.0711V21.793ZM30.0911 28.063C30.8098 28.063 31.4295 28.14 31.9501 28.294C32.4708 28.448 32.8705 28.6717 33.1491 28.965C33.4351 29.2583 33.5781 29.6103 33.5781 30.021C33.5781 30.6517 33.2665 31.1357 32.6431 31.473C32.0198 31.8177 31.1691 31.99 30.0911 31.99C29.0131 31.99 28.1625 31.8177 27.5391 31.473C26.9158 31.1357 26.6041 30.6517 26.6041 30.021C26.6041 29.6103 26.7435 29.2583 27.0221 28.965C27.3081 28.6717 27.7115 28.448 28.2321 28.294C28.7528 28.14 29.3725 28.063 30.0911 28.063ZM30.0911 29.174C29.6511 29.174 29.2808 29.207 28.9801 29.273C28.6795 29.3317 28.4485 29.4233 28.2871 29.548C28.1331 29.6727 28.0561 29.8303 28.0561 30.021C28.0561 30.2117 28.1331 30.373 28.2871 30.505C28.4485 30.6297 28.6795 30.725 28.9801 30.791C29.2808 30.8497 29.6511 30.879 30.0911 30.879C30.5311 30.879 30.9015 30.8497 31.2021 30.791C31.5028 30.725 31.7301 30.6297 31.8841 30.505C32.0381 30.373 32.1151 30.2117 32.1151 30.021C32.1151 29.8303 32.0381 29.6727 31.8841 29.548C31.7301 29.4233 31.5028 29.3317 31.2021 29.273C30.9015 29.207 30.5311 29.174 30.0911 29.174ZM27.3741 22.805H28.5621V23.454C28.5621 24.0993 28.4595 24.7153 28.2541 25.302C28.0488 25.8887 27.7335 26.4057 27.3081 26.853C26.8901 27.293 26.3548 27.623 25.7021 27.843L24.9651 26.688C25.3831 26.5487 25.7425 26.3617 26.0431 26.127C26.3511 25.8923 26.6005 25.632 26.7911 25.346C26.9891 25.0527 27.1358 24.7447 27.2311 24.422C27.3265 24.0993 27.3741 23.7767 27.3741 23.454V22.805ZM27.6821 22.805H28.8481V23.443C28.8481 23.8463 28.9288 24.2423 29.0901 24.631C29.2515 25.0197 29.5008 25.3717 29.8381 25.687C30.1828 26.0023 30.6228 26.2517 31.1581 26.435L30.4431 27.579C29.8125 27.3663 29.2918 27.0547 28.8811 26.644C28.4778 26.226 28.1771 25.742 27.9791 25.192C27.7811 24.6347 27.6821 24.0517 27.6821 23.443V22.805ZM25.3611 22.409H30.8391V23.564H25.3611V22.409ZM41.1343 21.793H42.5973V29.152H41.1343V21.793ZM42.1903 24.565H43.9503V25.764H42.1903V24.565ZM34.9633 26.314H35.8103C36.5509 26.314 37.1816 26.3067 37.7023 26.292C38.2303 26.27 38.6996 26.237 39.1103 26.193C39.5283 26.149 39.9389 26.083 40.3423 25.995L40.4853 27.15C40.0746 27.2453 39.6529 27.3187 39.2203 27.37C38.7949 27.414 38.3109 27.447 37.7683 27.469C37.2256 27.4837 36.5729 27.491 35.8103 27.491H34.9633V26.314ZM34.9633 22.596H39.5283V23.762H36.4263V26.93H34.9633V22.596ZM36.0303 30.626H42.9603V31.803H36.0303V30.626ZM36.0303 28.371H37.5043V31.22H36.0303V28.371Z" fill="#073B7B"/>
<defs>
<filter id="filter0_d_392_1740" x="0" y="0" width="60" height="71.4286" filterUnits="userSpaceOnUse" color-interpolation-filters="sRGB">
<feFlood flood-opacity="0" result="BackgroundImageFix"/>
<feColorMatrix in="SourceAlpha" type="matrix" values="0 0 0 0 0 0 0 0 0 0 0 0 0 0 0 0 0 0 127 0" result="hardAlpha"/>
<feOffset dy="4"/>
<feGaussianBlur stdDeviation="2"/>
<feComposite in2="hardAlpha" operator="out"/>
<feColorMatrix type="matrix" values="0 0 0 0 0 0 0 0 0 0 0 0 0 0 0 0 0 0 0.25 0"/>
<feBlend mode="normal" in2="BackgroundImageFix" result="effect1_dropShadow_392_1740"/>
<feBlend mode="normal" in="SourceGraphic" in2="effect1_dropShadow_392_1740" result="shape"/>
</filter>
</defs>
</svg>
