<svg width="24" height="24" viewBox="0 0 24 24" fill="none" xmlns="http://www.w3.org/2000/svg">
<path d="M17 4C20.4 4 23 7.64 23 12V17C23 17.2652 22.8946 17.5196 22.7071 17.7071C22.5196 17.8946 22.2652 18 22 18H20.829C20.622 18.5848 20.2388 19.0912 19.7322 19.4492C19.2256 19.8073 18.6204 19.9996 18 19.9996C17.3796 19.9996 16.7744 19.8073 16.2678 19.4492C15.7612 19.0912 15.378 18.5848 15.171 18H8.829C8.62198 18.5848 8.2388 19.0912 7.73218 19.4492C7.22555 19.8073 6.6204 19.9996 6 19.9996C5.3796 19.9996 4.77445 19.8073 4.26782 19.4492C3.7612 19.0912 3.37802 18.5848 3.171 18H2C1.73478 18 1.48043 17.8946 1.29289 17.7071C1.10536 17.5196 1 17.2652 1 17V6C1 5.46957 1.21071 4.96086 1.58579 4.58579C1.96086 4.21071 2.46957 4 3 4H17ZM6 16C5.73478 16 5.48043 16.1054 5.29289 16.2929C5.10536 16.4804 5 16.7348 5 17C5 17.2652 5.10536 17.5196 5.29289 17.7071C5.48043 17.8946 5.73478 18 6 18C6.26522 18 6.51957 17.8946 6.70711 17.7071C6.89464 17.5196 7 17.2652 7 17C7 16.7348 6.89464 16.4804 6.70711 16.2929C6.51957 16.1054 6.26522 16 6 16ZM18 16C17.7348 16 17.4804 16.1054 17.2929 16.2929C17.1054 16.4804 17 16.7348 17 17C17 17.2652 17.1054 17.5196 17.2929 17.7071C17.4804 17.8946 17.7348 18 18 18C18.2652 18 18.5196 17.8946 18.7071 17.7071C18.8946 17.5196 19 17.2652 19 17C19 16.7348 18.8946 16.4804 18.7071 16.2929C18.5196 16.1054 18.2652 16 18 16ZM17.24 6.011L18.308 11H20.944C20.631 8.244 19.049 6.18 17.24 6.011ZM6 6H3V9H6V6ZM11 6H8V9H11V6ZM15.191 6H13V9H15.834L15.191 6Z" fill="#0E4D9D"/>
</svg>
