<svg width="391" height="138" viewBox="0 0 391 138" fill="none" xmlns="http://www.w3.org/2000/svg">
<g filter="url(#filter0_d_79_1574)">
<rect x="4" width="383" height="130" rx="10" fill="#9EDCDA"/>
</g>
<path d="M345.238 0C347.516 5.04958 348.7 10.2291 348.7 15.5068C348.7 69.188 226.285 112.705 75.2803 112.705C50.6216 112.705 26.7253 111.544 4 109.368V10C4 4.47715 8.47715 0 14 0H345.238Z" fill="white" fill-opacity="0.3"/>
<path d="M43.76 26.3H46.56C46.56 27.94 46.22 29.4067 45.54 30.7C44.86 31.98 43.88 33.0667 42.6 33.96C41.32 34.84 39.7533 35.52 37.9 36L36.9 33.9C38.4333 33.5267 39.7067 33.0267 40.72 32.4C41.7333 31.7733 42.4933 31.0533 43 30.24C43.5067 29.4133 43.76 28.5467 43.76 27.64V26.3ZM37.96 26.3H45.48V28.4H37.96V26.3ZM49.54 25.24H52.2V35.56H49.54V25.24ZM39.94 36.36H52.2V43.58H39.94V36.36ZM49.58 38.44H42.56V41.48H49.58V38.44ZM55.2184 39.54H71.9984V41.7H55.2184V39.54ZM62.2384 35.34H64.8784V40.5H62.2384V35.34ZM56.4984 26.76H70.6184V28.9H56.4984V26.76ZM56.5984 34.14H70.5584V36.24H56.5984V34.14ZM59.0184 28.52H61.6784V34.38H59.0184V28.52ZM65.4384 28.52H68.0984V34.38H65.4384V28.52ZM84.9453 27.7812L79.7305 43.2207H77.6406L82.8555 27.7812H84.9453ZM95.1397 28.5H97.2997V29.16C97.2997 30.24 97.113 31.26 96.7397 32.22C96.3664 33.18 95.793 34.0133 95.0197 34.72C94.2597 35.4267 93.293 35.9533 92.1197 36.3L90.8597 34.24C91.8597 33.9467 92.673 33.54 93.2997 33.02C93.9397 32.4867 94.4064 31.8867 94.6997 31.22C94.993 30.54 95.1397 29.8533 95.1397 29.16V28.5ZM95.6397 28.5H97.7997V29.16C97.7997 29.64 97.8797 30.1133 98.0397 30.58C98.213 31.0467 98.473 31.4867 98.8197 31.9C99.1797 32.3133 99.633 32.68 100.18 33C100.726 33.32 101.366 33.58 102.1 33.78L100.9 35.86C99.7264 35.54 98.7464 35.0533 97.9597 34.4C97.1864 33.7333 96.6064 32.9467 96.2197 32.04C95.833 31.1333 95.6397 30.1733 95.6397 29.16V28.5ZM91.4997 27.16H101.46V29.26H91.4997V27.16ZM95.1397 25.18H97.7997V28H95.1397V25.18ZM100.94 30.18H104.46V32.32H100.94V30.18ZM103.82 25.26H106.5V36.44H103.82V25.26ZM100.22 36.74C102.18 36.74 103.726 37.0467 104.86 37.66C105.993 38.2733 106.56 39.14 106.56 40.26C106.56 41.3667 105.993 42.2267 104.86 42.84C103.726 43.4667 102.18 43.78 100.22 43.78C98.2597 43.78 96.713 43.4667 95.5797 42.84C94.4464 42.2267 93.8797 41.3667 93.8797 40.26C93.8797 39.14 94.4464 38.2733 95.5797 37.66C96.713 37.0467 98.2597 36.74 100.22 36.74ZM100.22 38.78C99.4197 38.78 98.7397 38.8333 98.1797 38.94C97.633 39.0467 97.2197 39.2133 96.9397 39.44C96.6597 39.6533 96.5197 39.9267 96.5197 40.26C96.5197 40.58 96.6597 40.8533 96.9397 41.08C97.2197 41.3067 97.633 41.4733 98.1797 41.58C98.7397 41.6867 99.4197 41.74 100.22 41.74C101.033 41.74 101.713 41.6867 102.26 41.58C102.806 41.4733 103.213 41.3067 103.48 41.08C103.76 40.8533 103.9 40.58 103.9 40.26C103.9 39.9267 103.76 39.6533 103.48 39.44C103.213 39.2133 102.806 39.0467 102.26 38.94C101.713 38.8333 101.033 38.78 100.22 38.78ZM121.258 25.22H123.918V43.8H121.258V25.22ZM123.318 32.24H126.578V34.42H123.318V32.24ZM110.158 37.32H111.698C112.751 37.32 113.738 37.3067 114.658 37.28C115.578 37.2533 116.471 37.2 117.338 37.12C118.218 37.0267 119.111 36.9067 120.018 36.76L120.258 38.9C119.325 39.06 118.405 39.1867 117.498 39.28C116.605 39.36 115.685 39.42 114.738 39.46C113.791 39.5 112.778 39.52 111.698 39.52H110.158V37.32ZM110.118 26.8H118.638V33.98H112.778V38.16H110.158V31.88H115.998V28.94H110.118V26.8ZM134.657 33.22H147.777V35.34H134.657V33.22ZM132.777 39.56H149.557V41.7H132.777V39.56ZM139.817 34.48H142.477V40.16H139.817V34.48ZM134.657 26.66H137.317V34.14H134.657V26.66ZM160.615 29.18H164.915V31.34H160.615V29.18ZM155.415 26.38H157.555V28.38C157.555 29.6333 157.375 30.8133 157.015 31.92C156.655 33.0267 156.095 33.9933 155.335 34.82C154.589 35.6333 153.629 36.2533 152.455 36.68L151.055 34.6C151.829 34.3333 152.489 33.9867 153.035 33.56C153.582 33.1333 154.029 32.6467 154.375 32.1C154.722 31.54 154.982 30.9467 155.155 30.32C155.329 29.6933 155.415 29.0467 155.415 28.38V26.38ZM155.975 26.38H158.095V28.4C158.095 29 158.175 29.5867 158.335 30.16C158.495 30.7333 158.742 31.28 159.075 31.8C159.409 32.32 159.835 32.7867 160.355 33.2C160.889 33.6 161.515 33.9267 162.235 34.18L160.835 36.22C159.729 35.8067 158.815 35.2133 158.095 34.44C157.375 33.6667 156.842 32.76 156.495 31.72C156.149 30.68 155.975 29.5733 155.975 28.4V26.38ZM163.995 25.26H166.675V38.92H163.995V25.26ZM154.415 41.32H167.075V43.46H154.415V41.32ZM154.415 37.56H157.075V42.52H154.415V37.56Z" fill="white"/>
<g clip-path="url(#clip0_79_1574)">
<mask id="mask0_79_1574" style="mask-type:luminance" maskUnits="userSpaceOnUse" x="263" y="84" width="15" height="34">
<path d="M277.419 98.1622L263 84.5603V117.206L277.419 109.044V98.1622Z" fill="white"/>
</mask>
<g mask="url(#mask0_79_1574)">
<path d="M277.419 98.1622L263 84.5603V117.206L277.419 109.044V98.1622Z" fill="url(#paint0_linear_79_1574)"/>
</g>
<mask id="mask1_79_1574" style="mask-type:luminance" maskUnits="userSpaceOnUse" x="279" y="84" width="39" height="34">
<path d="M279.867 109.044L317.409 117.206V84.5603L279.867 98.1622V109.044Z" fill="white"/>
</mask>
<g mask="url(#mask1_79_1574)">
<path d="M279.867 109.044L317.409 117.206V84.5603L279.867 98.1622V109.044Z" fill="url(#paint1_linear_79_1574)"/>
</g>
<path d="M272.501 101.656C272.515 100.717 272.363 99.89 271.255 99.89C269.954 99.89 269.954 101.67 269.954 103.631C269.954 106.798 270.258 107.359 271.449 107.359C271.795 107.359 272.169 107.275 272.488 107.163V104.921H271.352V103.366H274.579V108.494C274.011 108.606 272.585 108.831 271.754 108.831C268.237 108.831 267.835 107.359 267.835 103.52C267.835 100.969 267.96 98.3768 271.38 98.3768C273.429 98.3768 274.703 99.5402 274.579 101.656H272.501Z" fill="white"/>
<path d="M283.39 108.635V98.5726H286.847L288.454 105.415H288.482L290.189 98.5726H293.531V108.635H291.44V100.872H291.412L289.435 108.635H287.387L285.51 100.872H285.481V108.635H283.39Z" fill="white"/>
<path d="M298.563 102.99H299.725C300.349 102.99 300.778 102.307 300.778 101.638C300.778 100.816 300.556 100.12 299.615 100.12H298.563V102.99ZM296.472 98.5724H300.238C302.149 98.5724 302.896 99.7435 302.896 101.583C302.896 102.726 302.564 104.538 300.114 104.538H298.563V108.634H296.472V98.5724Z" fill="white"/>
<path d="M309.769 103.603C309.769 101.011 309.612 99.8899 308.403 99.8899C307.194 99.8899 307.038 101.011 307.038 103.603C307.038 106.196 307.194 107.317 308.403 107.317C309.612 107.317 309.769 106.196 309.769 103.603ZM304.862 103.603C304.862 100.927 304.862 98.3767 308.403 98.3767C311.944 98.3767 311.944 100.927 311.944 103.603C311.944 106.252 311.944 108.831 308.403 108.831C304.862 108.831 304.862 106.252 304.862 103.603Z" fill="white"/>
</g>
<g clip-path="url(#clip1_79_1574)">
<path fill-rule="evenodd" clip-rule="evenodd" d="M347.467 114.865C347.33 115.179 347.507 115.563 347.863 115.719C348.218 115.875 348.619 115.746 348.757 115.433C348.895 115.115 348.719 114.73 348.364 114.573C348.008 114.417 347.605 114.548 347.467 114.865ZM347.767 114.997C347.849 114.81 348.07 114.726 348.261 114.81C348.45 114.893 348.534 115.108 348.451 115.298C348.373 115.475 348.142 115.56 347.957 115.478C347.775 115.399 347.688 115.178 347.767 114.997ZM349.429 113.224L349.266 113.598L348.849 113.414C348.835 113.445 348.767 113.602 348.752 113.633C348.789 113.649 349.17 113.816 349.17 113.816L349.035 114.125L348.585 113.927L348.49 114.145L348.939 114.344C348.939 114.344 348.784 114.698 348.769 114.734L349.075 114.869C349.091 114.83 349.718 113.397 349.735 113.358C349.701 113.344 349.463 113.239 349.429 113.224ZM347.703 112.625C347.689 112.656 347.616 112.823 347.602 112.855L348.423 113.216L348.409 113.238C348.302 113.412 348.105 113.555 347.838 113.649C347.61 113.728 347.339 113.767 347.053 113.766L347.142 114.028C347.551 114.047 347.914 113.978 348.218 113.821C348.505 113.672 348.734 113.446 348.897 113.15L347.703 112.625ZM352.664 114.017C352.658 114.057 352.576 114.705 352.576 114.705C352.576 114.705 352.233 114.661 352.195 114.656C352.19 114.69 352.168 114.862 352.164 114.896L352.546 114.945L352.33 116.637C352.365 116.642 352.605 116.673 352.642 116.677L352.975 114.057L352.664 114.017Z" fill="#88898B"/>
<path fill-rule="evenodd" clip-rule="evenodd" d="M351.267 113.948C351.262 113.983 351.237 114.174 351.233 114.209L351.641 114.262L351.625 114.386C351.599 114.588 351.536 114.791 351.457 114.916C351.359 115.076 351.183 115.237 350.947 115.384C350.972 115.415 351.103 115.571 351.122 115.594C351.254 115.524 351.376 115.437 351.484 115.335C351.594 115.234 351.674 115.15 351.693 115.117L351.714 115.077L351.732 115.119C351.748 115.158 351.798 115.261 351.877 115.375C351.944 115.473 352.021 115.578 352.145 115.684C352.17 115.664 352.307 115.545 352.333 115.523C352.167 115.343 352.049 115.163 351.993 115.004C351.941 114.855 351.926 114.637 351.954 114.421L351.969 114.303L352.363 114.354L352.396 114.092C352.355 114.087 351.308 113.953 351.267 113.948ZM353.252 114.042C353.247 114.084 352.908 116.741 352.902 116.783C352.939 116.787 353.191 116.82 353.227 116.824L353.577 114.083C353.468 114.069 353.36 114.056 353.252 114.042ZM356.911 113.766C356.917 113.809 357.319 116.456 357.325 116.498C357.362 116.493 357.616 116.454 357.652 116.448L357.397 114.768L357.806 114.706C357.794 114.623 357.782 114.54 357.769 114.457L357.36 114.519L357.238 113.717L356.911 113.766ZM355.182 114.188L355.222 114.449L355.754 114.367L355.757 114.39C355.785 114.604 355.773 114.819 355.723 114.98C355.65 115.205 355.469 115.452 355.238 115.646C355.271 115.671 355.438 115.798 355.463 115.816C355.589 115.711 355.705 115.593 355.807 115.464C355.904 115.345 355.981 115.218 356.024 115.106L356.037 115.071L356.061 115.099C356.133 115.18 356.244 115.273 356.393 115.374C356.525 115.458 356.668 115.531 356.791 115.575C356.806 115.55 356.92 115.38 356.943 115.346C356.671 115.229 356.455 115.082 356.335 114.929C356.225 114.794 356.143 114.596 356.093 114.339L356.089 114.316L356.634 114.233C356.629 114.198 356.599 114.006 356.594 113.972L355.182 114.188ZM359.307 114.851C359.322 114.882 359.401 115.047 359.415 115.078C359.452 115.06 360.042 114.779 360.042 114.779C360.042 114.779 360.457 115.654 360.476 115.693L360.791 115.543C360.772 115.504 360.358 114.629 360.358 114.629L360.828 114.405L361.26 115.319L361.573 115.17C361.556 115.131 361.141 114.255 361.141 114.255L361.764 113.958C361.729 113.882 361.693 113.806 361.657 113.731L359.307 114.851ZM359.438 113.847C359.598 114.184 360.03 114.313 360.402 114.135C360.773 113.959 360.947 113.541 360.787 113.205C360.628 112.868 360.196 112.739 359.825 112.916C359.452 113.094 359.279 113.511 359.438 113.847ZM359.746 113.701C359.701 113.602 359.697 113.49 359.734 113.389C359.77 113.287 359.845 113.204 359.941 113.156C360.144 113.06 360.394 113.147 360.488 113.347C360.583 113.547 360.492 113.797 360.29 113.893C360.09 113.988 359.84 113.901 359.746 113.701Z" fill="#88898B"/>
<path fill-rule="evenodd" clip-rule="evenodd" d="M362.516 111.281C362.538 111.307 362.663 111.451 362.686 111.477C362.718 111.449 363.722 110.578 363.722 110.578L363.736 110.594C363.743 110.601 363.751 110.61 363.759 110.619C363.9 110.783 364.231 111.246 364.348 111.473L364.356 111.489C364.356 111.489 363.143 112.542 363.11 112.57C363.134 112.596 363.252 112.734 363.275 112.76C363.307 112.733 364.129 112.019 364.129 112.019C364.129 112.019 364.762 112.752 364.789 112.783C364.817 112.759 365.031 112.573 365.059 112.549C365.031 112.518 364.399 111.784 364.399 111.784C364.399 111.784 365.208 111.083 365.239 111.055C365.216 111.029 365.098 110.891 365.074 110.865C365.044 110.892 364.605 111.273 364.605 111.273L364.592 111.249C364.434 110.966 364.018 110.384 363.818 110.148C363.786 110.177 362.548 111.252 362.516 111.281Z" fill="#88898B"/>
<path fill-rule="evenodd" clip-rule="evenodd" d="M343.325 108.69C343.29 108.714 341.726 109.824 341.692 109.849L341.885 110.122L343.518 108.963L343.325 108.69ZM340.914 108.578L340.354 108.975C340.28 109.027 340.268 109.138 340.326 109.221C340.326 109.221 341.244 110.523 341.269 110.558L341.479 110.409L340.624 109.198L341.108 108.854C341.087 108.824 340.935 108.608 340.914 108.578ZM341.561 107.544C341.245 107.768 341.178 108.22 341.412 108.551C341.645 108.882 342.093 108.969 342.407 108.746C342.723 108.522 342.79 108.071 342.556 107.739C342.323 107.408 341.876 107.321 341.561 107.544ZM341.756 107.823C341.951 107.685 342.211 107.718 342.337 107.895C342.462 108.073 342.405 108.329 342.211 108.467C342.017 108.605 341.757 108.572 341.632 108.395C341.506 108.217 341.563 107.961 341.756 107.823ZM345.046 110.505C345.023 110.535 344.84 110.766 344.84 110.766C344.84 110.766 344.438 110.445 344.407 110.42C344.385 110.447 344.27 110.592 344.248 110.619L344.688 110.97L344.673 110.987C344.554 111.125 344.397 111.227 344.223 111.28C344.042 111.332 343.782 111.342 343.538 111.309C343.543 111.353 343.566 111.565 343.57 111.593C343.678 111.61 343.878 111.633 344.105 111.61C344.25 111.595 344.375 111.571 344.44 111.545L344.476 111.531L344.469 111.569C344.457 111.649 344.468 111.771 344.501 111.932C344.535 112.089 344.577 112.226 344.66 112.38L344.914 112.316C344.821 112.093 344.768 111.879 344.765 111.71C344.766 111.525 344.828 111.346 344.94 111.199L344.953 111.182L345.397 111.536C345.418 111.509 345.533 111.364 345.555 111.337C345.523 111.311 345.117 110.987 345.117 110.987C345.117 110.987 345.299 110.756 345.324 110.726L345.046 110.505Z" fill="#88898B"/>
<path fill-rule="evenodd" clip-rule="evenodd" d="M346.052 111.4C346.026 111.432 345.593 111.979 345.593 111.979L345.172 111.644L345.016 111.84C345.048 111.866 345.436 112.176 345.436 112.176L344.805 112.972C344.833 112.995 345.037 113.158 345.066 113.181C345.092 113.147 346.287 111.641 346.314 111.608C346.285 111.585 346.081 111.423 346.052 111.4ZM343.706 111.968C343.564 112.147 343.422 112.326 343.28 112.505C343.223 112.577 343.241 112.687 343.32 112.751L344.598 113.771L344.758 113.569L343.6 112.644L343.969 112.179C343.942 112.156 343.735 111.991 343.706 111.968ZM366.137 107.121C366.169 107.141 366.414 107.299 366.414 107.299C366.414 107.299 366.21 107.621 366.188 107.654C366.217 107.673 366.365 107.768 366.395 107.786L366.621 107.431L366.953 107.644L366.727 108L366.932 108.131C366.955 108.098 367.159 107.776 367.159 107.776C367.159 107.776 367.476 107.979 367.509 108.001L367.688 107.718C367.653 107.695 366.353 106.862 366.317 106.839C366.297 106.871 366.157 107.091 366.137 107.121ZM366.848 109.342C366.876 109.361 367.028 109.457 367.057 109.475L367.853 108.224L368.457 108.612L368.638 108.327C368.603 108.304 367.965 107.894 367.965 107.894C367.888 107.846 367.781 107.876 367.726 107.961L366.848 109.342ZM365.718 109.187C366.033 109.389 366.464 109.28 366.678 108.944C366.891 108.607 366.809 108.17 366.493 107.968C366.177 107.766 365.747 107.875 365.533 108.211C365.32 108.547 365.402 108.984 365.718 109.187ZM365.899 108.901C365.708 108.779 365.645 108.534 365.759 108.356C365.874 108.177 366.121 108.131 366.312 108.253C366.499 108.373 366.562 108.623 366.451 108.798C366.337 108.977 366.09 109.023 365.899 108.901Z" fill="#88898B"/>
<path fill-rule="evenodd" clip-rule="evenodd" d="M342.425 93.1301L342.195 93.5125L340.419 92.4361L340.649 92.0536L342.425 93.1301ZM341.81 91.7474L341.82 91.7478C341.766 91.5975 341.777 91.437 341.906 91.2602C341.99 91.1439 342.241 90.9816 342.441 91.0642C342.526 91.0981 342.604 91.1481 342.643 91.1773L343.401 91.7342L343.146 92.083L342.446 91.5684C342.32 91.479 342.153 91.4098 342.027 91.5818C341.947 91.691 341.975 91.8582 342.141 91.9869L342.84 92.5017L342.586 92.8505L341.423 91.995L341.675 91.6484L341.81 91.7474ZM343.437 90.2933C343.348 90.2154 343.209 90.154 343.096 90.2772C342.972 90.4131 343.224 90.6492 343.303 90.7295C343.408 90.8108 343.678 91.0562 343.803 90.9204C343.916 90.7974 343.828 90.6501 343.743 90.5678L344.027 90.258C344.288 90.5181 344.283 90.8224 344.014 91.1154C343.725 91.4316 343.297 91.3314 343.016 91.0722C342.735 90.8127 342.599 90.3942 342.889 90.078C343.138 89.8061 343.477 89.7469 343.724 89.9791L343.437 90.2933ZM344.553 90.4771L343.189 88.909L343.512 88.6261L344.039 89.2325L344.047 89.2327C344.027 89.0743 344.072 88.9199 344.237 88.7757C344.345 88.6812 344.625 88.5778 344.802 88.702C344.865 88.747 344.923 88.799 344.975 88.8571L345.592 89.5675L345.268 89.8517L344.697 89.1956C344.593 89.0803 344.445 88.9759 344.285 89.1162C344.183 89.2052 344.174 89.3743 344.307 89.5367L344.878 90.1927L344.553 90.4771ZM345.651 88.4228C345.566 88.2886 345.519 88.1429 345.683 88.0304C345.856 87.9116 345.974 88.0083 346.063 88.1389L345.651 88.4228ZM346.593 88.1239C346.539 88.0458 346.487 87.9696 346.428 87.9026C346.366 87.8328 346.301 87.7729 346.222 87.729C345.98 87.5885 345.743 87.6397 345.52 87.7928C345.158 88.0422 345.138 88.4616 345.383 88.8206C345.656 89.22 345.977 89.3378 346.385 89.0576C346.662 88.8667 346.825 88.6111 346.654 88.2953L346.335 88.5153C346.376 88.6476 346.345 88.7354 346.222 88.8199C346.04 88.9452 345.919 88.8151 345.814 88.6605L346.593 88.1239ZM347.125 87.6954C347.018 87.4914 346.941 87.2518 347.175 87.1281C347.41 87.0049 347.562 87.2041 347.67 87.4081C347.777 87.6121 347.854 87.8517 347.619 87.975C347.386 88.0987 347.233 87.8995 347.125 87.6954H347.125ZM348.064 87.2002C347.852 86.797 347.459 86.6532 347.042 86.8732C346.625 87.0933 346.52 87.5004 346.731 87.9033C346.943 88.3066 347.336 88.4503 347.753 88.2303C348.171 88.0103 348.275 87.6032 348.064 87.2002ZM348.58 86.3915L348.588 86.3976C348.625 86.242 348.72 86.1128 348.925 86.0357C349.059 85.9847 349.357 85.9853 349.48 86.1637C349.533 86.2394 349.571 86.3236 349.588 86.3694L349.92 87.2511L349.517 87.404L349.21 86.5898C349.153 86.4453 349.051 86.296 348.851 86.3717C348.725 86.4194 348.658 86.5744 348.727 86.7733L349.034 87.5878L348.631 87.7405L348.12 86.387L348.52 86.2352L348.58 86.3915ZM350.979 86.96L350.591 84.9153L351.906 84.6642L351.971 85.004L351.093 85.1718L351.186 85.6645L352.004 85.5082L352.069 85.848L351.25 86.0043L351.416 86.8765L350.979 86.96ZM352.716 85.2237L352.749 85.4842L352.755 85.4838C352.825 85.2484 353.003 85.1738 353.218 85.159L353.254 85.5408L353.067 85.5584C352.997 85.5709 352.906 85.6199 352.869 85.6843C352.83 85.7689 352.829 85.8503 352.835 85.945L352.902 86.6599L352.476 86.7L352.365 85.5463C352.359 85.4861 352.34 85.3663 352.324 85.2605L352.716 85.2237ZM353.942 85.9937C353.942 86.1811 353.967 86.3568 354.188 86.3568C354.338 86.3568 354.413 86.3021 354.453 86.1695H354.841C354.803 86.527 354.525 86.6451 354.188 86.6451C353.694 86.6451 353.496 86.3656 353.496 85.8812C353.496 85.446 353.749 85.1116 354.188 85.1116C354.458 85.1116 354.683 85.2039 354.803 85.4576C354.843 85.5383 354.864 85.6247 354.875 85.717C354.887 85.8063 354.887 85.8985 354.887 85.9937H353.942ZM354.441 85.7054C354.441 85.5469 354.398 85.3998 354.188 85.3998C353.99 85.3998 353.947 85.5469 353.942 85.7054H354.441ZM355.58 85.7698C355.603 85.6129 355.661 85.4716 355.859 85.4934C356.067 85.5165 356.094 85.6673 356.076 85.8252L355.58 85.7698ZM356.487 86.1606C356.498 86.066 356.508 85.9745 356.506 85.8845C356.505 85.7913 356.495 85.7031 356.463 85.6186C356.371 85.3532 356.158 85.2368 355.89 85.2068C355.453 85.1587 355.165 85.463 355.117 85.8956C355.064 86.3771 355.231 86.6769 355.722 86.7313C356.056 86.7682 356.346 86.6813 356.422 86.3304L356.037 86.2877C355.982 86.4148 355.902 86.4614 355.754 86.4446C355.534 86.4204 355.528 86.2426 355.548 86.0565L356.487 86.1606ZM357.949 84.956L359.284 85.3458L359.188 85.6783L358.281 85.413L358.145 85.8806L358.994 86.1289L358.898 86.4614L358.048 86.2131L357.894 86.747L358.831 87.0212L358.735 87.3533L357.369 86.9542L357.949 84.956ZM360.078 86.8895C360.12 86.7794 360.131 86.6276 359.977 86.5631C359.807 86.4921 359.671 86.8105 359.623 86.912C359.583 87.0388 359.445 87.3777 359.615 87.4488C359.769 87.5132 359.877 87.3803 359.925 87.2723L360.312 87.4343C360.157 87.769 359.87 87.868 359.504 87.7146C359.109 87.5494 359.057 87.1125 359.204 86.7585C359.351 86.4047 359.697 86.1339 360.092 86.2993C360.432 86.4412 360.603 86.7409 360.47 87.0539L360.078 86.8895ZM360.97 87.5583C361.082 87.3569 361.239 87.1608 361.47 87.2896C361.701 87.4184 361.619 87.656 361.508 87.8578C361.396 88.0596 361.239 88.2553 361.007 88.1265C360.776 87.9977 360.859 87.76 360.97 87.5583H360.97ZM361.897 88.0746C362.118 87.6765 362.022 87.2672 361.61 87.0378C361.198 86.8082 360.801 86.9434 360.581 87.3415C360.36 87.7399 360.456 88.1489 360.868 88.3785C361.28 88.6079 361.677 88.4727 361.897 88.0746ZM362.854 88.0643L362.854 88.075C363.003 88.0201 363.163 88.0298 363.34 88.1589C363.456 88.2434 363.619 88.4942 363.537 88.695C363.508 88.767 363.471 88.8353 363.425 88.8984L362.873 89.6607L362.525 89.4064L363.035 88.7021C363.124 88.5748 363.192 88.4071 363.02 88.2818C362.911 88.2018 362.745 88.2303 362.616 88.3972L362.106 89.1011L361.757 88.8469L362.606 87.6765L362.952 87.9292L362.854 88.0643ZM363.887 89.5948C364.044 89.4259 364.244 89.2741 364.437 89.455C364.63 89.6357 364.494 89.8465 364.337 90.0153C364.18 90.184 363.98 90.3359 363.787 90.1549C363.593 89.9739 363.73 89.7632 363.887 89.5948H363.887ZM364.663 90.32C364.972 89.9868 364.978 89.5665 364.633 89.244C364.288 88.9217 363.871 88.9567 363.561 89.2898C363.252 89.6229 363.246 90.0435 363.591 90.3656C363.936 90.6883 364.353 90.6531 364.663 90.32ZM365.623 90.5553L365.627 90.5597C365.781 90.5514 365.932 90.6049 366.067 90.7773C366.167 90.9041 366.223 91.1636 366.136 91.3089C366.367 91.3 366.518 91.3531 366.653 91.5255C366.752 91.6523 366.809 91.9117 366.722 92.0575C366.664 92.1612 366.568 92.2336 366.477 92.305L365.795 92.8425L365.529 92.5024L366.211 91.9648C366.331 91.8662 366.443 91.7237 366.312 91.5561C366.228 91.4496 366.061 91.4312 365.892 91.5568L365.209 92.0943L364.943 91.7542L365.626 91.2166C365.746 91.118 365.857 90.9755 365.726 90.8077C365.642 90.701 365.475 90.683 365.307 90.8087L364.624 91.3461L364.358 91.0059L365.492 90.1123L365.757 90.4502L365.623 90.5553ZM367.382 92.7531L366.147 93.5023L365.924 93.1323L367.158 92.3832L367.382 92.7531ZM367.93 92.4373L367.613 92.6297L367.375 92.2352L367.692 92.0428L367.93 92.4373ZM367.499 94.0502C367.603 93.9946 367.71 93.8863 367.634 93.7367C367.552 93.5721 367.243 93.7248 367.14 93.77C367.027 93.8401 366.702 94.007 366.785 94.172C366.86 94.3213 367.028 94.2912 367.134 94.2406L367.323 94.6165C366.988 94.7696 366.706 94.6569 366.528 94.3014C366.336 93.9177 366.581 93.5523 366.922 93.3799C367.263 93.2079 367.702 93.2287 367.894 93.6125C368.059 93.942 367.994 94.2812 367.69 94.4314L367.499 94.0502ZM367.514 95.5489L369.14 96.1271L368.857 95.204L369.187 95.1024L369.629 96.5435L369.299 96.645L367.674 96.0694L367.982 97.0755L367.652 97.1767L367.185 95.6501L367.514 95.5489ZM368.471 97.633C368.697 97.5927 368.948 97.5921 368.994 97.8531C369.041 98.1145 368.805 98.2004 368.579 98.2403C368.352 98.2808 368.101 98.2814 368.055 98.02C368.009 97.7589 368.245 97.6731 368.471 97.633ZM368.656 98.6804C369.103 98.601 369.36 98.2685 369.278 97.8032C369.195 97.3377 368.841 97.1136 368.394 97.193C367.947 97.2724 367.69 97.6049 367.772 98.0702C367.854 98.5359 368.209 98.7599 368.656 98.6804ZM369.267 99.4184L369.258 99.4244C369.395 99.5064 369.489 99.6374 369.5 99.8562C369.508 100 369.417 100.285 369.21 100.348C369.122 100.376 369.031 100.386 368.982 100.389L368.044 100.439L368.02 100.007L368.887 99.961C369.042 99.9501 369.215 99.8975 369.204 99.6845C369.196 99.549 369.069 99.4375 368.859 99.4431L367.993 99.4894L367.97 99.0577L369.41 98.9805L369.433 99.4094L369.267 99.4184ZM368.619 101.201C368.432 101.189 368.256 101.203 368.242 101.425C368.232 101.575 368.282 101.653 368.411 101.701L368.387 102.09C368.033 102.03 367.934 101.743 367.955 101.407C367.986 100.912 368.277 100.731 368.759 100.762C369.191 100.789 369.508 101.064 369.48 101.504C369.463 101.774 369.357 101.993 369.097 102.098C369.015 102.133 368.927 102.148 368.834 102.153C368.745 102.159 368.653 102.153 368.559 102.147L368.619 101.201ZM368.873 101.719C369.031 101.729 369.18 101.696 369.193 101.485C369.206 101.287 369.063 101.234 368.905 101.219L368.873 101.719Z" fill="#88898B"/>
<path fill-rule="evenodd" clip-rule="evenodd" d="M336.581 94.7066C336.574 94.7292 336.571 94.7531 336.573 94.7768C336.574 94.8005 336.581 94.8237 336.592 94.845C336.602 94.8663 336.617 94.8852 336.635 94.9007C336.653 94.9163 336.674 94.9281 336.696 94.9355C336.719 94.943 336.743 94.946 336.767 94.9442C336.79 94.9425 336.813 94.936 336.835 94.9253C336.856 94.9146 336.875 94.8997 336.89 94.8817C336.906 94.8636 336.918 94.8426 336.925 94.82C339.371 87.3693 346.273 82.3633 354.099 82.3633C364.067 82.3633 372.177 90.4995 372.177 100.5C372.177 110.501 364.067 118.637 354.099 118.637C345.035 118.637 337.327 111.847 336.17 102.843C336.164 102.795 336.139 102.752 336.101 102.722C336.063 102.693 336.015 102.68 335.968 102.686C335.944 102.689 335.921 102.697 335.901 102.709C335.88 102.721 335.862 102.737 335.847 102.755C335.833 102.774 335.822 102.796 335.816 102.819C335.81 102.842 335.808 102.866 335.811 102.89C336.991 112.074 344.853 119 354.099 119C364.267 119 372.538 110.701 372.538 100.5C372.538 90.2991 364.267 82 354.099 82C346.116 82 339.076 87.1064 336.582 94.7066H336.581Z" fill="#88898B"/>
<path fill-rule="evenodd" clip-rule="evenodd" d="M342.924 95.5064C342.914 95.5284 342.913 95.5534 342.922 95.5759C342.93 95.5984 342.948 95.6165 342.97 95.6264C342.991 95.6362 343.016 95.6368 343.039 95.6282C343.061 95.6196 343.079 95.6024 343.089 95.5804C345.025 91.2253 349.347 88.4113 354.099 88.4113C360.743 88.4113 366.148 93.8341 366.148 100.5C366.148 107.166 360.743 112.589 354.099 112.589C348.788 112.589 344.034 109.023 342.537 103.917C342.529 103.894 342.513 103.876 342.493 103.866C342.472 103.855 342.448 103.853 342.426 103.859C342.403 103.866 342.384 103.881 342.373 103.901C342.361 103.921 342.358 103.945 342.363 103.968C343.882 109.151 348.708 112.771 354.099 112.771C360.843 112.771 366.329 107.266 366.329 100.5C366.329 93.7341 360.843 88.2296 354.099 88.2296C349.276 88.2296 344.889 91.086 342.924 95.5063V95.5064Z" fill="#88898B"/>
<path fill-rule="evenodd" clip-rule="evenodd" d="M345.043 95.9169C344.775 95.9174 344.518 96.0246 344.328 96.2151C344.138 96.4055 344.032 96.6637 344.031 96.9329C344.032 97.202 344.139 97.46 344.328 97.6503C344.518 97.8406 344.775 97.9478 345.043 97.9482C345.312 97.9479 345.569 97.8409 345.759 97.6505C345.948 97.4602 346.055 97.2021 346.056 96.9329C346.055 96.6635 345.949 96.4053 345.759 96.2149C345.569 96.0244 345.312 95.9172 345.043 95.9169Z" fill="#CD0A7C"/>
<path fill-rule="evenodd" clip-rule="evenodd" d="M350.335 98.9606H349.555V98.6326C349.555 98.1807 349.717 97.796 350.337 97.6093C350.83 97.4604 351.144 97.2211 351.144 96.7993C351.144 96.3522 350.783 96.0472 350.337 96.0472C349.209 96.0472 347.94 96.9614 347.94 98.4264V98.9606H347.432C347.222 98.9665 347.022 99.0544 346.876 99.2056C346.729 99.3568 346.647 99.5594 346.647 99.7703C346.647 99.9812 346.729 100.184 346.876 100.335C347.022 100.486 347.222 100.574 347.432 100.58H347.94V104.863C347.94 105.078 348.025 105.284 348.177 105.436C348.328 105.588 348.534 105.673 348.748 105.673C348.962 105.673 349.167 105.588 349.319 105.436C349.47 105.284 349.555 105.078 349.555 104.863V100.58H350.335C350.549 100.58 350.754 100.495 350.905 100.343C351.057 100.191 351.142 99.9854 351.142 99.7706C351.142 99.5558 351.057 99.3498 350.906 99.1979C350.754 99.0461 350.549 98.9607 350.335 98.9606ZM345.043 98.9606C344.937 98.9606 344.832 98.9816 344.734 99.0223C344.636 99.063 344.547 99.1227 344.472 99.1979C344.397 99.2731 344.338 99.3624 344.297 99.4607C344.257 99.5589 344.236 99.6643 344.236 99.7706V104.863C344.236 105.078 344.321 105.284 344.472 105.436C344.624 105.587 344.829 105.673 345.043 105.673C345.257 105.673 345.462 105.587 345.614 105.436C345.765 105.284 345.85 105.078 345.85 104.863V99.7706C345.85 99.6643 345.829 99.559 345.789 99.4607C345.748 99.3625 345.689 99.2732 345.614 99.198C345.539 99.1228 345.45 99.0631 345.352 99.0224C345.254 98.9816 345.149 98.9607 345.043 98.9606ZM363.274 104.054H360.727C361.949 102.601 363.891 100.293 363.891 100.293C363.99 100.175 364.054 100.031 364.074 99.8778C364.094 99.7248 364.071 99.5692 364.006 99.4292C363.941 99.2893 363.838 99.1708 363.708 99.0878C363.578 99.0048 363.428 98.9606 363.274 98.9606H358.935C358.721 98.9606 358.515 99.0459 358.364 99.1978C358.213 99.3496 358.128 99.5556 358.128 99.7703C358.128 99.9851 358.213 100.191 358.364 100.343C358.515 100.495 358.721 100.58 358.935 100.58H361.537L358.373 104.341C358.273 104.459 358.209 104.603 358.189 104.756C358.168 104.909 358.192 105.065 358.257 105.205C358.322 105.345 358.425 105.463 358.555 105.546C358.684 105.629 358.835 105.673 358.989 105.673H363.274C363.488 105.673 363.693 105.588 363.844 105.436C363.996 105.284 364.081 105.078 364.081 104.863C364.081 104.649 363.996 104.443 363.844 104.291C363.693 104.139 363.488 104.054 363.274 104.054Z" fill="#00447C"/>
<path fill-rule="evenodd" clip-rule="evenodd" d="M354.639 98.7239C352.704 98.7239 351.13 100.21 351.13 102.152C351.13 104.094 352.704 105.673 354.639 105.673H356.303C356.517 105.673 356.723 105.588 356.874 105.436C357.025 105.284 357.11 105.078 357.11 104.863C357.11 104.648 357.025 104.443 356.874 104.291C356.723 104.139 356.517 104.054 356.303 104.054H354.639C353.851 104.054 353.149 103.731 352.888 102.878H356.897C358.39 102.878 358.086 101.49 358.086 101.49C357.776 99.8641 356.349 98.7239 354.639 98.7239ZM352.865 101.49C353.134 100.768 353.827 100.343 354.639 100.343C355.452 100.343 356.145 100.768 356.413 101.49H352.865Z" fill="#00447C"/>
<path fill-rule="evenodd" clip-rule="evenodd" d="M330.538 96.4095C333.896 96.4476 335.334 97.4168 336.728 98.3588L337.577 98.9151C339.981 100.395 342.391 100.288 342.493 100.283C342.813 100.266 343.059 99.9785 343.044 99.6393C343.028 99.3011 342.757 99.0387 342.437 99.0548C342.415 99.0551 340.256 99.1422 338.162 97.8524L337.353 97.322C335.886 96.3307 334.241 95.2215 330.538 95.1796V96.4095Z" fill="#009FE0"/>
<path fill-rule="evenodd" clip-rule="evenodd" d="M330.538 99.0112C333.301 99.1906 334.606 100.072 335.874 100.928L336.724 101.484C339.067 102.928 341.466 102.862 341.679 102.853H342.464C342.785 102.853 343.045 102.578 343.045 102.238C343.045 101.899 342.785 101.623 342.464 101.623H341.669L341.644 101.623C341.622 101.625 339.404 101.713 337.308 100.422L336.499 99.8923C335.154 98.9833 333.651 97.9683 330.538 97.7791V99.0112Z" fill="#97C124"/>
<path fill-rule="evenodd" clip-rule="evenodd" d="M330.538 101.394C333.651 101.205 335.154 100.191 336.499 99.2819L337.308 98.7515C339.404 97.461 341.622 97.5484 341.644 97.5497H342.464C342.785 97.5497 343.045 97.2752 343.045 96.9354C343.045 96.5959 342.785 96.3201 342.464 96.3201H341.679C341.466 96.3115 339.067 96.2449 336.724 97.6884L335.874 98.2451C334.605 99.1012 333.3 99.9833 330.538 100.163V101.394Z" fill="#CD0A7C"/>
<path fill-rule="evenodd" clip-rule="evenodd" d="M336.219 98.0189C336.391 98.1317 336.559 98.2457 336.728 98.3588L337.318 98.745C337.73 98.4936 338.165 98.2811 338.616 98.1102C338.462 98.0293 338.311 97.9433 338.162 97.8524L337.366 97.3303C337.146 97.4402 336.932 97.5597 336.724 97.6884L336.219 98.0189ZM333.441 99.5861C333.985 99.7882 334.449 100.028 334.876 100.282C335.303 100.061 335.684 99.8235 336.044 99.5861C335.684 99.3501 335.303 99.1124 334.876 98.8914C334.449 99.1451 333.985 99.385 333.441 99.5861Z" fill="#00447C"/>
<path fill-rule="evenodd" clip-rule="evenodd" d="M352.71 95.605C352.713 95.405 352.592 95.2447 352.348 95.2447C352.06 95.2447 351.986 95.6733 351.986 95.939C351.986 96.2049 352.06 96.6337 352.348 96.6337C352.592 96.6337 352.713 96.4732 352.71 96.2732H353.143C353.124 96.7494 352.783 96.9284 352.348 96.9284C351.8 96.9284 351.554 96.4943 351.554 95.9391C351.554 95.3842 351.8 94.95 352.348 94.95C352.783 94.95 353.124 95.1288 353.143 95.605H352.71ZM353.386 96.8886V94.9896H353.777V95.7234L353.782 95.7286C353.864 95.6075 353.987 95.5288 354.186 95.5288C354.317 95.5288 354.572 95.6261 354.619 95.818C354.64 95.8996 354.645 95.9838 354.645 96.0287V96.8886H354.252V96.0944C354.249 95.9523 354.21 95.7916 354.016 95.7916C353.893 95.7916 353.785 95.9023 353.78 96.0944V96.8886H353.386ZM355.332 96.0706C355.337 95.9259 355.376 95.7917 355.558 95.7917C355.749 95.7917 355.788 95.9259 355.788 96.0706H355.332ZM356.195 96.3336C356.195 96.2468 356.195 96.1627 356.184 96.0813C356.174 95.9969 356.155 95.918 356.119 95.8444C356.009 95.6129 355.804 95.5288 355.558 95.5288C355.156 95.5288 354.925 95.8338 354.925 96.2311C354.925 96.673 355.106 96.9284 355.558 96.9284C355.864 96.9284 356.119 96.8204 356.153 96.4943H355.799C355.762 96.6151 355.694 96.6652 355.558 96.6652C355.356 96.6652 355.332 96.5047 355.332 96.3336H356.195ZM356.795 96.2285C356.795 96.018 356.835 95.7916 357.076 95.7916C357.317 95.7916 357.356 96.018 357.356 96.2285C357.356 96.4389 357.317 96.6652 357.076 96.6652C356.835 96.6652 356.795 96.4389 356.795 96.2285ZM357.763 96.2285C357.763 95.8127 357.506 95.5288 357.076 95.5288C356.646 95.5288 356.389 95.8127 356.389 96.2285C356.389 96.6441 356.646 96.9283 357.076 96.9283C357.506 96.9283 357.763 96.6441 357.763 96.2285ZM358.439 95.7207L358.445 95.7286C358.526 95.6075 358.649 95.5288 358.848 95.5288C358.979 95.5288 359.234 95.6261 359.281 95.818C359.302 95.8996 359.307 95.9838 359.307 96.0287V96.8886H358.914V96.0944C358.911 95.9523 358.872 95.7916 358.678 95.7916C358.555 95.7916 358.447 95.9023 358.442 96.0944V96.8886H358.049V95.568H358.439V95.7207ZM360.015 96.2074C360.015 96.0127 360.055 95.7916 360.269 95.7916C360.484 95.7916 360.524 96.0127 360.524 96.2074C360.524 96.3783 360.484 96.5992 360.269 96.5992C360.055 96.5992 360.015 96.3783 360.015 96.2074ZM360.917 95.568H360.524V95.7207H360.519C360.456 95.5867 360.343 95.5288 360.167 95.5288C359.8 95.5288 359.609 95.8681 359.609 96.2049C359.609 96.5258 359.792 96.8625 360.149 96.8625C360.298 96.8625 360.437 96.8099 360.519 96.6809H360.524C360.54 96.873 360.55 97.1467 360.251 97.1467C360.144 97.1467 360.039 97.1018 360.034 96.9834H359.661C359.669 97.3387 359.981 97.4095 360.272 97.4095C360.849 97.415 360.917 97.0782 360.917 96.7705V95.568ZM361.644 95.7207L361.649 95.7286C361.73 95.6075 361.853 95.5288 362.052 95.5288C362.183 95.5288 362.438 95.6261 362.485 95.818C362.506 95.8996 362.511 95.9838 362.511 96.0287V96.8886H362.118V96.0944C362.115 95.9523 362.076 95.7916 361.882 95.7916C361.759 95.7916 361.651 95.9023 361.646 96.0944V96.8886H361.253V95.568H361.644V95.7207ZM363.584 96.2679C363.584 96.4232 363.576 96.6652 363.358 96.6652C363.248 96.6652 363.167 96.5861 363.167 96.4758C363.167 96.2627 363.447 96.2651 363.584 96.2679ZM363.227 95.9418C363.222 95.8812 363.267 95.7522 363.403 95.7522C363.542 95.7522 363.584 95.8601 363.584 95.9155V96.0391C363.426 96.0336 363.227 96.0418 363.07 96.11C362.831 96.2128 362.789 96.4364 362.789 96.5285C362.789 96.7861 362.973 96.9283 363.219 96.9283C363.397 96.9283 363.534 96.865 363.623 96.7124H363.629C363.629 96.7678 363.634 96.8283 363.641 96.8886H363.995C363.99 96.8495 363.98 96.8099 363.977 96.7441V96.0232C363.977 95.6261 363.681 95.5288 363.416 95.5288C363.275 95.5288 363.136 95.5497 363.028 95.6129C362.923 95.6733 362.852 95.776 362.85 95.9418H363.227Z" fill="#97C124"/>
</g>
<defs>
<filter id="filter0_d_79_1574" x="0" y="0" width="391" height="138" filterUnits="userSpaceOnUse" color-interpolation-filters="sRGB">
<feFlood flood-opacity="0" result="BackgroundImageFix"/>
<feColorMatrix in="SourceAlpha" type="matrix" values="0 0 0 0 0 0 0 0 0 0 0 0 0 0 0 0 0 0 127 0" result="hardAlpha"/>
<feOffset dy="4"/>
<feGaussianBlur stdDeviation="2"/>
<feComposite in2="hardAlpha" operator="out"/>
<feColorMatrix type="matrix" values="0 0 0 0 0 0 0 0 0 0 0 0 0 0 0 0 0 0 0.25 0"/>
<feBlend mode="normal" in2="BackgroundImageFix" result="effect1_dropShadow_79_1574"/>
<feBlend mode="normal" in="SourceGraphic" in2="effect1_dropShadow_79_1574" result="shape"/>
</filter>
<linearGradient id="paint0_linear_79_1574" x1="277.419" y1="100.883" x2="263" y2="100.883" gradientUnits="userSpaceOnUse">
<stop stop-color="#CAB272"/>
<stop offset="1" stop-color="#9F8125"/>
</linearGradient>
<linearGradient id="paint1_linear_79_1574" x1="279.867" y1="100.883" x2="317.409" y2="100.883" gradientUnits="userSpaceOnUse">
<stop stop-color="#CAB272"/>
<stop offset="1" stop-color="#9F8125"/>
</linearGradient>
<clipPath id="clip0_79_1574">
<rect width="54.4093" height="32.6454" fill="white" transform="translate(263 84.5604)"/>
</clipPath>
<clipPath id="clip1_79_1574">
<rect width="42" height="37" fill="white" transform="translate(330.538 82)"/>
</clipPath>
</defs>
</svg>
