<svg width="391" height="138" viewBox="0 0 391 138" fill="none" xmlns="http://www.w3.org/2000/svg">
<g filter="url(#filter0_d_79_1575)">
<rect x="4" width="383" height="130" rx="10" fill="#DFBDF2"/>
</g>
<path d="M345.238 0C347.516 5.24927 348.7 10.6336 348.7 16.1201C348.7 71.9243 226.285 117.162 75.2803 117.162C50.6215 117.162 26.7254 115.954 4 113.692V10C4 4.47715 8.47715 0 14 0H345.238Z" fill="white" fill-opacity="0.3"/>
<path d="M34.82 36.9H51.58V39H34.82V36.9ZM41.8 37.96H44.46V44.78H41.8V37.96ZM36.72 26.96H39.36V29.06H46.98V26.96H49.6V35.14H36.72V26.96ZM39.36 31.14V33.04H46.98V31.14H39.36ZM57.3584 29.88H59.5384V30.58C59.5384 31.7133 59.3518 32.78 58.9784 33.78C58.6051 34.78 58.0384 35.6533 57.2784 36.4C56.5184 37.1467 55.5518 37.7133 54.3784 38.1L53.0784 36.02C54.0784 35.7 54.8918 35.26 55.5184 34.7C56.1584 34.1267 56.6251 33.4867 56.9184 32.78C57.2118 32.06 57.3584 31.3267 57.3584 30.58V29.88ZM57.8584 29.88H60.0184V30.58C60.0184 31.2733 60.1651 31.96 60.4584 32.64C60.7651 33.3067 61.2384 33.9133 61.8784 34.46C62.5184 34.9933 63.3318 35.4067 64.3184 35.7L63.0584 37.78C61.8851 37.4333 60.9118 36.9067 60.1384 36.2C59.3784 35.48 58.8051 34.64 58.4184 33.68C58.0451 32.7067 57.8584 31.6733 57.8584 30.58V29.88ZM53.7184 28.44H63.6784V30.52H53.7184V28.44ZM57.3584 26.38H60.0184V29.22H57.3584V26.38ZM63.0784 31.64H67.3784V33.8H63.0784V31.64ZM66.0384 26.26H68.7184V39.96H66.0384V26.26ZM56.4784 42.32H69.1384V44.46H56.4784V42.32ZM56.4784 38.82H59.1384V43.72H56.4784V38.82ZM82.9453 28.7812L77.7305 44.2207H75.6406L80.8555 28.7812H82.9453ZM95.9997 32.82H98.6597V36.14H95.9997V32.82ZM95.9797 26.58H98.2597V27.14C98.2597 27.82 98.153 28.4733 97.9397 29.1C97.7264 29.7133 97.413 30.28 96.9997 30.8C96.5864 31.32 96.0797 31.7933 95.4797 32.22C94.8797 32.6333 94.1864 32.9867 93.3997 33.28C92.6264 33.5733 91.7597 33.7867 90.7997 33.92L89.8197 31.82C90.6597 31.7267 91.4064 31.5733 92.0597 31.36C92.7264 31.1333 93.2997 30.8667 93.7797 30.56C94.273 30.2533 94.6797 29.9133 94.9997 29.54C95.333 29.1667 95.5797 28.78 95.7397 28.38C95.8997 27.9667 95.9797 27.5533 95.9797 27.14V26.58ZM96.4197 26.58H98.6797V27.14C98.6797 27.5667 98.7597 27.9867 98.9197 28.4C99.0797 28.8133 99.3197 29.2067 99.6397 29.58C99.9597 29.94 100.36 30.2733 100.84 30.58C101.333 30.8867 101.913 31.1467 102.58 31.36C103.246 31.5733 104 31.7267 104.84 31.82L103.86 33.92C102.913 33.7867 102.046 33.5733 101.26 33.28C100.486 32.9867 99.793 32.64 99.1797 32.24C98.5797 31.8267 98.073 31.36 97.6597 30.84C97.2464 30.3067 96.933 29.7333 96.7197 29.12C96.5197 28.5067 96.4197 27.8467 96.4197 27.14V26.58ZM88.9797 35.08H105.74V37.18H88.9797V35.08ZM97.3197 38.18C99.333 38.18 100.906 38.4733 102.04 39.06C103.186 39.6333 103.76 40.44 103.76 41.48C103.76 42.5467 103.186 43.36 102.04 43.92C100.906 44.4933 99.333 44.78 97.3197 44.78C95.3064 44.78 93.733 44.4933 92.5997 43.92C91.4664 43.36 90.8997 42.5467 90.8997 41.48C90.8997 40.44 91.4664 39.6333 92.5997 39.06C93.733 38.4733 95.3064 38.18 97.3197 38.18ZM97.3197 40.18C96.0797 40.18 95.1464 40.2867 94.5197 40.5C93.893 40.7 93.5797 41.0267 93.5797 41.48C93.5797 41.9333 93.893 42.2667 94.5197 42.48C95.1464 42.6933 96.0797 42.8 97.3197 42.8C98.573 42.8 99.5064 42.6933 100.12 42.48C100.746 42.2667 101.06 41.9333 101.06 41.48C101.06 41.0267 100.746 40.7 100.12 40.5C99.5064 40.2867 98.573 40.18 97.3197 40.18ZM120.718 26.24H123.238V44.76H120.718V26.24ZM118.298 33.38H121.378V35.52H118.298V33.38ZM116.578 26.56H119.058V43.9H116.578V26.56ZM108.118 28.3H110.778V39H108.118V28.3ZM108.118 37.98H109.398C110.291 37.98 111.251 37.9533 112.278 37.9C113.318 37.8333 114.411 37.6867 115.558 37.46L115.798 39.74C114.598 39.9533 113.465 40.0933 112.398 40.16C111.331 40.2267 110.331 40.26 109.398 40.26H108.118V37.98ZM132.657 34.22H145.777V36.34H132.657V34.22ZM130.777 40.56H147.557V42.7H130.777V40.56ZM137.817 35.48H140.477V41.16H137.817V35.48ZM132.657 27.66H135.317V35.14H132.657V27.66ZM158.615 30.18H162.915V32.34H158.615V30.18ZM153.415 27.38H155.555V29.38C155.555 30.6333 155.375 31.8133 155.015 32.92C154.655 34.0267 154.095 34.9933 153.335 35.82C152.589 36.6333 151.629 37.2533 150.455 37.68L149.055 35.6C149.829 35.3333 150.489 34.9867 151.035 34.56C151.582 34.1333 152.029 33.6467 152.375 33.1C152.722 32.54 152.982 31.9467 153.155 31.32C153.329 30.6933 153.415 30.0467 153.415 29.38V27.38ZM153.975 27.38H156.095V29.4C156.095 30 156.175 30.5867 156.335 31.16C156.495 31.7333 156.742 32.28 157.075 32.8C157.409 33.32 157.835 33.7867 158.355 34.2C158.889 34.6 159.515 34.9267 160.235 35.18L158.835 37.22C157.729 36.8067 156.815 36.2133 156.095 35.44C155.375 34.6667 154.842 33.76 154.495 32.72C154.149 31.68 153.975 30.5733 153.975 29.4V27.38ZM161.995 26.26H164.675V39.92H161.995V26.26ZM152.415 42.32H165.075V44.46H152.415V42.32ZM152.415 38.56H155.075V43.52H152.415V38.56Z" fill="white"/>
<g clip-path="url(#clip0_79_1575)">
<path d="M373 113.643L362.352 121L341 113.643L351.676 106.286L373 113.643Z" fill="url(#paint0_linear_79_1575)"/>
<path d="M341 79.2665L351.676 71.9096V106.286L341 113.643V79.2665Z" fill="#0A286B"/>
<path d="M362.352 87.8272L351.676 95.1841L362.352 98.8759V121L373 113.643V91.519L362.352 87.8272Z" fill="#0A286B"/>
<path d="M362.352 78.3569L373 71V86.008L362.352 93.3649V78.3569Z" fill="#33BA9C"/>
</g>
<defs>
<filter id="filter0_d_79_1575" x="0" y="0" width="391" height="138" filterUnits="userSpaceOnUse" color-interpolation-filters="sRGB">
<feFlood flood-opacity="0" result="BackgroundImageFix"/>
<feColorMatrix in="SourceAlpha" type="matrix" values="0 0 0 0 0 0 0 0 0 0 0 0 0 0 0 0 0 0 127 0" result="hardAlpha"/>
<feOffset dy="4"/>
<feGaussianBlur stdDeviation="2"/>
<feComposite in2="hardAlpha" operator="out"/>
<feColorMatrix type="matrix" values="0 0 0 0 0 0 0 0 0 0 0 0 0 0 0 0 0 0 0.25 0"/>
<feBlend mode="normal" in2="BackgroundImageFix" result="effect1_dropShadow_79_1575"/>
<feBlend mode="normal" in="SourceGraphic" in2="effect1_dropShadow_79_1575" result="shape"/>
</filter>
<linearGradient id="paint0_linear_79_1575" x1="351.028" y1="102.919" x2="384.424" y2="115.275" gradientUnits="userSpaceOnUse">
<stop stop-color="#0A286B"/>
<stop offset="0.45" stop-color="#33BA9C"/>
</linearGradient>
<clipPath id="clip0_79_1575">
<rect width="32" height="50" fill="white" transform="translate(341 71)"/>
</clipPath>
</defs>
</svg>
