<svg width="391" height="138" viewBox="0 0 391 138" fill="none" xmlns="http://www.w3.org/2000/svg">
<g filter="url(#filter0_d_205_1369)">
<rect x="4.00005" width="383" height="130" rx="10" fill="#DFBDF2"/>
</g>
<path d="M30.8201 36.9H47.5801V39H30.8201V36.9ZM37.8001 37.96H40.4601V44.78H37.8001V37.96ZM32.7201 26.96H35.3601V29.06H42.9801V26.96H45.6001V35.14H32.7201V26.96ZM35.3601 31.14V33.04H42.9801V31.14H35.3601ZM53.3585 29.88H55.5385V30.58C55.5385 31.7133 55.3519 32.78 54.9785 33.78C54.6052 34.78 54.0385 35.6533 53.2785 36.4C52.5185 37.1467 51.5519 37.7133 50.3785 38.1L49.0785 36.02C50.0785 35.7 50.8919 35.26 51.5185 34.7C52.1585 34.1267 52.6252 33.4867 52.9185 32.78C53.2119 32.06 53.3585 31.3267 53.3585 30.58V29.88ZM53.8585 29.88H56.0185V30.58C56.0185 31.2733 56.1652 31.96 56.4585 32.64C56.7652 33.3067 57.2385 33.9133 57.8785 34.46C58.5185 34.9933 59.3319 35.4067 60.3185 35.7L59.0585 37.78C57.8852 37.4333 56.9119 36.9067 56.1385 36.2C55.3785 35.48 54.8052 34.64 54.4185 33.68C54.0452 32.7067 53.8585 31.6733 53.8585 30.58V29.88ZM49.7185 28.44H59.6785V30.52H49.7185V28.44ZM53.3585 26.38H56.0185V29.22H53.3585V26.38ZM59.0785 31.64H63.3785V33.8H59.0785V31.64ZM62.0385 26.26H64.7185V39.96H62.0385V26.26ZM52.4785 42.32H65.1385V44.46H52.4785V42.32ZM52.4785 38.82H55.1385V43.72H52.4785V38.82ZM78.9454 28.7812L73.7306 44.2207H71.6407L76.8556 28.7812H78.9454ZM91.9998 32.82H94.6598V36.14H91.9998V32.82ZM91.9798 26.58H94.2598V27.14C94.2598 27.82 94.1531 28.4733 93.9398 29.1C93.7264 29.7133 93.4131 30.28 92.9998 30.8C92.5864 31.32 92.0798 31.7933 91.4798 32.22C90.8798 32.6333 90.1864 32.9867 89.3998 33.28C88.6264 33.5733 87.7598 33.7867 86.7998 33.92L85.8198 31.82C86.6598 31.7267 87.4064 31.5733 88.0598 31.36C88.7264 31.1333 89.2998 30.8667 89.7798 30.56C90.2731 30.2533 90.6798 29.9133 90.9998 29.54C91.3331 29.1667 91.5798 28.78 91.7398 28.38C91.8998 27.9667 91.9798 27.5533 91.9798 27.14V26.58ZM92.4198 26.58H94.6798V27.14C94.6798 27.5667 94.7598 27.9867 94.9198 28.4C95.0798 28.8133 95.3198 29.2067 95.6398 29.58C95.9598 29.94 96.3598 30.2733 96.8398 30.58C97.3331 30.8867 97.9131 31.1467 98.5798 31.36C99.2464 31.5733 99.9998 31.7267 100.84 31.82L99.8598 33.92C98.9131 33.7867 98.0464 33.5733 97.2598 33.28C96.4864 32.9867 95.7931 32.64 95.1798 32.24C94.5798 31.8267 94.0731 31.36 93.6598 30.84C93.2464 30.3067 92.9331 29.7333 92.7198 29.12C92.5198 28.5067 92.4198 27.8467 92.4198 27.14V26.58ZM84.9798 35.08H101.74V37.18H84.9798V35.08ZM93.3198 38.18C95.3331 38.18 96.9064 38.4733 98.0398 39.06C99.1864 39.6333 99.7598 40.44 99.7598 41.48C99.7598 42.5467 99.1864 43.36 98.0398 43.92C96.9064 44.4933 95.3331 44.78 93.3198 44.78C91.3064 44.78 89.7331 44.4933 88.5998 43.92C87.4664 43.36 86.8998 42.5467 86.8998 41.48C86.8998 40.44 87.4664 39.6333 88.5998 39.06C89.7331 38.4733 91.3064 38.18 93.3198 38.18ZM93.3198 40.18C92.0798 40.18 91.1464 40.2867 90.5198 40.5C89.8931 40.7 89.5798 41.0267 89.5798 41.48C89.5798 41.9333 89.8931 42.2667 90.5198 42.48C91.1464 42.6933 92.0798 42.8 93.3198 42.8C94.5731 42.8 95.5064 42.6933 96.1198 42.48C96.7464 42.2667 97.0598 41.9333 97.0598 41.48C97.0598 41.0267 96.7464 40.7 96.1198 40.5C95.5064 40.2867 94.5731 40.18 93.3198 40.18ZM116.718 26.24H119.238V44.76H116.718V26.24ZM114.298 33.38H117.378V35.52H114.298V33.38ZM112.578 26.56H115.058V43.9H112.578V26.56ZM104.118 28.3H106.778V39H104.118V28.3ZM104.118 37.98H105.398C106.292 37.98 107.252 37.9533 108.278 37.9C109.318 37.8333 110.412 37.6867 111.558 37.46L111.798 39.74C110.598 39.9533 109.465 40.0933 108.398 40.16C107.332 40.2267 106.332 40.26 105.398 40.26H104.118V37.98ZM128.657 34.22H141.777V36.34H128.657V34.22ZM126.777 40.56H143.557V42.7H126.777V40.56ZM133.817 35.48H136.477V41.16H133.817V35.48ZM128.657 27.66H131.317V35.14H128.657V27.66ZM154.616 30.18H158.916V32.34H154.616V30.18ZM149.416 27.38H151.556V29.38C151.556 30.6333 151.376 31.8133 151.016 32.92C150.656 34.0267 150.096 34.9933 149.336 35.82C148.589 36.6333 147.629 37.2533 146.456 37.68L145.056 35.6C145.829 35.3333 146.489 34.9867 147.036 34.56C147.582 34.1333 148.029 33.6467 148.376 33.1C148.722 32.54 148.982 31.9467 149.156 31.32C149.329 30.6933 149.416 30.0467 149.416 29.38V27.38ZM149.976 27.38H152.096V29.4C152.096 30 152.176 30.5867 152.336 31.16C152.496 31.7333 152.742 32.28 153.076 32.8C153.409 33.32 153.836 33.7867 154.356 34.2C154.889 34.6 155.516 34.9267 156.236 35.18L154.836 37.22C153.729 36.8067 152.816 36.2133 152.096 35.44C151.376 34.6667 150.842 33.76 150.496 32.72C150.149 31.68 149.976 30.5733 149.976 29.4V27.38ZM157.996 26.26H160.676V39.92H157.996V26.26ZM148.416 42.32H161.076V44.46H148.416V42.32ZM148.416 38.56H151.076V43.52H148.416V38.56Z" fill="white"/>
<g clip-path="url(#clip0_205_1369)">
<path d="M373 113.643L362.352 121L341 113.643L351.676 106.286L373 113.643Z" fill="url(#paint0_linear_205_1369)"/>
<path d="M341 79.2665L351.676 71.9096V106.286L341 113.643V79.2665Z" fill="#0A286B"/>
<path d="M362.352 87.8272L351.676 95.1841L362.352 98.8759V121L373 113.643V91.519L362.352 87.8272Z" fill="#0A286B"/>
<path d="M362.352 78.3569L373 71V86.008L362.352 93.3649V78.3569Z" fill="#33BA9C"/>
</g>
<path d="M344.239 1C346.516 6.28654 347.7 11.7089 347.7 17.2344C347.7 73.4375 225.286 119 74.2812 119C49.6224 119 25.7255 117.784 3 115.506V11C3 5.47715 7.47715 1 13 1H344.239Z" fill="white" fill-opacity="0.3"/>
<defs>
<filter id="filter0_d_205_1369" x="4.57764e-05" y="0" width="391" height="138" filterUnits="userSpaceOnUse" color-interpolation-filters="sRGB">
<feFlood flood-opacity="0" result="BackgroundImageFix"/>
<feColorMatrix in="SourceAlpha" type="matrix" values="0 0 0 0 0 0 0 0 0 0 0 0 0 0 0 0 0 0 127 0" result="hardAlpha"/>
<feOffset dy="4"/>
<feGaussianBlur stdDeviation="2"/>
<feComposite in2="hardAlpha" operator="out"/>
<feColorMatrix type="matrix" values="0 0 0 0 0 0 0 0 0 0 0 0 0 0 0 0 0 0 0.25 0"/>
<feBlend mode="normal" in2="BackgroundImageFix" result="effect1_dropShadow_205_1369"/>
<feBlend mode="normal" in="SourceGraphic" in2="effect1_dropShadow_205_1369" result="shape"/>
</filter>
<linearGradient id="paint0_linear_205_1369" x1="351.028" y1="102.919" x2="384.424" y2="115.275" gradientUnits="userSpaceOnUse">
<stop stop-color="#0A286B"/>
<stop offset="0.45" stop-color="#33BA9C"/>
</linearGradient>
<clipPath id="clip0_205_1369">
<rect width="32" height="50" fill="white" transform="translate(341 71)"/>
</clipPath>
</defs>
</svg>
