<svg width="391" height="138" viewBox="0 0 391 138" fill="none" xmlns="http://www.w3.org/2000/svg">
<path d="M185.925 23.3164C238.218 23.3164 280.611 38.9824 280.611 58.3076C280.611 64.6815 275.999 70.6567 267.941 75.8037H103.908C95.8508 70.6567 91.2393 64.6815 91.2393 58.3076C91.2394 38.9824 133.631 23.3164 185.925 23.3164Z" fill="white" fill-opacity="0.2"/>
<g filter="url(#filter0_d_79_1576)">
<rect x="4" width="383" height="130" rx="10" fill="#FFBF40"/>
</g>
<path d="M345.239 0C347.517 4.83427 348.7 9.79297 348.7 14.8457C348.7 66.2393 226.286 107.902 75.2803 107.902C50.6216 107.902 26.7253 106.79 4 104.707V10C4 4.47715 8.47715 0 14 0H345.239Z" fill="white" fill-opacity="0.3"/>
<path d="M46.72 24.26H49.38V37.72H46.72V24.26ZM48.64 29.54H51.84V31.74H48.64V29.54ZM37.44 40.32H50.04V42.46H37.44V40.32ZM37.44 36.32H40.12V41.28H37.44V36.32ZM39.96 25.44C40.9067 25.44 41.76 25.64 42.52 26.04C43.28 26.44 43.88 26.9933 44.32 27.7C44.7733 28.4067 45 29.22 45 30.14C45 31.0467 44.7733 31.86 44.32 32.58C43.88 33.2867 43.28 33.8467 42.52 34.26C41.76 34.66 40.9067 34.86 39.96 34.86C39.0133 34.86 38.16 34.66 37.4 34.26C36.64 33.8467 36.04 33.2867 35.6 32.58C35.16 31.86 34.94 31.0467 34.94 30.14C34.94 29.22 35.16 28.4067 35.6 27.7C36.04 26.9933 36.64 26.44 37.4 26.04C38.16 25.64 39.0133 25.44 39.96 25.44ZM39.96 27.74C39.5067 27.74 39.0933 27.84 38.72 28.04C38.36 28.2267 38.0733 28.5 37.86 28.86C37.6467 29.2067 37.54 29.6333 37.54 30.14C37.54 30.6467 37.6467 31.08 37.86 31.44C38.0733 31.7867 38.36 32.06 38.72 32.26C39.0933 32.4467 39.5067 32.54 39.96 32.54C40.4267 32.54 40.84 32.4467 41.2 32.26C41.5733 32.06 41.8667 31.7867 42.08 31.44C42.2933 31.08 42.4 30.6467 42.4 30.14C42.4 29.6333 42.2933 29.2067 42.08 28.86C41.8667 28.5 41.5733 28.2267 41.2 28.04C40.84 27.84 40.4267 27.74 39.96 27.74ZM57.3584 25.38H59.5584V27.38C59.5584 28.6067 59.3651 29.76 58.9784 30.84C58.6051 31.9067 58.0318 32.84 57.2584 33.64C56.4984 34.44 55.5251 35.04 54.3384 35.44L52.9184 33.38C53.9718 33.0333 54.8251 32.5533 55.4784 31.94C56.1318 31.3133 56.6051 30.6067 56.8984 29.82C57.2051 29.02 57.3584 28.2067 57.3584 27.38V25.38ZM57.8984 25.38H60.0584V27.4C60.0584 27.9867 60.1384 28.5667 60.2984 29.14C60.4584 29.7 60.7118 30.2333 61.0584 30.74C61.4051 31.2333 61.8451 31.68 62.3784 32.08C62.9118 32.4667 63.5518 32.78 64.2984 33.02L62.9384 35.1C61.7784 34.7133 60.8251 34.14 60.0784 33.38C59.3451 32.6067 58.7984 31.7067 58.4384 30.68C58.0784 29.6533 57.8984 28.56 57.8984 27.4V25.38ZM65.1184 24.26H67.7784V37.8H65.1184V24.26ZM67.0384 29.62H70.2384V31.8H67.0384V29.62ZM55.8584 40.32H68.4384V42.46H55.8584V40.32ZM55.8584 36.5H58.5384V41.46H55.8584V36.5ZM82.9453 26.7812L77.7305 42.2207H75.6406L80.8555 26.7812H82.9453ZM93.4997 25.68H95.6797V28.36C95.6797 29.56 95.573 30.7133 95.3597 31.82C95.1464 32.9133 94.8197 33.94 94.3797 34.9C93.953 35.8467 93.3997 36.6867 92.7197 37.42C92.053 38.14 91.2597 38.7133 90.3397 39.14L88.7597 36.94C89.573 36.58 90.273 36.1067 90.8597 35.52C91.4597 34.92 91.953 34.24 92.3397 33.48C92.7264 32.7067 93.013 31.8867 93.1997 31.02C93.3997 30.1533 93.4997 29.2667 93.4997 28.36V25.68ZM94.0197 25.68H96.1797V28.36C96.1797 29.2267 96.273 30.0733 96.4597 30.9C96.6464 31.7267 96.9264 32.5067 97.2997 33.24C97.6864 33.9733 98.1664 34.6267 98.7397 35.2C99.3264 35.76 100.013 36.2067 100.8 36.54L99.2597 38.7C98.3664 38.2867 97.5864 37.7333 96.9197 37.04C96.2664 36.3467 95.7264 35.5467 95.2997 34.64C94.873 33.72 94.553 32.7333 94.3397 31.68C94.1264 30.6133 94.0197 29.5067 94.0197 28.36V25.68ZM101.7 24.22H104.36V42.8H101.7V24.22ZM115.718 37.02C117.771 37.02 119.358 37.2667 120.478 37.76C121.598 38.2533 122.158 38.9667 122.158 39.9C122.158 40.86 121.598 41.58 120.478 42.06C119.358 42.5533 117.771 42.8 115.718 42.8C113.678 42.8 112.098 42.5533 110.978 42.06C109.858 41.58 109.298 40.8667 109.298 39.92C109.298 38.9733 109.858 38.2533 110.978 37.76C112.098 37.2667 113.678 37.02 115.718 37.02ZM115.738 38.94C114.445 38.94 113.498 39.02 112.898 39.18C112.298 39.3267 111.998 39.5667 111.998 39.9C111.998 40.2467 112.298 40.5 112.898 40.66C113.498 40.8067 114.445 40.88 115.738 40.88C117.018 40.88 117.951 40.8067 118.538 40.66C119.138 40.5 119.438 40.2467 119.438 39.9C119.438 39.5667 119.138 39.3267 118.538 39.18C117.951 39.02 117.018 38.94 115.738 38.94ZM108.178 25.58H123.278V27.58H108.178V25.58ZM115.758 28.06C117.758 28.06 119.291 28.2867 120.358 28.74C121.425 29.1933 121.958 29.8533 121.958 30.72C121.958 31.6 121.425 32.2667 120.358 32.72C119.291 33.16 117.758 33.38 115.758 33.38C113.785 33.38 112.258 33.16 111.178 32.72C110.098 32.2667 109.558 31.6 109.558 30.72C109.558 29.8533 110.098 29.1933 111.178 28.74C112.258 28.2867 113.785 28.06 115.758 28.06ZM115.758 29.86C114.625 29.86 113.785 29.9267 113.238 30.06C112.691 30.1933 112.418 30.42 112.418 30.74C112.418 31.0333 112.691 31.2533 113.238 31.4C113.785 31.5333 114.625 31.6 115.758 31.6C116.918 31.6 117.765 31.5333 118.298 31.4C118.845 31.2533 119.118 31.0333 119.118 30.74C119.118 30.42 118.845 30.1933 118.298 30.06C117.765 29.9267 116.918 29.86 115.758 29.86ZM114.438 24.08H117.078V26.94H114.438V24.08ZM107.378 34.16H124.138V36.22H107.378V34.16ZM132.657 32.22H145.777V34.34H132.657V32.22ZM130.777 38.56H147.557V40.7H130.777V38.56ZM137.817 33.48H140.477V39.16H137.817V33.48ZM132.657 25.66H135.317V33.14H132.657V25.66ZM158.615 28.18H162.915V30.34H158.615V28.18ZM153.415 25.38H155.555V27.38C155.555 28.6333 155.375 29.8133 155.015 30.92C154.655 32.0267 154.095 32.9933 153.335 33.82C152.589 34.6333 151.629 35.2533 150.455 35.68L149.055 33.6C149.829 33.3333 150.489 32.9867 151.035 32.56C151.582 32.1333 152.029 31.6467 152.375 31.1C152.722 30.54 152.982 29.9467 153.155 29.32C153.329 28.6933 153.415 28.0467 153.415 27.38V25.38ZM153.975 25.38H156.095V27.4C156.095 28 156.175 28.5867 156.335 29.16C156.495 29.7333 156.742 30.28 157.075 30.8C157.409 31.32 157.835 31.7867 158.355 32.2C158.889 32.6 159.515 32.9267 160.235 33.18L158.835 35.22C157.729 34.8067 156.815 34.2133 156.095 33.44C155.375 32.6667 154.842 31.76 154.495 30.72C154.149 29.68 153.975 28.5733 153.975 27.4V25.38ZM161.995 24.26H164.675V37.92H161.995V24.26ZM152.415 40.32H165.075V42.46H152.415V40.32ZM152.415 36.56H155.075V41.52H152.415V36.56Z" fill="white"/>
<g clip-path="url(#clip0_79_1576)">
<mask id="mask0_79_1576" style="mask-type:luminance" maskUnits="userSpaceOnUse" x="253" y="83" width="55" height="39">
<path d="M253 83H308V122H253V83Z" fill="white"/>
</mask>
<g mask="url(#mask0_79_1576)">
<path fill-rule="evenodd" clip-rule="evenodd" d="M264.568 110.362C260.18 112.894 252.008 118.059 253.188 120.864C254.343 123.616 264.664 120.347 269.141 118.718C270.955 118.118 272.877 117.381 274.834 116.513C277.498 115.337 279.929 114.053 282 112.775C285.472 110.891 292.004 106.873 291.273 104.139C291.273 104.139 290.926 102.279 282.802 104.293C282.802 104.293 284.778 102.659 292.321 101.726C292.321 101.726 295.278 101.559 295.691 103.027C295.691 103.027 296.619 104.222 293.494 107.051C291.997 108.198 288.735 110.683 287.406 111.467C287.406 111.467 285.55 112.501 287.855 111.907C287.855 111.907 289.364 111.634 287.502 112.912C286.514 113.589 284.03 114.712 283.628 115.307C283.096 116.079 285.999 114.879 286.879 114.439C289.555 113.09 292.973 110.344 292.961 111.646C292.937 113.892 300.576 107.122 300.881 106.879C302.426 105.678 302.24 106.653 302.192 106.962C302.144 107.283 304.342 105.173 304.342 105.173C304.342 105.173 309.023 100.935 307.688 97.9872C307.688 97.9872 306.568 94.3854 294.201 97.6723C294.201 97.6723 287.711 99.2176 280.719 102.207C280.575 102.231 280.396 102.284 280.18 102.374C277.753 103.378 275.364 104.474 273.021 105.66C270.668 106.873 269.303 107.604 265.136 110.065L264.586 110.386" fill="#321A88"/>
<path fill-rule="evenodd" clip-rule="evenodd" d="M277.969 117.389C276.17 118.252 274.844 119.205 274.998 119.517C275.152 119.829 276.738 119.385 278.532 118.522C280.331 117.659 281.658 116.706 281.504 116.394C281.35 116.082 279.769 116.526 277.969 117.389Z" fill="#321A88"/>
<path fill-rule="evenodd" clip-rule="evenodd" d="M280.427 88.3083C280.427 91.2375 278.053 93.6167 275.131 93.6167C272.208 93.6167 269.834 91.2375 269.834 88.3083C269.834 85.3792 272.208 83 275.131 83C278.053 83 280.427 85.3732 280.427 88.3083Z" fill="#F16D23"/>
<path fill-rule="evenodd" clip-rule="evenodd" d="M271.212 101.019C271.212 102.953 269.636 104.522 267.693 104.522C265.751 104.522 264.174 102.953 264.174 101.019C264.174 99.0861 265.751 97.5167 267.693 97.5167C269.636 97.5108 271.212 99.0801 271.212 101.019ZM276.074 109.217C276.074 110.53 274.989 111.6 273.643 111.6C272.297 111.6 271.212 110.53 271.212 109.217C271.212 107.903 272.297 106.833 273.643 106.833C274.989 106.833 276.074 107.903 276.074 109.217Z" fill="#65BB50"/>
</g>
</g>
<g clip-path="url(#clip1_79_1576)">
<mask id="mask1_79_1576" style="mask-type:luminance" maskUnits="userSpaceOnUse" x="319" y="79" width="54" height="41">
<path d="M319 79H373V120H319V79Z" fill="white"/>
</mask>
<g mask="url(#mask1_79_1576)">
<path fill-rule="evenodd" clip-rule="evenodd" d="M337.783 103.514C326.934 104.607 319.071 107.828 319.071 111.621C319.071 115.681 328.053 119.08 340.073 119.928C340.073 119.928 359.659 120.151 337.783 103.514ZM344.519 103.106C344.067 102.904 345.52 103.091 346.024 103.091C360.881 103.091 372.929 106.922 372.929 111.659C372.929 114.981 366.983 117.862 358.294 119.283C358.294 119.276 373.87 116.2 344.519 103.106Z" fill="#004098"/>
<path fill-rule="evenodd" clip-rule="evenodd" d="M342.231 90.5438C343.239 90.3801 346.041 90.2535 347.101 90.2535C358.985 90.2535 366.873 93.3728 366.873 97.1397C366.873 100.795 357.784 103.78 346.36 103.944C346.36 103.944 321.784 93.879 342.231 90.5438Z" fill="#ED6C00"/>
<path fill-rule="evenodd" clip-rule="evenodd" d="M346.071 79.0717C346.071 79.0717 307.043 95.8613 337.782 103.514C337.782 103.514 316.802 91.5501 346.071 88.671V79.0717Z" fill="#ED6C00"/>
</g>
</g>
<defs>
<filter id="filter0_d_79_1576" x="0" y="0" width="391" height="138" filterUnits="userSpaceOnUse" color-interpolation-filters="sRGB">
<feFlood flood-opacity="0" result="BackgroundImageFix"/>
<feColorMatrix in="SourceAlpha" type="matrix" values="0 0 0 0 0 0 0 0 0 0 0 0 0 0 0 0 0 0 127 0" result="hardAlpha"/>
<feOffset dy="4"/>
<feGaussianBlur stdDeviation="2"/>
<feComposite in2="hardAlpha" operator="out"/>
<feColorMatrix type="matrix" values="0 0 0 0 0 0 0 0 0 0 0 0 0 0 0 0 0 0 0.25 0"/>
<feBlend mode="normal" in2="BackgroundImageFix" result="effect1_dropShadow_79_1576"/>
<feBlend mode="normal" in="SourceGraphic" in2="effect1_dropShadow_79_1576" result="shape"/>
</filter>
<clipPath id="clip0_79_1576">
<rect width="55" height="39" fill="white" transform="translate(253 83)"/>
</clipPath>
<clipPath id="clip1_79_1576">
<rect width="54" height="41" fill="white" transform="translate(319 79)"/>
</clipPath>
</defs>
</svg>
