<svg width="391" height="138" viewBox="0 0 391 138" fill="none" xmlns="http://www.w3.org/2000/svg">
<path d="M196.437 70.6611C248.73 70.6612 291.121 85.0891 291.122 102.887C291.122 108.757 286.51 114.26 278.453 119H114.419C106.362 114.26 101.75 108.757 101.75 102.887C101.751 85.0891 144.143 70.6611 196.437 70.6611Z" fill="white" fill-opacity="0.2"/>
<g filter="url(#filter0_d_205_1372)">
<rect x="4" width="383" height="130" rx="10" fill="#FFBF40"/>
</g>
<path d="M42.72 24.26H45.38V37.72H42.72V24.26ZM44.64 29.54H47.84V31.74H44.64V29.54ZM33.44 40.32H46.04V42.46H33.44V40.32ZM33.44 36.32H36.12V41.28H33.44V36.32ZM35.96 25.44C36.9067 25.44 37.76 25.64 38.52 26.04C39.28 26.44 39.88 26.9933 40.32 27.7C40.7733 28.4067 41 29.22 41 30.14C41 31.0467 40.7733 31.86 40.32 32.58C39.88 33.2867 39.28 33.8467 38.52 34.26C37.76 34.66 36.9067 34.86 35.96 34.86C35.0133 34.86 34.16 34.66 33.4 34.26C32.64 33.8467 32.04 33.2867 31.6 32.58C31.16 31.86 30.94 31.0467 30.94 30.14C30.94 29.22 31.16 28.4067 31.6 27.7C32.04 26.9933 32.64 26.44 33.4 26.04C34.16 25.64 35.0133 25.44 35.96 25.44ZM35.96 27.74C35.5067 27.74 35.0933 27.84 34.72 28.04C34.36 28.2267 34.0733 28.5 33.86 28.86C33.6467 29.2067 33.54 29.6333 33.54 30.14C33.54 30.6467 33.6467 31.08 33.86 31.44C34.0733 31.7867 34.36 32.06 34.72 32.26C35.0933 32.4467 35.5067 32.54 35.96 32.54C36.4267 32.54 36.84 32.4467 37.2 32.26C37.5733 32.06 37.8667 31.7867 38.08 31.44C38.2933 31.08 38.4 30.6467 38.4 30.14C38.4 29.6333 38.2933 29.2067 38.08 28.86C37.8667 28.5 37.5733 28.2267 37.2 28.04C36.84 27.84 36.4267 27.74 35.96 27.74ZM53.3584 25.38H55.5584V27.38C55.5584 28.6067 55.3651 29.76 54.9784 30.84C54.6051 31.9067 54.0318 32.84 53.2584 33.64C52.4984 34.44 51.5251 35.04 50.3384 35.44L48.9184 33.38C49.9718 33.0333 50.8251 32.5533 51.4784 31.94C52.1318 31.3133 52.6051 30.6067 52.8984 29.82C53.2051 29.02 53.3584 28.2067 53.3584 27.38V25.38ZM53.8984 25.38H56.0584V27.4C56.0584 27.9867 56.1384 28.5667 56.2984 29.14C56.4584 29.7 56.7118 30.2333 57.0584 30.74C57.4051 31.2333 57.8451 31.68 58.3784 32.08C58.9118 32.4667 59.5518 32.78 60.2984 33.02L58.9384 35.1C57.7784 34.7133 56.8251 34.14 56.0784 33.38C55.3451 32.6067 54.7984 31.7067 54.4384 30.68C54.0784 29.6533 53.8984 28.56 53.8984 27.4V25.38ZM61.1184 24.26H63.7784V37.8H61.1184V24.26ZM63.0384 29.62H66.2384V31.8H63.0384V29.62ZM51.8584 40.32H64.4384V42.46H51.8584V40.32ZM51.8584 36.5H54.5384V41.46H51.8584V36.5ZM78.9453 26.7812L73.7305 42.2207H71.6406L76.8555 26.7812H78.9453ZM89.4997 25.68H91.6797V28.36C91.6797 29.56 91.573 30.7133 91.3597 31.82C91.1464 32.9133 90.8197 33.94 90.3797 34.9C89.953 35.8467 89.3997 36.6867 88.7197 37.42C88.053 38.14 87.2597 38.7133 86.3397 39.14L84.7597 36.94C85.573 36.58 86.273 36.1067 86.8597 35.52C87.4597 34.92 87.953 34.24 88.3397 33.48C88.7264 32.7067 89.013 31.8867 89.1997 31.02C89.3997 30.1533 89.4997 29.2667 89.4997 28.36V25.68ZM90.0197 25.68H92.1797V28.36C92.1797 29.2267 92.273 30.0733 92.4597 30.9C92.6464 31.7267 92.9264 32.5067 93.2997 33.24C93.6864 33.9733 94.1664 34.6267 94.7397 35.2C95.3264 35.76 96.013 36.2067 96.7997 36.54L95.2597 38.7C94.3664 38.2867 93.5864 37.7333 92.9197 37.04C92.2664 36.3467 91.7264 35.5467 91.2997 34.64C90.873 33.72 90.553 32.7333 90.3397 31.68C90.1264 30.6133 90.0197 29.5067 90.0197 28.36V25.68ZM97.6997 24.22H100.36V42.8H97.6997V24.22ZM111.718 37.02C113.771 37.02 115.358 37.2667 116.478 37.76C117.598 38.2533 118.158 38.9667 118.158 39.9C118.158 40.86 117.598 41.58 116.478 42.06C115.358 42.5533 113.771 42.8 111.718 42.8C109.678 42.8 108.098 42.5533 106.978 42.06C105.858 41.58 105.298 40.8667 105.298 39.92C105.298 38.9733 105.858 38.2533 106.978 37.76C108.098 37.2667 109.678 37.02 111.718 37.02ZM111.738 38.94C110.445 38.94 109.498 39.02 108.898 39.18C108.298 39.3267 107.998 39.5667 107.998 39.9C107.998 40.2467 108.298 40.5 108.898 40.66C109.498 40.8067 110.445 40.88 111.738 40.88C113.018 40.88 113.951 40.8067 114.538 40.66C115.138 40.5 115.438 40.2467 115.438 39.9C115.438 39.5667 115.138 39.3267 114.538 39.18C113.951 39.02 113.018 38.94 111.738 38.94ZM104.178 25.58H119.278V27.58H104.178V25.58ZM111.758 28.06C113.758 28.06 115.291 28.2867 116.358 28.74C117.425 29.1933 117.958 29.8533 117.958 30.72C117.958 31.6 117.425 32.2667 116.358 32.72C115.291 33.16 113.758 33.38 111.758 33.38C109.785 33.38 108.258 33.16 107.178 32.72C106.098 32.2667 105.558 31.6 105.558 30.72C105.558 29.8533 106.098 29.1933 107.178 28.74C108.258 28.2867 109.785 28.06 111.758 28.06ZM111.758 29.86C110.625 29.86 109.785 29.9267 109.238 30.06C108.691 30.1933 108.418 30.42 108.418 30.74C108.418 31.0333 108.691 31.2533 109.238 31.4C109.785 31.5333 110.625 31.6 111.758 31.6C112.918 31.6 113.765 31.5333 114.298 31.4C114.845 31.2533 115.118 31.0333 115.118 30.74C115.118 30.42 114.845 30.1933 114.298 30.06C113.765 29.9267 112.918 29.86 111.758 29.86ZM110.438 24.08H113.078V26.94H110.438V24.08ZM103.378 34.16H120.138V36.22H103.378V34.16ZM128.657 32.22H141.777V34.34H128.657V32.22ZM126.777 38.56H143.557V40.7H126.777V38.56ZM133.817 33.48H136.477V39.16H133.817V33.48ZM128.657 25.66H131.317V33.14H128.657V25.66ZM154.615 28.18H158.915V30.34H154.615V28.18ZM149.415 25.38H151.555V27.38C151.555 28.6333 151.375 29.8133 151.015 30.92C150.655 32.0267 150.095 32.9933 149.335 33.82C148.589 34.6333 147.629 35.2533 146.455 35.68L145.055 33.6C145.829 33.3333 146.489 32.9867 147.035 32.56C147.582 32.1333 148.029 31.6467 148.375 31.1C148.722 30.54 148.982 29.9467 149.155 29.32C149.329 28.6933 149.415 28.0467 149.415 27.38V25.38ZM149.975 25.38H152.095V27.4C152.095 28 152.175 28.5867 152.335 29.16C152.495 29.7333 152.742 30.28 153.075 30.8C153.409 31.32 153.835 31.7867 154.355 32.2C154.889 32.6 155.515 32.9267 156.235 33.18L154.835 35.22C153.729 34.8067 152.815 34.2133 152.095 33.44C151.375 32.6667 150.842 31.76 150.495 30.72C150.149 29.68 149.975 28.5733 149.975 27.4V25.38ZM157.995 24.26H160.675V37.92H157.995V24.26ZM148.415 40.32H161.075V42.46H148.415V40.32ZM148.415 36.56H151.075V41.52H148.415V36.56Z" fill="white"/>
<g clip-path="url(#clip0_205_1372)">
<mask id="mask0_205_1372" style="mask-type:luminance" maskUnits="userSpaceOnUse" x="253" y="83" width="55" height="39">
<path d="M253 83H308V122H253V83Z" fill="white"/>
</mask>
<g mask="url(#mask0_205_1372)">
<path fill-rule="evenodd" clip-rule="evenodd" d="M264.568 110.362C260.18 112.894 252.008 118.059 253.188 120.864C254.343 123.616 264.664 120.347 269.141 118.718C270.955 118.118 272.877 117.381 274.834 116.513C277.498 115.337 279.929 114.053 282 112.775C285.472 110.891 292.004 106.873 291.273 104.139C291.273 104.139 290.926 102.279 282.802 104.293C282.802 104.293 284.778 102.659 292.321 101.726C292.321 101.726 295.278 101.559 295.691 103.027C295.691 103.027 296.619 104.222 293.494 107.051C291.998 108.198 288.735 110.683 287.406 111.467C287.406 111.467 285.55 112.501 287.855 111.907C287.855 111.907 289.364 111.634 287.502 112.912C286.514 113.589 284.03 114.712 283.629 115.307C283.096 116.079 285.999 114.879 286.879 114.439C289.555 113.09 292.973 110.344 292.961 111.646C292.937 113.892 300.576 107.122 300.881 106.879C302.426 105.678 302.24 106.653 302.192 106.962C302.145 107.283 304.342 105.173 304.342 105.173C304.342 105.173 309.023 100.935 307.688 97.9872C307.688 97.9872 306.568 94.3854 294.201 97.6723C294.201 97.6723 287.711 99.2176 280.719 102.207C280.575 102.231 280.396 102.284 280.18 102.374C277.753 103.378 275.364 104.474 273.021 105.66C270.668 106.873 269.303 107.604 265.136 110.065L264.586 110.386" fill="#321A88"/>
<path fill-rule="evenodd" clip-rule="evenodd" d="M277.969 117.389C276.17 118.252 274.844 119.205 274.998 119.517C275.152 119.829 276.738 119.385 278.532 118.522C280.332 117.659 281.658 116.706 281.504 116.394C281.35 116.082 279.769 116.526 277.969 117.389Z" fill="#321A88"/>
<path fill-rule="evenodd" clip-rule="evenodd" d="M280.427 88.3083C280.427 91.2375 278.053 93.6167 275.131 93.6167C272.208 93.6167 269.834 91.2375 269.834 88.3083C269.834 85.3792 272.208 83 275.131 83C278.053 83 280.427 85.3732 280.427 88.3083Z" fill="#F16D23"/>
<path fill-rule="evenodd" clip-rule="evenodd" d="M271.212 101.019C271.212 102.953 269.636 104.522 267.693 104.522C265.751 104.522 264.174 102.953 264.174 101.019C264.174 99.0861 265.751 97.5167 267.693 97.5167C269.636 97.5108 271.212 99.0801 271.212 101.019ZM276.074 109.217C276.074 110.53 274.989 111.6 273.643 111.6C272.297 111.6 271.212 110.53 271.212 109.217C271.212 107.903 272.297 106.833 273.643 106.833C274.989 106.833 276.074 107.903 276.074 109.217Z" fill="#65BB50"/>
</g>
</g>
<g clip-path="url(#clip1_205_1372)">
<mask id="mask1_205_1372" style="mask-type:luminance" maskUnits="userSpaceOnUse" x="319" y="79" width="54" height="41">
<path d="M319 79H373V120H319V79Z" fill="white"/>
</mask>
<g mask="url(#mask1_205_1372)">
<path fill-rule="evenodd" clip-rule="evenodd" d="M337.783 103.514C326.934 104.607 319.071 107.828 319.071 111.621C319.071 115.681 328.053 119.08 340.073 119.928C340.073 119.928 359.659 120.151 337.783 103.514ZM344.519 103.106C344.067 102.904 345.52 103.091 346.024 103.091C360.881 103.091 372.929 106.922 372.929 111.659C372.929 114.981 366.983 117.862 358.294 119.283C358.294 119.276 373.87 116.2 344.519 103.106Z" fill="#004098"/>
<path fill-rule="evenodd" clip-rule="evenodd" d="M342.231 90.5438C343.239 90.3801 346.041 90.2535 347.101 90.2535C358.985 90.2535 366.873 93.3728 366.873 97.1397C366.873 100.795 357.784 103.78 346.36 103.944C346.36 103.944 321.784 93.879 342.231 90.5438Z" fill="#ED6C00"/>
<path fill-rule="evenodd" clip-rule="evenodd" d="M346.071 79.0717C346.071 79.0717 307.043 95.8613 337.782 103.514C337.782 103.514 316.802 91.5501 346.071 88.671V79.0717Z" fill="#ED6C00"/>
</g>
</g>
<path d="M344.239 0C346.516 5.28654 347.7 10.7089 347.7 16.2344C347.7 72.4375 225.286 118 74.2812 118C49.6224 118 25.7255 116.784 3 114.506V10C3 4.47715 7.47715 0 13 0H344.239Z" fill="white" fill-opacity="0.3"/>
<defs>
<filter id="filter0_d_205_1372" x="0" y="0" width="391" height="138" filterUnits="userSpaceOnUse" color-interpolation-filters="sRGB">
<feFlood flood-opacity="0" result="BackgroundImageFix"/>
<feColorMatrix in="SourceAlpha" type="matrix" values="0 0 0 0 0 0 0 0 0 0 0 0 0 0 0 0 0 0 127 0" result="hardAlpha"/>
<feOffset dy="4"/>
<feGaussianBlur stdDeviation="2"/>
<feComposite in2="hardAlpha" operator="out"/>
<feColorMatrix type="matrix" values="0 0 0 0 0 0 0 0 0 0 0 0 0 0 0 0 0 0 0.25 0"/>
<feBlend mode="normal" in2="BackgroundImageFix" result="effect1_dropShadow_205_1372"/>
<feBlend mode="normal" in="SourceGraphic" in2="effect1_dropShadow_205_1372" result="shape"/>
</filter>
<clipPath id="clip0_205_1372">
<rect width="55" height="39" fill="white" transform="translate(253 83)"/>
</clipPath>
<clipPath id="clip1_205_1372">
<rect width="54" height="41" fill="white" transform="translate(319 79)"/>
</clipPath>
</defs>
</svg>
