<svg width="391" height="138" viewBox="0 0 391 138" fill="none" xmlns="http://www.w3.org/2000/svg">
<g filter="url(#filter0_d_205_1367)">
<path d="M4 10C4 4.47715 8.47715 0 14 0H377C382.523 0 387 4.47715 387 10V120C387 125.523 382.523 130 377 130H14C8.47714 130 4 125.523 4 120V10Z" fill="#A1B3E7"/>
</g>
<path d="M345.239 0C347.516 5.28654 348.7 10.7089 348.7 16.2344C348.7 72.4375 226.286 118 75.2812 118C50.6224 118 26.7255 116.784 4 114.506V10C4 4.47715 8.47715 0 14 0H345.239Z" fill="white" fill-opacity="0.3"/>
<path d="M37.796 48.088H38.744V54.16H37.796V48.088ZM34.652 50.932H36.368V51.736H34.652V50.932ZM35.84 48.268H36.776V54.064H35.84V48.268ZM31.58 54.628H38.744V57.04H32.588V58.276H31.604V56.32H37.772V55.372H31.58V54.628ZM31.604 58.048H39.14V58.816H31.604V58.048ZM29.54 49.132H34.916V49.912H29.54V49.132ZM32.228 50.344C32.676 50.344 33.064 50.42 33.392 50.572C33.728 50.716 33.992 50.924 34.184 51.196C34.376 51.46 34.472 51.776 34.472 52.144C34.472 52.504 34.376 52.82 34.184 53.092C33.992 53.356 33.728 53.564 33.392 53.716C33.064 53.86 32.676 53.932 32.228 53.932C31.788 53.932 31.4 53.86 31.064 53.716C30.728 53.564 30.464 53.356 30.272 53.092C30.08 52.82 29.984 52.504 29.984 52.144C29.984 51.776 30.08 51.46 30.272 51.196C30.464 50.924 30.728 50.716 31.064 50.572C31.4 50.42 31.788 50.344 32.228 50.344ZM32.228 51.064C31.828 51.064 31.5 51.164 31.244 51.364C30.988 51.556 30.86 51.816 30.86 52.144C30.86 52.464 30.988 52.724 31.244 52.924C31.5 53.124 31.828 53.224 32.228 53.224C32.636 53.224 32.964 53.124 33.212 52.924C33.468 52.724 33.596 52.464 33.596 52.144C33.596 51.816 33.468 51.556 33.212 51.364C32.964 51.164 32.636 51.064 32.228 51.064ZM31.736 48.052H32.72V49.708H31.736V48.052ZM40.6391 56.764H50.4791V57.592H40.6391V56.764ZM45.0431 54.448H46.0271V57.112H45.0431V54.448ZM41.8391 48.88H49.2551V52.168H42.8471V54.34H41.8631V51.376H48.2711V49.696H41.8391V48.88ZM41.8631 53.92H49.5071V54.736H41.8631V53.92ZM59.6221 48.076H60.6061V58.948H59.6221V48.076ZM56.7661 52.108H59.9101V52.924H56.7661V52.108ZM52.1101 48.928H53.1061V51.748H56.1181V48.928H57.0901V56.212H52.1101V48.928ZM53.1061 52.54V55.396H56.1181V52.54H53.1061ZM67.0612 48.82H67.9372V49.66C67.9372 50.132 67.8532 50.58 67.6852 51.004C67.5252 51.428 67.3012 51.824 67.0132 52.192C66.7332 52.552 66.4052 52.876 66.0292 53.164C65.6612 53.452 65.2652 53.696 64.8412 53.896C64.4252 54.096 64.0012 54.248 63.5692 54.352L63.1252 53.524C63.5012 53.444 63.8772 53.32 64.2532 53.152C64.6372 52.984 64.9972 52.78 65.3332 52.54C65.6692 52.292 65.9652 52.016 66.2212 51.712C66.4852 51.408 66.6892 51.084 66.8332 50.74C66.9852 50.388 67.0612 50.028 67.0612 49.66V48.82ZM67.2532 48.82H68.1052V49.66C68.1052 50.028 68.1812 50.388 68.3332 50.74C68.4852 51.084 68.6892 51.408 68.9452 51.712C69.2092 52.016 69.5092 52.292 69.8452 52.54C70.1812 52.78 70.5372 52.988 70.9132 53.164C71.2972 53.332 71.6812 53.452 72.0652 53.524L71.6092 54.352C71.1772 54.248 70.7532 54.096 70.3372 53.896C69.9212 53.696 69.5252 53.452 69.1492 53.164C68.7812 52.876 68.4532 52.552 68.1652 52.192C67.8772 51.824 67.6532 51.428 67.4932 51.004C67.3332 50.58 67.2532 50.132 67.2532 49.66V48.82ZM62.7172 56.644H72.5572V57.472H62.7172V56.644ZM79.3125 48.676C79.7925 48.676 80.2165 48.78 80.5845 48.988C80.9605 49.196 81.2525 49.484 81.4605 49.852C81.6765 50.22 81.7845 50.648 81.7845 51.136C81.7845 51.616 81.6765 52.044 81.4605 52.42C81.2525 52.788 80.9605 53.076 80.5845 53.284C80.2165 53.492 79.7925 53.596 79.3125 53.596C78.8325 53.596 78.4045 53.492 78.0285 53.284C77.6605 53.076 77.3725 52.788 77.1645 52.42C76.9565 52.044 76.8525 51.616 76.8525 51.136C76.8525 50.648 76.9565 50.22 77.1645 49.852C77.3725 49.484 77.6605 49.196 78.0285 48.988C78.4045 48.78 78.8325 48.676 79.3125 48.676ZM79.3125 49.492C79.0165 49.492 78.7485 49.564 78.5085 49.708C78.2765 49.844 78.0925 50.036 77.9565 50.284C77.8205 50.524 77.7525 50.808 77.7525 51.136C77.7525 51.456 77.8205 51.74 77.9565 51.988C78.0925 52.228 78.2765 52.42 78.5085 52.564C78.7485 52.7 79.0165 52.768 79.3125 52.768C79.6085 52.768 79.8725 52.7 80.1045 52.564C80.3445 52.42 80.5325 52.228 80.6685 51.988C80.8045 51.74 80.8725 51.456 80.8725 51.136C80.8725 50.808 80.8045 50.524 80.6685 50.284C80.5325 50.036 80.3445 49.844 80.1045 49.708C79.8725 49.564 79.6085 49.492 79.3125 49.492ZM84.9405 48.088H85.8885V53.992H84.9405V48.088ZM83.2245 50.572H85.2765V51.4H83.2245V50.572ZM82.6125 48.292H83.5485V53.92H82.6125V48.292ZM78.7725 54.484H79.7565V55.768H84.9165V54.484H85.8885V58.792H78.7725V54.484ZM79.7565 56.572V57.976H84.9165V56.572H79.7565ZM98.1159 48.076H99.1119V58.948H98.1159V48.076ZM98.8839 52.36H100.888V53.188H98.8839V52.36ZM91.2399 55.396H92.0919C92.7559 55.396 93.3639 55.388 93.9159 55.372C94.4759 55.348 95.0119 55.308 95.5239 55.252C96.0439 55.196 96.5719 55.12 97.1079 55.024L97.2279 55.876C96.6679 55.972 96.1239 56.048 95.5959 56.104C95.0759 56.16 94.5319 56.196 93.9639 56.212C93.3959 56.228 92.7719 56.236 92.0919 56.236H91.2399V55.396ZM91.2399 49.132H96.2679V49.948H92.2239V55.78H91.2399V49.132ZM101.799 53.584H111.639V54.4H101.799V53.584ZM106.299 54.1H107.307V56.596H106.299V54.1ZM103.059 57.868H110.547V58.696H103.059V57.868ZM103.059 55.528H104.055V58.096H103.059V55.528ZM106.707 48.352C107.475 48.352 108.143 48.44 108.711 48.616C109.279 48.792 109.719 49.044 110.031 49.372C110.351 49.692 110.511 50.08 110.511 50.536C110.511 50.976 110.351 51.36 110.031 51.688C109.719 52.016 109.279 52.268 108.711 52.444C108.143 52.62 107.475 52.708 106.707 52.708C105.947 52.708 105.279 52.62 104.703 52.444C104.135 52.268 103.691 52.016 103.371 51.688C103.059 51.36 102.903 50.976 102.903 50.536C102.903 50.08 103.059 49.692 103.371 49.372C103.691 49.044 104.135 48.792 104.703 48.616C105.279 48.44 105.947 48.352 106.707 48.352ZM106.707 49.156C106.163 49.156 105.683 49.212 105.267 49.324C104.851 49.436 104.527 49.596 104.295 49.804C104.071 50.004 103.959 50.248 103.959 50.536C103.959 50.816 104.071 51.06 104.295 51.268C104.527 51.468 104.851 51.624 105.267 51.736C105.683 51.84 106.163 51.892 106.707 51.892C107.267 51.892 107.751 51.84 108.159 51.736C108.567 51.624 108.883 51.468 109.107 51.268C109.339 51.06 109.455 50.816 109.455 50.536C109.455 50.248 109.339 50.004 109.107 49.804C108.883 49.596 108.567 49.436 108.159 49.324C107.751 49.212 107.267 49.156 106.707 49.156ZM112.85 56.764H122.69V57.592H112.85V56.764ZM117.254 54.448H118.238V57.112H117.254V54.448ZM114.05 48.88H121.466V52.168H115.058V54.34H114.074V51.376H120.482V49.696H114.05V48.88ZM114.074 53.92H121.718V54.736H114.074V53.92ZM125.137 53.284H132.589V54.1H125.137V53.284ZM123.889 56.632H133.729V57.46H123.889V56.632ZM125.137 49.084H132.481V49.9H126.121V53.644H125.137V49.084ZM138.48 48.784H143.544V53.212H138.48V48.784ZM142.572 49.576H139.452V52.42H142.572V49.576ZM145.812 48.076H146.808V54.304H145.812V48.076ZM142.86 55.6H143.712V55.804C143.712 56.196 143.6 56.564 143.376 56.908C143.16 57.244 142.86 57.552 142.476 57.832C142.092 58.104 141.652 58.328 141.156 58.504C140.66 58.688 140.14 58.82 139.596 58.9L139.248 58.132C139.632 58.084 140 58.008 140.352 57.904C140.704 57.8 141.032 57.676 141.336 57.532C141.64 57.38 141.904 57.212 142.128 57.028C142.36 56.844 142.54 56.648 142.668 56.44C142.796 56.232 142.86 56.02 142.86 55.804V55.6ZM143.016 55.6H143.88V55.804C143.88 56.06 143.976 56.316 144.168 56.572C144.36 56.828 144.62 57.064 144.948 57.28C145.284 57.488 145.664 57.668 146.088 57.82C146.52 57.972 146.972 58.076 147.444 58.132L147.096 58.9C146.544 58.82 146.024 58.688 145.536 58.504C145.048 58.32 144.612 58.088 144.228 57.808C143.852 57.528 143.556 57.22 143.34 56.884C143.124 56.54 143.016 56.18 143.016 55.804V55.6ZM139.68 55.048H147.06V55.816H139.68V55.048ZM142.872 53.992H143.88V55.396H142.872V53.992ZM157.512 50.044H160.296V50.86H157.512V50.044ZM159.876 48.076H160.872V53.68H159.876V48.076ZM153.888 54.232H160.872V56.836H154.884V58.48H153.912V56.08H159.888V55.024H153.888V54.232ZM153.912 57.988H161.268V58.792H153.912V57.988ZM154.656 48.424H155.46V49.432C155.46 50.096 155.336 50.716 155.088 51.292C154.84 51.86 154.492 52.352 154.044 52.768C153.596 53.176 153.068 53.488 152.46 53.704L151.932 52.912C152.476 52.728 152.952 52.464 153.36 52.12C153.768 51.776 154.084 51.376 154.308 50.92C154.54 50.456 154.656 49.96 154.656 49.432V48.424ZM154.812 48.424H155.628V49.432C155.628 49.784 155.692 50.128 155.82 50.464C155.948 50.792 156.128 51.1 156.36 51.388C156.6 51.676 156.884 51.932 157.212 52.156C157.54 52.372 157.9 52.544 158.292 52.672L157.764 53.452C157.18 53.244 156.664 52.944 156.216 52.552C155.776 52.152 155.432 51.688 155.184 51.16C154.936 50.624 154.812 50.048 154.812 49.432V48.424ZM168.779 50.896H171.215V51.724H168.779V50.896ZM170.915 48.076H171.911V54.544H170.915V48.076ZM168.335 54.88C169.087 54.88 169.731 54.96 170.267 55.12C170.811 55.28 171.227 55.512 171.515 55.816C171.803 56.112 171.947 56.476 171.947 56.908C171.947 57.548 171.623 58.044 170.975 58.396C170.335 58.748 169.455 58.924 168.335 58.924C167.215 58.924 166.331 58.748 165.683 58.396C165.043 58.044 164.723 57.548 164.723 56.908C164.723 56.476 164.867 56.112 165.155 55.816C165.451 55.512 165.867 55.28 166.403 55.12C166.947 54.96 167.591 54.88 168.335 54.88ZM168.335 55.66C167.791 55.66 167.323 55.708 166.931 55.804C166.539 55.9 166.235 56.04 166.019 56.224C165.811 56.408 165.707 56.636 165.707 56.908C165.707 57.164 165.811 57.384 166.019 57.568C166.235 57.752 166.539 57.896 166.931 58C167.323 58.096 167.791 58.144 168.335 58.144C168.887 58.144 169.355 58.096 169.739 58C170.131 57.896 170.431 57.752 170.639 57.568C170.855 57.384 170.963 57.164 170.963 56.908C170.963 56.636 170.855 56.408 170.639 56.224C170.431 56.04 170.131 55.9 169.739 55.804C169.355 55.708 168.887 55.66 168.335 55.66ZM165.743 49.18H166.559V50.056C166.559 50.72 166.431 51.344 166.175 51.928C165.927 52.504 165.575 53.012 165.119 53.452C164.663 53.884 164.135 54.216 163.535 54.448L163.019 53.656C163.427 53.512 163.795 53.316 164.123 53.068C164.459 52.82 164.747 52.536 164.987 52.216C165.235 51.896 165.423 51.552 165.551 51.184C165.679 50.816 165.743 50.44 165.743 50.056V49.18ZM165.935 49.18H166.751V50.044C166.751 50.508 166.859 50.96 167.075 51.4C167.291 51.84 167.599 52.228 167.999 52.564C168.399 52.9 168.859 53.164 169.379 53.356L168.875 54.148C168.283 53.932 167.767 53.62 167.327 53.212C166.887 52.796 166.543 52.316 166.295 51.772C166.055 51.228 165.935 50.652 165.935 50.044V49.18ZM163.331 48.868H169.127V49.684H163.331V48.868ZM181.978 54.892C182.714 54.892 183.346 54.972 183.874 55.132C184.41 55.292 184.822 55.52 185.11 55.816C185.398 56.112 185.542 56.472 185.542 56.896C185.542 57.32 185.398 57.684 185.11 57.988C184.822 58.292 184.41 58.524 183.874 58.684C183.346 58.844 182.714 58.924 181.978 58.924C181.242 58.924 180.606 58.844 180.07 58.684C179.534 58.524 179.122 58.292 178.834 57.988C178.546 57.684 178.402 57.32 178.402 56.896C178.402 56.472 178.546 56.112 178.834 55.816C179.122 55.52 179.534 55.292 180.07 55.132C180.606 54.972 181.242 54.892 181.978 54.892ZM181.978 55.684C181.442 55.684 180.978 55.732 180.586 55.828C180.202 55.924 179.906 56.064 179.698 56.248C179.49 56.424 179.386 56.64 179.386 56.896C179.386 57.16 179.49 57.384 179.698 57.568C179.906 57.752 180.202 57.892 180.586 57.988C180.978 58.084 181.442 58.132 181.978 58.132C182.514 58.132 182.974 58.084 183.358 57.988C183.742 57.892 184.038 57.752 184.246 57.568C184.454 57.384 184.558 57.16 184.558 56.896C184.558 56.64 184.454 56.424 184.246 56.248C184.038 56.064 183.742 55.924 183.358 55.828C182.974 55.732 182.514 55.684 181.978 55.684ZM184.438 48.076H185.434V54.592H184.438V48.076ZM185.158 50.8H187.03V51.64H185.158V50.8ZM177.454 48.76H178.438V50.392H181.498V48.76H182.482V53.764H177.454V48.76ZM178.438 51.184V52.96H181.498V51.184H178.438ZM188.577 48.64H189.573V50.296H192.501V48.64H193.485V53.608H188.577V48.64ZM189.573 51.088V52.792H192.501V51.088H189.573ZM193.209 50.74H196.269V51.568H193.209V50.74ZM195.981 48.076H196.977V54.004H195.981V48.076ZM190.029 54.532H191.013V55.84H195.981V54.532H196.965V58.78H190.029V54.532ZM191.013 56.632V57.964H195.981V56.632H191.013ZM30.8 67.008H38.312V67.824H30.8V67.008ZM29.6 70.716H39.44V71.532H29.6V70.716ZM34.004 67.5H35V70.968H34.004V67.5ZM30.8 63H31.808V67.356H30.8V63ZM46.2071 64.632H48.9311V65.46H46.2071V64.632ZM43.3631 62.736H44.1671V64.068C44.1671 64.764 44.0431 65.416 43.7951 66.024C43.5471 66.632 43.1991 67.164 42.7511 67.62C42.3031 68.068 41.7791 68.412 41.1791 68.652L40.6511 67.86C41.0591 67.708 41.4271 67.504 41.7551 67.248C42.0911 66.992 42.3751 66.696 42.6071 66.36C42.8471 66.024 43.0311 65.664 43.1591 65.28C43.2951 64.888 43.3631 64.484 43.3631 64.068V62.736ZM43.5431 62.736H44.3471V64.104C44.3471 64.48 44.4111 64.848 44.5391 65.208C44.6671 65.568 44.8471 65.904 45.0791 66.216C45.3111 66.528 45.5871 66.804 45.9071 67.044C46.2351 67.284 46.5951 67.476 46.9871 67.62L46.4471 68.4C45.8711 68.168 45.3631 67.84 44.9231 67.416C44.4911 66.992 44.1511 66.496 43.9031 65.928C43.6631 65.36 43.5431 64.752 43.5431 64.104V62.736ZM48.5711 62.088H49.5671V70.2H48.5711V62.088ZM42.5951 71.88H49.8191V72.696H42.5951V71.88ZM42.5951 69.3H43.5911V72.252H42.5951V69.3ZM54.6664 67.236H64.4824V68.064H54.6664V67.236ZM55.9024 65.4H63.3304V66.216H55.9024V65.4ZM55.9024 62.508H63.2584V63.324H56.8864V65.784H55.9024V62.508ZM59.5624 69C60.7224 69 61.6304 69.172 62.2864 69.516C62.9424 69.86 63.2704 70.34 63.2704 70.956C63.2704 71.58 62.9424 72.06 62.2864 72.396C61.6304 72.74 60.7224 72.912 59.5624 72.912C58.4024 72.912 57.4904 72.74 56.8264 72.396C56.1704 72.06 55.8424 71.58 55.8424 70.956C55.8424 70.34 56.1704 69.86 56.8264 69.516C57.4904 69.172 58.4024 69 59.5624 69ZM59.5504 69.78C58.9904 69.78 58.5064 69.828 58.0984 69.924C57.6984 70.012 57.3904 70.144 57.1744 70.32C56.9584 70.496 56.8504 70.708 56.8504 70.956C56.8504 71.212 56.9584 71.428 57.1744 71.604C57.3904 71.772 57.6984 71.904 58.0984 72C58.5064 72.088 58.9904 72.132 59.5504 72.132C60.1264 72.132 60.6144 72.088 61.0144 72C61.4224 71.904 61.7344 71.772 61.9504 71.604C62.1664 71.428 62.2744 71.212 62.2744 70.956C62.2744 70.708 62.1664 70.496 61.9504 70.32C61.7344 70.144 61.4224 70.012 61.0144 69.924C60.6144 69.828 60.1264 69.78 59.5504 69.78ZM65.6935 68.052H75.5335V68.868H65.6935V68.052ZM66.9415 62.352H74.2735V64.992H67.9495V66.444H66.9655V64.248H73.2895V63.144H66.9415V62.352ZM66.9655 66.12H74.5015V66.912H66.9655V66.12ZM70.1215 66.528H71.1055V68.448H70.1215V66.528ZM66.7975 69.696H74.3335V72.828H73.3375V70.5H66.7975V69.696ZM77.2365 63.264H82.1325V64.08H77.2365V63.264ZM78.9285 66.372H79.9125V70.044H78.9285V66.372ZM81.7245 63.264H82.7085V63.852C82.7085 64.292 82.6925 64.868 82.6605 65.58C82.6365 66.292 82.5485 67.152 82.3965 68.16L81.4125 68.076C81.5725 67.092 81.6645 66.252 81.6885 65.556C81.7125 64.86 81.7245 64.292 81.7245 63.852V63.264ZM84.0645 62.076H85.0605V72.936H84.0645V62.076ZM84.7845 66.612H86.7885V67.464H84.7845V66.612ZM76.7565 70.56L76.6365 69.732C77.2845 69.724 77.9925 69.716 78.7605 69.708C79.5365 69.692 80.3205 69.66 81.1125 69.612C81.9125 69.564 82.6765 69.496 83.4045 69.408L83.4645 70.152C82.7125 70.272 81.9405 70.36 81.1485 70.416C80.3645 70.472 79.5965 70.512 78.8445 70.536C78.0925 70.552 77.3965 70.56 76.7565 70.56ZM98.1999 62.076H99.1959V67.596H98.1999V62.076ZM98.7519 64.416H100.792V65.244H98.7519V64.416ZM92.2959 68.112H99.1959V70.776H93.3039V72.408H92.3319V70.032H98.2119V68.904H92.2959V68.112ZM92.3319 71.988H99.5799V72.792H92.3319V71.988ZM93.7719 62.472C94.3159 62.472 94.7959 62.572 95.2119 62.772C95.6359 62.972 95.9679 63.256 96.2079 63.624C96.4479 63.984 96.5679 64.404 96.5679 64.884C96.5679 65.356 96.4479 65.776 96.2079 66.144C95.9679 66.504 95.6359 66.788 95.2119 66.996C94.7959 67.196 94.3159 67.296 93.7719 67.296C93.2359 67.296 92.7559 67.196 92.3319 66.996C91.9079 66.788 91.5719 66.504 91.3239 66.144C91.0839 65.776 90.9639 65.352 90.9639 64.872C90.9639 64.4 91.0839 63.984 91.3239 63.624C91.5719 63.256 91.9079 62.972 92.3319 62.772C92.7559 62.572 93.2359 62.472 93.7719 62.472ZM93.7719 63.288C93.4199 63.288 93.1039 63.356 92.8239 63.492C92.5519 63.628 92.3359 63.816 92.1759 64.056C92.0159 64.288 91.9359 64.564 91.9359 64.884C91.9359 65.196 92.0159 65.472 92.1759 65.712C92.3359 65.952 92.5519 66.144 92.8239 66.288C93.1039 66.424 93.4199 66.492 93.7719 66.492C94.1239 66.492 94.4359 66.424 94.7079 66.288C94.9879 66.144 95.2079 65.952 95.3679 65.712C95.5279 65.472 95.6079 65.196 95.6079 64.884C95.6079 64.564 95.5279 64.288 95.3679 64.056C95.2079 63.816 94.9879 63.628 94.7079 63.492C94.4359 63.356 94.1239 63.288 93.7719 63.288ZM109.707 62.088H110.703V68.52H109.707V62.088ZM102.375 67.176H103.251C103.907 67.176 104.515 67.168 105.075 67.152C105.643 67.136 106.195 67.104 106.731 67.056C107.267 67 107.823 66.928 108.399 66.84L108.519 67.656C107.919 67.752 107.343 67.828 106.791 67.884C106.247 67.932 105.687 67.964 105.111 67.98C104.543 67.996 103.923 68.004 103.251 68.004H102.375V67.176ZM102.351 62.736H107.271V65.7H103.347V67.68H102.375V64.92H106.299V63.54H102.351V62.736ZM103.695 69.108H110.703V72.792H103.695V69.108ZM109.731 69.912H104.667V71.976H109.731V69.912ZM117.11 63.108H117.986V63.432C117.986 63.888 117.874 64.312 117.65 64.704C117.426 65.088 117.118 65.432 116.726 65.736C116.342 66.032 115.898 66.28 115.394 66.48C114.898 66.672 114.37 66.812 113.81 66.9L113.438 66.096C113.822 66.048 114.194 65.968 114.554 65.856C114.922 65.736 115.258 65.596 115.562 65.436C115.866 65.268 116.134 65.08 116.366 64.872C116.598 64.656 116.778 64.428 116.906 64.188C117.042 63.948 117.11 63.696 117.11 63.432V63.108ZM117.518 63.108H118.394V63.432C118.394 63.696 118.458 63.948 118.586 64.188C118.722 64.428 118.906 64.652 119.138 64.86C119.37 65.068 119.638 65.256 119.942 65.424C120.254 65.592 120.59 65.736 120.95 65.856C121.31 65.968 121.682 66.048 122.066 66.096L121.694 66.9C121.142 66.812 120.614 66.668 120.11 66.468C119.606 66.268 119.162 66.02 118.778 65.724C118.394 65.42 118.086 65.076 117.854 64.692C117.63 64.308 117.518 63.888 117.518 63.432V63.108ZM113.75 62.604H121.766V63.42H113.75V62.604ZM114.11 71.88H121.562V72.696H114.11V71.88ZM114.11 69.624H115.106V72.204H114.11V69.624ZM112.85 67.932H122.678V68.748H112.85V67.932ZM117.254 66.132H118.238V68.268H117.254V66.132ZM132.445 64.044H135.229V64.86H132.445V64.044ZM134.809 62.076H135.805V67.68H134.809V62.076ZM128.821 68.232H135.805V70.836H129.817V72.48H128.845V70.08H134.821V69.024H128.821V68.232ZM128.845 71.988H136.201V72.792H128.845V71.988ZM129.589 62.424H130.393V63.432C130.393 64.096 130.269 64.716 130.021 65.292C129.773 65.86 129.425 66.352 128.977 66.768C128.529 67.176 128.001 67.488 127.393 67.704L126.865 66.912C127.409 66.728 127.885 66.464 128.293 66.12C128.701 65.776 129.017 65.376 129.241 64.92C129.473 64.456 129.589 63.96 129.589 63.432V62.424ZM129.745 62.424H130.561V63.432C130.561 63.784 130.625 64.128 130.753 64.464C130.881 64.792 131.061 65.1 131.293 65.388C131.533 65.676 131.817 65.932 132.145 66.156C132.473 66.372 132.833 66.544 133.225 66.672L132.697 67.452C132.113 67.244 131.597 66.944 131.149 66.552C130.709 66.152 130.365 65.688 130.117 65.16C129.869 64.624 129.745 64.048 129.745 63.432V62.424ZM143.712 64.896H146.148V65.724H143.712V64.896ZM145.848 62.076H146.844V68.544H145.848V62.076ZM143.268 68.88C144.02 68.88 144.664 68.96 145.2 69.12C145.744 69.28 146.16 69.512 146.448 69.816C146.736 70.112 146.88 70.476 146.88 70.908C146.88 71.548 146.556 72.044 145.908 72.396C145.268 72.748 144.388 72.924 143.268 72.924C142.148 72.924 141.264 72.748 140.616 72.396C139.976 72.044 139.656 71.548 139.656 70.908C139.656 70.476 139.8 70.112 140.088 69.816C140.384 69.512 140.8 69.28 141.336 69.12C141.88 68.96 142.524 68.88 143.268 68.88ZM143.268 69.66C142.724 69.66 142.256 69.708 141.864 69.804C141.472 69.9 141.168 70.04 140.952 70.224C140.744 70.408 140.64 70.636 140.64 70.908C140.64 71.164 140.744 71.384 140.952 71.568C141.168 71.752 141.472 71.896 141.864 72C142.256 72.096 142.724 72.144 143.268 72.144C143.82 72.144 144.288 72.096 144.672 72C145.064 71.896 145.364 71.752 145.572 71.568C145.788 71.384 145.896 71.164 145.896 70.908C145.896 70.636 145.788 70.408 145.572 70.224C145.364 70.04 145.064 69.9 144.672 69.804C144.288 69.708 143.82 69.66 143.268 69.66ZM140.676 63.18H141.492V64.056C141.492 64.72 141.364 65.344 141.108 65.928C140.86 66.504 140.508 67.012 140.052 67.452C139.596 67.884 139.068 68.216 138.468 68.448L137.952 67.656C138.36 67.512 138.728 67.316 139.056 67.068C139.392 66.82 139.68 66.536 139.92 66.216C140.168 65.896 140.356 65.552 140.484 65.184C140.612 64.816 140.676 64.44 140.676 64.056V63.18ZM140.868 63.18H141.684V64.044C141.684 64.508 141.792 64.96 142.008 65.4C142.224 65.84 142.532 66.228 142.932 66.564C143.332 66.9 143.792 67.164 144.312 67.356L143.808 68.148C143.216 67.932 142.7 67.62 142.26 67.212C141.82 66.796 141.476 66.316 141.228 65.772C140.988 65.228 140.868 64.652 140.868 64.044V63.18ZM138.264 62.868H144.06V63.684H138.264V62.868ZM156.912 68.892C157.648 68.892 158.28 68.972 158.808 69.132C159.344 69.292 159.756 69.52 160.044 69.816C160.332 70.112 160.476 70.472 160.476 70.896C160.476 71.32 160.332 71.684 160.044 71.988C159.756 72.292 159.344 72.524 158.808 72.684C158.28 72.844 157.648 72.924 156.912 72.924C156.176 72.924 155.54 72.844 155.004 72.684C154.468 72.524 154.056 72.292 153.768 71.988C153.48 71.684 153.336 71.32 153.336 70.896C153.336 70.472 153.48 70.112 153.768 69.816C154.056 69.52 154.468 69.292 155.004 69.132C155.54 68.972 156.176 68.892 156.912 68.892ZM156.912 69.684C156.376 69.684 155.912 69.732 155.52 69.828C155.136 69.924 154.84 70.064 154.632 70.248C154.424 70.424 154.32 70.64 154.32 70.896C154.32 71.16 154.424 71.384 154.632 71.568C154.84 71.752 155.136 71.892 155.52 71.988C155.912 72.084 156.376 72.132 156.912 72.132C157.448 72.132 157.908 72.084 158.292 71.988C158.676 71.892 158.972 71.752 159.18 71.568C159.388 71.384 159.492 71.16 159.492 70.896C159.492 70.64 159.388 70.424 159.18 70.248C158.972 70.064 158.676 69.924 158.292 69.828C157.908 69.732 157.448 69.684 156.912 69.684ZM159.372 62.076H160.368V68.592H159.372V62.076ZM160.092 64.8H161.964V65.64H160.092V64.8ZM152.388 62.76H153.372V64.392H156.432V62.76H157.416V67.764H152.388V62.76ZM153.372 65.184V66.96H156.432V65.184H153.372ZM163.511 62.64H164.507V64.296H167.435V62.64H168.419V67.608H163.511V62.64ZM164.507 65.088V66.792H167.435V65.088H164.507ZM168.143 64.74H171.203V65.568H168.143V64.74ZM170.915 62.076H171.911V68.004H170.915V62.076ZM164.963 68.532H165.947V69.84H170.915V68.532H171.899V72.78H164.963V68.532ZM165.947 70.632V71.964H170.915V70.632H165.947ZM177.01 67.236H186.826V68.064H177.01V67.236ZM178.246 65.4H185.674V66.216H178.246V65.4ZM178.246 62.508H185.602V63.324H179.23V65.784H178.246V62.508ZM181.906 69C183.066 69 183.974 69.172 184.63 69.516C185.286 69.86 185.614 70.34 185.614 70.956C185.614 71.58 185.286 72.06 184.63 72.396C183.974 72.74 183.066 72.912 181.906 72.912C180.746 72.912 179.834 72.74 179.17 72.396C178.514 72.06 178.186 71.58 178.186 70.956C178.186 70.34 178.514 69.86 179.17 69.516C179.834 69.172 180.746 69 181.906 69ZM181.894 69.78C181.334 69.78 180.85 69.828 180.442 69.924C180.042 70.012 179.734 70.144 179.518 70.32C179.302 70.496 179.194 70.708 179.194 70.956C179.194 71.212 179.302 71.428 179.518 71.604C179.734 71.772 180.042 71.904 180.442 72C180.85 72.088 181.334 72.132 181.894 72.132C182.47 72.132 182.958 72.088 183.358 72C183.766 71.904 184.078 71.772 184.294 71.604C184.51 71.428 184.618 71.212 184.618 70.956C184.618 70.708 184.51 70.496 184.294 70.32C184.078 70.144 183.766 70.012 183.358 69.924C182.958 69.828 182.47 69.78 181.894 69.78ZM192.453 66.3H194.493V67.116H192.453V66.3ZM196.317 62.076H197.277V72.936H196.317V62.076ZM194.157 62.304H195.105V72.384H194.157V62.304ZM190.485 62.988C190.957 62.988 191.365 63.14 191.709 63.444C192.061 63.748 192.333 64.184 192.525 64.752C192.717 65.32 192.813 65.988 192.813 66.756C192.813 67.532 192.717 68.204 192.525 68.772C192.333 69.34 192.061 69.78 191.709 70.092C191.365 70.396 190.957 70.548 190.485 70.548C190.029 70.548 189.625 70.396 189.273 70.092C188.929 69.78 188.661 69.34 188.469 68.772C188.277 68.204 188.181 67.532 188.181 66.756C188.181 65.988 188.277 65.32 188.469 64.752C188.661 64.184 188.929 63.748 189.273 63.444C189.625 63.14 190.029 62.988 190.485 62.988ZM190.485 63.912C190.205 63.912 189.961 64.028 189.753 64.26C189.545 64.492 189.385 64.82 189.273 65.244C189.161 65.668 189.105 66.172 189.105 66.756C189.105 67.34 189.161 67.848 189.273 68.28C189.385 68.704 189.545 69.032 189.753 69.264C189.961 69.496 190.205 69.612 190.485 69.612C190.773 69.612 191.021 69.496 191.229 69.264C191.445 69.032 191.609 68.704 191.721 68.28C191.833 67.848 191.889 67.34 191.889 66.756C191.889 66.172 191.833 65.668 191.721 65.244C191.609 64.82 191.445 64.492 191.229 64.26C191.021 64.028 190.773 63.912 190.485 63.912ZM210.333 62.076H211.281V72.936H210.333V62.076ZM208.497 66.432H210.585V67.248H208.497V66.432ZM207.873 62.316H208.797V72.372H207.873V62.316ZM202.461 69.42H203.169C203.705 69.42 204.189 69.416 204.621 69.408C205.061 69.392 205.477 69.36 205.869 69.312C206.269 69.264 206.677 69.196 207.093 69.108L207.189 69.936C206.757 70.024 206.337 70.092 205.929 70.14C205.529 70.188 205.105 70.22 204.657 70.236C204.217 70.252 203.721 70.26 203.169 70.26H202.461V69.42ZM202.461 63.396H206.493V64.212H203.457V69.804H202.461V63.396ZM213.092 63.936H218.48V64.752H213.092V63.936ZM215.792 65.472C216.248 65.472 216.648 65.576 216.992 65.784C217.344 65.992 217.62 66.284 217.82 66.66C218.02 67.028 218.12 67.456 218.12 67.944C218.12 68.432 218.02 68.864 217.82 69.24C217.62 69.608 217.344 69.9 216.992 70.116C216.648 70.324 216.248 70.428 215.792 70.428C215.344 70.428 214.944 70.324 214.592 70.116C214.24 69.9 213.964 69.608 213.764 69.24C213.564 68.864 213.464 68.432 213.464 67.944C213.464 67.456 213.564 67.028 213.764 66.66C213.964 66.292 214.24 66.004 214.592 65.796C214.944 65.58 215.344 65.472 215.792 65.472ZM215.792 66.312C215.52 66.312 215.272 66.384 215.048 66.528C214.832 66.664 214.66 66.856 214.532 67.104C214.412 67.344 214.352 67.624 214.352 67.944C214.352 68.264 214.412 68.548 214.532 68.796C214.66 69.044 214.832 69.236 215.048 69.372C215.272 69.508 215.52 69.576 215.792 69.576C216.072 69.576 216.32 69.508 216.536 69.372C216.752 69.236 216.92 69.044 217.04 68.796C217.168 68.548 217.232 68.264 217.232 67.944C217.232 67.624 217.168 67.344 217.04 67.104C216.92 66.856 216.752 66.664 216.536 66.528C216.32 66.384 216.072 66.312 215.792 66.312ZM221.348 62.076H222.296V72.936H221.348V62.076ZM219.608 66.648H221.66V67.464H219.608V66.648ZM219.02 62.328H219.956V72.408H219.02V62.328ZM215.3 62.4H216.284V64.428H215.3V62.4ZM234.571 62.076H235.567V67.596H234.571V62.076ZM235.123 64.416H237.163V65.244H235.123V64.416ZM228.667 68.112H235.567V70.776H229.675V72.408H228.703V70.032H234.583V68.904H228.667V68.112ZM228.703 71.988H235.951V72.792H228.703V71.988ZM230.143 62.472C230.687 62.472 231.167 62.572 231.583 62.772C232.007 62.972 232.339 63.256 232.579 63.624C232.819 63.984 232.939 64.404 232.939 64.884C232.939 65.356 232.819 65.776 232.579 66.144C232.339 66.504 232.007 66.788 231.583 66.996C231.167 67.196 230.687 67.296 230.143 67.296C229.607 67.296 229.127 67.196 228.703 66.996C228.279 66.788 227.943 66.504 227.695 66.144C227.455 65.776 227.335 65.352 227.335 64.872C227.335 64.4 227.455 63.984 227.695 63.624C227.943 63.256 228.279 62.972 228.703 62.772C229.127 62.572 229.607 62.472 230.143 62.472ZM230.143 63.288C229.791 63.288 229.475 63.356 229.195 63.492C228.923 63.628 228.707 63.816 228.547 64.056C228.387 64.288 228.307 64.564 228.307 64.884C228.307 65.196 228.387 65.472 228.547 65.712C228.707 65.952 228.923 66.144 229.195 66.288C229.475 66.424 229.791 66.492 230.143 66.492C230.495 66.492 230.807 66.424 231.079 66.288C231.359 66.144 231.579 65.952 231.739 65.712C231.899 65.472 231.979 65.196 231.979 64.884C231.979 64.564 231.899 64.288 231.739 64.056C231.579 63.816 231.359 63.628 231.079 63.492C230.807 63.356 230.495 63.288 230.143 63.288ZM241.062 62.916C241.598 62.916 242.07 63.072 242.478 63.384C242.886 63.688 243.206 64.124 243.438 64.692C243.67 65.26 243.786 65.928 243.786 66.696C243.786 67.464 243.67 68.132 243.438 68.7C243.206 69.268 242.886 69.708 242.478 70.02C242.07 70.332 241.598 70.488 241.062 70.488C240.534 70.488 240.062 70.332 239.646 70.02C239.238 69.708 238.918 69.268 238.686 68.7C238.454 68.132 238.338 67.464 238.338 66.696C238.338 65.928 238.454 65.26 238.686 64.692C238.918 64.124 239.238 63.688 239.646 63.384C240.062 63.072 240.534 62.916 241.062 62.916ZM241.062 63.804C240.718 63.804 240.41 63.924 240.138 64.164C239.874 64.396 239.666 64.732 239.514 65.172C239.362 65.604 239.286 66.112 239.286 66.696C239.286 67.28 239.362 67.792 239.514 68.232C239.666 68.664 239.874 69 240.138 69.24C240.41 69.48 240.722 69.6 241.074 69.6C241.418 69.6 241.722 69.48 241.986 69.24C242.258 69 242.466 68.664 242.61 68.232C242.762 67.792 242.838 67.28 242.838 66.696C242.838 66.112 242.762 65.604 242.61 65.172C242.466 64.732 242.258 64.396 241.986 64.164C241.722 63.924 241.414 63.804 241.062 63.804ZM245.526 62.076H246.522V72.936H245.526V62.076ZM246.294 66.408H248.298V67.248H246.294V66.408ZM249.221 70.728H259.061V71.556H249.221V70.728ZM253.625 68.124H254.609V70.968H253.625V68.124ZM250.373 62.844H251.369V64.776H256.889V62.844H257.873V68.4H250.373V62.844ZM251.369 65.592V67.584H256.889V65.592H251.369ZM264.532 65.964H266.62V66.792H264.532V65.964ZM262.516 63.096H263.296V65.172C263.296 65.732 263.236 66.284 263.116 66.828C263.004 67.372 262.836 67.884 262.612 68.364C262.396 68.844 262.132 69.276 261.82 69.66C261.508 70.044 261.156 70.356 260.764 70.596L260.14 69.852C260.508 69.628 260.84 69.348 261.136 69.012C261.432 68.676 261.68 68.3 261.88 67.884C262.088 67.46 262.244 67.02 262.348 66.564C262.46 66.1 262.516 65.636 262.516 65.172V63.096ZM262.708 63.096H263.476V65.136C263.476 65.568 263.524 66.004 263.62 66.444C263.724 66.876 263.868 67.292 264.052 67.692C264.244 68.084 264.48 68.444 264.76 68.772C265.04 69.1 265.356 69.372 265.708 69.588L265.144 70.356C264.752 70.116 264.404 69.812 264.1 69.444C263.796 69.068 263.54 68.648 263.332 68.184C263.124 67.712 262.968 67.216 262.864 66.696C262.76 66.176 262.708 65.656 262.708 65.136V63.096ZM268.528 62.076H269.488V72.936H268.528V62.076ZM266.32 62.304H267.256V72.384H266.32V62.304ZM273.711 67.668H274.695V70.908H273.711V67.668ZM277.719 67.668H278.715V70.908H277.719V67.668ZM271.299 70.716H281.139V71.544H271.299V70.716ZM276.195 62.76C276.963 62.76 277.643 62.876 278.235 63.108C278.827 63.34 279.291 63.664 279.627 64.08C279.971 64.496 280.143 64.988 280.143 65.556C280.143 66.116 279.971 66.608 279.627 67.032C279.291 67.448 278.827 67.772 278.235 68.004C277.643 68.228 276.963 68.34 276.195 68.34C275.435 68.34 274.755 68.228 274.155 68.004C273.563 67.772 273.099 67.448 272.763 67.032C272.427 66.608 272.259 66.116 272.259 65.556C272.259 64.988 272.427 64.496 272.763 64.08C273.099 63.664 273.563 63.34 274.155 63.108C274.755 62.876 275.435 62.76 276.195 62.76ZM276.195 63.552C275.619 63.552 275.107 63.636 274.659 63.804C274.211 63.972 273.859 64.208 273.603 64.512C273.347 64.808 273.219 65.156 273.219 65.556C273.219 65.956 273.347 66.308 273.603 66.612C273.859 66.908 274.211 67.14 274.659 67.308C275.107 67.476 275.619 67.56 276.195 67.56C276.779 67.56 277.295 67.476 277.743 67.308C278.191 67.14 278.543 66.908 278.799 66.612C279.055 66.308 279.183 65.956 279.183 65.556C279.183 65.156 279.055 64.808 278.799 64.512C278.543 64.208 278.191 63.972 277.743 63.804C277.295 63.636 276.779 63.552 276.195 63.552ZM284.094 63.4688L283.953 69.4863H282.746L282.6 63.4688H284.094ZM282.559 71.332C282.559 71.1172 282.629 70.9375 282.77 70.793C282.914 70.6445 283.113 70.5703 283.367 70.5703C283.617 70.5703 283.814 70.6445 283.959 70.793C284.104 70.9375 284.176 71.1172 284.176 71.332C284.176 71.5391 284.104 71.7168 283.959 71.8652C283.814 72.0098 283.617 72.082 283.367 72.082C283.113 72.082 282.914 72.0098 282.77 71.8652C282.629 71.7168 282.559 71.5391 282.559 71.332Z" fill="#3B566E"/>
<path d="M42.66 20.22H45.36V38.8H42.66V20.22ZM39.32 23.92H44.12V26.1H39.32V23.92ZM39.32 28.44H44.12V30.62H39.32V28.44ZM34.12 21.66H36.24V24.36C36.24 25.52 36.14 26.6467 35.94 27.74C35.74 28.82 35.4333 29.8333 35.02 30.78C34.6067 31.7267 34.08 32.5667 33.44 33.3C32.8133 34.02 32.0733 34.5933 31.22 35.02L29.56 32.92C30.3467 32.5467 31.02 32.06 31.58 31.46C32.1533 30.86 32.6267 30.18 33 29.42C33.3867 28.6467 33.6667 27.8333 33.84 26.98C34.0267 26.1133 34.12 25.24 34.12 24.36V21.66ZM34.66 21.66H36.78V24.36C36.78 25.24 36.8667 26.1067 37.04 26.96C37.2133 27.8133 37.4733 28.6133 37.82 29.36C38.18 30.1067 38.64 30.7733 39.2 31.36C39.76 31.9333 40.4267 32.3867 41.2 32.72L39.58 34.84C38.7133 34.4267 37.9667 33.8667 37.34 33.16C36.7267 32.44 36.22 31.62 35.82 30.7C35.4333 29.78 35.14 28.78 34.94 27.7C34.7533 26.62 34.66 25.5067 34.66 24.36V21.66ZM50.2784 25.9H63.1784V27.7H50.2784V25.9ZM50.2784 20.62H63.0184V22.42H52.9184V26.78H50.2784V20.62ZM52.1584 23.3H62.6184V25.02H52.1584V23.3ZM48.2584 28.54H64.9184V30.5H48.2584V28.54ZM50.1184 31.36H62.9184V35.84H52.7784V37.72H50.1384V34.08H60.2984V33.2H50.1184V31.36ZM50.1384 36.78H63.4184V38.66H50.1384V36.78ZM79.4969 20.22H82.1569V38.8H79.4969V20.22ZM75.2969 26.74H80.2569V28.88H75.2969V26.74ZM67.2969 21.68H69.9369V26.18H73.5769V21.68H76.1969V34.44H67.2969V21.68ZM69.9369 28.24V32.32H73.5769V28.24H69.9369ZM91.8953 21.32H94.1953V22.66C94.1953 23.46 94.082 24.24 93.8553 25C93.642 25.7467 93.322 26.4533 92.8953 27.12C92.4686 27.7867 91.942 28.3933 91.3153 28.94C90.702 29.4733 89.9953 29.9333 89.1953 30.32C88.3953 30.7067 87.5153 30.9933 86.5553 31.18L85.4153 28.96C86.242 28.8133 86.9953 28.5933 87.6753 28.3C88.3686 27.9933 88.9753 27.6267 89.4953 27.2C90.0153 26.7733 90.4553 26.3133 90.8153 25.82C91.1753 25.3133 91.442 24.7933 91.6153 24.26C91.802 23.7133 91.8953 23.18 91.8953 22.66V21.32ZM92.4153 21.32H94.7353V22.66C94.7353 23.1933 94.822 23.7333 94.9953 24.28C95.182 24.8267 95.4486 25.3533 95.7953 25.86C96.1553 26.3533 96.5953 26.8067 97.1153 27.22C97.6353 27.6333 98.2353 27.9933 98.9153 28.3C99.5953 28.5933 100.362 28.8133 101.215 28.96L100.075 31.18C99.1153 30.9933 98.2353 30.7067 97.4353 30.32C96.6353 29.9333 95.922 29.4733 95.2953 28.94C94.682 28.4067 94.1553 27.8067 93.7153 27.14C93.2886 26.4733 92.962 25.76 92.7353 25C92.522 24.24 92.4153 23.46 92.4153 22.66V21.32ZM85.0153 34.34H101.795V36.52H85.0153V34.34ZM109.054 28.04H110.594C111.794 28.04 112.854 28.0333 113.774 28.02C114.708 27.9933 115.568 27.9467 116.354 27.88C117.141 27.8 117.941 27.6867 118.754 27.54L119.034 29.62C118.208 29.7667 117.381 29.88 116.554 29.96C115.728 30.0267 114.834 30.0733 113.874 30.1C112.928 30.1267 111.834 30.14 110.594 30.14H109.054V28.04ZM109.054 21.18H117.754V23.28H111.714V28.98H109.054V21.18ZM110.894 24.6H117.374V26.66H110.894V24.6ZM120.294 20.26H122.954V30.52H120.294V20.26ZM122.234 24.22H125.414V26.4H122.234V24.22ZM110.874 31.26H113.514V32.84H120.334V31.26H122.954V38.58H110.874V31.26ZM113.514 34.9V36.44H120.334V34.9H113.514ZM133.793 20.56H136.073V21.12C136.073 21.7733 135.966 22.4067 135.753 23.02C135.539 23.62 135.226 24.18 134.813 24.7C134.399 25.22 133.886 25.6867 133.273 26.1C132.659 26.5133 131.959 26.8667 131.173 27.16C130.386 27.44 129.519 27.64 128.573 27.76L127.613 25.68C128.439 25.5867 129.186 25.4333 129.853 25.22C130.519 24.9933 131.093 24.7333 131.573 24.44C132.066 24.1333 132.473 23.8 132.793 23.44C133.126 23.0667 133.373 22.6867 133.533 22.3C133.706 21.9 133.793 21.5067 133.793 21.12V20.56ZM134.233 20.56H136.513V21.12C136.513 21.5067 136.593 21.8933 136.753 22.28C136.926 22.6667 137.173 23.0467 137.493 23.42C137.826 23.78 138.239 24.1133 138.733 24.42C139.226 24.7267 139.799 24.9933 140.453 25.22C141.119 25.4333 141.866 25.5867 142.693 25.68L141.733 27.76C140.786 27.64 139.919 27.4333 139.133 27.14C138.346 26.8467 137.646 26.4933 137.033 26.08C136.433 25.6667 135.926 25.2 135.513 24.68C135.099 24.16 134.779 23.6 134.553 23C134.339 22.4 134.233 21.7733 134.233 21.12V20.56ZM126.773 28.76H143.533V30.86H126.773V28.76ZM135.113 32.06C137.113 32.06 138.686 32.3533 139.833 32.94C140.979 33.5267 141.553 34.36 141.553 35.44C141.553 36.5067 140.979 37.3333 139.833 37.92C138.686 38.5067 137.113 38.8 135.113 38.8C133.113 38.8 131.539 38.5067 130.393 37.92C129.259 37.3333 128.693 36.5067 128.693 35.44C128.693 34.36 129.259 33.5267 130.393 32.94C131.539 32.3533 133.113 32.06 135.113 32.06ZM135.113 34.08C134.286 34.08 133.593 34.1267 133.033 34.22C132.486 34.3133 132.073 34.4667 131.793 34.68C131.513 34.88 131.373 35.1333 131.373 35.44C131.373 35.7467 131.513 36 131.793 36.2C132.073 36.4 132.486 36.5533 133.033 36.66C133.593 36.7533 134.286 36.8 135.113 36.8C135.939 36.8 136.626 36.7533 137.173 36.66C137.733 36.5533 138.153 36.4 138.433 36.2C138.713 36 138.853 35.7467 138.853 35.44C138.853 35.1333 138.713 34.88 138.433 34.68C138.153 34.4667 137.733 34.3133 137.173 34.22C136.626 34.1267 135.939 34.08 135.113 34.08ZM158.692 31.56C159.985 31.56 161.098 31.7067 162.032 32C162.965 32.28 163.685 32.6933 164.192 33.24C164.698 33.7733 164.952 34.42 164.952 35.18C164.952 35.9267 164.698 36.5733 164.192 37.12C163.685 37.6667 162.965 38.08 162.032 38.36C161.098 38.6533 159.985 38.8 158.692 38.8C157.412 38.8 156.298 38.6533 155.352 38.36C154.418 38.08 153.692 37.6667 153.172 37.12C152.665 36.5733 152.412 35.9267 152.412 35.18C152.412 34.42 152.665 33.7733 153.172 33.24C153.692 32.6933 154.418 32.28 155.352 32C156.298 31.7067 157.412 31.56 158.692 31.56ZM158.692 33.66C157.905 33.66 157.245 33.7133 156.712 33.82C156.178 33.9267 155.772 34.0933 155.492 34.32C155.212 34.5333 155.072 34.82 155.072 35.18C155.072 35.5267 155.212 35.82 155.492 36.06C155.772 36.2867 156.178 36.46 156.712 36.58C157.245 36.6867 157.905 36.74 158.692 36.74C159.478 36.74 160.138 36.6867 160.672 36.58C161.218 36.46 161.625 36.2867 161.892 36.06C162.172 35.82 162.312 35.5267 162.312 35.18C162.312 34.82 162.172 34.5333 161.892 34.32C161.625 34.0933 161.218 33.9267 160.672 33.82C160.138 33.7133 159.478 33.66 158.692 33.66ZM162.072 20.26H164.732V31.16H162.072V20.26ZM164.012 24.56H167.192V26.74H164.012V24.56ZM150.692 21.42H153.332V23.72H156.972V21.42H159.592V30.14H150.692V21.42ZM153.332 25.76V28.06H156.972V25.76H153.332ZM169.33 21.2H171.97V23.54H175.49V21.2H178.11V29.86H169.33V21.2ZM171.97 25.56V27.72H175.49V25.56H171.97ZM177.51 24.46H182.01V26.62H177.51V24.46ZM181.39 20.26H184.07V30.4H181.39V20.26ZM171.77 31.18H174.41V32.82H181.43V31.18H184.05V38.54H171.77V31.18ZM174.41 34.88V36.44H181.43V34.88H174.41Z" fill="white"/>
<defs>
<filter id="filter0_d_205_1367" x="0" y="0" width="391" height="138" filterUnits="userSpaceOnUse" color-interpolation-filters="sRGB">
<feFlood flood-opacity="0" result="BackgroundImageFix"/>
<feColorMatrix in="SourceAlpha" type="matrix" values="0 0 0 0 0 0 0 0 0 0 0 0 0 0 0 0 0 0 127 0" result="hardAlpha"/>
<feOffset dy="4"/>
<feGaussianBlur stdDeviation="2"/>
<feComposite in2="hardAlpha" operator="out"/>
<feColorMatrix type="matrix" values="0 0 0 0 0 0 0 0 0 0 0 0 0 0 0 0 0 0 0.25 0"/>
<feBlend mode="normal" in2="BackgroundImageFix" result="effect1_dropShadow_205_1367"/>
<feBlend mode="normal" in="SourceGraphic" in2="effect1_dropShadow_205_1367" result="shape"/>
</filter>
</defs>
</svg>
