<svg width="391" height="138" viewBox="0 0 391 138" fill="none" xmlns="http://www.w3.org/2000/svg">
<path d="M194.437 68.6611C246.73 68.6612 289.121 83.0891 289.122 100.887C289.122 106.757 284.51 112.26 276.453 117H112.419C104.362 112.26 99.75 106.757 99.75 100.887C99.7506 83.0891 142.143 68.6611 194.437 68.6611Z" fill="white" fill-opacity="0.2"/>
<g filter="url(#filter0_d_79_1578)">
<rect x="4" width="383" height="130" rx="10" fill="#7992DC"/>
</g>
<path d="M345.238 0C347.516 5.24199 348.7 10.6188 348.7 16.0977C348.7 71.8245 226.285 117 75.2803 117C50.6215 117 26.7254 115.794 4 113.535V10C4 4.47715 8.47715 0 14 0H345.238Z" fill="white" fill-opacity="0.3"/>
<path d="M47.66 29.22H50.36V47.8H47.66V29.22ZM44.32 32.92H49.12V35.1H44.32V32.92ZM44.32 37.44H49.12V39.62H44.32V37.44ZM39.12 30.66H41.24V33.36C41.24 34.52 41.14 35.6467 40.94 36.74C40.74 37.82 40.4333 38.8333 40.02 39.78C39.6067 40.7267 39.08 41.5667 38.44 42.3C37.8133 43.02 37.0733 43.5933 36.22 44.02L34.56 41.92C35.3467 41.5467 36.02 41.06 36.58 40.46C37.1533 39.86 37.6267 39.18 38 38.42C38.3867 37.6467 38.6667 36.8333 38.84 35.98C39.0267 35.1133 39.12 34.24 39.12 33.36V30.66ZM39.66 30.66H41.78V33.36C41.78 34.24 41.8667 35.1067 42.04 35.96C42.2133 36.8133 42.4733 37.6133 42.82 38.36C43.18 39.1067 43.64 39.7733 44.2 40.36C44.76 40.9333 45.4267 41.3867 46.2 41.72L44.58 43.84C43.7133 43.4267 42.9667 42.8667 42.34 42.16C41.7267 41.44 41.22 40.62 40.82 39.7C40.4333 38.78 40.14 37.78 39.94 36.7C39.7533 35.62 39.66 34.5067 39.66 33.36V30.66ZM55.2784 34.9H68.1784V36.7H55.2784V34.9ZM55.2784 29.62H68.0184V31.42H57.9184V35.78H55.2784V29.62ZM57.1584 32.3H67.6184V34.02H57.1584V32.3ZM53.2584 37.54H69.9184V39.5H53.2584V37.54ZM55.1184 40.36H67.9184V44.84H57.7784V46.72H55.1384V43.08H65.2984V42.2H55.1184V40.36ZM55.1384 45.78H68.4184V47.66H55.1384V45.78ZM84.4969 29.22H87.1569V47.8H84.4969V29.22ZM80.2969 35.74H85.2569V37.88H80.2969V35.74ZM72.2969 30.68H74.9369V35.18H78.5769V30.68H81.1969V43.44H72.2969V30.68ZM74.9369 37.24V41.32H78.5769V37.24H74.9369ZM96.8953 30.32H99.1953V31.66C99.1953 32.46 99.082 33.24 98.8553 34C98.642 34.7467 98.322 35.4533 97.8953 36.12C97.4686 36.7867 96.942 37.3933 96.3153 37.94C95.702 38.4733 94.9953 38.9333 94.1953 39.32C93.3953 39.7067 92.5153 39.9933 91.5553 40.18L90.4153 37.96C91.242 37.8133 91.9953 37.5933 92.6753 37.3C93.3686 36.9933 93.9753 36.6267 94.4953 36.2C95.0153 35.7733 95.4553 35.3133 95.8153 34.82C96.1753 34.3133 96.442 33.7933 96.6153 33.26C96.802 32.7133 96.8953 32.18 96.8953 31.66V30.32ZM97.4153 30.32H99.7353V31.66C99.7353 32.1933 99.822 32.7333 99.9953 33.28C100.182 33.8267 100.449 34.3533 100.795 34.86C101.155 35.3533 101.595 35.8067 102.115 36.22C102.635 36.6333 103.235 36.9933 103.915 37.3C104.595 37.5933 105.362 37.8133 106.215 37.96L105.075 40.18C104.115 39.9933 103.235 39.7067 102.435 39.32C101.635 38.9333 100.922 38.4733 100.295 37.94C99.682 37.4067 99.1553 36.8067 98.7153 36.14C98.2886 35.4733 97.962 34.76 97.7353 34C97.522 33.24 97.4153 32.46 97.4153 31.66V30.32ZM90.0153 43.34H106.795V45.52H90.0153V43.34ZM114.054 37.04H115.594C116.794 37.04 117.854 37.0333 118.774 37.02C119.708 36.9933 120.568 36.9467 121.354 36.88C122.141 36.8 122.941 36.6867 123.754 36.54L124.034 38.62C123.208 38.7667 122.381 38.88 121.554 38.96C120.728 39.0267 119.834 39.0733 118.874 39.1C117.928 39.1267 116.834 39.14 115.594 39.14H114.054V37.04ZM114.054 30.18H122.754V32.28H116.714V37.98H114.054V30.18ZM115.894 33.6H122.374V35.66H115.894V33.6ZM125.294 29.26H127.954V39.52H125.294V29.26ZM127.234 33.22H130.414V35.4H127.234V33.22ZM115.874 40.26H118.514V41.84H125.334V40.26H127.954V47.58H115.874V40.26ZM118.514 43.9V45.44H125.334V43.9H118.514ZM138.793 29.56H141.073V30.12C141.073 30.7733 140.966 31.4067 140.753 32.02C140.539 32.62 140.226 33.18 139.813 33.7C139.399 34.22 138.886 34.6867 138.273 35.1C137.659 35.5133 136.959 35.8667 136.173 36.16C135.386 36.44 134.519 36.64 133.573 36.76L132.613 34.68C133.439 34.5867 134.186 34.4333 134.853 34.22C135.519 33.9933 136.093 33.7333 136.573 33.44C137.066 33.1333 137.473 32.8 137.793 32.44C138.126 32.0667 138.373 31.6867 138.533 31.3C138.706 30.9 138.793 30.5067 138.793 30.12V29.56ZM139.233 29.56H141.513V30.12C141.513 30.5067 141.593 30.8933 141.753 31.28C141.926 31.6667 142.173 32.0467 142.493 32.42C142.826 32.78 143.239 33.1133 143.733 33.42C144.226 33.7267 144.799 33.9933 145.453 34.22C146.119 34.4333 146.866 34.5867 147.693 34.68L146.733 36.76C145.786 36.64 144.919 36.4333 144.133 36.14C143.346 35.8467 142.646 35.4933 142.033 35.08C141.433 34.6667 140.926 34.2 140.513 33.68C140.099 33.16 139.779 32.6 139.553 32C139.339 31.4 139.233 30.7733 139.233 30.12V29.56ZM131.773 37.76H148.533V39.86H131.773V37.76ZM140.113 41.06C142.113 41.06 143.686 41.3533 144.833 41.94C145.979 42.5267 146.553 43.36 146.553 44.44C146.553 45.5067 145.979 46.3333 144.833 46.92C143.686 47.5067 142.113 47.8 140.113 47.8C138.113 47.8 136.539 47.5067 135.393 46.92C134.259 46.3333 133.693 45.5067 133.693 44.44C133.693 43.36 134.259 42.5267 135.393 41.94C136.539 41.3533 138.113 41.06 140.113 41.06ZM140.113 43.08C139.286 43.08 138.593 43.1267 138.033 43.22C137.486 43.3133 137.073 43.4667 136.793 43.68C136.513 43.88 136.373 44.1333 136.373 44.44C136.373 44.7467 136.513 45 136.793 45.2C137.073 45.4 137.486 45.5533 138.033 45.66C138.593 45.7533 139.286 45.8 140.113 45.8C140.939 45.8 141.626 45.7533 142.173 45.66C142.733 45.5533 143.153 45.4 143.433 45.2C143.713 45 143.853 44.7467 143.853 44.44C143.853 44.1333 143.713 43.88 143.433 43.68C143.153 43.4667 142.733 43.3133 142.173 43.22C141.626 43.1267 140.939 43.08 140.113 43.08ZM163.692 40.56C164.985 40.56 166.098 40.7067 167.032 41C167.965 41.28 168.685 41.6933 169.192 42.24C169.698 42.7733 169.952 43.42 169.952 44.18C169.952 44.9267 169.698 45.5733 169.192 46.12C168.685 46.6667 167.965 47.08 167.032 47.36C166.098 47.6533 164.985 47.8 163.692 47.8C162.412 47.8 161.298 47.6533 160.352 47.36C159.418 47.08 158.692 46.6667 158.172 46.12C157.665 45.5733 157.412 44.9267 157.412 44.18C157.412 43.42 157.665 42.7733 158.172 42.24C158.692 41.6933 159.418 41.28 160.352 41C161.298 40.7067 162.412 40.56 163.692 40.56ZM163.692 42.66C162.905 42.66 162.245 42.7133 161.712 42.82C161.178 42.9267 160.772 43.0933 160.492 43.32C160.212 43.5333 160.072 43.82 160.072 44.18C160.072 44.5267 160.212 44.82 160.492 45.06C160.772 45.2867 161.178 45.46 161.712 45.58C162.245 45.6867 162.905 45.74 163.692 45.74C164.478 45.74 165.138 45.6867 165.672 45.58C166.218 45.46 166.625 45.2867 166.892 45.06C167.172 44.82 167.312 44.5267 167.312 44.18C167.312 43.82 167.172 43.5333 166.892 43.32C166.625 43.0933 166.218 42.9267 165.672 42.82C165.138 42.7133 164.478 42.66 163.692 42.66ZM167.072 29.26H169.732V40.16H167.072V29.26ZM169.012 33.56H172.192V35.74H169.012V33.56ZM155.692 30.42H158.332V32.72H161.972V30.42H164.592V39.14H155.692V30.42ZM158.332 34.76V37.06H161.972V34.76H158.332ZM174.33 30.2H176.97V32.54H180.49V30.2H183.11V38.86H174.33V30.2ZM176.97 34.56V36.72H180.49V34.56H176.97ZM182.51 33.46H187.01V35.62H182.51V33.46ZM186.39 29.26H189.07V39.4H186.39V29.26ZM176.77 40.18H179.41V41.82H186.43V40.18H189.05V47.54H176.77V40.18ZM179.41 43.88V45.44H186.43V43.88H179.41ZM204.668 29.22H207.328V47.8H204.668V29.22ZM197.348 30.52C198.295 30.52 199.135 30.7933 199.868 31.34C200.602 31.8733 201.175 32.64 201.588 33.64C202.015 34.6267 202.228 35.7933 202.228 37.14C202.228 38.5 202.015 39.68 201.588 40.68C201.175 41.6667 200.602 42.4333 199.868 42.98C199.135 43.5133 198.295 43.78 197.348 43.78C196.415 43.78 195.582 43.5133 194.848 42.98C194.115 42.4333 193.535 41.6667 193.108 40.68C192.695 39.68 192.488 38.5 192.488 37.14C192.488 35.7933 192.695 34.6267 193.108 33.64C193.535 32.64 194.115 31.8733 194.848 31.34C195.582 30.7933 196.415 30.52 197.348 30.52ZM197.348 32.94C196.895 32.94 196.495 33.1 196.148 33.42C195.802 33.74 195.528 34.2133 195.328 34.84C195.142 35.4533 195.048 36.22 195.048 37.14C195.048 38.0467 195.142 38.82 195.328 39.46C195.528 40.0867 195.802 40.56 196.148 40.88C196.495 41.2 196.895 41.36 197.348 41.36C197.815 41.36 198.222 41.2 198.568 40.88C198.915 40.56 199.182 40.0867 199.368 39.46C199.568 38.82 199.668 38.0467 199.668 37.14C199.668 36.22 199.568 35.4533 199.368 34.84C199.182 34.2133 198.915 33.74 198.568 33.42C198.222 33.1 197.815 32.94 197.348 32.94ZM217.407 29.9H229.127V32.02H217.407V29.9ZM215.347 36.32H232.127V38.42H215.347V36.32ZM222.387 37.78H225.027V41.48H222.387V37.78ZM227.527 29.9H230.147V31.38C230.147 32.1667 230.121 33.04 230.067 34C230.027 34.96 229.861 36.0467 229.567 37.26L226.967 37C227.247 35.8 227.407 34.76 227.447 33.88C227.501 32.9867 227.527 32.1533 227.527 31.38V29.9ZM223.707 40.64C225.721 40.64 227.307 40.9533 228.467 41.58C229.641 42.2067 230.227 43.08 230.227 44.2C230.227 45.3333 229.641 46.2133 228.467 46.84C227.307 47.48 225.721 47.8 223.707 47.8C221.694 47.8 220.107 47.48 218.947 46.84C217.787 46.2133 217.207 45.3333 217.207 44.2C217.207 43.08 217.787 42.2067 218.947 41.58C220.107 40.9533 221.694 40.64 223.707 40.64ZM223.707 42.74C222.867 42.74 222.161 42.7933 221.587 42.9C221.027 43.0067 220.601 43.1667 220.307 43.38C220.014 43.5933 219.867 43.8667 219.867 44.2C219.867 44.5333 220.014 44.8133 220.307 45.04C220.601 45.2533 221.027 45.4133 221.587 45.52C222.161 45.6267 222.867 45.68 223.707 45.68C224.547 45.68 225.247 45.6267 225.807 45.52C226.381 45.4133 226.814 45.2533 227.107 45.04C227.401 44.8133 227.547 44.5333 227.547 44.2C227.547 43.8667 227.401 43.5933 227.107 43.38C226.814 43.1667 226.381 43.0067 225.807 42.9C225.247 42.7933 224.547 42.74 223.707 42.74ZM235.806 30.08H247.526V32.18H235.806V30.08ZM233.746 36.74H250.526V38.84H233.746V36.74ZM245.926 30.08H248.546V31.56C248.546 32.3467 248.526 33.1933 248.486 34.1C248.446 35.0067 248.286 36.06 248.006 37.26L245.346 37.24C245.639 36.0267 245.806 34.9733 245.846 34.08C245.899 33.1867 245.926 32.3467 245.926 31.56V30.08ZM235.706 40.78H248.466V47.58H235.706V40.78ZM245.866 42.86H238.326V45.48H245.866V42.86ZM252.124 32.04H260.984V34.14H252.124V32.04ZM256.584 34.98C257.371 34.98 258.064 35.1667 258.664 35.54C259.278 35.9133 259.758 36.4333 260.104 37.1C260.464 37.7533 260.644 38.5133 260.644 39.38C260.644 40.2467 260.464 41.0133 260.104 41.68C259.758 42.3333 259.278 42.8467 258.664 43.22C258.064 43.5933 257.371 43.78 256.584 43.78C255.798 43.78 255.098 43.5933 254.484 43.22C253.871 42.8467 253.391 42.3333 253.044 41.68C252.698 41.0133 252.524 40.2467 252.524 39.38C252.524 38.5133 252.698 37.7533 253.044 37.1C253.391 36.4333 253.871 35.9133 254.484 35.54C255.111 35.1667 255.811 34.98 256.584 34.98ZM256.584 37.18C256.264 37.18 255.971 37.2667 255.704 37.44C255.438 37.6133 255.231 37.8667 255.084 38.2C254.938 38.52 254.864 38.9133 254.864 39.38C254.864 39.8467 254.938 40.2467 255.084 40.58C255.231 40.9133 255.438 41.1667 255.704 41.34C255.971 41.5 256.264 41.58 256.584 41.58C256.918 41.58 257.211 41.5 257.464 41.34C257.718 41.1667 257.918 40.9133 258.064 40.58C258.211 40.2467 258.284 39.8467 258.284 39.38C258.284 38.9133 258.211 38.52 258.064 38.2C257.918 37.8667 257.718 37.6133 257.464 37.44C257.211 37.2667 256.918 37.18 256.584 37.18ZM265.524 29.24H268.044V47.76H265.524V29.24ZM263.304 36.78H266.344V38.92H263.304V36.78ZM261.624 29.58H264.104V46.98H261.624V29.58ZM255.284 29.74H257.904V33.36H255.284V29.74ZM274.223 38.66H276.883V43.84H274.223V38.66ZM280.943 38.66H283.603V43.84H280.943V38.66ZM270.543 43.46H287.323V45.62H270.543V43.46ZM278.903 30.16C280.236 30.16 281.423 30.3667 282.463 30.78C283.516 31.1933 284.336 31.7733 284.923 32.52C285.523 33.2533 285.823 34.1267 285.823 35.14C285.823 36.14 285.523 37.0133 284.923 37.76C284.336 38.4933 283.516 39.0667 282.463 39.48C281.423 39.8933 280.236 40.1 278.903 40.1C277.583 40.1 276.396 39.8933 275.343 39.48C274.303 39.0667 273.483 38.4933 272.883 37.76C272.283 37.0133 271.983 36.14 271.983 35.14C271.983 34.1267 272.283 33.2533 272.883 32.52C273.483 31.7733 274.303 31.1933 275.343 30.78C276.396 30.3667 277.583 30.16 278.903 30.16ZM278.903 32.22C278.049 32.22 277.296 32.34 276.643 32.58C276.003 32.8067 275.503 33.1333 275.143 33.56C274.783 33.9867 274.603 34.5133 274.603 35.14C274.603 35.74 274.783 36.26 275.143 36.7C275.503 37.1267 276.003 37.46 276.643 37.7C277.296 37.9267 278.049 38.04 278.903 38.04C279.769 38.04 280.523 37.9267 281.163 37.7C281.816 37.46 282.316 37.1267 282.663 36.7C283.023 36.26 283.203 35.74 283.203 35.14C283.203 34.5133 283.023 33.9867 282.663 33.56C282.316 33.1333 281.816 32.8067 281.163 32.58C280.523 32.34 279.769 32.22 278.903 32.22ZM292.389 31.7812L292.066 41.6543H289.723L289.391 31.7812H292.389ZM289.312 44.7109C289.312 44.2943 289.456 43.9492 289.742 43.6758C290.035 43.3958 290.419 43.2559 290.895 43.2559C291.376 43.2559 291.76 43.3958 292.047 43.6758C292.333 43.9492 292.477 44.2943 292.477 44.7109C292.477 45.1146 292.333 45.4564 292.047 45.7363C291.76 46.0163 291.376 46.1562 290.895 46.1562C290.419 46.1562 290.035 46.0163 289.742 45.7363C289.456 45.4564 289.312 45.1146 289.312 44.7109Z" fill="white"/>
<path d="M41.33 57.74H42.12V62.8H41.33V57.74ZM38.71 60.11H40.14V60.78H38.71V60.11ZM39.7 57.89H40.48V62.72H39.7V57.89ZM36.15 63.19H42.12V65.2H36.99V66.23H36.17V64.6H41.31V63.81H36.15V63.19ZM36.17 66.04H42.45V66.68H36.17V66.04ZM34.45 58.61H38.93V59.26H34.45V58.61ZM36.69 59.62C37.0633 59.62 37.3867 59.6833 37.66 59.81C37.94 59.93 38.16 60.1033 38.32 60.33C38.48 60.55 38.56 60.8133 38.56 61.12C38.56 61.42 38.48 61.6833 38.32 61.91C38.16 62.13 37.94 62.3033 37.66 62.43C37.3867 62.55 37.0633 62.61 36.69 62.61C36.3233 62.61 36 62.55 35.72 62.43C35.44 62.3033 35.22 62.13 35.06 61.91C34.9 61.6833 34.82 61.42 34.82 61.12C34.82 60.8133 34.9 60.55 35.06 60.33C35.22 60.1033 35.44 59.93 35.72 59.81C36 59.6833 36.3233 59.62 36.69 59.62ZM36.69 60.22C36.3567 60.22 36.0833 60.3033 35.87 60.47C35.6567 60.63 35.55 60.8467 35.55 61.12C35.55 61.3867 35.6567 61.6033 35.87 61.77C36.0833 61.9367 36.3567 62.02 36.69 62.02C37.03 62.02 37.3033 61.9367 37.51 61.77C37.7233 61.6033 37.83 61.3867 37.83 61.12C37.83 60.8467 37.7233 60.63 37.51 60.47C37.3033 60.3033 37.03 60.22 36.69 60.22ZM36.28 57.71H37.1V59.09H36.28V57.71ZM43.6992 64.97H51.8992V65.66H43.6992V64.97ZM47.3692 63.04H48.1892V65.26H47.3692V63.04ZM44.6992 58.4H50.8792V61.14H45.5392V62.95H44.7192V60.48H50.0592V59.08H44.6992V58.4ZM44.7192 62.6H51.0892V63.28H44.7192V62.6ZM59.5184 57.73H60.3384V66.79H59.5184V57.73ZM57.1384 61.09H59.7584V61.77H57.1384V61.09ZM53.2584 58.44H54.0884V60.79H56.5984V58.44H57.4084V64.51H53.2584V58.44ZM54.0884 61.45V63.83H56.5984V61.45H54.0884ZM65.7177 58.35H66.4477V59.05C66.4477 59.4433 66.3777 59.8167 66.2377 60.17C66.1043 60.5233 65.9177 60.8533 65.6777 61.16C65.4443 61.46 65.171 61.73 64.8577 61.97C64.551 62.21 64.221 62.4133 63.8677 62.58C63.521 62.7467 63.1677 62.8733 62.8077 62.96L62.4377 62.27C62.751 62.2033 63.0643 62.1 63.3777 61.96C63.6977 61.82 63.9977 61.65 64.2777 61.45C64.5577 61.2433 64.8043 61.0133 65.0177 60.76C65.2377 60.5067 65.4077 60.2367 65.5277 59.95C65.6543 59.6567 65.7177 59.3567 65.7177 59.05V58.35ZM65.8777 58.35H66.5877V59.05C66.5877 59.3567 66.651 59.6567 66.7777 59.95C66.9043 60.2367 67.0743 60.5067 67.2877 60.76C67.5077 61.0133 67.7577 61.2433 68.0377 61.45C68.3177 61.65 68.6143 61.8233 68.9277 61.97C69.2477 62.11 69.5677 62.21 69.8877 62.27L69.5077 62.96C69.1477 62.8733 68.7943 62.7467 68.4477 62.58C68.101 62.4133 67.771 62.21 67.4577 61.97C67.151 61.73 66.8777 61.46 66.6377 61.16C66.3977 60.8533 66.211 60.5233 66.0777 60.17C65.9443 59.8167 65.8777 59.4433 65.8777 59.05V58.35ZM62.0977 64.87H70.2977V65.56H62.0977V64.87ZM75.9271 58.23C76.3271 58.23 76.6804 58.3167 76.9871 58.49C77.3004 58.6633 77.5438 58.9033 77.7171 59.21C77.8971 59.5167 77.9871 59.8733 77.9871 60.28C77.9871 60.68 77.8971 61.0367 77.7171 61.35C77.5438 61.6567 77.3004 61.8967 76.9871 62.07C76.6804 62.2433 76.3271 62.33 75.9271 62.33C75.5271 62.33 75.1704 62.2433 74.8571 62.07C74.5504 61.8967 74.3104 61.6567 74.1371 61.35C73.9638 61.0367 73.8771 60.68 73.8771 60.28C73.8771 59.8733 73.9638 59.5167 74.1371 59.21C74.3104 58.9033 74.5504 58.6633 74.8571 58.49C75.1704 58.3167 75.5271 58.23 75.9271 58.23ZM75.9271 58.91C75.6804 58.91 75.4571 58.97 75.2571 59.09C75.0638 59.2033 74.9104 59.3633 74.7971 59.57C74.6838 59.77 74.6271 60.0067 74.6271 60.28C74.6271 60.5467 74.6838 60.7833 74.7971 60.99C74.9104 61.19 75.0638 61.35 75.2571 61.47C75.4571 61.5833 75.6804 61.64 75.9271 61.64C76.1738 61.64 76.3938 61.5833 76.5871 61.47C76.7871 61.35 76.9438 61.19 77.0571 60.99C77.1704 60.7833 77.2271 60.5467 77.2271 60.28C77.2271 60.0067 77.1704 59.77 77.0571 59.57C76.9438 59.3633 76.7871 59.2033 76.5871 59.09C76.3938 58.97 76.1738 58.91 75.9271 58.91ZM80.6171 57.74H81.4071V62.66H80.6171V57.74ZM79.1871 59.81H80.8971V60.5H79.1871V59.81ZM78.6771 57.91H79.4571V62.6H78.6771V57.91ZM75.4771 63.07H76.2971V64.14H80.5971V63.07H81.4071V66.66H75.4771V63.07ZM76.2971 64.81V65.98H80.5971V64.81H76.2971ZM91.5966 57.73H92.4266V66.79H91.5966V57.73ZM92.2366 61.3H93.9066V61.99H92.2366V61.3ZM85.8666 63.83H86.5766C87.1299 63.83 87.6366 63.8233 88.0966 63.81C88.5632 63.79 89.0099 63.7567 89.4366 63.71C89.8699 63.6633 90.3099 63.6 90.7566 63.52L90.8566 64.23C90.3899 64.31 89.9366 64.3733 89.4966 64.42C89.0632 64.4667 88.6099 64.4967 88.1366 64.51C87.6632 64.5233 87.1432 64.53 86.5766 64.53H85.8666V63.83ZM85.8666 58.61H90.0566V59.29H86.6866V64.15H85.8666V58.61ZM94.6658 62.32H102.866V63H94.6658V62.32ZM98.4158 62.75H99.2558V64.83H98.4158V62.75ZM95.7158 65.89H101.956V66.58H95.7158V65.89ZM95.7158 63.94H96.5458V66.08H95.7158V63.94ZM98.7558 57.96C99.3958 57.96 99.9524 58.0333 100.426 58.18C100.899 58.3267 101.266 58.5367 101.526 58.81C101.792 59.0767 101.926 59.4 101.926 59.78C101.926 60.1467 101.792 60.4667 101.526 60.74C101.266 61.0133 100.899 61.2233 100.426 61.37C99.9524 61.5167 99.3958 61.59 98.7558 61.59C98.1224 61.59 97.5658 61.5167 97.0858 61.37C96.6124 61.2233 96.2424 61.0133 95.9758 60.74C95.7158 60.4667 95.5858 60.1467 95.5858 59.78C95.5858 59.4 95.7158 59.0767 95.9758 58.81C96.2424 58.5367 96.6124 58.3267 97.0858 58.18C97.5658 58.0333 98.1224 57.96 98.7558 57.96ZM98.7558 58.63C98.3024 58.63 97.9024 58.6767 97.5558 58.77C97.2091 58.8633 96.9391 58.9967 96.7458 59.17C96.5591 59.3367 96.4658 59.54 96.4658 59.78C96.4658 60.0133 96.5591 60.2167 96.7458 60.39C96.9391 60.5567 97.2091 60.6867 97.5558 60.78C97.9024 60.8667 98.3024 60.91 98.7558 60.91C99.2224 60.91 99.6258 60.8667 99.9658 60.78C100.306 60.6867 100.569 60.5567 100.756 60.39C100.949 60.2167 101.046 60.0133 101.046 59.78C101.046 59.54 100.949 59.3367 100.756 59.17C100.569 58.9967 100.306 58.8633 99.9658 58.77C99.6258 58.6767 99.2224 58.63 98.7558 58.63ZM103.875 64.97H112.075V65.66H103.875V64.97ZM107.545 63.04H108.365V65.26H107.545V63.04ZM104.875 58.4H111.055V61.14H105.715V62.95H104.895V60.48H110.235V59.08H104.875V58.4ZM104.895 62.6H111.265V63.28H104.895V62.6ZM114.114 62.07H120.324V62.75H114.114V62.07ZM113.074 64.86H121.274V65.55H113.074V64.86ZM114.114 58.57H120.234V59.25H114.934V62.37H114.114V58.57ZM125.234 58.32H129.454V62.01H125.234V58.32ZM128.644 58.98H126.044V61.35H128.644V58.98ZM131.344 57.73H132.174V62.92H131.344V57.73ZM128.884 64H129.594V64.17C129.594 64.4967 129.5 64.8033 129.314 65.09C129.134 65.37 128.884 65.6267 128.564 65.86C128.244 66.0867 127.877 66.2733 127.464 66.42C127.05 66.5733 126.617 66.6833 126.164 66.75L125.874 66.11C126.194 66.07 126.5 66.0067 126.794 65.92C127.087 65.8333 127.36 65.73 127.614 65.61C127.867 65.4833 128.087 65.3433 128.274 65.19C128.467 65.0367 128.617 64.8733 128.724 64.7C128.83 64.5267 128.884 64.35 128.884 64.17V64ZM129.014 64H129.734V64.17C129.734 64.3833 129.814 64.5967 129.974 64.81C130.134 65.0233 130.35 65.22 130.624 65.4C130.904 65.5733 131.22 65.7233 131.574 65.85C131.934 65.9767 132.31 66.0633 132.704 66.11L132.414 66.75C131.954 66.6833 131.52 66.5733 131.114 66.42C130.707 66.2667 130.344 66.0733 130.024 65.84C129.71 65.6067 129.464 65.35 129.284 65.07C129.104 64.7833 129.014 64.4833 129.014 64.17V64ZM126.234 63.54H132.384V64.18H126.234V63.54ZM128.894 62.66H129.734V63.83H128.894V62.66ZM141.093 59.37H143.413V60.05H141.093V59.37ZM143.063 57.73H143.893V62.4H143.063V57.73ZM138.073 62.86H143.893V65.03H138.903V66.4H138.093V64.4H143.073V63.52H138.073V62.86ZM138.093 65.99H144.223V66.66H138.093V65.99ZM138.713 58.02H139.383V58.86C139.383 59.4133 139.28 59.93 139.073 60.41C138.866 60.8833 138.576 61.2933 138.203 61.64C137.83 61.98 137.39 62.24 136.883 62.42L136.443 61.76C136.896 61.6067 137.293 61.3867 137.633 61.1C137.973 60.8133 138.236 60.48 138.423 60.1C138.616 59.7133 138.713 59.3 138.713 58.86V58.02ZM138.843 58.02H139.523V58.86C139.523 59.1533 139.576 59.44 139.683 59.72C139.79 59.9933 139.94 60.25 140.133 60.49C140.333 60.73 140.57 60.9433 140.843 61.13C141.116 61.31 141.416 61.4533 141.743 61.56L141.303 62.21C140.816 62.0367 140.386 61.7867 140.013 61.46C139.646 61.1267 139.36 60.74 139.153 60.3C138.946 59.8533 138.843 59.3733 138.843 58.86V58.02ZM150.482 60.08H152.512V60.77H150.482V60.08ZM152.262 57.73H153.092V63.12H152.262V57.73ZM150.112 63.4C150.739 63.4 151.276 63.4667 151.722 63.6C152.176 63.7333 152.522 63.9267 152.762 64.18C153.002 64.4267 153.122 64.73 153.122 65.09C153.122 65.6233 152.852 66.0367 152.312 66.33C151.779 66.6233 151.046 66.77 150.112 66.77C149.179 66.77 148.442 66.6233 147.902 66.33C147.369 66.0367 147.102 65.6233 147.102 65.09C147.102 64.73 147.222 64.4267 147.462 64.18C147.709 63.9267 148.056 63.7333 148.502 63.6C148.956 63.4667 149.492 63.4 150.112 63.4ZM150.112 64.05C149.659 64.05 149.269 64.09 148.942 64.17C148.616 64.25 148.362 64.3667 148.182 64.52C148.009 64.6733 147.922 64.8633 147.922 65.09C147.922 65.3033 148.009 65.4867 148.182 65.64C148.362 65.7933 148.616 65.9133 148.942 66C149.269 66.08 149.659 66.12 150.112 66.12C150.572 66.12 150.962 66.08 151.282 66C151.609 65.9133 151.859 65.7933 152.032 65.64C152.212 65.4867 152.302 65.3033 152.302 65.09C152.302 64.8633 152.212 64.6733 152.032 64.52C151.859 64.3667 151.609 64.25 151.282 64.17C150.962 64.09 150.572 64.05 150.112 64.05ZM147.952 58.65H148.632V59.38C148.632 59.9333 148.526 60.4533 148.312 60.94C148.106 61.42 147.812 61.8433 147.432 62.21C147.052 62.57 146.612 62.8467 146.112 63.04L145.682 62.38C146.022 62.26 146.329 62.0967 146.602 61.89C146.882 61.6833 147.122 61.4467 147.322 61.18C147.529 60.9133 147.686 60.6267 147.792 60.32C147.899 60.0133 147.952 59.7 147.952 59.38V58.65ZM148.112 58.65H148.792V59.37C148.792 59.7567 148.882 60.1333 149.062 60.5C149.242 60.8667 149.499 61.19 149.832 61.47C150.166 61.75 150.549 61.97 150.982 62.13L150.562 62.79C150.069 62.61 149.639 62.35 149.272 62.01C148.906 61.6633 148.619 61.2633 148.412 60.81C148.212 60.3567 148.112 59.8767 148.112 59.37V58.65ZM145.942 58.39H150.772V59.07H145.942V58.39ZM161.482 63.41C162.095 63.41 162.622 63.4767 163.062 63.61C163.508 63.7433 163.852 63.9333 164.092 64.18C164.332 64.4267 164.452 64.7267 164.452 65.08C164.452 65.4333 164.332 65.7367 164.092 65.99C163.852 66.2433 163.508 66.4367 163.062 66.57C162.622 66.7033 162.095 66.77 161.482 66.77C160.868 66.77 160.338 66.7033 159.892 66.57C159.445 66.4367 159.102 66.2433 158.862 65.99C158.622 65.7367 158.502 65.4333 158.502 65.08C158.502 64.7267 158.622 64.4267 158.862 64.18C159.102 63.9333 159.445 63.7433 159.892 63.61C160.338 63.4767 160.868 63.41 161.482 63.41ZM161.482 64.07C161.035 64.07 160.648 64.11 160.322 64.19C160.002 64.27 159.755 64.3867 159.582 64.54C159.408 64.6867 159.322 64.8667 159.322 65.08C159.322 65.3 159.408 65.4867 159.582 65.64C159.755 65.7933 160.002 65.91 160.322 65.99C160.648 66.07 161.035 66.11 161.482 66.11C161.928 66.11 162.312 66.07 162.632 65.99C162.952 65.91 163.198 65.7933 163.372 65.64C163.545 65.4867 163.632 65.3 163.632 65.08C163.632 64.8667 163.545 64.6867 163.372 64.54C163.198 64.3867 162.952 64.27 162.632 64.19C162.312 64.11 161.928 64.07 161.482 64.07ZM163.532 57.73H164.362V63.16H163.532V57.73ZM164.132 60H165.692V60.7H164.132V60ZM157.712 58.3H158.532V59.66H161.082V58.3H161.902V62.47H157.712V58.3ZM158.532 60.32V61.8H161.082V60.32H158.532ZM166.981 58.2H167.811V59.58H170.251V58.2H171.071V62.34H166.981V58.2ZM167.811 60.24V61.66H170.251V60.24H167.811ZM170.841 59.95H173.391V60.64H170.841V59.95ZM173.151 57.73H173.981V62.67H173.151V57.73ZM168.191 63.11H169.011V64.2H173.151V63.11H173.971V66.65H168.191V63.11ZM169.011 64.86V65.97H173.151V64.86H169.011ZM35.5 73.84H41.76V74.52H35.5V73.84ZM34.5 76.93H42.7V77.61H34.5V76.93ZM38.17 74.25H39V77.14H38.17V74.25ZM35.5 70.5H36.34V74.13H35.5V70.5ZM48.3392 71.86H50.6092V72.55H48.3392V71.86ZM45.9692 70.28H46.6392V71.39C46.6392 71.97 46.5359 72.5133 46.3292 73.02C46.1226 73.5267 45.8326 73.97 45.4592 74.35C45.0859 74.7233 44.6492 75.01 44.1492 75.21L43.7092 74.55C44.0492 74.4233 44.3559 74.2533 44.6292 74.04C44.9092 73.8267 45.1459 73.58 45.3392 73.3C45.5392 73.02 45.6926 72.72 45.7992 72.4C45.9126 72.0733 45.9692 71.7367 45.9692 71.39V70.28ZM46.1192 70.28H46.7892V71.42C46.7892 71.7333 46.8426 72.04 46.9492 72.34C47.0559 72.64 47.2059 72.92 47.3992 73.18C47.5926 73.44 47.8226 73.67 48.0892 73.87C48.3626 74.07 48.6626 74.23 48.9892 74.35L48.5392 75C48.0592 74.8067 47.6359 74.5333 47.2692 74.18C46.9092 73.8267 46.6259 73.4133 46.4192 72.94C46.2192 72.4667 46.1192 71.96 46.1192 71.42V70.28ZM50.3092 69.74H51.1392V76.5H50.3092V69.74ZM45.3292 77.9H51.3492V78.58H45.3292V77.9ZM45.3292 75.75H46.1592V78.21H45.3292V75.75ZM55.3887 74.03H63.5687V74.72H55.3887V74.03ZM56.4187 72.5H62.6087V73.18H56.4187V72.5ZM56.4187 70.09H62.5487V70.77H57.2387V72.82H56.4187V70.09ZM59.4687 75.5C60.4353 75.5 61.192 75.6433 61.7387 75.93C62.2853 76.2167 62.5587 76.6167 62.5587 77.13C62.5587 77.65 62.2853 78.05 61.7387 78.33C61.192 78.6167 60.4353 78.76 59.4687 78.76C58.502 78.76 57.742 78.6167 57.1887 78.33C56.642 78.05 56.3687 77.65 56.3687 77.13C56.3687 76.6167 56.642 76.2167 57.1887 75.93C57.742 75.6433 58.502 75.5 59.4687 75.5ZM59.4587 76.15C58.992 76.15 58.5887 76.19 58.2487 76.27C57.9153 76.3433 57.6587 76.4533 57.4787 76.6C57.2987 76.7467 57.2087 76.9233 57.2087 77.13C57.2087 77.3433 57.2987 77.5233 57.4787 77.67C57.6587 77.81 57.9153 77.92 58.2487 78C58.5887 78.0733 58.992 78.11 59.4587 78.11C59.9387 78.11 60.3453 78.0733 60.6787 78C61.0187 77.92 61.2787 77.81 61.4587 77.67C61.6387 77.5233 61.7287 77.3433 61.7287 77.13C61.7287 76.9233 61.6387 76.7467 61.4587 76.6C61.2787 76.4533 61.0187 76.3433 60.6787 76.27C60.3453 76.19 59.9387 76.15 59.4587 76.15ZM64.5779 74.71H72.7779V75.39H64.5779V74.71ZM65.6179 69.96H71.7279V72.16H66.4579V73.37H65.6379V71.54H70.9079V70.62H65.6179V69.96ZM65.6379 73.1H71.9179V73.76H65.6379V73.1ZM68.2679 73.44H69.0879V75.04H68.2679V73.44ZM65.4979 76.08H71.7779V78.69H70.9479V76.75H65.4979V76.08ZM74.1971 70.72H78.2771V71.4H74.1971V70.72ZM75.6071 73.31H76.4271V76.37H75.6071V73.31ZM77.9371 70.72H78.7571V71.21C78.7571 71.5767 78.7438 72.0567 78.7171 72.65C78.6971 73.2433 78.6238 73.96 78.4971 74.8L77.6771 74.73C77.8104 73.91 77.8871 73.21 77.9071 72.63C77.9271 72.05 77.9371 71.5767 77.9371 71.21V70.72ZM79.8871 69.73H80.7171V78.78H79.8871V69.73ZM80.4871 73.51H82.1571V74.22H80.4871V73.51ZM73.7971 76.8L73.6971 76.11C74.2371 76.1033 74.8271 76.0967 75.4671 76.09C76.1138 76.0767 76.7671 76.05 77.4271 76.01C78.0938 75.97 78.7304 75.9133 79.3371 75.84L79.3871 76.46C78.7604 76.56 78.1171 76.6333 77.4571 76.68C76.8038 76.7267 76.1638 76.76 75.5371 76.78C74.9104 76.7933 74.3304 76.8 73.7971 76.8ZM91.6666 69.73H92.4966V74.33H91.6666V69.73ZM92.1266 71.68H93.8266V72.37H92.1266V71.68ZM86.7466 74.76H92.4966V76.98H87.5866V78.34H86.7766V76.36H91.6766V75.42H86.7466V74.76ZM86.7766 77.99H92.8166V78.66H86.7766V77.99ZM87.9766 70.06C88.4299 70.06 88.8299 70.1433 89.1766 70.31C89.5299 70.4767 89.8066 70.7133 90.0066 71.02C90.2066 71.32 90.3066 71.67 90.3066 72.07C90.3066 72.4633 90.2066 72.8133 90.0066 73.12C89.8066 73.42 89.5299 73.6567 89.1766 73.83C88.8299 73.9967 88.4299 74.08 87.9766 74.08C87.5299 74.08 87.1299 73.9967 86.7766 73.83C86.4232 73.6567 86.1432 73.42 85.9366 73.12C85.7366 72.8133 85.6366 72.46 85.6366 72.06C85.6366 71.6667 85.7366 71.32 85.9366 71.02C86.1432 70.7133 86.4232 70.4767 86.7766 70.31C87.1299 70.1433 87.5299 70.06 87.9766 70.06ZM87.9766 70.74C87.6832 70.74 87.4199 70.7967 87.1866 70.91C86.9599 71.0233 86.7799 71.18 86.6466 71.38C86.5132 71.5733 86.4466 71.8033 86.4466 72.07C86.4466 72.33 86.5132 72.56 86.6466 72.76C86.7799 72.96 86.9599 73.12 87.1866 73.24C87.4199 73.3533 87.6832 73.41 87.9766 73.41C88.2699 73.41 88.5299 73.3533 88.7566 73.24C88.9899 73.12 89.1732 72.96 89.3066 72.76C89.4399 72.56 89.5066 72.33 89.5066 72.07C89.5066 71.8033 89.4399 71.5733 89.3066 71.38C89.1732 71.18 88.9899 71.0233 88.7566 70.91C88.5299 70.7967 88.2699 70.74 87.9766 70.74ZM101.256 69.74H102.086V75.1H101.256V69.74ZM95.1458 73.98H95.8758C96.4224 73.98 96.9291 73.9733 97.3958 73.96C97.8691 73.9467 98.3291 73.92 98.7758 73.88C99.2224 73.8333 99.6858 73.7733 100.166 73.7L100.266 74.38C99.7658 74.46 99.2858 74.5233 98.8258 74.57C98.3724 74.61 97.9058 74.6367 97.4258 74.65C96.9524 74.6633 96.4358 74.67 95.8758 74.67H95.1458V73.98ZM95.1258 70.28H99.2258V72.75H95.9558V74.4H95.1458V72.1H98.4158V70.95H95.1258V70.28ZM96.2458 75.59H102.086V78.66H96.2458V75.59ZM101.276 76.26H97.0558V77.98H101.276V76.26ZM107.425 70.59H108.155V70.86C108.155 71.24 108.062 71.5933 107.875 71.92C107.688 72.24 107.432 72.5267 107.105 72.78C106.785 73.0267 106.415 73.2333 105.995 73.4C105.582 73.56 105.142 73.6767 104.675 73.75L104.365 73.08C104.685 73.04 104.995 72.9733 105.295 72.88C105.602 72.78 105.882 72.6633 106.135 72.53C106.388 72.39 106.612 72.2333 106.805 72.06C106.998 71.88 107.148 71.69 107.255 71.49C107.368 71.29 107.425 71.08 107.425 70.86V70.59ZM107.765 70.59H108.495V70.86C108.495 71.08 108.548 71.29 108.655 71.49C108.768 71.69 108.922 71.8767 109.115 72.05C109.308 72.2233 109.532 72.38 109.785 72.52C110.045 72.66 110.325 72.78 110.625 72.88C110.925 72.9733 111.235 73.04 111.555 73.08L111.245 73.75C110.785 73.6767 110.345 73.5567 109.925 73.39C109.505 73.2233 109.135 73.0167 108.815 72.77C108.495 72.5167 108.238 72.23 108.045 71.91C107.858 71.59 107.765 71.24 107.765 70.86V70.59ZM104.625 70.17H111.305V70.85H104.625V70.17ZM104.925 77.9H111.135V78.58H104.925V77.9ZM104.925 76.02H105.755V78.17H104.925V76.02ZM103.875 74.61H112.065V75.29H103.875V74.61ZM107.545 73.11H108.365V74.89H107.545V73.11ZM120.204 71.37H122.524V72.05H120.204V71.37ZM122.174 69.73H123.004V74.4H122.174V69.73ZM117.184 74.86H123.004V77.03H118.014V78.4H117.204V76.4H122.184V75.52H117.184V74.86ZM117.204 77.99H123.334V78.66H117.204V77.99ZM117.824 70.02H118.494V70.86C118.494 71.4133 118.391 71.93 118.184 72.41C117.978 72.8833 117.688 73.2933 117.314 73.64C116.941 73.98 116.501 74.24 115.994 74.42L115.554 73.76C116.008 73.6067 116.404 73.3867 116.744 73.1C117.084 72.8133 117.348 72.48 117.534 72.1C117.728 71.7133 117.824 71.3 117.824 70.86V70.02ZM117.954 70.02H118.634V70.86C118.634 71.1533 118.688 71.44 118.794 71.72C118.901 71.9933 119.051 72.25 119.244 72.49C119.444 72.73 119.681 72.9433 119.954 73.13C120.228 73.31 120.528 73.4533 120.854 73.56L120.414 74.21C119.928 74.0367 119.498 73.7867 119.124 73.46C118.758 73.1267 118.471 72.74 118.264 72.3C118.058 71.8533 117.954 71.3733 117.954 70.86V70.02ZM129.594 72.08H131.624V72.77H129.594V72.08ZM131.374 69.73H132.204V75.12H131.374V69.73ZM129.224 75.4C129.85 75.4 130.387 75.4667 130.834 75.6C131.287 75.7333 131.634 75.9267 131.874 76.18C132.114 76.4267 132.234 76.73 132.234 77.09C132.234 77.6233 131.964 78.0367 131.424 78.33C130.89 78.6233 130.157 78.77 129.224 78.77C128.29 78.77 127.554 78.6233 127.014 78.33C126.48 78.0367 126.214 77.6233 126.214 77.09C126.214 76.73 126.334 76.4267 126.574 76.18C126.82 75.9267 127.167 75.7333 127.614 75.6C128.067 75.4667 128.604 75.4 129.224 75.4ZM129.224 76.05C128.77 76.05 128.38 76.09 128.054 76.17C127.727 76.25 127.474 76.3667 127.294 76.52C127.12 76.6733 127.034 76.8633 127.034 77.09C127.034 77.3033 127.12 77.4867 127.294 77.64C127.474 77.7933 127.727 77.9133 128.054 78C128.38 78.08 128.77 78.12 129.224 78.12C129.684 78.12 130.074 78.08 130.394 78C130.72 77.9133 130.97 77.7933 131.144 77.64C131.324 77.4867 131.414 77.3033 131.414 77.09C131.414 76.8633 131.324 76.6733 131.144 76.52C130.97 76.3667 130.72 76.25 130.394 76.17C130.074 76.09 129.684 76.05 129.224 76.05ZM127.064 70.65H127.744V71.38C127.744 71.9333 127.637 72.4533 127.424 72.94C127.217 73.42 126.924 73.8433 126.544 74.21C126.164 74.57 125.724 74.8467 125.224 75.04L124.794 74.38C125.134 74.26 125.44 74.0967 125.714 73.89C125.994 73.6833 126.234 73.4467 126.434 73.18C126.64 72.9133 126.797 72.6267 126.904 72.32C127.01 72.0133 127.064 71.7 127.064 71.38V70.65ZM127.224 70.65H127.904V71.37C127.904 71.7567 127.994 72.1333 128.174 72.5C128.354 72.8667 128.61 73.19 128.944 73.47C129.277 73.75 129.66 73.97 130.094 74.13L129.674 74.79C129.18 74.61 128.75 74.35 128.384 74.01C128.017 73.6633 127.73 73.2633 127.524 72.81C127.324 72.3567 127.224 71.8767 127.224 71.37V70.65ZM125.054 70.39H129.884V71.07H125.054V70.39ZM140.593 75.41C141.206 75.41 141.733 75.4767 142.173 75.61C142.62 75.7433 142.963 75.9333 143.203 76.18C143.443 76.4267 143.563 76.7267 143.563 77.08C143.563 77.4333 143.443 77.7367 143.203 77.99C142.963 78.2433 142.62 78.4367 142.173 78.57C141.733 78.7033 141.206 78.77 140.593 78.77C139.98 78.77 139.45 78.7033 139.003 78.57C138.556 78.4367 138.213 78.2433 137.973 77.99C137.733 77.7367 137.613 77.4333 137.613 77.08C137.613 76.7267 137.733 76.4267 137.973 76.18C138.213 75.9333 138.556 75.7433 139.003 75.61C139.45 75.4767 139.98 75.41 140.593 75.41ZM140.593 76.07C140.146 76.07 139.76 76.11 139.433 76.19C139.113 76.27 138.866 76.3867 138.693 76.54C138.52 76.6867 138.433 76.8667 138.433 77.08C138.433 77.3 138.52 77.4867 138.693 77.64C138.866 77.7933 139.113 77.91 139.433 77.99C139.76 78.07 140.146 78.11 140.593 78.11C141.04 78.11 141.423 78.07 141.743 77.99C142.063 77.91 142.31 77.7933 142.483 77.64C142.656 77.4867 142.743 77.3 142.743 77.08C142.743 76.8667 142.656 76.6867 142.483 76.54C142.31 76.3867 142.063 76.27 141.743 76.19C141.423 76.11 141.04 76.07 140.593 76.07ZM142.643 69.73H143.473V75.16H142.643V69.73ZM143.243 72H144.803V72.7H143.243V72ZM136.823 70.3H137.643V71.66H140.193V70.3H141.013V74.47H136.823V70.3ZM137.643 72.32V73.8H140.193V72.32H137.643ZM146.092 70.2H146.922V71.58H149.362V70.2H150.182V74.34H146.092V70.2ZM146.922 72.24V73.66H149.362V72.24H146.922ZM149.952 71.95H152.502V72.64H149.952V71.95ZM152.262 69.73H153.092V74.67H152.262V69.73ZM147.302 75.11H148.122V76.2H152.262V75.11H153.082V78.65H147.302V75.11ZM148.122 76.86V77.97H152.262V76.86H148.122ZM157.342 74.03H165.522V74.72H157.342V74.03ZM158.372 72.5H164.562V73.18H158.372V72.5ZM158.372 70.09H164.502V70.77H159.192V72.82H158.372V70.09ZM161.422 75.5C162.388 75.5 163.145 75.6433 163.692 75.93C164.238 76.2167 164.512 76.6167 164.512 77.13C164.512 77.65 164.238 78.05 163.692 78.33C163.145 78.6167 162.388 78.76 161.422 78.76C160.455 78.76 159.695 78.6167 159.142 78.33C158.595 78.05 158.322 77.65 158.322 77.13C158.322 76.6167 158.595 76.2167 159.142 75.93C159.695 75.6433 160.455 75.5 161.422 75.5ZM161.412 76.15C160.945 76.15 160.542 76.19 160.202 76.27C159.868 76.3433 159.612 76.4533 159.432 76.6C159.252 76.7467 159.162 76.9233 159.162 77.13C159.162 77.3433 159.252 77.5233 159.432 77.67C159.612 77.81 159.868 77.92 160.202 78C160.542 78.0733 160.945 78.11 161.412 78.11C161.892 78.11 162.298 78.0733 162.632 78C162.972 77.92 163.232 77.81 163.412 77.67C163.592 77.5233 163.682 77.3433 163.682 77.13C163.682 76.9233 163.592 76.7467 163.412 76.6C163.232 76.4533 162.972 76.3433 162.632 76.27C162.298 76.19 161.892 76.15 161.412 76.15ZM170.211 73.25H171.911V73.93H170.211V73.25ZM173.431 69.73H174.231V78.78H173.431V69.73ZM171.631 69.92H172.421V78.32H171.631V69.92ZM168.571 70.49C168.964 70.49 169.304 70.6167 169.591 70.87C169.884 71.1233 170.111 71.4867 170.271 71.96C170.431 72.4333 170.511 72.99 170.511 73.63C170.511 74.2767 170.431 74.8367 170.271 75.31C170.111 75.7833 169.884 76.15 169.591 76.41C169.304 76.6633 168.964 76.79 168.571 76.79C168.191 76.79 167.854 76.6633 167.561 76.41C167.274 76.15 167.051 75.7833 166.891 75.31C166.731 74.8367 166.651 74.2767 166.651 73.63C166.651 72.99 166.731 72.4333 166.891 71.96C167.051 71.4867 167.274 71.1233 167.561 70.87C167.854 70.6167 168.191 70.49 168.571 70.49ZM168.571 71.26C168.338 71.26 168.134 71.3567 167.961 71.55C167.788 71.7433 167.654 72.0167 167.561 72.37C167.468 72.7233 167.421 73.1433 167.421 73.63C167.421 74.1167 167.468 74.54 167.561 74.9C167.654 75.2533 167.788 75.5267 167.961 75.72C168.134 75.9133 168.338 76.01 168.571 76.01C168.811 76.01 169.018 75.9133 169.191 75.72C169.371 75.5267 169.508 75.2533 169.601 74.9C169.694 74.54 169.741 74.1167 169.741 73.63C169.741 73.1433 169.694 72.7233 169.601 72.37C169.508 72.0167 169.371 71.7433 169.191 71.55C169.018 71.3567 168.811 71.26 168.571 71.26ZM185.11 69.73H185.9V78.78H185.11V69.73ZM183.58 73.36H185.32V74.04H183.58V73.36ZM183.06 69.93H183.83V78.31H183.06V69.93ZM178.55 75.85H179.14C179.587 75.85 179.99 75.8467 180.35 75.84C180.717 75.8267 181.064 75.8 181.39 75.76C181.724 75.72 182.064 75.6633 182.41 75.59L182.49 76.28C182.13 76.3533 181.78 76.41 181.44 76.45C181.107 76.49 180.754 76.5167 180.38 76.53C180.014 76.5433 179.6 76.55 179.14 76.55H178.55V75.85ZM178.55 70.83H181.91V71.51H179.38V76.17H178.55V70.83ZM187.41 71.28H191.9V71.96H187.41V71.28ZM189.66 72.56C190.04 72.56 190.373 72.6467 190.66 72.82C190.953 72.9933 191.183 73.2367 191.35 73.55C191.516 73.8567 191.6 74.2133 191.6 74.62C191.6 75.0267 191.516 75.3867 191.35 75.7C191.183 76.0067 190.953 76.25 190.66 76.43C190.373 76.6033 190.04 76.69 189.66 76.69C189.286 76.69 188.953 76.6033 188.66 76.43C188.366 76.25 188.136 76.0067 187.97 75.7C187.803 75.3867 187.72 75.0267 187.72 74.62C187.72 74.2133 187.803 73.8567 187.97 73.55C188.136 73.2433 188.366 73.0033 188.66 72.83C188.953 72.65 189.286 72.56 189.66 72.56ZM189.66 73.26C189.433 73.26 189.226 73.32 189.04 73.44C188.86 73.5533 188.716 73.7133 188.61 73.92C188.51 74.12 188.46 74.3533 188.46 74.62C188.46 74.8867 188.51 75.1233 188.61 75.33C188.716 75.5367 188.86 75.6967 189.04 75.81C189.226 75.9233 189.433 75.98 189.66 75.98C189.893 75.98 190.1 75.9233 190.28 75.81C190.46 75.6967 190.6 75.5367 190.7 75.33C190.806 75.1233 190.86 74.8867 190.86 74.62C190.86 74.3533 190.806 74.12 190.7 73.92C190.6 73.7133 190.46 73.5533 190.28 73.44C190.1 73.32 189.893 73.26 189.66 73.26ZM194.29 69.73H195.08V78.78H194.29V69.73ZM192.84 73.54H194.55V74.22H192.84V73.54ZM192.35 69.94H193.13V78.34H192.35V69.94ZM189.25 70H190.07V71.69H189.25V70ZM205.309 69.73H206.139V74.33H205.309V69.73ZM205.769 71.68H207.469V72.37H205.769V71.68ZM200.389 74.76H206.139V76.98H201.229V78.34H200.419V76.36H205.319V75.42H200.389V74.76ZM200.419 77.99H206.459V78.66H200.419V77.99ZM201.619 70.06C202.072 70.06 202.472 70.1433 202.819 70.31C203.172 70.4767 203.449 70.7133 203.649 71.02C203.849 71.32 203.949 71.67 203.949 72.07C203.949 72.4633 203.849 72.8133 203.649 73.12C203.449 73.42 203.172 73.6567 202.819 73.83C202.472 73.9967 202.072 74.08 201.619 74.08C201.172 74.08 200.772 73.9967 200.419 73.83C200.066 73.6567 199.786 73.42 199.579 73.12C199.379 72.8133 199.279 72.46 199.279 72.06C199.279 71.6667 199.379 71.32 199.579 71.02C199.786 70.7133 200.066 70.4767 200.419 70.31C200.772 70.1433 201.172 70.06 201.619 70.06ZM201.619 70.74C201.326 70.74 201.062 70.7967 200.829 70.91C200.602 71.0233 200.422 71.18 200.289 71.38C200.156 71.5733 200.089 71.8033 200.089 72.07C200.089 72.33 200.156 72.56 200.289 72.76C200.422 72.96 200.602 73.12 200.829 73.24C201.062 73.3533 201.326 73.41 201.619 73.41C201.912 73.41 202.172 73.3533 202.399 73.24C202.632 73.12 202.816 72.96 202.949 72.76C203.082 72.56 203.149 72.33 203.149 72.07C203.149 71.8033 203.082 71.5733 202.949 71.38C202.816 71.18 202.632 71.0233 202.399 70.91C202.172 70.7967 201.912 70.74 201.619 70.74ZM210.718 70.43C211.165 70.43 211.558 70.56 211.898 70.82C212.238 71.0733 212.505 71.4367 212.698 71.91C212.892 72.3833 212.988 72.94 212.988 73.58C212.988 74.22 212.892 74.7767 212.698 75.25C212.505 75.7233 212.238 76.09 211.898 76.35C211.558 76.61 211.165 76.74 210.718 76.74C210.278 76.74 209.885 76.61 209.538 76.35C209.198 76.09 208.932 75.7233 208.738 75.25C208.545 74.7767 208.448 74.22 208.448 73.58C208.448 72.94 208.545 72.3833 208.738 71.91C208.932 71.4367 209.198 71.0733 209.538 70.82C209.885 70.56 210.278 70.43 210.718 70.43ZM210.718 71.17C210.432 71.17 210.175 71.27 209.948 71.47C209.728 71.6633 209.555 71.9433 209.428 72.31C209.302 72.67 209.238 73.0933 209.238 73.58C209.238 74.0667 209.302 74.4933 209.428 74.86C209.555 75.22 209.728 75.5 209.948 75.7C210.175 75.9 210.435 76 210.728 76C211.015 76 211.268 75.9 211.488 75.7C211.715 75.5 211.888 75.22 212.008 74.86C212.135 74.4933 212.198 74.0667 212.198 73.58C212.198 73.0933 212.135 72.67 212.008 72.31C211.888 71.9433 211.715 71.6633 211.488 71.47C211.268 71.27 211.012 71.17 210.718 71.17ZM214.438 69.73H215.268V78.78H214.438V69.73ZM215.078 73.34H216.748V74.04H215.078V73.34ZM217.518 76.94H225.718V77.63H217.518V76.94ZM221.188 74.77H222.008V77.14H221.188V74.77ZM218.478 70.37H219.308V71.98H223.908V70.37H224.728V75H218.478V70.37ZM219.308 72.66V74.32H223.908V72.66H219.308ZM230.277 72.97H232.017V73.66H230.277V72.97ZM228.597 70.58H229.247V72.31C229.247 72.7767 229.197 73.2367 229.097 73.69C229.003 74.1433 228.863 74.57 228.677 74.97C228.497 75.37 228.277 75.73 228.017 76.05C227.757 76.37 227.463 76.63 227.137 76.83L226.617 76.21C226.923 76.0233 227.2 75.79 227.447 75.51C227.693 75.23 227.9 74.9167 228.067 74.57C228.24 74.2167 228.37 73.85 228.457 73.47C228.55 73.0833 228.597 72.6967 228.597 72.31V70.58ZM228.757 70.58H229.397V72.28C229.397 72.64 229.437 73.0033 229.517 73.37C229.603 73.73 229.723 74.0767 229.877 74.41C230.037 74.7367 230.233 75.0367 230.467 75.31C230.7 75.5833 230.963 75.81 231.257 75.99L230.787 76.63C230.46 76.43 230.17 76.1767 229.917 75.87C229.663 75.5567 229.45 75.2067 229.277 74.82C229.103 74.4267 228.973 74.0133 228.887 73.58C228.8 73.1467 228.757 72.7133 228.757 72.28V70.58ZM233.607 69.73H234.407V78.78H233.607V69.73ZM231.767 69.92H232.547V78.32H231.767V69.92ZM237.926 74.39H238.746V77.09H237.926V74.39ZM241.266 74.39H242.096V77.09H241.266V74.39ZM235.916 76.93H244.116V77.62H235.916V76.93ZM239.996 70.3C240.636 70.3 241.203 70.3967 241.696 70.59C242.189 70.7833 242.576 71.0533 242.856 71.4C243.143 71.7467 243.286 72.1567 243.286 72.63C243.286 73.0967 243.143 73.5067 242.856 73.86C242.576 74.2067 242.189 74.4767 241.696 74.67C241.203 74.8567 240.636 74.95 239.996 74.95C239.363 74.95 238.796 74.8567 238.296 74.67C237.803 74.4767 237.416 74.2067 237.136 73.86C236.856 73.5067 236.716 73.0967 236.716 72.63C236.716 72.1567 236.856 71.7467 237.136 71.4C237.416 71.0533 237.803 70.7833 238.296 70.59C238.796 70.3967 239.363 70.3 239.996 70.3ZM239.996 70.96C239.516 70.96 239.089 71.03 238.716 71.17C238.343 71.31 238.049 71.5067 237.836 71.76C237.623 72.0067 237.516 72.2967 237.516 72.63C237.516 72.9633 237.623 73.2567 237.836 73.51C238.049 73.7567 238.343 73.95 238.716 74.09C239.089 74.23 239.516 74.3 239.996 74.3C240.483 74.3 240.913 74.23 241.286 74.09C241.659 73.95 241.953 73.7567 242.166 73.51C242.379 73.2567 242.486 72.9633 242.486 72.63C242.486 72.2967 242.379 72.0067 242.166 71.76C241.953 71.5067 241.659 71.31 241.286 71.17C240.913 71.03 240.483 70.96 239.996 70.96ZM246.578 70.8906L246.461 75.9053H245.455L245.333 70.8906H246.578ZM245.299 77.4434C245.299 77.2643 245.357 77.1146 245.475 76.9941C245.595 76.8704 245.761 76.8086 245.973 76.8086C246.181 76.8086 246.345 76.8704 246.466 76.9941C246.586 77.1146 246.646 77.2643 246.646 77.4434C246.646 77.6159 246.586 77.764 246.466 77.8877C246.345 78.0081 246.181 78.0684 245.973 78.0684C245.761 78.0684 245.595 78.0081 245.475 77.8877C245.357 77.764 245.299 77.6159 245.299 77.4434Z" fill="#3B566E"/>
<defs>
<filter id="filter0_d_79_1578" x="0" y="0" width="391" height="138" filterUnits="userSpaceOnUse" color-interpolation-filters="sRGB">
<feFlood flood-opacity="0" result="BackgroundImageFix"/>
<feColorMatrix in="SourceAlpha" type="matrix" values="0 0 0 0 0 0 0 0 0 0 0 0 0 0 0 0 0 0 127 0" result="hardAlpha"/>
<feOffset dy="4"/>
<feGaussianBlur stdDeviation="2"/>
<feComposite in2="hardAlpha" operator="out"/>
<feColorMatrix type="matrix" values="0 0 0 0 0 0 0 0 0 0 0 0 0 0 0 0 0 0 0.25 0"/>
<feBlend mode="normal" in2="BackgroundImageFix" result="effect1_dropShadow_79_1578"/>
<feBlend mode="normal" in="SourceGraphic" in2="effect1_dropShadow_79_1578" result="shape"/>
</filter>
</defs>
</svg>
