<svg width="18" height="18" viewBox="0 0 18 18" fill="none" xmlns="http://www.w3.org/2000/svg">
<path fill-rule="evenodd" clip-rule="evenodd" d="M9.5067 1.08H8.4933L7.9128 3.4002L7.3305 3.5802C6.99119 3.68476 6.66244 3.82096 6.3486 3.987L5.8095 4.2723L3.7575 3.0411L3.0411 3.7584L4.2723 5.8104L3.987 6.3486C3.82065 6.66241 3.68415 6.99115 3.5793 7.3305L3.4002 7.9128L1.08 8.4933V9.5067L3.4002 10.0872L3.5802 10.6695C3.684 11.0103 3.8196 11.3376 3.987 11.6514L4.2723 12.1905L3.0411 14.2425L3.7584 14.9589L5.8104 13.7277L6.3486 14.013C6.6624 14.1798 6.9897 14.3157 7.3305 14.4207L7.9128 14.5998L8.4933 16.92H9.5067L10.0872 14.5998L10.6695 14.4198C11.0088 14.3152 11.3376 14.179 11.6514 14.013L12.1905 13.7277L14.2425 14.9589L14.9589 14.2416L13.7277 12.1896L14.013 11.6514C14.1798 11.3376 14.3157 11.0103 14.4207 10.6695L14.5998 10.0872L16.92 9.5067V8.4933L14.5998 7.9128L14.4198 7.3305C14.3152 6.99119 14.179 6.66244 14.013 6.3486L13.7277 5.8095L14.9589 3.7575L14.2416 3.0411L12.1896 4.2723L11.6514 3.987C11.3376 3.82065 11.0088 3.68415 10.6695 3.5793L10.0872 3.4002L9.5067 1.08ZM12.1572 3.033L13.8069 2.043C13.9789 1.93983 14.1805 1.89707 14.3796 1.92153C14.5787 1.94599 14.7639 2.03626 14.9058 2.178L15.822 3.0942C15.9637 3.23613 16.054 3.42134 16.0785 3.62044C16.1029 3.81953 16.0602 4.02108 15.957 4.1931L14.967 5.8428C15.165 6.2148 15.327 6.6048 15.453 7.0128L17.3187 7.4799C17.5133 7.52865 17.6861 7.64104 17.8095 7.79921C17.9329 7.95738 18 8.15226 18 8.3529V9.6471C18 9.84774 17.9329 10.0426 17.8095 10.2008C17.6861 10.359 17.5133 10.4713 17.3187 10.5201L15.453 10.9872C15.327 11.3952 15.165 11.7852 14.967 12.1572L15.957 13.8069C16.0602 13.9789 16.1029 14.1805 16.0785 14.3796C16.054 14.5787 15.9637 14.7639 15.822 14.9058L14.9058 15.822C14.7639 15.9637 14.5787 16.054 14.3796 16.0785C14.1805 16.1029 13.9789 16.0602 13.8069 15.957L12.1572 14.967C11.7852 15.165 11.3952 15.327 10.9872 15.453L10.5201 17.3187C10.4713 17.5133 10.359 17.6861 10.2008 17.8095C10.0426 17.9329 9.84774 18 9.6471 18H8.3529C8.15226 18 7.95738 17.9329 7.79921 17.8095C7.64104 17.6861 7.52865 17.5133 7.4799 17.3187L7.0128 15.453C6.60843 15.328 6.2167 15.1653 5.8428 14.967L4.1931 15.957C4.02108 16.0602 3.81953 16.1029 3.62044 16.0785C3.42134 16.054 3.23613 15.9637 3.0942 15.822L2.178 14.9058C2.03626 14.7639 1.94599 14.5787 1.92153 14.3796C1.89707 14.1805 1.93983 13.9789 2.043 13.8069L3.033 12.1572C2.83468 11.7833 2.67196 11.3916 2.547 10.9872L0.6813 10.5201C0.486828 10.4714 0.314189 10.3591 0.190766 10.2011C0.0673443 10.0432 0.000205778 9.84848 0 9.648V8.3538C5.27439e-06 8.15316 0.0670519 7.95828 0.19049 7.80011C0.313928 7.64194 0.486678 7.52955 0.6813 7.4808L2.547 7.0137C2.673 6.6057 2.835 6.2157 3.033 5.8437L2.043 4.194C1.93983 4.02198 1.89707 3.82043 1.92153 3.62134C1.94599 3.42224 2.03626 3.23703 2.178 3.0951L3.0942 2.178C3.23613 2.03626 3.42134 1.94599 3.62044 1.92153C3.81953 1.89707 4.02108 1.93983 4.1931 2.043L5.8428 3.033C6.2148 2.835 6.6048 2.673 7.0128 2.547L7.4799 0.6813C7.52862 0.486828 7.64087 0.314189 7.79886 0.190766C7.95685 0.0673443 8.15152 0.000205778 8.352 0H9.6462C9.84684 5.27439e-06 10.0417 0.0670519 10.1999 0.19049C10.3581 0.313928 10.4704 0.486678 10.5192 0.6813L10.9863 2.547C11.3943 2.673 11.7843 2.835 12.1563 3.033H12.1572ZM9 11.52C9.66835 11.52 10.3093 11.2545 10.7819 10.7819C11.2545 10.3093 11.52 9.66835 11.52 9C11.52 8.33165 11.2545 7.69068 10.7819 7.21809C10.3093 6.7455 9.66835 6.48 9 6.48C8.33165 6.48 7.69068 6.7455 7.21809 7.21809C6.7455 7.69068 6.48 8.33165 6.48 9C6.48 9.66835 6.7455 10.3093 7.21809 10.7819C7.69068 11.2545 8.33165 11.52 9 11.52ZM9 12.6C8.04522 12.6 7.12955 12.2207 6.45442 11.5456C5.77928 10.8705 5.4 9.95478 5.4 9C5.4 8.04522 5.77928 7.12955 6.45442 6.45442C7.12955 5.77928 8.04522 5.4 9 5.4C9.95478 5.4 10.8705 5.77928 11.5456 6.45442C12.2207 7.12955 12.6 8.04522 12.6 9C12.6 9.95478 12.2207 10.8705 11.5456 11.5456C10.8705 12.2207 9.95478 12.6 9 12.6Z" fill="#888888"/>
</svg>
