<svg width="30" height="30" viewBox="0 0 30 30" fill="none" xmlns="http://www.w3.org/2000/svg">
<g clip-path="url(#clip0_16_771)">
<path d="M27.3486 14.2244V5.05371C27.3486 4.91625 27.311 4.79045 27.2549 4.67467C27.2887 4.58098 27.3486 4.4983 27.3486 4.39453C27.3486 4.0023 27.0886 3.65724 26.7109 3.54908L14.4062 0.0334558C14.2483 -0.0111926 14.0818 -0.0111926 13.9239 0.0334558L1.61918 3.54908C1.24148 3.65724 0.981445 4.0023 0.981445 4.39453C0.981445 4.78676 1.24148 5.13182 1.61918 5.23998L6.25488 6.56443V7.60459C6.25488 8.60449 6.81024 9.52377 7.66939 9.94605C11.609 11.8824 16.7194 11.8815 20.6607 9.94693C21.5199 9.52465 22.0753 8.60537 22.0753 7.60459V6.56443L25.5909 5.56002V14.2244C24.5701 14.5884 23.8331 15.5549 23.8331 16.6992V18.457C23.8331 18.9428 24.2262 19.3359 24.712 19.3359H28.2276C28.7134 19.3359 29.1065 18.9428 29.1065 18.457V16.6992C29.1064 15.5549 28.3695 14.5885 27.3486 14.2244Z" fill="#4071B9"/>
<path d="M21.347 11.6417C19.1377 12.7274 16.6238 13.3008 14.0772 13.3008C11.5306 13.3008 9.01574 12.7266 6.80558 11.6408C6.58972 11.5347 6.41095 11.3774 6.21912 11.2373C6.40685 14.4008 8.10888 17.0851 10.5143 18.4604C10.5143 18.4604 11.7481 19.0433 12.1336 19.1528L12.1351 19.1499C12.7594 19.328 13.4022 19.4532 14.0771 19.4532C14.6951 19.4532 15.5754 19.3298 16.455 19.005C16.8602 18.8608 17.6372 18.4622 17.6372 18.4622C20.044 17.0874 21.7472 14.4022 21.9352 11.2376C21.7428 11.378 21.5635 11.5353 21.347 11.6417Z" fill="#7AA7E5"/>
<path d="M14.0771 21.2109C13.3686 21.2109 12.6867 21.1016 12.0223 20.9412L14.0771 24.0234L16.1203 20.9442C15.4594 21.1026 14.7816 21.2109 14.0771 21.2109Z" fill="#9CAFE2"/>
<path d="M19.1364 19.6345C19.1208 19.645 19.1034 19.6522 19.0879 19.6626L18.3486 20.7715C18.3486 20.8124 14.9787 25.8526 14.9561 25.8867V30H26.3818C26.8676 30 27.2607 29.6069 27.2607 29.1211C27.2607 24.3214 23.7282 20.3816 19.1364 19.6345ZM21.1084 26.4844H19.3506C18.8648 26.4844 18.4717 26.0913 18.4717 25.6055C18.4717 25.1197 18.8648 24.7266 19.3506 24.7266H21.1084C21.5942 24.7266 21.9873 25.1197 21.9873 25.6055C21.9873 26.0913 21.5942 26.4844 21.1084 26.4844Z" fill="#4071B9"/>
<path d="M9.05045 19.6525C9.03615 19.6429 9.02022 19.6363 9.00592 19.6266C4.41902 20.3788 0.893555 24.3244 0.893555 29.1211C0.893555 29.6069 1.28666 30 1.77246 30H13.1982V25.8867C9.2151 19.9017 10.0279 21.1235 9.05045 19.6525Z" fill="#4071B9"/>
</g>
<defs>
<clipPath id="clip0_16_771">
<rect width="30" height="30" fill="white"/>
</clipPath>
</defs>
</svg>
