<svg width="25" height="25" viewBox="0 0 25 25" fill="none" xmlns="http://www.w3.org/2000/svg">
    <g clip-path="url(#clip0_11_46)">
        <path d="M12.5625 14.2986C12.1886 14.3014 11.8264 14.4294 11.5338 14.662C11.2411 14.8947 11.0347 15.2186 10.9476 15.5822C10.8605 15.9459 10.8977 16.3282 11.0532 16.6682C11.2087 17.0082 11.4735 17.2864 11.8055 17.4583V19.4444H13.1944V17.5208C13.553 17.3739 13.8495 17.107 14.0332 16.7659C14.217 16.4247 14.2767 16.0304 14.2021 15.6501C14.1275 15.2698 13.9233 14.9272 13.6243 14.6808C13.3253 14.4343 12.95 14.2992 12.5625 14.2986Z"
              fill="#969696"/>
        <path d="M18.0556 10.4167V7.44447C18.0854 5.93884 17.5176 4.48269 16.4764 3.39467C15.4353 2.30665 14.0055 1.67535 12.5 1.63892C10.9945 1.67535 9.56476 2.30665 8.52359 3.39467C7.48242 4.48269 6.91462 5.93884 6.94445 7.44447V10.4167H4.86111V22.2222C4.86111 22.5906 5.00744 22.9439 5.26791 23.2043C5.52838 23.4648 5.88165 23.6111 6.25 23.6111H18.75C19.1184 23.6111 19.4716 23.4648 19.7321 23.2043C19.9926 22.9439 20.1389 22.5906 20.1389 22.2222V10.4167H18.0556ZM8.33334 7.44447C8.3034 6.30714 8.72483 5.20418 9.50557 4.37661C10.2863 3.54903 11.3629 3.06411 12.5 3.02781C13.6372 3.06411 14.7137 3.54903 15.4944 4.37661C16.2752 5.20418 16.6966 6.30714 16.6667 7.44447V10.4167H8.33334V7.44447ZM6.25 22.2222V11.8056H18.75V22.2222H6.25Z"
              fill="#969696"/>
    </g>
    <defs>
        <clipPath id="clip0_11_46">
            <rect width="25" height="25" fill="white"/>
        </clipPath>
    </defs>
</svg>
