<svg width="26" height="26" viewBox="0 0 26 26" fill="none" xmlns="http://www.w3.org/2000/svg">
    <path d="M4.33334 19.5001C4.33334 18.3508 4.78989 17.2486 5.60255 16.436C6.4152 15.6233 7.51741 15.1667 8.66668 15.1667H17.3333C18.4826 15.1667 19.5848 15.6233 20.3975 16.436C21.2101 17.2486 21.6667 18.3508 21.6667 19.5001C21.6667 20.0747 21.4384 20.6258 21.0321 21.0321C20.6257 21.4385 20.0746 21.6667 19.5 21.6667H6.50001C5.92537 21.6667 5.37427 21.4385 4.96795 21.0321C4.56162 20.6258 4.33334 20.0747 4.33334 19.5001Z"
          stroke="#969696" stroke-width="1.5" stroke-linejoin="round"/>
    <path d="M13 10.8334C14.7949 10.8334 16.25 9.3783 16.25 7.58337C16.25 5.78845 14.7949 4.33337 13 4.33337C11.2051 4.33337 9.75 5.78845 9.75 7.58337C9.75 9.3783 11.2051 10.8334 13 10.8334Z"
          stroke="#969696" stroke-width="1.5"/>
</svg>
