<svg width="24" height="24" viewBox="0 0 24 24" fill="none" xmlns="http://www.w3.org/2000/svg">
<path d="M4.15667 0.758606C3.35892 0.758756 2.58402 1.02523 1.95462 1.51586C1.32521 2.00648 0.87727 2.69322 0.681694 3.46737C1.03179 3.3462 1.40601 3.31171 1.77232 3.36687C2.13864 3.42204 2.48616 3.5652 2.78514 3.78412C3.08413 4.00304 3.32568 4.2912 3.48915 4.62394C3.65261 4.95669 3.73311 5.32412 3.72376 5.6948C3.71442 6.06549 3.61551 6.42838 3.43549 6.75246C3.25547 7.07653 2.9997 7.35213 2.69007 7.55567C2.38043 7.75922 2.02614 7.88466 1.65751 7.92126C1.28888 7.95785 0.916882 7.90452 0.573334 7.76582V17.8319C0.573334 18.7832 0.950862 19.6955 1.62287 20.3681C2.29487 21.0408 3.20631 21.4187 4.15667 21.4187H10.9186C10.1513 20.2198 9.74447 18.8253 9.74667 17.4015C9.74667 16.0425 10.1096 14.7684 10.7443 13.6712H7.02333C6.83326 13.6712 6.65097 13.5956 6.51657 13.4611C6.38217 13.3265 6.30667 13.1441 6.30667 12.9538C6.30667 12.7635 6.38217 12.5811 6.51657 12.4465C6.65097 12.312 6.83326 12.2364 7.02333 12.2364H11.8221C13.1781 10.8218 15.0861 9.94087 17.2 9.94087C18.6775 9.94087 20.0552 10.3713 21.2133 11.1139V4.34543C21.2133 3.39414 20.8358 2.48182 20.1638 1.80916C19.4918 1.1365 18.5804 0.758606 17.63 0.758606H4.15667ZM6.30667 8.93656C6.30667 8.54058 6.62773 8.2192 7.02333 8.2192H14.7633C14.8574 8.2192 14.9506 8.23775 15.0376 8.2738C15.1245 8.30985 15.2035 8.36269 15.2701 8.42931C15.3366 8.49592 15.3894 8.575 15.4254 8.66204C15.4615 8.74907 15.48 8.84236 15.48 8.93656C15.48 9.03077 15.4615 9.12405 15.4254 9.21109C15.3894 9.29812 15.3366 9.3772 15.2701 9.44382C15.2035 9.51043 15.1245 9.56327 15.0376 9.59932C14.9506 9.63537 14.8574 9.65393 14.7633 9.65393H7.02333C6.62773 9.65393 6.30667 9.33255 6.30667 8.93656Z" fill="#9CAFE2"/>
<path d="M1.43334 4.20197C1.24502 4.20166 1.0585 4.23857 0.884465 4.31056C0.710429 4.38256 0.552299 4.48823 0.419142 4.62152C0.285984 4.7548 0.180417 4.91309 0.108493 5.08729C0.0365678 5.2615 -0.000300185 5.4482 1.84073e-06 5.6367C-0.000300185 5.82519 0.0365678 6.0119 0.108493 6.1861C0.180417 6.36031 0.285984 6.51859 0.419142 6.65188C0.552299 6.78516 0.710429 6.89083 0.884465 6.96283C1.0585 7.03482 1.24502 7.07173 1.43334 7.07143C1.81348 7.07143 2.17805 6.92027 2.44686 6.6512C2.71566 6.38214 2.86667 6.01721 2.86667 5.6367C2.86667 5.25618 2.71566 4.89125 2.44686 4.62219C2.17805 4.35313 1.81348 4.20197 1.43334 4.20197Z" fill="#9CAFE2"/>
<path d="M23.5067 17.4015C23.5067 20.8879 20.683 23.7143 17.2 23.7143C13.717 23.7143 10.8933 20.8879 10.8933 17.4015C10.8933 13.9151 13.717 11.0887 17.2 11.0887C20.683 11.0887 23.5067 13.9151 23.5067 17.4015ZM17.7733 13.3843C17.7733 13.232 17.7129 13.0861 17.6054 12.9784C17.4979 12.8708 17.3521 12.8104 17.2 12.8104C17.0479 12.8104 16.9021 12.8708 16.7946 12.9784C16.6871 13.0861 16.6267 13.232 16.6267 13.3843V16.8276H13.1867C13.0346 16.8276 12.8888 16.8881 12.7813 16.9957C12.6737 17.1033 12.6133 17.2493 12.6133 17.4015C12.6133 17.5537 12.6737 17.6997 12.7813 17.8073C12.8888 17.9149 13.0346 17.9754 13.1867 17.9754H16.6267V21.4187C16.6267 21.5709 16.6871 21.7169 16.7946 21.8245C16.9021 21.9322 17.0479 21.9926 17.2 21.9926C17.3521 21.9926 17.4979 21.9322 17.6054 21.8245C17.7129 21.7169 17.7733 21.5709 17.7733 21.4187V17.9754H21.2133C21.3654 17.9754 21.5112 17.9149 21.6187 17.8073C21.7263 17.6997 21.7867 17.5537 21.7867 17.4015C21.7867 17.2493 21.7263 17.1033 21.6187 16.9957C21.5112 16.8881 21.3654 16.8276 21.2133 16.8276H17.7733V13.3843Z" fill="#9CAFE2"/>
</svg>
