<svg width="18" height="18" viewBox="0 0 18 18" fill="none" xmlns="http://www.w3.org/2000/svg">
<path fill-rule="evenodd" clip-rule="evenodd" d="M16.3193 18C17.3292 18 18 17.1198 18 16.2273C18 14.3674 17.2133 12.6665 15.6485 11.4522C14.1024 10.2525 11.8606 9.57419 8.99959 9.57419C6.13875 9.57424 3.89755 10.2525 2.35147 11.4522C0.786591 12.6665 2.69428e-05 14.3674 0 16.2273C0 17.1197 0.670167 17.9998 1.67986 18H16.3193Z" fill="#B0B8C1"/>
<path fill-rule="evenodd" clip-rule="evenodd" d="M12.9057 3.90529C12.9057 6.06231 11.1566 7.81141 8.99959 7.81141C6.84272 7.81124 5.09429 6.0622 5.09429 3.90529C5.09447 1.74854 6.84283 0.000178522 8.99959 0C11.1565 0 12.9055 1.74843 12.9057 3.90529Z" fill="#B0B8C1"/>
</svg>
